M48
;DRILL file {KiCad 5.0.2-bee76a0~70~ubuntu16.04.1} date Sat 16 Mar 2019 11:42:18 AM MDT
;FORMAT={-:-/ absolute / inch / decimal}
FMAT,2
INCH,TZ
T1C0.0157
T2C0.0250
T3C0.0300
T4C0.0315
T5C0.0354
T6C0.0394
T7C0.0433
T8C0.0512
T9C0.0700
T10C0.0984
%
G90
G05
T1
X4.715Y-2.9625
X4.7575Y-2.765
X4.985Y-2.45
X4.985Y-2.68
X5.73Y-3.845
X5.81Y-2.71
X5.8125Y-3.86
X5.89Y-3.845
X6.13Y-2.78
X6.13Y-3.02
X6.1325Y-3.85
X6.24Y-2.78
X6.24Y-3.02
X6.35Y-2.78
X6.35Y-3.02
X6.44Y-2.78
X6.44Y-3.02
X6.49Y-2.89
T2
X3.4275Y-3.62
X4.195Y-4.5975
X4.615Y-4.4075
X5.69Y-4.415
T3
X3.43Y-4.305
X3.64Y-5.465
X3.84Y-5.465
X4.05Y-4.305
T4
X4.745Y-3.1525
X4.745Y-3.2525
X4.745Y-3.3525
X4.745Y-3.4525
X5.045Y-3.1525
X5.045Y-3.2525
X5.045Y-3.3525
X5.045Y-3.4525
X3.88Y-2.545
X3.88Y-2.645
X3.88Y-2.745
X3.88Y-2.845
X3.88Y-2.945
X3.88Y-3.045
X3.88Y-3.145
X3.88Y-3.245
X3.88Y-3.345
X3.88Y-3.445
X3.88Y-3.545
X3.88Y-3.645
X3.88Y-3.745
X3.88Y-3.845
X3.88Y-3.945
X4.48Y-2.545
X4.48Y-2.645
X4.48Y-2.745
X4.48Y-2.845
X4.48Y-2.945
X4.48Y-3.045
X4.48Y-3.145
X4.48Y-3.245
X4.48Y-3.345
X4.48Y-3.445
X4.48Y-3.545
X4.48Y-3.645
X4.48Y-3.745
X4.48Y-3.845
X4.48Y-3.945
X3.635Y-2.495
X3.635Y-2.595
X3.635Y-2.695
T5
X5.24Y-2.455
X5.24Y-2.555
X4.72Y-4.595
X5.02Y-4.595
X4.8525Y-2.455
X4.8525Y-2.555
X5.86Y-4.595
X6.16Y-4.595
T6
X4.6218Y-4.8968
X5.0943Y-4.8968
X5.7618Y-4.9018
X6.2343Y-4.9018
T7
X4.7416Y-3.7525
X4.7416Y-3.9297
X4.9975Y-3.7525
X4.9975Y-3.9297
T8
X3.6931Y-5.885
X3.89Y-5.885
X4.0869Y-5.885
X4.4763Y-5.89
X4.6731Y-5.89
X4.87Y-5.89
X5.0669Y-5.89
X4.6218Y-5.3771
X4.86Y-4.82
X5.0962Y-5.3791
X5.7618Y-5.3821
X6.Y-4.825
X6.2362Y-5.3841
X3.55Y-2.9463
X3.55Y-3.1431
X3.55Y-3.34
X5.6063Y-5.89
X5.8031Y-5.89
X6.Y-5.89
X6.1969Y-5.89
T10
X6.435Y-2.425
X3.4225Y-6.05
X6.4375Y-6.05
X3.42Y-2.43
T9
X5.56Y-5.1375G85X5.56Y-5.2325
G05
X5.56Y-5.4525G85X5.56Y-5.5475
G05
X4.415Y-5.1325G85X4.415Y-5.2275
G05
X4.415Y-5.4475G85X4.415Y-5.5425
G05
T0
M30
