G04 #@! TF.GenerationSoftware,KiCad,Pcbnew,5.0.2-bee76a0~70~ubuntu16.04.1*
G04 #@! TF.CreationDate,2019-03-16T11:45:13-06:00*
G04 #@! TF.ProjectId,LORA_Relay_AC,4c4f5241-5f52-4656-9c61-795f41432e6b,rev?*
G04 #@! TF.SameCoordinates,Original*
G04 #@! TF.FileFunction,Copper,L2,Bot*
G04 #@! TF.FilePolarity,Positive*
%FSLAX46Y46*%
G04 Gerber Fmt 4.6, Leading zero omitted, Abs format (unit mm)*
G04 Created by KiCad (PCBNEW 5.0.2-bee76a0~70~ubuntu16.04.1) date Sat 16 Mar 2019 11:45:13 AM MDT*
%MOMM*%
%LPD*%
G01*
G04 APERTURE LIST*
G04 #@! TA.AperFunction,ComponentPad*
%ADD10C,2.500000*%
G04 #@! TD*
G04 #@! TA.AperFunction,ComponentPad*
%ADD11R,2.500000X2.500000*%
G04 #@! TD*
G04 #@! TA.AperFunction,ComponentPad*
%ADD12C,3.000000*%
G04 #@! TD*
G04 #@! TA.AperFunction,ComponentPad*
%ADD13C,1.800000*%
G04 #@! TD*
G04 #@! TA.AperFunction,ComponentPad*
%ADD14R,1.800000X1.800000*%
G04 #@! TD*
G04 #@! TA.AperFunction,ComponentPad*
%ADD15O,1.800000X1.800000*%
G04 #@! TD*
G04 #@! TA.AperFunction,ComponentPad*
%ADD16O,3.556000X5.715000*%
G04 #@! TD*
G04 #@! TA.AperFunction,ComponentPad*
%ADD17C,2.000000*%
G04 #@! TD*
G04 #@! TA.AperFunction,ComponentPad*
%ADD18C,1.524000*%
G04 #@! TD*
G04 #@! TA.AperFunction,ComponentPad*
%ADD19R,1.600000X1.600000*%
G04 #@! TD*
G04 #@! TA.AperFunction,ComponentPad*
%ADD20O,1.600000X1.600000*%
G04 #@! TD*
G04 #@! TA.AperFunction,ComponentPad*
%ADD21C,1.520000*%
G04 #@! TD*
G04 #@! TA.AperFunction,ComponentPad*
%ADD22R,1.520000X1.520000*%
G04 #@! TD*
G04 #@! TA.AperFunction,ViaPad*
%ADD23C,1.397000*%
G04 #@! TD*
G04 #@! TA.AperFunction,ViaPad*
%ADD24C,0.800000*%
G04 #@! TD*
G04 #@! TA.AperFunction,Conductor*
%ADD25C,0.508000*%
G04 #@! TD*
G04 #@! TA.AperFunction,Conductor*
%ADD26C,0.762000*%
G04 #@! TD*
G04 #@! TA.AperFunction,Conductor*
%ADD27C,2.032000*%
G04 #@! TD*
G04 #@! TA.AperFunction,Conductor*
%ADD28C,2.540000*%
G04 #@! TD*
G04 #@! TA.AperFunction,Conductor*
%ADD29C,0.254000*%
G04 #@! TD*
G04 APERTURE END LIST*
D10*
G04 #@! TO.P,N    AC    GND,3*
G04 #@! TO.N,VAC*
X98806000Y-149479000D03*
D11*
G04 #@! TO.P,N    AC    GND,1*
G04 #@! TO.N,Earth*
X103806000Y-149479000D03*
D10*
G04 #@! TO.P,N    AC    GND,2*
G04 #@! TO.N,NEUT*
X93806000Y-149479000D03*
G04 #@! TD*
G04 #@! TO.P,K1,A1*
G04 #@! TO.N,+5V*
X117394000Y-124378000D03*
D12*
G04 #@! TO.P,K1,14*
G04 #@! TO.N,Net-(J2-Pad2)*
X117394000Y-136578000D03*
G04 #@! TO.P,K1,12*
G04 #@! TO.N,Net-(J2-Pad1)*
X129444000Y-136628000D03*
D10*
G04 #@! TO.P,K1,A2*
G04 #@! TO.N,Net-(D3-Pad2)*
X129394000Y-124378000D03*
D12*
G04 #@! TO.P,K1,11*
G04 #@! TO.N,Net-(F1-Pad1)*
X123444000Y-122428000D03*
G04 #@! TD*
G04 #@! TO.P,K2,11*
G04 #@! TO.N,Net-(F2-Pad1)*
X152400000Y-122555000D03*
D10*
G04 #@! TO.P,K2,A2*
G04 #@! TO.N,Net-(D4-Pad2)*
X158350000Y-124505000D03*
D12*
G04 #@! TO.P,K2,12*
G04 #@! TO.N,Net-(J5-Pad1)*
X158400000Y-136755000D03*
G04 #@! TO.P,K2,14*
G04 #@! TO.N,Net-(J5-Pad2)*
X146350000Y-136705000D03*
D10*
G04 #@! TO.P,K2,A1*
G04 #@! TO.N,+5V*
X146350000Y-124505000D03*
G04 #@! TD*
D13*
G04 #@! TO.P,D1,2*
G04 #@! TO.N,Net-(D1-Pad2)*
X123253500Y-62357000D03*
D14*
G04 #@! TO.P,D1,1*
G04 #@! TO.N,Net-(D1-Pad1)*
X123253500Y-64897000D03*
G04 #@! TD*
G04 #@! TO.P,D2,1*
G04 #@! TO.N,Net-(D2-Pad1)*
X133096000Y-64897000D03*
D13*
G04 #@! TO.P,D2,2*
G04 #@! TO.N,Net-(D2-Pad2)*
X133096000Y-62357000D03*
G04 #@! TD*
D14*
G04 #@! TO.P,D3,1*
G04 #@! TO.N,+5V*
X119888000Y-116713000D03*
D15*
G04 #@! TO.P,D3,2*
G04 #@! TO.N,Net-(D3-Pad2)*
X127508000Y-116713000D03*
G04 #@! TD*
G04 #@! TO.P,D4,2*
G04 #@! TO.N,Net-(D4-Pad2)*
X156464000Y-116713000D03*
D14*
G04 #@! TO.P,D4,1*
G04 #@! TO.N,+5V*
X148844000Y-116713000D03*
G04 #@! TD*
D16*
G04 #@! TO.P,F1,2*
G04 #@! TO.N,VAC*
X112141000Y-139573000D03*
G04 #@! TO.P,F1,1*
G04 #@! TO.N,Net-(F1-Pad1)*
X112141000Y-131573000D03*
G04 #@! TD*
G04 #@! TO.P,F2,1*
G04 #@! TO.N,Net-(F2-Pad1)*
X141224000Y-131700000D03*
G04 #@! TO.P,F2,2*
G04 #@! TO.N,VAC*
X141224000Y-139700000D03*
G04 #@! TD*
D17*
G04 #@! TO.P,SW1,2*
G04 #@! TO.N,Net-(SW1-Pad2)*
X126936500Y-95313501D03*
G04 #@! TO.P,SW1,1*
G04 #@! TO.N,GNDD*
X126936500Y-99813501D03*
G04 #@! TO.P,SW1,2*
G04 #@! TO.N,Net-(SW1-Pad2)*
X120436500Y-95313501D03*
G04 #@! TO.P,SW1,1*
G04 #@! TO.N,GNDD*
X120436500Y-99813501D03*
G04 #@! TD*
D18*
G04 #@! TO.P,HLK-PM01,2*
G04 #@! TO.N,VAC*
X97536000Y-138811000D03*
G04 #@! TO.P,HLK-PM01,1*
G04 #@! TO.N,NEUT*
X92456000Y-138811000D03*
G04 #@! TO.P,HLK-PM01,4*
G04 #@! TO.N,+5V*
X102870000Y-109347000D03*
G04 #@! TO.P,HLK-PM01,3*
G04 #@! TO.N,GNDD*
X87122000Y-109347000D03*
G04 #@! TD*
D19*
G04 #@! TO.P,ATMEGA328p_nano,tx*
G04 #@! TO.N,Net-(U3-Padtx)*
X113792000Y-100203000D03*
D20*
G04 #@! TO.P,ATMEGA328p_nano,3v3*
G04 #@! TO.N,Net-(U3-Pad3v3)*
X98552000Y-67183000D03*
G04 #@! TO.P,ATMEGA328p_nano,rx*
G04 #@! TO.N,Net-(U3-Padrx)*
X113792000Y-97663000D03*
G04 #@! TO.P,ATMEGA328p_nano,15*
G04 #@! TO.N,Net-(U3-Pad15)*
X98552000Y-69723000D03*
G04 #@! TO.P,ATMEGA328p_nano,rst*
G04 #@! TO.N,Net-(U3-Padrst)*
X113792000Y-95123000D03*
G04 #@! TO.P,ATMEGA328p_nano,ADC0*
G04 #@! TO.N,/lora_rst*
X98552000Y-72263000D03*
G04 #@! TO.P,ATMEGA328p_nano,gnd*
G04 #@! TO.N,GNDD*
X113792000Y-92583000D03*
G04 #@! TO.P,ATMEGA328p_nano,ADC1*
G04 #@! TO.N,Net-(J7-Pad2)*
X98552000Y-74803000D03*
G04 #@! TO.P,ATMEGA328p_nano,2*
G04 #@! TO.N,Net-(D2-Pad2)*
X113792000Y-90043000D03*
G04 #@! TO.P,ATMEGA328p_nano,ADC2*
G04 #@! TO.N,/relay2*
X98552000Y-77343000D03*
G04 #@! TO.P,ATMEGA328p_nano,3*
G04 #@! TO.N,Net-(D1-Pad2)*
X113792000Y-87503000D03*
G04 #@! TO.P,ATMEGA328p_nano,ADC3*
G04 #@! TO.N,/relay1*
X98552000Y-79883000D03*
G04 #@! TO.P,ATMEGA328p_nano,4*
G04 #@! TO.N,Net-(SW1-Pad2)*
X113792000Y-84963000D03*
G04 #@! TO.P,ATMEGA328p_nano,ADC4*
G04 #@! TO.N,Net-(J8-Pad2)*
X98552000Y-82423000D03*
G04 #@! TO.P,ATMEGA328p_nano,5*
G04 #@! TO.N,Net-(SW2-Pad8)*
X113792000Y-82423000D03*
G04 #@! TO.P,ATMEGA328p_nano,ADC5*
G04 #@! TO.N,Net-(J8-Pad1)*
X98552000Y-84963000D03*
G04 #@! TO.P,ATMEGA328p_nano,6*
G04 #@! TO.N,Net-(SW2-Pad7)*
X113792000Y-79883000D03*
G04 #@! TO.P,ATMEGA328p_nano,ADC6*
G04 #@! TO.N,Net-(U3-PadADC6)*
X98552000Y-87503000D03*
G04 #@! TO.P,ATMEGA328p_nano,7*
G04 #@! TO.N,Net-(SW2-Pad6)*
X113792000Y-77343000D03*
G04 #@! TO.P,ATMEGA328p_nano,ADC7*
G04 #@! TO.N,Net-(U3-PadADC7)*
X98552000Y-90043000D03*
G04 #@! TO.P,ATMEGA328p_nano,8*
G04 #@! TO.N,Net-(SW2-Pad5)*
X113792000Y-74803000D03*
G04 #@! TO.P,ATMEGA328p_nano,+5V*
G04 #@! TO.N,+5V*
X98552000Y-92583000D03*
G04 #@! TO.P,ATMEGA328p_nano,9*
G04 #@! TO.N,/irq*
X113792000Y-72263000D03*
G04 #@! TO.P,ATMEGA328p_nano,rst*
G04 #@! TO.N,Net-(U3-Padrst)*
X98552000Y-95123000D03*
G04 #@! TO.P,ATMEGA328p_nano,10*
G04 #@! TO.N,/lora_cs*
X113792000Y-69723000D03*
G04 #@! TO.P,ATMEGA328p_nano,gnd*
G04 #@! TO.N,GNDD*
X98552000Y-97663000D03*
G04 #@! TO.P,ATMEGA328p_nano,11*
G04 #@! TO.N,mosi*
X113792000Y-67183000D03*
G04 #@! TO.P,ATMEGA328p_nano,Vin*
G04 #@! TO.N,Net-(U3-PadVin)*
X98552000Y-100203000D03*
G04 #@! TO.P,ATMEGA328p_nano,12*
G04 #@! TO.N,miso*
X113792000Y-64643000D03*
G04 #@! TO.P,ATMEGA328p_nano,13*
G04 #@! TO.N,sck*
X98552000Y-64643000D03*
G04 #@! TD*
D10*
G04 #@! TO.P,Gnd  Neut   NO  NC,4*
G04 #@! TO.N,Earth*
X113698000Y-149606000D03*
G04 #@! TO.P,Gnd  Neut   NO  NC,3*
G04 #@! TO.N,NEUT*
X118698000Y-149606000D03*
D11*
G04 #@! TO.P,Gnd  Neut   NO  NC,1*
G04 #@! TO.N,Net-(J2-Pad1)*
X128698000Y-149606000D03*
D10*
G04 #@! TO.P,Gnd  Neut   NO  NC,2*
G04 #@! TO.N,Net-(J2-Pad2)*
X123698000Y-149606000D03*
G04 #@! TD*
G04 #@! TO.P,Gnd  Neut  NO  NC,2*
G04 #@! TO.N,Net-(J5-Pad2)*
X152400000Y-149606000D03*
D11*
G04 #@! TO.P,Gnd  Neut  NO  NC,1*
G04 #@! TO.N,Net-(J5-Pad1)*
X157400000Y-149606000D03*
D10*
G04 #@! TO.P,Gnd  Neut  NO  NC,3*
G04 #@! TO.N,NEUT*
X147400000Y-149606000D03*
G04 #@! TO.P,Gnd  Neut  NO  NC,4*
G04 #@! TO.N,Earth*
X142400000Y-149606000D03*
G04 #@! TD*
D21*
G04 #@! TO.P,tmp36,2*
G04 #@! TO.N,Net-(J7-Pad2)*
X92329000Y-65913000D03*
G04 #@! TO.P,tmp36,3*
G04 #@! TO.N,GNDD*
X92329000Y-68453000D03*
D22*
G04 #@! TO.P,tmp36,1*
G04 #@! TO.N,+5V*
X92329000Y-63373000D03*
G04 #@! TD*
D10*
G04 #@! TO.P,external [esw1\002C esw2\002C gnd],2*
G04 #@! TO.N,Net-(J8-Pad2)*
X90170000Y-79836000D03*
D11*
G04 #@! TO.P,external [esw1\002C esw2\002C gnd],1*
G04 #@! TO.N,Net-(J8-Pad1)*
X90170000Y-84836000D03*
D10*
G04 #@! TO.P,external [esw1\002C esw2\002C gnd],3*
G04 #@! TO.N,GNDD*
X90170000Y-74836000D03*
G04 #@! TD*
D19*
G04 #@! TO.P,SW2,1*
G04 #@! TO.N,GNDD*
X128143000Y-87693500D03*
D20*
G04 #@! TO.P,SW2,5*
G04 #@! TO.N,Net-(SW2-Pad5)*
X120523000Y-80073500D03*
G04 #@! TO.P,SW2,2*
G04 #@! TO.N,GNDD*
X128143000Y-85153500D03*
G04 #@! TO.P,SW2,6*
G04 #@! TO.N,Net-(SW2-Pad6)*
X120523000Y-82613500D03*
G04 #@! TO.P,SW2,3*
G04 #@! TO.N,GNDD*
X128143000Y-82613500D03*
G04 #@! TO.P,SW2,7*
G04 #@! TO.N,Net-(SW2-Pad7)*
X120523000Y-85153500D03*
G04 #@! TO.P,SW2,4*
G04 #@! TO.N,GNDD*
X128143000Y-80073500D03*
G04 #@! TO.P,SW2,8*
G04 #@! TO.N,Net-(SW2-Pad8)*
X120523000Y-87693500D03*
G04 #@! TD*
D23*
G04 #@! TO.N,GNDD*
X87058500Y-91948000D03*
D24*
X149606000Y-97663000D03*
X145542000Y-97663000D03*
X155702000Y-70612000D03*
X158496000Y-70612000D03*
X161290000Y-70612000D03*
X158496000Y-76708000D03*
X155702000Y-76708000D03*
X161290000Y-76708000D03*
X163576000Y-76708000D03*
X163576000Y-70612000D03*
X164846000Y-73406000D03*
X126619000Y-68072000D03*
X126619000Y-62230000D03*
G04 #@! TO.N,+5V*
X147574000Y-68834000D03*
D23*
G04 #@! TO.N,Earth*
X106553000Y-116776500D03*
X117221000Y-111950500D03*
X144526000Y-112141000D03*
D24*
G04 #@! TO.N,/lora_rst*
X155765500Y-97790000D03*
G04 #@! TO.N,sck*
X147637500Y-98044000D03*
G04 #@! TO.N,/irq*
X119761000Y-75247500D03*
X120840500Y-70231000D03*
G04 #@! TD*
D25*
G04 #@! TO.N,GNDD*
X128143000Y-80073500D02*
X128143000Y-87693500D01*
D26*
X88232000Y-74836000D02*
X90170000Y-74836000D01*
X85661500Y-77406500D02*
X88232000Y-74836000D01*
X87058500Y-91948000D02*
X85661500Y-90551000D01*
X85661500Y-90551000D02*
X85661500Y-77406500D01*
D25*
X90043000Y-70739000D02*
X90043000Y-74709000D01*
X90043000Y-74709000D02*
X90170000Y-74836000D01*
X92329000Y-68453000D02*
X90043000Y-70739000D01*
G04 #@! TO.N,+5V*
X145531000Y-118618000D02*
X147436000Y-116713000D01*
X119888000Y-116713000D02*
X121296000Y-116713000D01*
X147436000Y-116713000D02*
X148844000Y-116713000D01*
X123201000Y-118618000D02*
X145531000Y-118618000D01*
X121296000Y-116713000D02*
X123201000Y-118618000D01*
D26*
X147574000Y-68834000D02*
X147193000Y-68834000D01*
X92329000Y-61851000D02*
X92329000Y-63373000D01*
X147193000Y-68834000D02*
X137543000Y-59184000D01*
X137543000Y-59184000D02*
X94996000Y-59184000D01*
X94996000Y-59184000D02*
X92329000Y-61851000D01*
G04 #@! TO.N,Earth*
X106553000Y-116776500D02*
X111379000Y-111950500D01*
X111379000Y-111950500D02*
X117221000Y-111950500D01*
X117411500Y-112141000D02*
X117221000Y-111950500D01*
X144526000Y-112141000D02*
X117411500Y-112141000D01*
D27*
G04 #@! TO.N,VAC*
X98806000Y-140081000D02*
X97536000Y-138811000D01*
X98806000Y-149479000D02*
X98806000Y-140081000D01*
D28*
X98806000Y-149479000D02*
X98806000Y-144018000D01*
X98806000Y-144018000D02*
X103251000Y-139573000D01*
X103251000Y-139573000D02*
X112141000Y-139573000D01*
G04 #@! TO.N,Net-(F1-Pad1)*
X123444000Y-122428000D02*
X123444000Y-128270000D01*
X123444000Y-128270000D02*
X120141000Y-131573000D01*
X120141000Y-131573000D02*
X112141000Y-131573000D01*
G04 #@! TO.N,Net-(F2-Pad1)*
X141224000Y-131700000D02*
X149097000Y-131700000D01*
X149097000Y-131700000D02*
X152400000Y-128397000D01*
X152400000Y-128397000D02*
X152400000Y-122555000D01*
D27*
G04 #@! TO.N,NEUT*
X93806000Y-140161000D02*
X92456000Y-138811000D01*
X93806000Y-149479000D02*
X93806000Y-140161000D01*
D28*
X93806000Y-153623000D02*
X93806000Y-149479000D01*
X118698000Y-155003500D02*
X95186500Y-155003500D01*
X95186500Y-155003500D02*
X93806000Y-153623000D01*
X143764000Y-155003500D02*
X118698000Y-155003500D01*
X147400000Y-149606000D02*
X147400000Y-151367500D01*
X147400000Y-151367500D02*
X143764000Y-155003500D01*
X118698000Y-149606000D02*
X118698000Y-155003500D01*
G04 #@! TO.N,Net-(J2-Pad2)*
X123698000Y-142882000D02*
X117394000Y-136578000D01*
X123698000Y-149606000D02*
X123698000Y-142882000D01*
G04 #@! TO.N,Net-(J2-Pad1)*
X129444000Y-148860000D02*
X128698000Y-149606000D01*
X129444000Y-136628000D02*
X129444000Y-148860000D01*
G04 #@! TO.N,Net-(J5-Pad1)*
X158400000Y-148606000D02*
X157400000Y-149606000D01*
X158400000Y-136755000D02*
X158400000Y-148606000D01*
G04 #@! TO.N,Net-(J5-Pad2)*
X152400000Y-142755000D02*
X146350000Y-136705000D01*
X152400000Y-149606000D02*
X152400000Y-142755000D01*
D25*
G04 #@! TO.N,Net-(J7-Pad2)*
X98171000Y-74803000D02*
X98552000Y-74803000D01*
G04 #@! TO.N,/lora_rst*
X135890000Y-83312000D02*
X135890000Y-95171778D01*
X135890000Y-95171778D02*
X140930733Y-100212511D01*
X146470268Y-100212510D02*
X147740268Y-98942510D01*
X147740268Y-98942510D02*
X154612990Y-98942510D01*
X155365501Y-98189999D02*
X155765500Y-97790000D01*
X154612990Y-98942510D02*
X155365501Y-98189999D01*
X115189000Y-62611000D02*
X135890000Y-83312000D01*
X98552000Y-72263000D02*
X108204000Y-62611000D01*
X140930733Y-100212511D02*
X146470268Y-100212510D01*
X108204000Y-62611000D02*
X115189000Y-62611000D01*
G04 #@! TO.N,sck*
X141224000Y-99504500D02*
X146177000Y-99504500D01*
X137096500Y-95377000D02*
X141224000Y-99504500D01*
X98552000Y-64643000D02*
X99351999Y-63843001D01*
X115189000Y-61404500D02*
X137096500Y-83312000D01*
X99351999Y-63843001D02*
X99351999Y-63652501D01*
X146177000Y-99504500D02*
X147637500Y-98044000D01*
X137096500Y-83312000D02*
X137096500Y-95377000D01*
X101600000Y-61404500D02*
X115189000Y-61404500D01*
X99351999Y-63652501D02*
X101600000Y-61404500D01*
G04 #@! TO.N,/irq*
X119761000Y-75247500D02*
X119761000Y-71310500D01*
X119761000Y-71310500D02*
X120840500Y-70231000D01*
G04 #@! TO.N,Net-(SW2-Pad5)*
X120269000Y-79756000D02*
X120269000Y-79883000D01*
X113792000Y-74803000D02*
X115316000Y-74803000D01*
X115316000Y-74803000D02*
X120269000Y-79756000D01*
G04 #@! TO.N,Net-(SW2-Pad6)*
X115189000Y-77343000D02*
X120269000Y-82423000D01*
X113792000Y-77343000D02*
X115189000Y-77343000D01*
G04 #@! TO.N,Net-(SW2-Pad7)*
X119507000Y-84963000D02*
X120269000Y-84963000D01*
X113792000Y-79883000D02*
X114427000Y-79883000D01*
X114427000Y-79883000D02*
X119507000Y-84963000D01*
G04 #@! TO.N,Net-(SW2-Pad8)*
X119062500Y-87693500D02*
X120523000Y-87693500D01*
X113792000Y-82423000D02*
X119062500Y-87693500D01*
G04 #@! TD*
D29*
G04 #@! TO.N,GNDD*
G36*
X94222422Y-58512990D02*
X94206822Y-58536337D01*
X91681340Y-61061820D01*
X91596505Y-61118505D01*
X91371949Y-61454578D01*
X91322220Y-61704584D01*
X91293096Y-61851000D01*
X91313000Y-61951064D01*
X91313000Y-62020345D01*
X91111191Y-62155191D01*
X90970843Y-62365235D01*
X90921560Y-62613000D01*
X90921560Y-64133000D01*
X90970843Y-64380765D01*
X91111191Y-64590809D01*
X91321235Y-64731157D01*
X91502049Y-64767123D01*
X91146376Y-65122796D01*
X90934000Y-65635517D01*
X90934000Y-66190483D01*
X91146376Y-66703204D01*
X91538796Y-67095624D01*
X92051517Y-67308000D01*
X92606483Y-67308000D01*
X93119204Y-67095624D01*
X93511624Y-66703204D01*
X93724000Y-66190483D01*
X93724000Y-65635517D01*
X93511624Y-65122796D01*
X93155951Y-64767123D01*
X93336765Y-64731157D01*
X93468700Y-64643000D01*
X97088887Y-64643000D01*
X97200260Y-65202909D01*
X97517423Y-65677577D01*
X97869758Y-65913000D01*
X97517423Y-66148423D01*
X97200260Y-66623091D01*
X97088887Y-67183000D01*
X97200260Y-67742909D01*
X97517423Y-68217577D01*
X97869758Y-68453000D01*
X97517423Y-68688423D01*
X97200260Y-69163091D01*
X97088887Y-69723000D01*
X97200260Y-70282909D01*
X97517423Y-70757577D01*
X97869758Y-70993000D01*
X97517423Y-71228423D01*
X97200260Y-71703091D01*
X97088887Y-72263000D01*
X97200260Y-72822909D01*
X97517423Y-73297577D01*
X97869758Y-73533000D01*
X97517423Y-73768423D01*
X97200260Y-74243091D01*
X97088887Y-74803000D01*
X97200260Y-75362909D01*
X97517423Y-75837577D01*
X97869758Y-76073000D01*
X97517423Y-76308423D01*
X97200260Y-76783091D01*
X97088887Y-77343000D01*
X97200260Y-77902909D01*
X97517423Y-78377577D01*
X97869758Y-78613000D01*
X97517423Y-78848423D01*
X97200260Y-79323091D01*
X97088887Y-79883000D01*
X97200260Y-80442909D01*
X97517423Y-80917577D01*
X97869758Y-81153000D01*
X97517423Y-81388423D01*
X97200260Y-81863091D01*
X97088887Y-82423000D01*
X97200260Y-82982909D01*
X97517423Y-83457577D01*
X97869758Y-83693000D01*
X97517423Y-83928423D01*
X97200260Y-84403091D01*
X97088887Y-84963000D01*
X97200260Y-85522909D01*
X97517423Y-85997577D01*
X97869758Y-86233000D01*
X97517423Y-86468423D01*
X97200260Y-86943091D01*
X97088887Y-87503000D01*
X97200260Y-88062909D01*
X97517423Y-88537577D01*
X97869758Y-88773000D01*
X97517423Y-89008423D01*
X97200260Y-89483091D01*
X97088887Y-90043000D01*
X97200260Y-90602909D01*
X97517423Y-91077577D01*
X97869758Y-91313000D01*
X97517423Y-91548423D01*
X97200260Y-92023091D01*
X97088887Y-92583000D01*
X97200260Y-93142909D01*
X97517423Y-93617577D01*
X97869758Y-93853000D01*
X97517423Y-94088423D01*
X97200260Y-94563091D01*
X97088887Y-95123000D01*
X97200260Y-95682909D01*
X97517423Y-96157577D01*
X97992091Y-96474740D01*
X98410667Y-96558000D01*
X98693333Y-96558000D01*
X99111909Y-96474740D01*
X99586577Y-96157577D01*
X99903740Y-95682909D01*
X100015113Y-95123000D01*
X112328887Y-95123000D01*
X112440260Y-95682909D01*
X112757423Y-96157577D01*
X113109758Y-96393000D01*
X112757423Y-96628423D01*
X112440260Y-97103091D01*
X112328887Y-97663000D01*
X112440260Y-98222909D01*
X112757423Y-98697577D01*
X112878106Y-98778215D01*
X112744235Y-98804843D01*
X112534191Y-98945191D01*
X112393843Y-99155235D01*
X112344560Y-99403000D01*
X112344560Y-101003000D01*
X112393843Y-101250765D01*
X112534191Y-101460809D01*
X112744235Y-101601157D01*
X112992000Y-101650440D01*
X114592000Y-101650440D01*
X114839765Y-101601157D01*
X115049809Y-101460809D01*
X115190157Y-101250765D01*
X115239440Y-101003000D01*
X115239440Y-100966033D01*
X119463573Y-100966033D01*
X119562236Y-101232888D01*
X120171961Y-101459409D01*
X120821960Y-101435357D01*
X121310764Y-101232888D01*
X121409427Y-100966033D01*
X125963573Y-100966033D01*
X126062236Y-101232888D01*
X126671961Y-101459409D01*
X127321960Y-101435357D01*
X127810764Y-101232888D01*
X127909427Y-100966033D01*
X126936500Y-99993106D01*
X125963573Y-100966033D01*
X121409427Y-100966033D01*
X120436500Y-99993106D01*
X119463573Y-100966033D01*
X115239440Y-100966033D01*
X115239440Y-99548962D01*
X118790592Y-99548962D01*
X118814644Y-100198961D01*
X119017113Y-100687765D01*
X119283968Y-100786428D01*
X120256895Y-99813501D01*
X120616105Y-99813501D01*
X121589032Y-100786428D01*
X121855887Y-100687765D01*
X122082408Y-100078040D01*
X122062831Y-99548962D01*
X125290592Y-99548962D01*
X125314644Y-100198961D01*
X125517113Y-100687765D01*
X125783968Y-100786428D01*
X126756895Y-99813501D01*
X127116105Y-99813501D01*
X128089032Y-100786428D01*
X128355887Y-100687765D01*
X128582408Y-100078040D01*
X128558356Y-99428041D01*
X128355887Y-98939237D01*
X128089032Y-98840574D01*
X127116105Y-99813501D01*
X126756895Y-99813501D01*
X125783968Y-98840574D01*
X125517113Y-98939237D01*
X125290592Y-99548962D01*
X122062831Y-99548962D01*
X122058356Y-99428041D01*
X121855887Y-98939237D01*
X121589032Y-98840574D01*
X120616105Y-99813501D01*
X120256895Y-99813501D01*
X119283968Y-98840574D01*
X119017113Y-98939237D01*
X118790592Y-99548962D01*
X115239440Y-99548962D01*
X115239440Y-99403000D01*
X115190157Y-99155235D01*
X115049809Y-98945191D01*
X114839765Y-98804843D01*
X114705894Y-98778215D01*
X114826577Y-98697577D01*
X114851037Y-98660969D01*
X119463573Y-98660969D01*
X120436500Y-99633896D01*
X121409427Y-98660969D01*
X125963573Y-98660969D01*
X126936500Y-99633896D01*
X127909427Y-98660969D01*
X127810764Y-98394114D01*
X127201039Y-98167593D01*
X126551040Y-98191645D01*
X126062236Y-98394114D01*
X125963573Y-98660969D01*
X121409427Y-98660969D01*
X121310764Y-98394114D01*
X120701039Y-98167593D01*
X120051040Y-98191645D01*
X119562236Y-98394114D01*
X119463573Y-98660969D01*
X114851037Y-98660969D01*
X115143740Y-98222909D01*
X115255113Y-97663000D01*
X115143740Y-97103091D01*
X114826577Y-96628423D01*
X114474242Y-96393000D01*
X114826577Y-96157577D01*
X115143740Y-95682909D01*
X115255113Y-95123000D01*
X115228316Y-94988279D01*
X118801500Y-94988279D01*
X118801500Y-95638723D01*
X119050414Y-96239654D01*
X119510347Y-96699587D01*
X120111278Y-96948501D01*
X120761722Y-96948501D01*
X121362653Y-96699587D01*
X121822586Y-96239654D01*
X122071500Y-95638723D01*
X122071500Y-94988279D01*
X125301500Y-94988279D01*
X125301500Y-95638723D01*
X125550414Y-96239654D01*
X126010347Y-96699587D01*
X126611278Y-96948501D01*
X127261722Y-96948501D01*
X127862653Y-96699587D01*
X128322586Y-96239654D01*
X128571500Y-95638723D01*
X128571500Y-94988279D01*
X128322586Y-94387348D01*
X127862653Y-93927415D01*
X127261722Y-93678501D01*
X126611278Y-93678501D01*
X126010347Y-93927415D01*
X125550414Y-94387348D01*
X125301500Y-94988279D01*
X122071500Y-94988279D01*
X121822586Y-94387348D01*
X121362653Y-93927415D01*
X120761722Y-93678501D01*
X120111278Y-93678501D01*
X119510347Y-93927415D01*
X119050414Y-94387348D01*
X118801500Y-94988279D01*
X115228316Y-94988279D01*
X115143740Y-94563091D01*
X114826577Y-94088423D01*
X114351909Y-93771260D01*
X113933333Y-93688000D01*
X113650667Y-93688000D01*
X113232091Y-93771260D01*
X112757423Y-94088423D01*
X112440260Y-94563091D01*
X112328887Y-95123000D01*
X100015113Y-95123000D01*
X99903740Y-94563091D01*
X99586577Y-94088423D01*
X99234242Y-93853000D01*
X99586577Y-93617577D01*
X99903740Y-93142909D01*
X100015113Y-92583000D01*
X99903740Y-92023091D01*
X99586577Y-91548423D01*
X99234242Y-91313000D01*
X99586577Y-91077577D01*
X99903740Y-90602909D01*
X100015113Y-90043000D01*
X99903740Y-89483091D01*
X99586577Y-89008423D01*
X99234242Y-88773000D01*
X99586577Y-88537577D01*
X99903740Y-88062909D01*
X100015113Y-87503000D01*
X99903740Y-86943091D01*
X99586577Y-86468423D01*
X99234242Y-86233000D01*
X99586577Y-85997577D01*
X99903740Y-85522909D01*
X100015113Y-84963000D01*
X99903740Y-84403091D01*
X99586577Y-83928423D01*
X99234242Y-83693000D01*
X99586577Y-83457577D01*
X99903740Y-82982909D01*
X100015113Y-82423000D01*
X99903740Y-81863091D01*
X99586577Y-81388423D01*
X99234242Y-81153000D01*
X99586577Y-80917577D01*
X99903740Y-80442909D01*
X100015113Y-79883000D01*
X99903740Y-79323091D01*
X99586577Y-78848423D01*
X99234242Y-78613000D01*
X99586577Y-78377577D01*
X99903740Y-77902909D01*
X100015113Y-77343000D01*
X99903740Y-76783091D01*
X99586577Y-76308423D01*
X99234242Y-76073000D01*
X99586577Y-75837577D01*
X99903740Y-75362909D01*
X100015113Y-74803000D01*
X99903740Y-74243091D01*
X99586577Y-73768423D01*
X99234242Y-73533000D01*
X99586577Y-73297577D01*
X99903740Y-72822909D01*
X100015113Y-72263000D01*
X99980956Y-72091279D01*
X108572236Y-63500000D01*
X112919689Y-63500000D01*
X112757423Y-63608423D01*
X112440260Y-64083091D01*
X112328887Y-64643000D01*
X112440260Y-65202909D01*
X112757423Y-65677577D01*
X113109758Y-65913000D01*
X112757423Y-66148423D01*
X112440260Y-66623091D01*
X112328887Y-67183000D01*
X112440260Y-67742909D01*
X112757423Y-68217577D01*
X113109758Y-68453000D01*
X112757423Y-68688423D01*
X112440260Y-69163091D01*
X112328887Y-69723000D01*
X112440260Y-70282909D01*
X112757423Y-70757577D01*
X113109758Y-70993000D01*
X112757423Y-71228423D01*
X112440260Y-71703091D01*
X112328887Y-72263000D01*
X112440260Y-72822909D01*
X112757423Y-73297577D01*
X113109758Y-73533000D01*
X112757423Y-73768423D01*
X112440260Y-74243091D01*
X112328887Y-74803000D01*
X112440260Y-75362909D01*
X112757423Y-75837577D01*
X113109758Y-76073000D01*
X112757423Y-76308423D01*
X112440260Y-76783091D01*
X112328887Y-77343000D01*
X112440260Y-77902909D01*
X112757423Y-78377577D01*
X113109758Y-78613000D01*
X112757423Y-78848423D01*
X112440260Y-79323091D01*
X112328887Y-79883000D01*
X112440260Y-80442909D01*
X112757423Y-80917577D01*
X113109758Y-81153000D01*
X112757423Y-81388423D01*
X112440260Y-81863091D01*
X112328887Y-82423000D01*
X112440260Y-82982909D01*
X112757423Y-83457577D01*
X113109758Y-83693000D01*
X112757423Y-83928423D01*
X112440260Y-84403091D01*
X112328887Y-84963000D01*
X112440260Y-85522909D01*
X112757423Y-85997577D01*
X113109758Y-86233000D01*
X112757423Y-86468423D01*
X112440260Y-86943091D01*
X112328887Y-87503000D01*
X112440260Y-88062909D01*
X112757423Y-88537577D01*
X113109758Y-88773000D01*
X112757423Y-89008423D01*
X112440260Y-89483091D01*
X112328887Y-90043000D01*
X112440260Y-90602909D01*
X112757423Y-91077577D01*
X113232091Y-91394740D01*
X113650667Y-91478000D01*
X113933333Y-91478000D01*
X114351909Y-91394740D01*
X114826577Y-91077577D01*
X115143740Y-90602909D01*
X115255113Y-90043000D01*
X115143740Y-89483091D01*
X114826577Y-89008423D01*
X114474242Y-88773000D01*
X114826577Y-88537577D01*
X115143740Y-88062909D01*
X115255113Y-87503000D01*
X115143740Y-86943091D01*
X114826577Y-86468423D01*
X114474242Y-86233000D01*
X114826577Y-85997577D01*
X115143740Y-85522909D01*
X115225191Y-85113427D01*
X118371971Y-88260207D01*
X118421567Y-88334433D01*
X118495793Y-88384029D01*
X118715629Y-88530919D01*
X119062500Y-88599916D01*
X119150056Y-88582500D01*
X119391152Y-88582500D01*
X119488423Y-88728077D01*
X119963091Y-89045240D01*
X120381667Y-89128500D01*
X120664333Y-89128500D01*
X121082909Y-89045240D01*
X121557577Y-88728077D01*
X121874740Y-88253409D01*
X121986113Y-87693500D01*
X121874740Y-87133591D01*
X121557577Y-86658923D01*
X121205242Y-86423500D01*
X121557577Y-86188077D01*
X121874740Y-85713409D01*
X121986113Y-85153500D01*
X121874740Y-84593591D01*
X121557577Y-84118923D01*
X121205242Y-83883500D01*
X121557577Y-83648077D01*
X121874740Y-83173409D01*
X121986113Y-82613500D01*
X121874740Y-82053591D01*
X121557577Y-81578923D01*
X121205242Y-81343500D01*
X121557577Y-81108077D01*
X121874740Y-80633409D01*
X121986113Y-80073500D01*
X121874740Y-79513591D01*
X121557577Y-79038923D01*
X121082909Y-78721760D01*
X120664333Y-78638500D01*
X120408736Y-78638500D01*
X116006531Y-74236296D01*
X115956933Y-74162067D01*
X115662870Y-73965581D01*
X115403556Y-73914000D01*
X115403555Y-73914000D01*
X115316000Y-73896584D01*
X115228445Y-73914000D01*
X114923848Y-73914000D01*
X114826577Y-73768423D01*
X114474242Y-73533000D01*
X114826577Y-73297577D01*
X115143740Y-72822909D01*
X115255113Y-72263000D01*
X115143740Y-71703091D01*
X114826577Y-71228423D01*
X114474242Y-70993000D01*
X114826577Y-70757577D01*
X115143740Y-70282909D01*
X115255113Y-69723000D01*
X115143740Y-69163091D01*
X114826577Y-68688423D01*
X114474242Y-68453000D01*
X114826577Y-68217577D01*
X115143740Y-67742909D01*
X115255113Y-67183000D01*
X115143740Y-66623091D01*
X114826577Y-66148423D01*
X114474242Y-65913000D01*
X114826577Y-65677577D01*
X115143740Y-65202909D01*
X115255113Y-64643000D01*
X115143740Y-64083091D01*
X114826577Y-63608423D01*
X114664311Y-63500000D01*
X114820765Y-63500000D01*
X120551285Y-69230521D01*
X120254220Y-69353569D01*
X119963069Y-69644720D01*
X119817069Y-69997195D01*
X119194294Y-70619971D01*
X119120068Y-70669567D01*
X119070472Y-70743793D01*
X119070471Y-70743794D01*
X118923582Y-70963630D01*
X118854584Y-71310500D01*
X118872001Y-71398059D01*
X118872000Y-74689150D01*
X118726000Y-75041626D01*
X118726000Y-75453374D01*
X118883569Y-75833780D01*
X119174720Y-76124931D01*
X119555126Y-76282500D01*
X119966874Y-76282500D01*
X120347280Y-76124931D01*
X120638431Y-75833780D01*
X120796000Y-75453374D01*
X120796000Y-75041626D01*
X120650000Y-74689150D01*
X120650000Y-71678735D01*
X121074305Y-71254431D01*
X121426780Y-71108431D01*
X121717931Y-70817280D01*
X121840979Y-70520215D01*
X135001000Y-83680236D01*
X135001001Y-95084219D01*
X134983584Y-95171778D01*
X135052582Y-95518648D01*
X135189707Y-95723870D01*
X135249068Y-95812711D01*
X135323294Y-95862307D01*
X140240207Y-100779221D01*
X140289801Y-100853444D01*
X140364024Y-100903038D01*
X140364026Y-100903040D01*
X140583862Y-101049929D01*
X140583863Y-101049929D01*
X140583864Y-101049930D01*
X140843178Y-101101511D01*
X140930733Y-101118927D01*
X141018288Y-101101511D01*
X146382709Y-101101509D01*
X146470268Y-101118926D01*
X146817138Y-101049928D01*
X147036974Y-100903039D01*
X147036975Y-100903038D01*
X147111201Y-100853442D01*
X147160797Y-100779216D01*
X148108504Y-99831510D01*
X154525435Y-99831510D01*
X154612990Y-99848926D01*
X154700545Y-99831510D01*
X154700546Y-99831510D01*
X154959860Y-99779929D01*
X155253923Y-99583443D01*
X155303521Y-99509214D01*
X155999306Y-98813430D01*
X156351780Y-98667431D01*
X156642931Y-98376280D01*
X156800500Y-97995874D01*
X156800500Y-97584126D01*
X156642931Y-97203720D01*
X156351780Y-96912569D01*
X155971374Y-96755000D01*
X155559626Y-96755000D01*
X155179220Y-96912569D01*
X154888069Y-97203720D01*
X154742070Y-97556194D01*
X154244755Y-98053510D01*
X148672500Y-98053510D01*
X148672500Y-97838126D01*
X148514931Y-97457720D01*
X148223780Y-97166569D01*
X147843374Y-97009000D01*
X147431626Y-97009000D01*
X147051220Y-97166569D01*
X146760069Y-97457720D01*
X146614069Y-97810195D01*
X145808765Y-98615500D01*
X141592236Y-98615500D01*
X137985500Y-95008765D01*
X137985500Y-83399556D01*
X138002916Y-83312000D01*
X137933919Y-82965129D01*
X137787029Y-82745293D01*
X137737433Y-82671067D01*
X137663207Y-82621471D01*
X119038736Y-63997000D01*
X121706060Y-63997000D01*
X121706060Y-65797000D01*
X121755343Y-66044765D01*
X121895691Y-66254809D01*
X122105735Y-66395157D01*
X122353500Y-66444440D01*
X124153500Y-66444440D01*
X124401265Y-66395157D01*
X124611309Y-66254809D01*
X124751657Y-66044765D01*
X124800940Y-65797000D01*
X124800940Y-63997000D01*
X131548560Y-63997000D01*
X131548560Y-65797000D01*
X131597843Y-66044765D01*
X131738191Y-66254809D01*
X131948235Y-66395157D01*
X132196000Y-66444440D01*
X133996000Y-66444440D01*
X134243765Y-66395157D01*
X134453809Y-66254809D01*
X134594157Y-66044765D01*
X134643440Y-65797000D01*
X134643440Y-63997000D01*
X134594157Y-63749235D01*
X134453809Y-63539191D01*
X134243765Y-63398843D01*
X134228092Y-63395725D01*
X134397310Y-63226507D01*
X134631000Y-62662330D01*
X134631000Y-62051670D01*
X134397310Y-61487493D01*
X133965507Y-61055690D01*
X133401330Y-60822000D01*
X132790670Y-60822000D01*
X132226493Y-61055690D01*
X131794690Y-61487493D01*
X131561000Y-62051670D01*
X131561000Y-62662330D01*
X131794690Y-63226507D01*
X131963908Y-63395725D01*
X131948235Y-63398843D01*
X131738191Y-63539191D01*
X131597843Y-63749235D01*
X131548560Y-63997000D01*
X124800940Y-63997000D01*
X124751657Y-63749235D01*
X124611309Y-63539191D01*
X124401265Y-63398843D01*
X124385592Y-63395725D01*
X124554810Y-63226507D01*
X124788500Y-62662330D01*
X124788500Y-62051670D01*
X124554810Y-61487493D01*
X124123007Y-61055690D01*
X123558830Y-60822000D01*
X122948170Y-60822000D01*
X122383993Y-61055690D01*
X121952190Y-61487493D01*
X121718500Y-62051670D01*
X121718500Y-62662330D01*
X121952190Y-63226507D01*
X122121408Y-63395725D01*
X122105735Y-63398843D01*
X121895691Y-63539191D01*
X121755343Y-63749235D01*
X121706060Y-63997000D01*
X119038736Y-63997000D01*
X115879531Y-60837796D01*
X115829933Y-60763567D01*
X115535870Y-60567081D01*
X115276556Y-60515500D01*
X115276555Y-60515500D01*
X115189000Y-60498084D01*
X115101445Y-60515500D01*
X101687556Y-60515500D01*
X101600000Y-60498084D01*
X101253129Y-60567081D01*
X101122697Y-60654233D01*
X100959067Y-60763567D01*
X100909471Y-60837793D01*
X98785295Y-62961970D01*
X98711066Y-63011568D01*
X98579815Y-63208000D01*
X98410667Y-63208000D01*
X97992091Y-63291260D01*
X97517423Y-63608423D01*
X97200260Y-64083091D01*
X97088887Y-64643000D01*
X93468700Y-64643000D01*
X93546809Y-64590809D01*
X93687157Y-64380765D01*
X93736440Y-64133000D01*
X93736440Y-62613000D01*
X93687157Y-62365235D01*
X93546809Y-62155191D01*
X93495760Y-62121081D01*
X95416841Y-60200000D01*
X137122160Y-60200000D01*
X146403822Y-69481663D01*
X146460505Y-69566495D01*
X146796577Y-69791051D01*
X147092935Y-69850000D01*
X147092936Y-69850000D01*
X147193000Y-69869904D01*
X147293063Y-69850000D01*
X147322256Y-69850000D01*
X147368126Y-69869000D01*
X147779874Y-69869000D01*
X147965877Y-69791955D01*
X147970423Y-69791051D01*
X147974277Y-69788476D01*
X148160280Y-69711431D01*
X148302641Y-69569070D01*
X148306495Y-69566495D01*
X148309070Y-69562641D01*
X148451431Y-69420280D01*
X148528476Y-69234277D01*
X148531051Y-69230423D01*
X148531955Y-69225877D01*
X148609000Y-69039874D01*
X148609000Y-68838545D01*
X148609904Y-68834000D01*
X148609000Y-68829455D01*
X148609000Y-68628126D01*
X148531955Y-68442123D01*
X148531051Y-68437577D01*
X148528476Y-68433723D01*
X148451431Y-68247720D01*
X148309070Y-68105359D01*
X148306495Y-68101505D01*
X148302641Y-68098930D01*
X148160280Y-67956569D01*
X147974277Y-67879524D01*
X147970423Y-67876949D01*
X147965877Y-67876045D01*
X147779874Y-67799000D01*
X147594841Y-67799000D01*
X141015891Y-61220050D01*
X161564000Y-61220050D01*
X161564000Y-61969950D01*
X161850974Y-62662767D01*
X162381233Y-63193026D01*
X163074050Y-63480000D01*
X163823950Y-63480000D01*
X164516767Y-63193026D01*
X165047026Y-62662767D01*
X165334000Y-61969950D01*
X165334000Y-61220050D01*
X165047026Y-60527233D01*
X164516767Y-59996974D01*
X163823950Y-59710000D01*
X163074050Y-59710000D01*
X162381233Y-59996974D01*
X161850974Y-60527233D01*
X161564000Y-61220050D01*
X141015891Y-61220050D01*
X138374729Y-58578889D01*
X166549001Y-58620941D01*
X166549000Y-110236000D01*
X103956657Y-110236000D01*
X104054320Y-110138337D01*
X104267000Y-109624881D01*
X104267000Y-109069119D01*
X104054320Y-108555663D01*
X103661337Y-108162680D01*
X103147881Y-107950000D01*
X102592119Y-107950000D01*
X102078663Y-108162680D01*
X101685680Y-108555663D01*
X101473000Y-109069119D01*
X101473000Y-109624881D01*
X101685680Y-110138337D01*
X101783343Y-110236000D01*
X82879000Y-110236000D01*
X82879000Y-100203000D01*
X97088887Y-100203000D01*
X97200260Y-100762909D01*
X97517423Y-101237577D01*
X97992091Y-101554740D01*
X98410667Y-101638000D01*
X98693333Y-101638000D01*
X99111909Y-101554740D01*
X99586577Y-101237577D01*
X99903740Y-100762909D01*
X100015113Y-100203000D01*
X99903740Y-99643091D01*
X99586577Y-99168423D01*
X99111909Y-98851260D01*
X98693333Y-98768000D01*
X98410667Y-98768000D01*
X97992091Y-98851260D01*
X97517423Y-99168423D01*
X97200260Y-99643091D01*
X97088887Y-100203000D01*
X82879000Y-100203000D01*
X82879000Y-77279500D01*
X86487000Y-77279500D01*
X86487000Y-86995000D01*
X86496667Y-87043601D01*
X86524197Y-87084803D01*
X86565399Y-87112333D01*
X86614000Y-87122000D01*
X93218000Y-87122000D01*
X93266601Y-87112333D01*
X93307803Y-87084803D01*
X93335333Y-87043601D01*
X93345000Y-86995000D01*
X93345000Y-77343000D01*
X93335795Y-77295530D01*
X93308662Y-77254065D01*
X93267727Y-77226140D01*
X93219221Y-77216006D01*
X86615221Y-77152506D01*
X86565399Y-77162167D01*
X86524197Y-77189697D01*
X86496667Y-77230899D01*
X86487000Y-77279500D01*
X82879000Y-77279500D01*
X82879000Y-61347050D01*
X84983000Y-61347050D01*
X84983000Y-62096950D01*
X85269974Y-62789767D01*
X85800233Y-63320026D01*
X86493050Y-63607000D01*
X87242950Y-63607000D01*
X87935767Y-63320026D01*
X88466026Y-62789767D01*
X88753000Y-62096950D01*
X88753000Y-61347050D01*
X88466026Y-60654233D01*
X87935767Y-60123974D01*
X87242950Y-59837000D01*
X86493050Y-59837000D01*
X85800233Y-60123974D01*
X85269974Y-60654233D01*
X84983000Y-61347050D01*
X82879000Y-61347050D01*
X82879000Y-58496060D01*
X94222422Y-58512990D01*
X94222422Y-58512990D01*
G37*
X94222422Y-58512990D02*
X94206822Y-58536337D01*
X91681340Y-61061820D01*
X91596505Y-61118505D01*
X91371949Y-61454578D01*
X91322220Y-61704584D01*
X91293096Y-61851000D01*
X91313000Y-61951064D01*
X91313000Y-62020345D01*
X91111191Y-62155191D01*
X90970843Y-62365235D01*
X90921560Y-62613000D01*
X90921560Y-64133000D01*
X90970843Y-64380765D01*
X91111191Y-64590809D01*
X91321235Y-64731157D01*
X91502049Y-64767123D01*
X91146376Y-65122796D01*
X90934000Y-65635517D01*
X90934000Y-66190483D01*
X91146376Y-66703204D01*
X91538796Y-67095624D01*
X92051517Y-67308000D01*
X92606483Y-67308000D01*
X93119204Y-67095624D01*
X93511624Y-66703204D01*
X93724000Y-66190483D01*
X93724000Y-65635517D01*
X93511624Y-65122796D01*
X93155951Y-64767123D01*
X93336765Y-64731157D01*
X93468700Y-64643000D01*
X97088887Y-64643000D01*
X97200260Y-65202909D01*
X97517423Y-65677577D01*
X97869758Y-65913000D01*
X97517423Y-66148423D01*
X97200260Y-66623091D01*
X97088887Y-67183000D01*
X97200260Y-67742909D01*
X97517423Y-68217577D01*
X97869758Y-68453000D01*
X97517423Y-68688423D01*
X97200260Y-69163091D01*
X97088887Y-69723000D01*
X97200260Y-70282909D01*
X97517423Y-70757577D01*
X97869758Y-70993000D01*
X97517423Y-71228423D01*
X97200260Y-71703091D01*
X97088887Y-72263000D01*
X97200260Y-72822909D01*
X97517423Y-73297577D01*
X97869758Y-73533000D01*
X97517423Y-73768423D01*
X97200260Y-74243091D01*
X97088887Y-74803000D01*
X97200260Y-75362909D01*
X97517423Y-75837577D01*
X97869758Y-76073000D01*
X97517423Y-76308423D01*
X97200260Y-76783091D01*
X97088887Y-77343000D01*
X97200260Y-77902909D01*
X97517423Y-78377577D01*
X97869758Y-78613000D01*
X97517423Y-78848423D01*
X97200260Y-79323091D01*
X97088887Y-79883000D01*
X97200260Y-80442909D01*
X97517423Y-80917577D01*
X97869758Y-81153000D01*
X97517423Y-81388423D01*
X97200260Y-81863091D01*
X97088887Y-82423000D01*
X97200260Y-82982909D01*
X97517423Y-83457577D01*
X97869758Y-83693000D01*
X97517423Y-83928423D01*
X97200260Y-84403091D01*
X97088887Y-84963000D01*
X97200260Y-85522909D01*
X97517423Y-85997577D01*
X97869758Y-86233000D01*
X97517423Y-86468423D01*
X97200260Y-86943091D01*
X97088887Y-87503000D01*
X97200260Y-88062909D01*
X97517423Y-88537577D01*
X97869758Y-88773000D01*
X97517423Y-89008423D01*
X97200260Y-89483091D01*
X97088887Y-90043000D01*
X97200260Y-90602909D01*
X97517423Y-91077577D01*
X97869758Y-91313000D01*
X97517423Y-91548423D01*
X97200260Y-92023091D01*
X97088887Y-92583000D01*
X97200260Y-93142909D01*
X97517423Y-93617577D01*
X97869758Y-93853000D01*
X97517423Y-94088423D01*
X97200260Y-94563091D01*
X97088887Y-95123000D01*
X97200260Y-95682909D01*
X97517423Y-96157577D01*
X97992091Y-96474740D01*
X98410667Y-96558000D01*
X98693333Y-96558000D01*
X99111909Y-96474740D01*
X99586577Y-96157577D01*
X99903740Y-95682909D01*
X100015113Y-95123000D01*
X112328887Y-95123000D01*
X112440260Y-95682909D01*
X112757423Y-96157577D01*
X113109758Y-96393000D01*
X112757423Y-96628423D01*
X112440260Y-97103091D01*
X112328887Y-97663000D01*
X112440260Y-98222909D01*
X112757423Y-98697577D01*
X112878106Y-98778215D01*
X112744235Y-98804843D01*
X112534191Y-98945191D01*
X112393843Y-99155235D01*
X112344560Y-99403000D01*
X112344560Y-101003000D01*
X112393843Y-101250765D01*
X112534191Y-101460809D01*
X112744235Y-101601157D01*
X112992000Y-101650440D01*
X114592000Y-101650440D01*
X114839765Y-101601157D01*
X115049809Y-101460809D01*
X115190157Y-101250765D01*
X115239440Y-101003000D01*
X115239440Y-100966033D01*
X119463573Y-100966033D01*
X119562236Y-101232888D01*
X120171961Y-101459409D01*
X120821960Y-101435357D01*
X121310764Y-101232888D01*
X121409427Y-100966033D01*
X125963573Y-100966033D01*
X126062236Y-101232888D01*
X126671961Y-101459409D01*
X127321960Y-101435357D01*
X127810764Y-101232888D01*
X127909427Y-100966033D01*
X126936500Y-99993106D01*
X125963573Y-100966033D01*
X121409427Y-100966033D01*
X120436500Y-99993106D01*
X119463573Y-100966033D01*
X115239440Y-100966033D01*
X115239440Y-99548962D01*
X118790592Y-99548962D01*
X118814644Y-100198961D01*
X119017113Y-100687765D01*
X119283968Y-100786428D01*
X120256895Y-99813501D01*
X120616105Y-99813501D01*
X121589032Y-100786428D01*
X121855887Y-100687765D01*
X122082408Y-100078040D01*
X122062831Y-99548962D01*
X125290592Y-99548962D01*
X125314644Y-100198961D01*
X125517113Y-100687765D01*
X125783968Y-100786428D01*
X126756895Y-99813501D01*
X127116105Y-99813501D01*
X128089032Y-100786428D01*
X128355887Y-100687765D01*
X128582408Y-100078040D01*
X128558356Y-99428041D01*
X128355887Y-98939237D01*
X128089032Y-98840574D01*
X127116105Y-99813501D01*
X126756895Y-99813501D01*
X125783968Y-98840574D01*
X125517113Y-98939237D01*
X125290592Y-99548962D01*
X122062831Y-99548962D01*
X122058356Y-99428041D01*
X121855887Y-98939237D01*
X121589032Y-98840574D01*
X120616105Y-99813501D01*
X120256895Y-99813501D01*
X119283968Y-98840574D01*
X119017113Y-98939237D01*
X118790592Y-99548962D01*
X115239440Y-99548962D01*
X115239440Y-99403000D01*
X115190157Y-99155235D01*
X115049809Y-98945191D01*
X114839765Y-98804843D01*
X114705894Y-98778215D01*
X114826577Y-98697577D01*
X114851037Y-98660969D01*
X119463573Y-98660969D01*
X120436500Y-99633896D01*
X121409427Y-98660969D01*
X125963573Y-98660969D01*
X126936500Y-99633896D01*
X127909427Y-98660969D01*
X127810764Y-98394114D01*
X127201039Y-98167593D01*
X126551040Y-98191645D01*
X126062236Y-98394114D01*
X125963573Y-98660969D01*
X121409427Y-98660969D01*
X121310764Y-98394114D01*
X120701039Y-98167593D01*
X120051040Y-98191645D01*
X119562236Y-98394114D01*
X119463573Y-98660969D01*
X114851037Y-98660969D01*
X115143740Y-98222909D01*
X115255113Y-97663000D01*
X115143740Y-97103091D01*
X114826577Y-96628423D01*
X114474242Y-96393000D01*
X114826577Y-96157577D01*
X115143740Y-95682909D01*
X115255113Y-95123000D01*
X115228316Y-94988279D01*
X118801500Y-94988279D01*
X118801500Y-95638723D01*
X119050414Y-96239654D01*
X119510347Y-96699587D01*
X120111278Y-96948501D01*
X120761722Y-96948501D01*
X121362653Y-96699587D01*
X121822586Y-96239654D01*
X122071500Y-95638723D01*
X122071500Y-94988279D01*
X125301500Y-94988279D01*
X125301500Y-95638723D01*
X125550414Y-96239654D01*
X126010347Y-96699587D01*
X126611278Y-96948501D01*
X127261722Y-96948501D01*
X127862653Y-96699587D01*
X128322586Y-96239654D01*
X128571500Y-95638723D01*
X128571500Y-94988279D01*
X128322586Y-94387348D01*
X127862653Y-93927415D01*
X127261722Y-93678501D01*
X126611278Y-93678501D01*
X126010347Y-93927415D01*
X125550414Y-94387348D01*
X125301500Y-94988279D01*
X122071500Y-94988279D01*
X121822586Y-94387348D01*
X121362653Y-93927415D01*
X120761722Y-93678501D01*
X120111278Y-93678501D01*
X119510347Y-93927415D01*
X119050414Y-94387348D01*
X118801500Y-94988279D01*
X115228316Y-94988279D01*
X115143740Y-94563091D01*
X114826577Y-94088423D01*
X114351909Y-93771260D01*
X113933333Y-93688000D01*
X113650667Y-93688000D01*
X113232091Y-93771260D01*
X112757423Y-94088423D01*
X112440260Y-94563091D01*
X112328887Y-95123000D01*
X100015113Y-95123000D01*
X99903740Y-94563091D01*
X99586577Y-94088423D01*
X99234242Y-93853000D01*
X99586577Y-93617577D01*
X99903740Y-93142909D01*
X100015113Y-92583000D01*
X99903740Y-92023091D01*
X99586577Y-91548423D01*
X99234242Y-91313000D01*
X99586577Y-91077577D01*
X99903740Y-90602909D01*
X100015113Y-90043000D01*
X99903740Y-89483091D01*
X99586577Y-89008423D01*
X99234242Y-88773000D01*
X99586577Y-88537577D01*
X99903740Y-88062909D01*
X100015113Y-87503000D01*
X99903740Y-86943091D01*
X99586577Y-86468423D01*
X99234242Y-86233000D01*
X99586577Y-85997577D01*
X99903740Y-85522909D01*
X100015113Y-84963000D01*
X99903740Y-84403091D01*
X99586577Y-83928423D01*
X99234242Y-83693000D01*
X99586577Y-83457577D01*
X99903740Y-82982909D01*
X100015113Y-82423000D01*
X99903740Y-81863091D01*
X99586577Y-81388423D01*
X99234242Y-81153000D01*
X99586577Y-80917577D01*
X99903740Y-80442909D01*
X100015113Y-79883000D01*
X99903740Y-79323091D01*
X99586577Y-78848423D01*
X99234242Y-78613000D01*
X99586577Y-78377577D01*
X99903740Y-77902909D01*
X100015113Y-77343000D01*
X99903740Y-76783091D01*
X99586577Y-76308423D01*
X99234242Y-76073000D01*
X99586577Y-75837577D01*
X99903740Y-75362909D01*
X100015113Y-74803000D01*
X99903740Y-74243091D01*
X99586577Y-73768423D01*
X99234242Y-73533000D01*
X99586577Y-73297577D01*
X99903740Y-72822909D01*
X100015113Y-72263000D01*
X99980956Y-72091279D01*
X108572236Y-63500000D01*
X112919689Y-63500000D01*
X112757423Y-63608423D01*
X112440260Y-64083091D01*
X112328887Y-64643000D01*
X112440260Y-65202909D01*
X112757423Y-65677577D01*
X113109758Y-65913000D01*
X112757423Y-66148423D01*
X112440260Y-66623091D01*
X112328887Y-67183000D01*
X112440260Y-67742909D01*
X112757423Y-68217577D01*
X113109758Y-68453000D01*
X112757423Y-68688423D01*
X112440260Y-69163091D01*
X112328887Y-69723000D01*
X112440260Y-70282909D01*
X112757423Y-70757577D01*
X113109758Y-70993000D01*
X112757423Y-71228423D01*
X112440260Y-71703091D01*
X112328887Y-72263000D01*
X112440260Y-72822909D01*
X112757423Y-73297577D01*
X113109758Y-73533000D01*
X112757423Y-73768423D01*
X112440260Y-74243091D01*
X112328887Y-74803000D01*
X112440260Y-75362909D01*
X112757423Y-75837577D01*
X113109758Y-76073000D01*
X112757423Y-76308423D01*
X112440260Y-76783091D01*
X112328887Y-77343000D01*
X112440260Y-77902909D01*
X112757423Y-78377577D01*
X113109758Y-78613000D01*
X112757423Y-78848423D01*
X112440260Y-79323091D01*
X112328887Y-79883000D01*
X112440260Y-80442909D01*
X112757423Y-80917577D01*
X113109758Y-81153000D01*
X112757423Y-81388423D01*
X112440260Y-81863091D01*
X112328887Y-82423000D01*
X112440260Y-82982909D01*
X112757423Y-83457577D01*
X113109758Y-83693000D01*
X112757423Y-83928423D01*
X112440260Y-84403091D01*
X112328887Y-84963000D01*
X112440260Y-85522909D01*
X112757423Y-85997577D01*
X113109758Y-86233000D01*
X112757423Y-86468423D01*
X112440260Y-86943091D01*
X112328887Y-87503000D01*
X112440260Y-88062909D01*
X112757423Y-88537577D01*
X113109758Y-88773000D01*
X112757423Y-89008423D01*
X112440260Y-89483091D01*
X112328887Y-90043000D01*
X112440260Y-90602909D01*
X112757423Y-91077577D01*
X113232091Y-91394740D01*
X113650667Y-91478000D01*
X113933333Y-91478000D01*
X114351909Y-91394740D01*
X114826577Y-91077577D01*
X115143740Y-90602909D01*
X115255113Y-90043000D01*
X115143740Y-89483091D01*
X114826577Y-89008423D01*
X114474242Y-88773000D01*
X114826577Y-88537577D01*
X115143740Y-88062909D01*
X115255113Y-87503000D01*
X115143740Y-86943091D01*
X114826577Y-86468423D01*
X114474242Y-86233000D01*
X114826577Y-85997577D01*
X115143740Y-85522909D01*
X115225191Y-85113427D01*
X118371971Y-88260207D01*
X118421567Y-88334433D01*
X118495793Y-88384029D01*
X118715629Y-88530919D01*
X119062500Y-88599916D01*
X119150056Y-88582500D01*
X119391152Y-88582500D01*
X119488423Y-88728077D01*
X119963091Y-89045240D01*
X120381667Y-89128500D01*
X120664333Y-89128500D01*
X121082909Y-89045240D01*
X121557577Y-88728077D01*
X121874740Y-88253409D01*
X121986113Y-87693500D01*
X121874740Y-87133591D01*
X121557577Y-86658923D01*
X121205242Y-86423500D01*
X121557577Y-86188077D01*
X121874740Y-85713409D01*
X121986113Y-85153500D01*
X121874740Y-84593591D01*
X121557577Y-84118923D01*
X121205242Y-83883500D01*
X121557577Y-83648077D01*
X121874740Y-83173409D01*
X121986113Y-82613500D01*
X121874740Y-82053591D01*
X121557577Y-81578923D01*
X121205242Y-81343500D01*
X121557577Y-81108077D01*
X121874740Y-80633409D01*
X121986113Y-80073500D01*
X121874740Y-79513591D01*
X121557577Y-79038923D01*
X121082909Y-78721760D01*
X120664333Y-78638500D01*
X120408736Y-78638500D01*
X116006531Y-74236296D01*
X115956933Y-74162067D01*
X115662870Y-73965581D01*
X115403556Y-73914000D01*
X115403555Y-73914000D01*
X115316000Y-73896584D01*
X115228445Y-73914000D01*
X114923848Y-73914000D01*
X114826577Y-73768423D01*
X114474242Y-73533000D01*
X114826577Y-73297577D01*
X115143740Y-72822909D01*
X115255113Y-72263000D01*
X115143740Y-71703091D01*
X114826577Y-71228423D01*
X114474242Y-70993000D01*
X114826577Y-70757577D01*
X115143740Y-70282909D01*
X115255113Y-69723000D01*
X115143740Y-69163091D01*
X114826577Y-68688423D01*
X114474242Y-68453000D01*
X114826577Y-68217577D01*
X115143740Y-67742909D01*
X115255113Y-67183000D01*
X115143740Y-66623091D01*
X114826577Y-66148423D01*
X114474242Y-65913000D01*
X114826577Y-65677577D01*
X115143740Y-65202909D01*
X115255113Y-64643000D01*
X115143740Y-64083091D01*
X114826577Y-63608423D01*
X114664311Y-63500000D01*
X114820765Y-63500000D01*
X120551285Y-69230521D01*
X120254220Y-69353569D01*
X119963069Y-69644720D01*
X119817069Y-69997195D01*
X119194294Y-70619971D01*
X119120068Y-70669567D01*
X119070472Y-70743793D01*
X119070471Y-70743794D01*
X118923582Y-70963630D01*
X118854584Y-71310500D01*
X118872001Y-71398059D01*
X118872000Y-74689150D01*
X118726000Y-75041626D01*
X118726000Y-75453374D01*
X118883569Y-75833780D01*
X119174720Y-76124931D01*
X119555126Y-76282500D01*
X119966874Y-76282500D01*
X120347280Y-76124931D01*
X120638431Y-75833780D01*
X120796000Y-75453374D01*
X120796000Y-75041626D01*
X120650000Y-74689150D01*
X120650000Y-71678735D01*
X121074305Y-71254431D01*
X121426780Y-71108431D01*
X121717931Y-70817280D01*
X121840979Y-70520215D01*
X135001000Y-83680236D01*
X135001001Y-95084219D01*
X134983584Y-95171778D01*
X135052582Y-95518648D01*
X135189707Y-95723870D01*
X135249068Y-95812711D01*
X135323294Y-95862307D01*
X140240207Y-100779221D01*
X140289801Y-100853444D01*
X140364024Y-100903038D01*
X140364026Y-100903040D01*
X140583862Y-101049929D01*
X140583863Y-101049929D01*
X140583864Y-101049930D01*
X140843178Y-101101511D01*
X140930733Y-101118927D01*
X141018288Y-101101511D01*
X146382709Y-101101509D01*
X146470268Y-101118926D01*
X146817138Y-101049928D01*
X147036974Y-100903039D01*
X147036975Y-100903038D01*
X147111201Y-100853442D01*
X147160797Y-100779216D01*
X148108504Y-99831510D01*
X154525435Y-99831510D01*
X154612990Y-99848926D01*
X154700545Y-99831510D01*
X154700546Y-99831510D01*
X154959860Y-99779929D01*
X155253923Y-99583443D01*
X155303521Y-99509214D01*
X155999306Y-98813430D01*
X156351780Y-98667431D01*
X156642931Y-98376280D01*
X156800500Y-97995874D01*
X156800500Y-97584126D01*
X156642931Y-97203720D01*
X156351780Y-96912569D01*
X155971374Y-96755000D01*
X155559626Y-96755000D01*
X155179220Y-96912569D01*
X154888069Y-97203720D01*
X154742070Y-97556194D01*
X154244755Y-98053510D01*
X148672500Y-98053510D01*
X148672500Y-97838126D01*
X148514931Y-97457720D01*
X148223780Y-97166569D01*
X147843374Y-97009000D01*
X147431626Y-97009000D01*
X147051220Y-97166569D01*
X146760069Y-97457720D01*
X146614069Y-97810195D01*
X145808765Y-98615500D01*
X141592236Y-98615500D01*
X137985500Y-95008765D01*
X137985500Y-83399556D01*
X138002916Y-83312000D01*
X137933919Y-82965129D01*
X137787029Y-82745293D01*
X137737433Y-82671067D01*
X137663207Y-82621471D01*
X119038736Y-63997000D01*
X121706060Y-63997000D01*
X121706060Y-65797000D01*
X121755343Y-66044765D01*
X121895691Y-66254809D01*
X122105735Y-66395157D01*
X122353500Y-66444440D01*
X124153500Y-66444440D01*
X124401265Y-66395157D01*
X124611309Y-66254809D01*
X124751657Y-66044765D01*
X124800940Y-65797000D01*
X124800940Y-63997000D01*
X131548560Y-63997000D01*
X131548560Y-65797000D01*
X131597843Y-66044765D01*
X131738191Y-66254809D01*
X131948235Y-66395157D01*
X132196000Y-66444440D01*
X133996000Y-66444440D01*
X134243765Y-66395157D01*
X134453809Y-66254809D01*
X134594157Y-66044765D01*
X134643440Y-65797000D01*
X134643440Y-63997000D01*
X134594157Y-63749235D01*
X134453809Y-63539191D01*
X134243765Y-63398843D01*
X134228092Y-63395725D01*
X134397310Y-63226507D01*
X134631000Y-62662330D01*
X134631000Y-62051670D01*
X134397310Y-61487493D01*
X133965507Y-61055690D01*
X133401330Y-60822000D01*
X132790670Y-60822000D01*
X132226493Y-61055690D01*
X131794690Y-61487493D01*
X131561000Y-62051670D01*
X131561000Y-62662330D01*
X131794690Y-63226507D01*
X131963908Y-63395725D01*
X131948235Y-63398843D01*
X131738191Y-63539191D01*
X131597843Y-63749235D01*
X131548560Y-63997000D01*
X124800940Y-63997000D01*
X124751657Y-63749235D01*
X124611309Y-63539191D01*
X124401265Y-63398843D01*
X124385592Y-63395725D01*
X124554810Y-63226507D01*
X124788500Y-62662330D01*
X124788500Y-62051670D01*
X124554810Y-61487493D01*
X124123007Y-61055690D01*
X123558830Y-60822000D01*
X122948170Y-60822000D01*
X122383993Y-61055690D01*
X121952190Y-61487493D01*
X121718500Y-62051670D01*
X121718500Y-62662330D01*
X121952190Y-63226507D01*
X122121408Y-63395725D01*
X122105735Y-63398843D01*
X121895691Y-63539191D01*
X121755343Y-63749235D01*
X121706060Y-63997000D01*
X119038736Y-63997000D01*
X115879531Y-60837796D01*
X115829933Y-60763567D01*
X115535870Y-60567081D01*
X115276556Y-60515500D01*
X115276555Y-60515500D01*
X115189000Y-60498084D01*
X115101445Y-60515500D01*
X101687556Y-60515500D01*
X101600000Y-60498084D01*
X101253129Y-60567081D01*
X101122697Y-60654233D01*
X100959067Y-60763567D01*
X100909471Y-60837793D01*
X98785295Y-62961970D01*
X98711066Y-63011568D01*
X98579815Y-63208000D01*
X98410667Y-63208000D01*
X97992091Y-63291260D01*
X97517423Y-63608423D01*
X97200260Y-64083091D01*
X97088887Y-64643000D01*
X93468700Y-64643000D01*
X93546809Y-64590809D01*
X93687157Y-64380765D01*
X93736440Y-64133000D01*
X93736440Y-62613000D01*
X93687157Y-62365235D01*
X93546809Y-62155191D01*
X93495760Y-62121081D01*
X95416841Y-60200000D01*
X137122160Y-60200000D01*
X146403822Y-69481663D01*
X146460505Y-69566495D01*
X146796577Y-69791051D01*
X147092935Y-69850000D01*
X147092936Y-69850000D01*
X147193000Y-69869904D01*
X147293063Y-69850000D01*
X147322256Y-69850000D01*
X147368126Y-69869000D01*
X147779874Y-69869000D01*
X147965877Y-69791955D01*
X147970423Y-69791051D01*
X147974277Y-69788476D01*
X148160280Y-69711431D01*
X148302641Y-69569070D01*
X148306495Y-69566495D01*
X148309070Y-69562641D01*
X148451431Y-69420280D01*
X148528476Y-69234277D01*
X148531051Y-69230423D01*
X148531955Y-69225877D01*
X148609000Y-69039874D01*
X148609000Y-68838545D01*
X148609904Y-68834000D01*
X148609000Y-68829455D01*
X148609000Y-68628126D01*
X148531955Y-68442123D01*
X148531051Y-68437577D01*
X148528476Y-68433723D01*
X148451431Y-68247720D01*
X148309070Y-68105359D01*
X148306495Y-68101505D01*
X148302641Y-68098930D01*
X148160280Y-67956569D01*
X147974277Y-67879524D01*
X147970423Y-67876949D01*
X147965877Y-67876045D01*
X147779874Y-67799000D01*
X147594841Y-67799000D01*
X141015891Y-61220050D01*
X161564000Y-61220050D01*
X161564000Y-61969950D01*
X161850974Y-62662767D01*
X162381233Y-63193026D01*
X163074050Y-63480000D01*
X163823950Y-63480000D01*
X164516767Y-63193026D01*
X165047026Y-62662767D01*
X165334000Y-61969950D01*
X165334000Y-61220050D01*
X165047026Y-60527233D01*
X164516767Y-59996974D01*
X163823950Y-59710000D01*
X163074050Y-59710000D01*
X162381233Y-59996974D01*
X161850974Y-60527233D01*
X161564000Y-61220050D01*
X141015891Y-61220050D01*
X138374729Y-58578889D01*
X166549001Y-58620941D01*
X166549000Y-110236000D01*
X103956657Y-110236000D01*
X104054320Y-110138337D01*
X104267000Y-109624881D01*
X104267000Y-109069119D01*
X104054320Y-108555663D01*
X103661337Y-108162680D01*
X103147881Y-107950000D01*
X102592119Y-107950000D01*
X102078663Y-108162680D01*
X101685680Y-108555663D01*
X101473000Y-109069119D01*
X101473000Y-109624881D01*
X101685680Y-110138337D01*
X101783343Y-110236000D01*
X82879000Y-110236000D01*
X82879000Y-100203000D01*
X97088887Y-100203000D01*
X97200260Y-100762909D01*
X97517423Y-101237577D01*
X97992091Y-101554740D01*
X98410667Y-101638000D01*
X98693333Y-101638000D01*
X99111909Y-101554740D01*
X99586577Y-101237577D01*
X99903740Y-100762909D01*
X100015113Y-100203000D01*
X99903740Y-99643091D01*
X99586577Y-99168423D01*
X99111909Y-98851260D01*
X98693333Y-98768000D01*
X98410667Y-98768000D01*
X97992091Y-98851260D01*
X97517423Y-99168423D01*
X97200260Y-99643091D01*
X97088887Y-100203000D01*
X82879000Y-100203000D01*
X82879000Y-77279500D01*
X86487000Y-77279500D01*
X86487000Y-86995000D01*
X86496667Y-87043601D01*
X86524197Y-87084803D01*
X86565399Y-87112333D01*
X86614000Y-87122000D01*
X93218000Y-87122000D01*
X93266601Y-87112333D01*
X93307803Y-87084803D01*
X93335333Y-87043601D01*
X93345000Y-86995000D01*
X93345000Y-77343000D01*
X93335795Y-77295530D01*
X93308662Y-77254065D01*
X93267727Y-77226140D01*
X93219221Y-77216006D01*
X86615221Y-77152506D01*
X86565399Y-77162167D01*
X86524197Y-77189697D01*
X86496667Y-77230899D01*
X86487000Y-77279500D01*
X82879000Y-77279500D01*
X82879000Y-61347050D01*
X84983000Y-61347050D01*
X84983000Y-62096950D01*
X85269974Y-62789767D01*
X85800233Y-63320026D01*
X86493050Y-63607000D01*
X87242950Y-63607000D01*
X87935767Y-63320026D01*
X88466026Y-62789767D01*
X88753000Y-62096950D01*
X88753000Y-61347050D01*
X88466026Y-60654233D01*
X87935767Y-60123974D01*
X87242950Y-59837000D01*
X86493050Y-59837000D01*
X85800233Y-60123974D01*
X85269974Y-60654233D01*
X84983000Y-61347050D01*
X82879000Y-61347050D01*
X82879000Y-58496060D01*
X94222422Y-58512990D01*
G04 #@! TD*
M02*
