G04 #@! TF.GenerationSoftware,KiCad,Pcbnew,5.1.2-f72e74a~84~ubuntu18.04.1*
G04 #@! TF.CreationDate,2019-06-24T12:10:09-06:00*
G04 #@! TF.ProjectId,LORA_Relay_AC,4c4f5241-5f52-4656-9c61-795f41432e6b,rev?*
G04 #@! TF.SameCoordinates,Original*
G04 #@! TF.FileFunction,Soldermask,Bot*
G04 #@! TF.FilePolarity,Negative*
%FSLAX46Y46*%
G04 Gerber Fmt 4.6, Leading zero omitted, Abs format (unit mm)*
G04 Created by KiCad (PCBNEW 5.1.2-f72e74a~84~ubuntu18.04.1) date 2019-06-24 12:10:09*
%MOMM*%
%LPD*%
G04 APERTURE LIST*
%ADD10C,0.100000*%
G04 APERTURE END LIST*
D10*
G36*
X94185487Y-148227996D02*
G01*
X94422253Y-148326068D01*
X94422255Y-148326069D01*
X94635339Y-148468447D01*
X94816553Y-148649661D01*
X94901412Y-148776661D01*
X94958932Y-148862747D01*
X95057004Y-149099513D01*
X95107000Y-149350861D01*
X95107000Y-149607139D01*
X95057004Y-149858487D01*
X95005515Y-149982792D01*
X94998402Y-150006241D01*
X94996000Y-150030627D01*
X94996000Y-152983223D01*
X94998402Y-153007609D01*
X95005515Y-153031058D01*
X95017066Y-153052669D01*
X95032611Y-153071611D01*
X95594389Y-153633389D01*
X95613331Y-153648934D01*
X95634942Y-153660485D01*
X95658391Y-153667598D01*
X95682777Y-153670000D01*
X117223001Y-153670000D01*
X117247387Y-153667598D01*
X117270836Y-153660485D01*
X117292447Y-153648934D01*
X117311389Y-153633389D01*
X117326934Y-153614447D01*
X117338485Y-153592836D01*
X117345598Y-153569387D01*
X117348000Y-153545001D01*
X117348000Y-149606000D01*
X117348949Y-149606000D01*
X117351298Y-149604072D01*
X117368625Y-149586745D01*
X117382239Y-149566371D01*
X117391617Y-149543733D01*
X117396398Y-149519699D01*
X117397000Y-149507445D01*
X117397000Y-149477861D01*
X117446996Y-149226513D01*
X117545068Y-148989747D01*
X117687447Y-148776661D01*
X117868661Y-148595447D01*
X118081745Y-148453069D01*
X118081747Y-148453068D01*
X118318513Y-148354996D01*
X118569861Y-148305000D01*
X118826139Y-148305000D01*
X119077487Y-148354996D01*
X119314253Y-148453068D01*
X119314255Y-148453069D01*
X119527339Y-148595447D01*
X119708553Y-148776661D01*
X119850932Y-148989747D01*
X119949004Y-149226513D01*
X119999000Y-149477861D01*
X119999000Y-149546032D01*
X120001402Y-149570418D01*
X120013759Y-149604955D01*
X120014318Y-149606000D01*
X120015000Y-149606000D01*
X120015000Y-153545001D01*
X120017402Y-153569387D01*
X120024515Y-153592836D01*
X120036066Y-153614447D01*
X120051611Y-153633389D01*
X120070553Y-153648934D01*
X120092164Y-153660485D01*
X120115613Y-153667598D01*
X120139999Y-153670000D01*
X143201682Y-153670000D01*
X143226068Y-153667598D01*
X143249517Y-153660485D01*
X143271128Y-153648934D01*
X143293063Y-153630290D01*
X143307850Y-153614447D01*
X146274137Y-150436282D01*
X146289019Y-150416817D01*
X146299819Y-150394821D01*
X146306120Y-150371141D01*
X146307680Y-150346686D01*
X146304439Y-150322397D01*
X146296522Y-150299208D01*
X146286687Y-150281548D01*
X146247070Y-150222257D01*
X146148996Y-149985487D01*
X146099000Y-149734139D01*
X146099000Y-149477861D01*
X146148996Y-149226513D01*
X146247068Y-148989747D01*
X146389447Y-148776661D01*
X146570661Y-148595447D01*
X146783745Y-148453069D01*
X146783747Y-148453068D01*
X147020513Y-148354996D01*
X147271861Y-148305000D01*
X147528139Y-148305000D01*
X147779487Y-148354996D01*
X148016253Y-148453068D01*
X148016255Y-148453069D01*
X148229339Y-148595447D01*
X148410553Y-148776661D01*
X148552932Y-148989747D01*
X148651004Y-149226513D01*
X148701000Y-149477861D01*
X148701000Y-149734139D01*
X148651004Y-149985487D01*
X148599515Y-150109792D01*
X148592402Y-150133241D01*
X148590000Y-150157627D01*
X148590000Y-152019000D01*
X148585654Y-152023346D01*
X148189999Y-152418996D01*
X144401735Y-156207211D01*
X144395677Y-156207227D01*
X144395675Y-156207227D01*
X94748136Y-156336984D01*
X94742000Y-156337000D01*
X92456000Y-154051000D01*
X92456000Y-149479000D01*
X92456949Y-149479000D01*
X92459298Y-149477072D01*
X92476625Y-149459745D01*
X92490239Y-149439371D01*
X92499617Y-149416733D01*
X92504398Y-149392699D01*
X92505000Y-149380445D01*
X92505000Y-149350861D01*
X92554996Y-149099513D01*
X92653068Y-148862747D01*
X92710589Y-148776661D01*
X92795447Y-148649661D01*
X92976661Y-148468447D01*
X93189745Y-148326069D01*
X93189747Y-148326068D01*
X93426513Y-148227996D01*
X93677861Y-148178000D01*
X93934139Y-148178000D01*
X94185487Y-148227996D01*
X94185487Y-148227996D01*
G37*
G36*
X87310987Y-152418996D02*
G01*
X87547753Y-152517068D01*
X87547755Y-152517069D01*
X87760839Y-152659447D01*
X87942053Y-152840661D01*
X88084432Y-153053747D01*
X88182504Y-153290513D01*
X88232500Y-153541861D01*
X88232500Y-153798139D01*
X88182504Y-154049487D01*
X88084432Y-154286253D01*
X88084431Y-154286255D01*
X87942053Y-154499339D01*
X87760839Y-154680553D01*
X87547755Y-154822931D01*
X87547754Y-154822932D01*
X87547753Y-154822932D01*
X87310987Y-154921004D01*
X87059639Y-154971000D01*
X86803361Y-154971000D01*
X86552013Y-154921004D01*
X86315247Y-154822932D01*
X86315246Y-154822932D01*
X86315245Y-154822931D01*
X86102161Y-154680553D01*
X85920947Y-154499339D01*
X85778569Y-154286255D01*
X85778568Y-154286253D01*
X85680496Y-154049487D01*
X85630500Y-153798139D01*
X85630500Y-153541861D01*
X85680496Y-153290513D01*
X85778568Y-153053747D01*
X85920947Y-152840661D01*
X86102161Y-152659447D01*
X86315245Y-152517069D01*
X86315247Y-152517068D01*
X86552013Y-152418996D01*
X86803361Y-152369000D01*
X87059639Y-152369000D01*
X87310987Y-152418996D01*
X87310987Y-152418996D01*
G37*
G36*
X163891987Y-152418996D02*
G01*
X164128753Y-152517068D01*
X164128755Y-152517069D01*
X164341839Y-152659447D01*
X164523053Y-152840661D01*
X164665432Y-153053747D01*
X164763504Y-153290513D01*
X164813500Y-153541861D01*
X164813500Y-153798139D01*
X164763504Y-154049487D01*
X164665432Y-154286253D01*
X164665431Y-154286255D01*
X164523053Y-154499339D01*
X164341839Y-154680553D01*
X164128755Y-154822931D01*
X164128754Y-154822932D01*
X164128753Y-154822932D01*
X163891987Y-154921004D01*
X163640639Y-154971000D01*
X163384361Y-154971000D01*
X163133013Y-154921004D01*
X162896247Y-154822932D01*
X162896246Y-154822932D01*
X162896245Y-154822931D01*
X162683161Y-154680553D01*
X162501947Y-154499339D01*
X162359569Y-154286255D01*
X162359568Y-154286253D01*
X162261496Y-154049487D01*
X162211500Y-153798139D01*
X162211500Y-153541861D01*
X162261496Y-153290513D01*
X162359568Y-153053747D01*
X162501947Y-152840661D01*
X162683161Y-152659447D01*
X162896245Y-152517069D01*
X162896247Y-152517068D01*
X163133013Y-152418996D01*
X163384361Y-152369000D01*
X163640639Y-152369000D01*
X163891987Y-152418996D01*
X163891987Y-152418996D01*
G37*
G36*
X146652585Y-135183802D02*
G01*
X146802410Y-135213604D01*
X147084674Y-135330521D01*
X147338705Y-135500259D01*
X147554741Y-135716295D01*
X147724479Y-135970326D01*
X147809502Y-136175591D01*
X147841396Y-136252590D01*
X147841896Y-136255105D01*
X147849010Y-136278554D01*
X147860561Y-136300165D01*
X147876105Y-136319105D01*
X153670000Y-142113000D01*
X153670000Y-149309702D01*
X153672402Y-149334088D01*
X153701000Y-149477861D01*
X153701000Y-149734139D01*
X153651004Y-149985487D01*
X153618735Y-150063391D01*
X153552931Y-150222255D01*
X153410553Y-150435339D01*
X153229339Y-150616553D01*
X153016255Y-150758931D01*
X153016254Y-150758932D01*
X153016253Y-150758932D01*
X152779487Y-150857004D01*
X152528139Y-150907000D01*
X152271861Y-150907000D01*
X152020513Y-150857004D01*
X151783747Y-150758932D01*
X151783746Y-150758932D01*
X151783745Y-150758931D01*
X151570661Y-150616553D01*
X151389447Y-150435339D01*
X151247069Y-150222255D01*
X151181265Y-150063391D01*
X151148996Y-149985487D01*
X151099000Y-149734139D01*
X151099000Y-149477861D01*
X151127598Y-149334088D01*
X151130000Y-149309702D01*
X151130000Y-143434777D01*
X151127598Y-143410391D01*
X151120485Y-143386942D01*
X151108934Y-143365331D01*
X151093389Y-143346389D01*
X145981581Y-138234581D01*
X145962639Y-138219036D01*
X145941028Y-138207485D01*
X145917579Y-138200372D01*
X145897590Y-138196396D01*
X145615326Y-138079479D01*
X145361295Y-137909741D01*
X145145259Y-137693705D01*
X144975521Y-137439674D01*
X144858604Y-137157410D01*
X144820408Y-136965384D01*
X144799000Y-136857761D01*
X144799000Y-136552239D01*
X144848658Y-136302591D01*
X144858604Y-136252590D01*
X144975521Y-135970326D01*
X145145259Y-135716295D01*
X145361295Y-135500259D01*
X145615326Y-135330521D01*
X145897590Y-135213604D01*
X146047415Y-135183802D01*
X146197239Y-135154000D01*
X146502761Y-135154000D01*
X146652585Y-135183802D01*
X146652585Y-135183802D01*
G37*
G36*
X114077487Y-148354996D02*
G01*
X114314253Y-148453068D01*
X114314255Y-148453069D01*
X114527339Y-148595447D01*
X114708553Y-148776661D01*
X114850932Y-148989747D01*
X114949004Y-149226513D01*
X114999000Y-149477861D01*
X114999000Y-149734139D01*
X114949004Y-149985487D01*
X114916735Y-150063391D01*
X114850931Y-150222255D01*
X114708553Y-150435339D01*
X114527339Y-150616553D01*
X114314255Y-150758931D01*
X114314254Y-150758932D01*
X114314253Y-150758932D01*
X114077487Y-150857004D01*
X113826139Y-150907000D01*
X113569861Y-150907000D01*
X113318513Y-150857004D01*
X113081747Y-150758932D01*
X113081746Y-150758932D01*
X113081745Y-150758931D01*
X112868661Y-150616553D01*
X112687447Y-150435339D01*
X112545069Y-150222255D01*
X112479265Y-150063391D01*
X112446996Y-149985487D01*
X112397000Y-149734139D01*
X112397000Y-149477861D01*
X112446996Y-149226513D01*
X112545068Y-148989747D01*
X112687447Y-148776661D01*
X112868661Y-148595447D01*
X113081745Y-148453069D01*
X113081747Y-148453068D01*
X113318513Y-148354996D01*
X113569861Y-148305000D01*
X113826139Y-148305000D01*
X114077487Y-148354996D01*
X114077487Y-148354996D01*
G37*
G36*
X129645043Y-135086604D02*
G01*
X129896410Y-135136604D01*
X130178674Y-135253521D01*
X130432705Y-135423259D01*
X130648741Y-135639295D01*
X130818479Y-135893326D01*
X130922311Y-136144000D01*
X130935396Y-136175591D01*
X130995000Y-136475239D01*
X130995000Y-136780761D01*
X130979684Y-136857760D01*
X130935396Y-137080410D01*
X130818479Y-137362674D01*
X130704060Y-137533914D01*
X130692515Y-137555514D01*
X130685402Y-137578963D01*
X130683000Y-137603349D01*
X130683000Y-149352000D01*
X130035611Y-149999389D01*
X130020066Y-150018331D01*
X130008515Y-150039942D01*
X130001402Y-150063391D01*
X129999000Y-150087777D01*
X129999000Y-150907000D01*
X127397000Y-150907000D01*
X127397000Y-148305000D01*
X128145001Y-148305000D01*
X128169387Y-148302598D01*
X128192836Y-148295485D01*
X128214447Y-148283934D01*
X128233389Y-148268389D01*
X128248934Y-148249447D01*
X128260485Y-148227836D01*
X128267598Y-148204387D01*
X128270000Y-148180001D01*
X128270000Y-137699221D01*
X128267598Y-137674835D01*
X128260485Y-137651386D01*
X128248934Y-137629775D01*
X128243873Y-137623608D01*
X128239264Y-137616710D01*
X128239259Y-137616705D01*
X128069521Y-137362674D01*
X127952604Y-137080410D01*
X127908316Y-136857760D01*
X127893000Y-136780761D01*
X127893000Y-136475239D01*
X127952604Y-136175591D01*
X127965689Y-136144000D01*
X128069521Y-135893326D01*
X128239259Y-135639295D01*
X128455295Y-135423259D01*
X128709326Y-135253521D01*
X128991590Y-135136604D01*
X129242957Y-135086604D01*
X129291239Y-135077000D01*
X129596761Y-135077000D01*
X129645043Y-135086604D01*
X129645043Y-135086604D01*
G37*
G36*
X117696585Y-135056802D02*
G01*
X117846410Y-135086604D01*
X118128674Y-135203521D01*
X118382705Y-135373259D01*
X118598741Y-135589295D01*
X118768479Y-135843326D01*
X118885396Y-136125590D01*
X118895342Y-136175591D01*
X118917430Y-136286637D01*
X118924543Y-136310086D01*
X118936094Y-136331697D01*
X118951639Y-136350639D01*
X124968000Y-142367000D01*
X124968000Y-149309702D01*
X124970402Y-149334088D01*
X124999000Y-149477861D01*
X124999000Y-149734139D01*
X124949004Y-149985487D01*
X124916735Y-150063391D01*
X124850931Y-150222255D01*
X124708553Y-150435339D01*
X124527339Y-150616553D01*
X124314255Y-150758931D01*
X124314254Y-150758932D01*
X124314253Y-150758932D01*
X124077487Y-150857004D01*
X123826139Y-150907000D01*
X123569861Y-150907000D01*
X123318513Y-150857004D01*
X123081747Y-150758932D01*
X123081746Y-150758932D01*
X123081745Y-150758931D01*
X122868661Y-150616553D01*
X122687447Y-150435339D01*
X122545069Y-150222255D01*
X122479265Y-150063391D01*
X122446996Y-149985487D01*
X122397000Y-149734139D01*
X122397000Y-149477861D01*
X122425598Y-149334088D01*
X122428000Y-149309702D01*
X122428000Y-143561777D01*
X122425598Y-143537391D01*
X122418485Y-143513942D01*
X122406934Y-143492331D01*
X122391389Y-143473389D01*
X117025581Y-138107581D01*
X117006639Y-138092036D01*
X116985028Y-138080485D01*
X116961579Y-138073372D01*
X116941590Y-138069396D01*
X116659326Y-137952479D01*
X116405295Y-137782741D01*
X116189259Y-137566705D01*
X116019521Y-137312674D01*
X115902604Y-137030410D01*
X115860346Y-136817964D01*
X115843000Y-136730761D01*
X115843000Y-136425239D01*
X115892658Y-136175591D01*
X115902604Y-136125590D01*
X116019521Y-135843326D01*
X116189259Y-135589295D01*
X116405295Y-135373259D01*
X116659326Y-135203521D01*
X116941590Y-135086604D01*
X117091415Y-135056802D01*
X117241239Y-135027000D01*
X117546761Y-135027000D01*
X117696585Y-135056802D01*
X117696585Y-135056802D01*
G37*
G36*
X142779487Y-148354996D02*
G01*
X143016253Y-148453068D01*
X143016255Y-148453069D01*
X143229339Y-148595447D01*
X143410553Y-148776661D01*
X143552932Y-148989747D01*
X143651004Y-149226513D01*
X143701000Y-149477861D01*
X143701000Y-149734139D01*
X143651004Y-149985487D01*
X143618735Y-150063391D01*
X143552931Y-150222255D01*
X143410553Y-150435339D01*
X143229339Y-150616553D01*
X143016255Y-150758931D01*
X143016254Y-150758932D01*
X143016253Y-150758932D01*
X142779487Y-150857004D01*
X142528139Y-150907000D01*
X142271861Y-150907000D01*
X142020513Y-150857004D01*
X141783747Y-150758932D01*
X141783746Y-150758932D01*
X141783745Y-150758931D01*
X141570661Y-150616553D01*
X141389447Y-150435339D01*
X141247069Y-150222255D01*
X141181265Y-150063391D01*
X141148996Y-149985487D01*
X141099000Y-149734139D01*
X141099000Y-149477861D01*
X141148996Y-149226513D01*
X141247068Y-148989747D01*
X141389447Y-148776661D01*
X141570661Y-148595447D01*
X141783745Y-148453069D01*
X141783747Y-148453068D01*
X142020513Y-148354996D01*
X142271861Y-148305000D01*
X142528139Y-148305000D01*
X142779487Y-148354996D01*
X142779487Y-148354996D01*
G37*
G36*
X158601043Y-135213604D02*
G01*
X158852410Y-135263604D01*
X159134674Y-135380521D01*
X159388705Y-135550259D01*
X159604741Y-135766295D01*
X159774479Y-136020326D01*
X159891396Y-136302590D01*
X159915792Y-136425239D01*
X159941055Y-136552240D01*
X159951000Y-136602240D01*
X159951000Y-136907760D01*
X159891396Y-137207410D01*
X159775513Y-137487178D01*
X159768402Y-137510620D01*
X159766000Y-137535006D01*
X159766000Y-149225000D01*
X158750000Y-150241000D01*
X158749554Y-150240588D01*
X158746702Y-150242928D01*
X158729375Y-150260255D01*
X158715761Y-150280629D01*
X158706383Y-150303267D01*
X158701602Y-150327301D01*
X158701000Y-150339555D01*
X158701000Y-150907000D01*
X156099000Y-150907000D01*
X156099000Y-148305000D01*
X156974001Y-148305000D01*
X156998387Y-148302598D01*
X157021836Y-148295485D01*
X157043447Y-148283934D01*
X157062389Y-148268389D01*
X157077934Y-148249447D01*
X157089485Y-148227836D01*
X157096598Y-148204387D01*
X157099000Y-148180001D01*
X157099000Y-137637560D01*
X157096598Y-137613174D01*
X157089485Y-137589725D01*
X157077938Y-137568122D01*
X157025521Y-137489674D01*
X156908604Y-137207410D01*
X156849000Y-136907760D01*
X156849000Y-136602240D01*
X156858946Y-136552240D01*
X156884208Y-136425239D01*
X156908604Y-136302590D01*
X157025521Y-136020326D01*
X157195259Y-135766295D01*
X157411295Y-135550259D01*
X157665326Y-135380521D01*
X157947590Y-135263604D01*
X158198957Y-135213604D01*
X158247239Y-135204000D01*
X158552761Y-135204000D01*
X158601043Y-135213604D01*
X158601043Y-135213604D01*
G37*
G36*
X105107000Y-150780000D02*
G01*
X102505000Y-150780000D01*
X102505000Y-148178000D01*
X105107000Y-148178000D01*
X105107000Y-150780000D01*
X105107000Y-150780000D01*
G37*
G36*
X110594545Y-136690964D02*
G01*
X110725737Y-136730761D01*
X110890565Y-136780761D01*
X110939317Y-136795550D01*
X111257054Y-136965383D01*
X111535556Y-137193944D01*
X111764117Y-137472446D01*
X111933950Y-137790183D01*
X112038536Y-138134955D01*
X112065000Y-138403651D01*
X112065000Y-140742349D01*
X112038536Y-141011045D01*
X111933950Y-141355817D01*
X111764117Y-141673554D01*
X111535556Y-141952056D01*
X111257054Y-142180617D01*
X110939316Y-142350450D01*
X110594544Y-142455036D01*
X110236000Y-142490349D01*
X109877455Y-142455036D01*
X109532683Y-142350450D01*
X109214946Y-142180617D01*
X108936444Y-141952056D01*
X108707883Y-141673554D01*
X108538050Y-141355816D01*
X108433464Y-141011044D01*
X108428018Y-140955747D01*
X108423238Y-140931714D01*
X108413860Y-140909075D01*
X108400247Y-140888701D01*
X108382920Y-140871374D01*
X108362545Y-140857760D01*
X108339907Y-140848383D01*
X108315873Y-140843602D01*
X108303621Y-140843000D01*
X103810777Y-140843000D01*
X103786391Y-140845402D01*
X103762942Y-140852515D01*
X103741331Y-140864066D01*
X103722389Y-140879611D01*
X100112611Y-144489389D01*
X100097066Y-144508331D01*
X100085515Y-144529942D01*
X100078402Y-144553391D01*
X100076000Y-144577777D01*
X100076000Y-149182702D01*
X100078402Y-149207088D01*
X100107000Y-149350861D01*
X100107000Y-149607139D01*
X100057004Y-149858487D01*
X99958932Y-150095253D01*
X99958931Y-150095255D01*
X99816553Y-150308339D01*
X99635339Y-150489553D01*
X99422255Y-150631931D01*
X99422254Y-150631932D01*
X99422253Y-150631932D01*
X99185487Y-150730004D01*
X98934139Y-150780000D01*
X98677861Y-150780000D01*
X98426513Y-150730004D01*
X98189747Y-150631932D01*
X98189746Y-150631932D01*
X98189745Y-150631931D01*
X97976661Y-150489553D01*
X97795447Y-150308339D01*
X97653069Y-150095255D01*
X97653068Y-150095253D01*
X97554996Y-149858487D01*
X97505000Y-149607139D01*
X97505000Y-149350861D01*
X97533598Y-149207088D01*
X97536000Y-149182702D01*
X97536000Y-143383000D01*
X102616000Y-138303000D01*
X108303622Y-138303000D01*
X108328008Y-138300598D01*
X108351457Y-138293485D01*
X108373068Y-138281934D01*
X108392010Y-138266389D01*
X108407555Y-138247447D01*
X108419106Y-138225836D01*
X108426219Y-138202387D01*
X108428019Y-138190253D01*
X108433465Y-138134955D01*
X108538051Y-137790183D01*
X108707884Y-137472446D01*
X108936445Y-137193944D01*
X109214947Y-136965383D01*
X109532684Y-136795550D01*
X109581437Y-136780761D01*
X109746264Y-136730761D01*
X109877456Y-136690964D01*
X110236000Y-136655651D01*
X110594545Y-136690964D01*
X110594545Y-136690964D01*
G37*
G36*
X139550545Y-136817964D02*
G01*
X139681737Y-136857761D01*
X139846565Y-136907761D01*
X139895317Y-136922550D01*
X140213054Y-137092383D01*
X140491556Y-137320944D01*
X140720117Y-137599446D01*
X140889950Y-137917183D01*
X140994536Y-138261955D01*
X141021000Y-138530651D01*
X141021000Y-140869349D01*
X140994536Y-141138045D01*
X140889950Y-141482817D01*
X140720117Y-141800554D01*
X140491556Y-142079056D01*
X140213054Y-142307617D01*
X139895316Y-142477450D01*
X139550544Y-142582036D01*
X139192000Y-142617349D01*
X138833455Y-142582036D01*
X138488683Y-142477450D01*
X138170946Y-142307617D01*
X137892444Y-142079056D01*
X137663883Y-141800554D01*
X137494050Y-141482816D01*
X137389464Y-141138044D01*
X137363000Y-140869348D01*
X137363001Y-138530651D01*
X137389465Y-138261955D01*
X137494051Y-137917183D01*
X137663884Y-137599446D01*
X137892445Y-137320944D01*
X138170947Y-137092383D01*
X138488684Y-136922550D01*
X138537437Y-136907761D01*
X138702264Y-136857761D01*
X138833456Y-136817964D01*
X139192000Y-136782651D01*
X139550545Y-136817964D01*
X139550545Y-136817964D01*
G37*
G36*
X97773142Y-138029242D02*
G01*
X97921101Y-138090529D01*
X98054255Y-138179499D01*
X98167501Y-138292745D01*
X98256471Y-138425899D01*
X98317758Y-138573858D01*
X98349000Y-138730925D01*
X98349000Y-138891075D01*
X98317758Y-139048142D01*
X98256471Y-139196101D01*
X98167501Y-139329255D01*
X98054255Y-139442501D01*
X97921101Y-139531471D01*
X97773142Y-139592758D01*
X97616075Y-139624000D01*
X97455925Y-139624000D01*
X97298858Y-139592758D01*
X97150899Y-139531471D01*
X97017745Y-139442501D01*
X96904499Y-139329255D01*
X96815529Y-139196101D01*
X96754242Y-139048142D01*
X96723000Y-138891075D01*
X96723000Y-138730925D01*
X96754242Y-138573858D01*
X96815529Y-138425899D01*
X96904499Y-138292745D01*
X97017745Y-138179499D01*
X97150899Y-138090529D01*
X97298858Y-138029242D01*
X97455925Y-137998000D01*
X97616075Y-137998000D01*
X97773142Y-138029242D01*
X97773142Y-138029242D01*
G37*
G36*
X92693142Y-138029242D02*
G01*
X92841101Y-138090529D01*
X92974255Y-138179499D01*
X93087501Y-138292745D01*
X93176471Y-138425899D01*
X93237758Y-138573858D01*
X93269000Y-138730925D01*
X93269000Y-138891075D01*
X93237758Y-139048142D01*
X93176471Y-139196101D01*
X93087501Y-139329255D01*
X92974255Y-139442501D01*
X92841101Y-139531471D01*
X92693142Y-139592758D01*
X92536075Y-139624000D01*
X92375925Y-139624000D01*
X92218858Y-139592758D01*
X92070899Y-139531471D01*
X91937745Y-139442501D01*
X91824499Y-139329255D01*
X91735529Y-139196101D01*
X91674242Y-139048142D01*
X91643000Y-138891075D01*
X91643000Y-138730925D01*
X91674242Y-138573858D01*
X91735529Y-138425899D01*
X91824499Y-138292745D01*
X91937745Y-138179499D01*
X92070899Y-138090529D01*
X92218858Y-138029242D01*
X92375925Y-137998000D01*
X92536075Y-137998000D01*
X92693142Y-138029242D01*
X92693142Y-138029242D01*
G37*
G36*
X152702585Y-121033802D02*
G01*
X152852410Y-121063604D01*
X153134674Y-121180521D01*
X153388705Y-121350259D01*
X153604741Y-121566295D01*
X153774479Y-121820326D01*
X153891396Y-122102590D01*
X153951000Y-122402240D01*
X153951000Y-122707760D01*
X153891396Y-123007410D01*
X153774479Y-123289674D01*
X153691059Y-123414520D01*
X153679515Y-123436119D01*
X153672402Y-123459568D01*
X153670000Y-123483954D01*
X153670000Y-129667000D01*
X153196483Y-130149802D01*
X150556736Y-132841309D01*
X150431500Y-132969000D01*
X141124478Y-132969000D01*
X141100092Y-132971402D01*
X141076643Y-132978515D01*
X141055032Y-132990066D01*
X141036090Y-133005611D01*
X141020545Y-133024553D01*
X141008994Y-133046164D01*
X141000081Y-133081747D01*
X140994536Y-133138045D01*
X140889950Y-133482817D01*
X140720117Y-133800554D01*
X140491556Y-134079056D01*
X140213054Y-134307617D01*
X139895316Y-134477450D01*
X139550544Y-134582036D01*
X139192000Y-134617349D01*
X138833455Y-134582036D01*
X138488683Y-134477450D01*
X138170946Y-134307617D01*
X137892444Y-134079056D01*
X137663883Y-133800554D01*
X137494050Y-133482816D01*
X137389464Y-133138044D01*
X137363000Y-132869348D01*
X137363001Y-130530651D01*
X137389465Y-130261955D01*
X137494051Y-129917183D01*
X137663884Y-129599446D01*
X137892445Y-129320944D01*
X138170947Y-129092383D01*
X138488684Y-128922550D01*
X138833456Y-128817964D01*
X139192000Y-128782651D01*
X139550545Y-128817964D01*
X139895317Y-128922550D01*
X140213054Y-129092383D01*
X140491556Y-129320944D01*
X140720117Y-129599446D01*
X140889950Y-129917183D01*
X140994536Y-130261955D01*
X140999884Y-130316253D01*
X141004665Y-130340287D01*
X141014042Y-130362925D01*
X141027656Y-130383300D01*
X141044983Y-130400627D01*
X141065357Y-130414240D01*
X141087996Y-130423618D01*
X141124281Y-130429000D01*
X149300223Y-130429000D01*
X149324609Y-130426598D01*
X149348058Y-130419485D01*
X149369669Y-130407934D01*
X149388611Y-130392389D01*
X151093389Y-128687611D01*
X151108934Y-128668669D01*
X151120485Y-128647058D01*
X151127598Y-128623609D01*
X151130000Y-128599223D01*
X151130000Y-123483954D01*
X151127598Y-123459568D01*
X151120485Y-123436119D01*
X151108941Y-123414520D01*
X151025521Y-123289674D01*
X150908604Y-123007410D01*
X150849000Y-122707760D01*
X150849000Y-122402240D01*
X150908604Y-122102590D01*
X151025521Y-121820326D01*
X151195259Y-121566295D01*
X151411295Y-121350259D01*
X151665326Y-121180521D01*
X151947590Y-121063604D01*
X152097415Y-121033802D01*
X152247239Y-121004000D01*
X152552761Y-121004000D01*
X152702585Y-121033802D01*
X152702585Y-121033802D01*
G37*
G36*
X123746585Y-120906802D02*
G01*
X123896410Y-120936604D01*
X124178674Y-121053521D01*
X124432705Y-121223259D01*
X124648741Y-121439295D01*
X124818479Y-121693326D01*
X124935396Y-121975590D01*
X124995000Y-122275240D01*
X124995000Y-122580760D01*
X124935396Y-122880410D01*
X124818479Y-123162674D01*
X124735059Y-123287520D01*
X124723515Y-123309119D01*
X124716402Y-123332568D01*
X124714000Y-123356954D01*
X124714000Y-128651000D01*
X124710066Y-128655057D01*
X120746633Y-132742348D01*
X120650000Y-132842000D01*
X112168478Y-132842000D01*
X112144092Y-132844402D01*
X112120643Y-132851515D01*
X112099032Y-132863066D01*
X112080090Y-132878611D01*
X112064545Y-132897553D01*
X112052994Y-132919164D01*
X112044081Y-132954747D01*
X112038536Y-133011045D01*
X111933950Y-133355817D01*
X111764117Y-133673554D01*
X111535556Y-133952056D01*
X111257054Y-134180617D01*
X110939316Y-134350450D01*
X110594544Y-134455036D01*
X110236000Y-134490349D01*
X109877455Y-134455036D01*
X109532683Y-134350450D01*
X109214946Y-134180617D01*
X108936444Y-133952056D01*
X108707883Y-133673554D01*
X108538050Y-133355816D01*
X108433464Y-133011044D01*
X108407000Y-132742348D01*
X108407001Y-130403651D01*
X108433465Y-130134955D01*
X108538051Y-129790183D01*
X108707884Y-129472446D01*
X108936445Y-129193944D01*
X109214947Y-128965383D01*
X109532684Y-128795550D01*
X109877456Y-128690964D01*
X110236000Y-128655651D01*
X110594545Y-128690964D01*
X110939317Y-128795550D01*
X111257054Y-128965383D01*
X111535556Y-129193944D01*
X111764117Y-129472446D01*
X111933950Y-129790183D01*
X112041223Y-130143815D01*
X112042415Y-130149802D01*
X112051795Y-130172440D01*
X112065412Y-130192812D01*
X112082741Y-130210137D01*
X112103117Y-130223748D01*
X112125757Y-130233122D01*
X112162027Y-130238500D01*
X119582223Y-130238500D01*
X119606609Y-130236098D01*
X119630058Y-130228985D01*
X119651669Y-130217434D01*
X119670611Y-130201889D01*
X122137389Y-127735111D01*
X122152934Y-127716169D01*
X122164485Y-127694558D01*
X122171598Y-127671109D01*
X122174000Y-127646723D01*
X122174000Y-123356954D01*
X122171598Y-123332568D01*
X122164485Y-123309119D01*
X122152941Y-123287520D01*
X122069521Y-123162674D01*
X121952604Y-122880410D01*
X121893000Y-122580760D01*
X121893000Y-122275240D01*
X121952604Y-121975590D01*
X122069521Y-121693326D01*
X122239259Y-121439295D01*
X122455295Y-121223259D01*
X122709326Y-121053521D01*
X122991590Y-120936604D01*
X123141415Y-120906802D01*
X123291239Y-120877000D01*
X123596761Y-120877000D01*
X123746585Y-120906802D01*
X123746585Y-120906802D01*
G37*
G36*
X158729487Y-123253996D02*
G01*
X158966253Y-123352068D01*
X158966255Y-123352069D01*
X159092045Y-123436119D01*
X159179339Y-123494447D01*
X159360553Y-123675661D01*
X159502932Y-123888747D01*
X159601004Y-124125513D01*
X159651000Y-124376861D01*
X159651000Y-124633139D01*
X159601004Y-124884487D01*
X159555537Y-124994253D01*
X159502931Y-125121255D01*
X159360553Y-125334339D01*
X159179339Y-125515553D01*
X158966255Y-125657931D01*
X158966254Y-125657932D01*
X158966253Y-125657932D01*
X158729487Y-125756004D01*
X158478139Y-125806000D01*
X158221861Y-125806000D01*
X157970513Y-125756004D01*
X157733747Y-125657932D01*
X157733746Y-125657932D01*
X157733745Y-125657931D01*
X157520661Y-125515553D01*
X157339447Y-125334339D01*
X157197069Y-125121255D01*
X157144463Y-124994253D01*
X157098996Y-124884487D01*
X157049000Y-124633139D01*
X157049000Y-124376861D01*
X157098996Y-124125513D01*
X157197068Y-123888747D01*
X157339447Y-123675661D01*
X157520661Y-123494447D01*
X157607955Y-123436119D01*
X157733745Y-123352069D01*
X157733747Y-123352068D01*
X157970513Y-123253996D01*
X158221861Y-123204000D01*
X158478139Y-123204000D01*
X158729487Y-123253996D01*
X158729487Y-123253996D01*
G37*
G36*
X146729487Y-123253996D02*
G01*
X146966253Y-123352068D01*
X146966255Y-123352069D01*
X147092045Y-123436119D01*
X147179339Y-123494447D01*
X147360553Y-123675661D01*
X147502932Y-123888747D01*
X147601004Y-124125513D01*
X147651000Y-124376861D01*
X147651000Y-124633139D01*
X147601004Y-124884487D01*
X147555537Y-124994253D01*
X147502931Y-125121255D01*
X147360553Y-125334339D01*
X147179339Y-125515553D01*
X146966255Y-125657931D01*
X146966254Y-125657932D01*
X146966253Y-125657932D01*
X146729487Y-125756004D01*
X146478139Y-125806000D01*
X146221861Y-125806000D01*
X145970513Y-125756004D01*
X145733747Y-125657932D01*
X145733746Y-125657932D01*
X145733745Y-125657931D01*
X145520661Y-125515553D01*
X145339447Y-125334339D01*
X145197069Y-125121255D01*
X145144463Y-124994253D01*
X145098996Y-124884487D01*
X145049000Y-124633139D01*
X145049000Y-124376861D01*
X145098996Y-124125513D01*
X145197068Y-123888747D01*
X145339447Y-123675661D01*
X145520661Y-123494447D01*
X145607955Y-123436119D01*
X145733745Y-123352069D01*
X145733747Y-123352068D01*
X145970513Y-123253996D01*
X146221861Y-123204000D01*
X146478139Y-123204000D01*
X146729487Y-123253996D01*
X146729487Y-123253996D01*
G37*
G36*
X129773487Y-123126996D02*
G01*
X130010253Y-123225068D01*
X130010255Y-123225069D01*
X130223339Y-123367447D01*
X130404553Y-123548661D01*
X130489412Y-123675661D01*
X130546932Y-123761747D01*
X130645004Y-123998513D01*
X130695000Y-124249861D01*
X130695000Y-124506139D01*
X130645004Y-124757487D01*
X130592398Y-124884488D01*
X130546931Y-124994255D01*
X130404553Y-125207339D01*
X130223339Y-125388553D01*
X130010255Y-125530931D01*
X130010254Y-125530932D01*
X130010253Y-125530932D01*
X129773487Y-125629004D01*
X129522139Y-125679000D01*
X129265861Y-125679000D01*
X129014513Y-125629004D01*
X128777747Y-125530932D01*
X128777746Y-125530932D01*
X128777745Y-125530931D01*
X128564661Y-125388553D01*
X128383447Y-125207339D01*
X128241069Y-124994255D01*
X128195602Y-124884488D01*
X128142996Y-124757487D01*
X128093000Y-124506139D01*
X128093000Y-124249861D01*
X128142996Y-123998513D01*
X128241068Y-123761747D01*
X128298589Y-123675661D01*
X128383447Y-123548661D01*
X128564661Y-123367447D01*
X128777745Y-123225069D01*
X128777747Y-123225068D01*
X129014513Y-123126996D01*
X129265861Y-123077000D01*
X129522139Y-123077000D01*
X129773487Y-123126996D01*
X129773487Y-123126996D01*
G37*
G36*
X117773487Y-123126996D02*
G01*
X118010253Y-123225068D01*
X118010255Y-123225069D01*
X118223339Y-123367447D01*
X118404553Y-123548661D01*
X118489412Y-123675661D01*
X118546932Y-123761747D01*
X118645004Y-123998513D01*
X118695000Y-124249861D01*
X118695000Y-124506139D01*
X118645004Y-124757487D01*
X118592398Y-124884488D01*
X118546931Y-124994255D01*
X118404553Y-125207339D01*
X118223339Y-125388553D01*
X118010255Y-125530931D01*
X118010254Y-125530932D01*
X118010253Y-125530932D01*
X117773487Y-125629004D01*
X117522139Y-125679000D01*
X117265861Y-125679000D01*
X117014513Y-125629004D01*
X116777747Y-125530932D01*
X116777746Y-125530932D01*
X116777745Y-125530931D01*
X116564661Y-125388553D01*
X116383447Y-125207339D01*
X116241069Y-124994255D01*
X116195602Y-124884488D01*
X116142996Y-124757487D01*
X116093000Y-124506139D01*
X116093000Y-124249861D01*
X116142996Y-123998513D01*
X116241068Y-123761747D01*
X116298589Y-123675661D01*
X116383447Y-123548661D01*
X116564661Y-123367447D01*
X116777745Y-123225069D01*
X116777747Y-123225068D01*
X117014513Y-123126996D01*
X117265861Y-123077000D01*
X117522139Y-123077000D01*
X117773487Y-123126996D01*
X117773487Y-123126996D01*
G37*
G36*
X120839000Y-117664000D02*
G01*
X118937000Y-117664000D01*
X118937000Y-115762000D01*
X120839000Y-115762000D01*
X120839000Y-117664000D01*
X120839000Y-117664000D01*
G37*
G36*
X127694425Y-115775760D02*
G01*
X127694428Y-115775761D01*
X127694429Y-115775761D01*
X127873693Y-115830140D01*
X127873696Y-115830142D01*
X127873697Y-115830142D01*
X128038903Y-115918446D01*
X128183712Y-116037288D01*
X128302554Y-116182097D01*
X128390858Y-116347303D01*
X128390860Y-116347307D01*
X128445239Y-116526571D01*
X128445240Y-116526575D01*
X128463601Y-116713000D01*
X128445240Y-116899425D01*
X128445239Y-116899428D01*
X128445239Y-116899429D01*
X128390860Y-117078693D01*
X128390858Y-117078696D01*
X128390858Y-117078697D01*
X128302554Y-117243903D01*
X128183712Y-117388712D01*
X128038903Y-117507554D01*
X127873697Y-117595858D01*
X127873693Y-117595860D01*
X127694429Y-117650239D01*
X127694428Y-117650239D01*
X127694425Y-117650240D01*
X127554718Y-117664000D01*
X127461282Y-117664000D01*
X127321575Y-117650240D01*
X127321572Y-117650239D01*
X127321571Y-117650239D01*
X127142307Y-117595860D01*
X127142303Y-117595858D01*
X126977097Y-117507554D01*
X126832288Y-117388712D01*
X126713446Y-117243903D01*
X126625142Y-117078697D01*
X126625142Y-117078696D01*
X126625140Y-117078693D01*
X126570761Y-116899429D01*
X126570761Y-116899428D01*
X126570760Y-116899425D01*
X126552399Y-116713000D01*
X126570760Y-116526575D01*
X126570761Y-116526571D01*
X126625140Y-116347307D01*
X126625142Y-116347303D01*
X126713446Y-116182097D01*
X126832288Y-116037288D01*
X126977097Y-115918446D01*
X127142303Y-115830142D01*
X127142304Y-115830142D01*
X127142307Y-115830140D01*
X127321571Y-115775761D01*
X127321572Y-115775761D01*
X127321575Y-115775760D01*
X127461282Y-115762000D01*
X127554718Y-115762000D01*
X127694425Y-115775760D01*
X127694425Y-115775760D01*
G37*
G36*
X149795000Y-117664000D02*
G01*
X147893000Y-117664000D01*
X147893000Y-115762000D01*
X149795000Y-115762000D01*
X149795000Y-117664000D01*
X149795000Y-117664000D01*
G37*
G36*
X156650425Y-115775760D02*
G01*
X156650428Y-115775761D01*
X156650429Y-115775761D01*
X156829693Y-115830140D01*
X156829696Y-115830142D01*
X156829697Y-115830142D01*
X156994903Y-115918446D01*
X157139712Y-116037288D01*
X157258554Y-116182097D01*
X157346858Y-116347303D01*
X157346860Y-116347307D01*
X157401239Y-116526571D01*
X157401240Y-116526575D01*
X157419601Y-116713000D01*
X157401240Y-116899425D01*
X157401239Y-116899428D01*
X157401239Y-116899429D01*
X157346860Y-117078693D01*
X157346858Y-117078696D01*
X157346858Y-117078697D01*
X157258554Y-117243903D01*
X157139712Y-117388712D01*
X156994903Y-117507554D01*
X156829697Y-117595858D01*
X156829693Y-117595860D01*
X156650429Y-117650239D01*
X156650428Y-117650239D01*
X156650425Y-117650240D01*
X156510718Y-117664000D01*
X156417282Y-117664000D01*
X156277575Y-117650240D01*
X156277572Y-117650239D01*
X156277571Y-117650239D01*
X156098307Y-117595860D01*
X156098303Y-117595858D01*
X155933097Y-117507554D01*
X155788288Y-117388712D01*
X155669446Y-117243903D01*
X155581142Y-117078697D01*
X155581142Y-117078696D01*
X155581140Y-117078693D01*
X155526761Y-116899429D01*
X155526761Y-116899428D01*
X155526760Y-116899425D01*
X155508399Y-116713000D01*
X155526760Y-116526575D01*
X155526761Y-116526571D01*
X155581140Y-116347307D01*
X155581142Y-116347303D01*
X155669446Y-116182097D01*
X155788288Y-116037288D01*
X155933097Y-115918446D01*
X156098303Y-115830142D01*
X156098304Y-115830142D01*
X156098307Y-115830140D01*
X156277571Y-115775761D01*
X156277572Y-115775761D01*
X156277575Y-115775760D01*
X156417282Y-115762000D01*
X156510718Y-115762000D01*
X156650425Y-115775760D01*
X156650425Y-115775760D01*
G37*
G36*
X87359142Y-108565242D02*
G01*
X87507101Y-108626529D01*
X87640255Y-108715499D01*
X87753501Y-108828745D01*
X87842471Y-108961899D01*
X87903758Y-109109858D01*
X87935000Y-109266925D01*
X87935000Y-109427075D01*
X87903758Y-109584142D01*
X87842471Y-109732101D01*
X87753501Y-109865255D01*
X87640255Y-109978501D01*
X87507101Y-110067471D01*
X87359142Y-110128758D01*
X87202075Y-110160000D01*
X87041925Y-110160000D01*
X86884858Y-110128758D01*
X86736899Y-110067471D01*
X86603745Y-109978501D01*
X86490499Y-109865255D01*
X86401529Y-109732101D01*
X86340242Y-109584142D01*
X86309000Y-109427075D01*
X86309000Y-109266925D01*
X86340242Y-109109858D01*
X86401529Y-108961899D01*
X86490499Y-108828745D01*
X86603745Y-108715499D01*
X86736899Y-108626529D01*
X86884858Y-108565242D01*
X87041925Y-108534000D01*
X87202075Y-108534000D01*
X87359142Y-108565242D01*
X87359142Y-108565242D01*
G37*
G36*
X103107142Y-108565242D02*
G01*
X103255101Y-108626529D01*
X103388255Y-108715499D01*
X103501501Y-108828745D01*
X103590471Y-108961899D01*
X103651758Y-109109858D01*
X103683000Y-109266925D01*
X103683000Y-109427075D01*
X103651758Y-109584142D01*
X103590471Y-109732101D01*
X103501501Y-109865255D01*
X103388255Y-109978501D01*
X103255101Y-110067471D01*
X103107142Y-110128758D01*
X102950075Y-110160000D01*
X102789925Y-110160000D01*
X102632858Y-110128758D01*
X102484899Y-110067471D01*
X102351745Y-109978501D01*
X102238499Y-109865255D01*
X102149529Y-109732101D01*
X102088242Y-109584142D01*
X102057000Y-109427075D01*
X102057000Y-109266925D01*
X102088242Y-109109858D01*
X102149529Y-108961899D01*
X102238499Y-108828745D01*
X102351745Y-108715499D01*
X102484899Y-108626529D01*
X102632858Y-108565242D01*
X102789925Y-108534000D01*
X102950075Y-108534000D01*
X103107142Y-108565242D01*
X103107142Y-108565242D01*
G37*
G36*
X118220443Y-101721519D02*
G01*
X118286627Y-101728037D01*
X118456466Y-101779557D01*
X118612991Y-101863222D01*
X118648729Y-101892552D01*
X118750186Y-101975814D01*
X118833448Y-102077271D01*
X118862778Y-102113009D01*
X118946443Y-102269534D01*
X118997963Y-102439373D01*
X119015359Y-102616000D01*
X118997963Y-102792627D01*
X118946443Y-102962466D01*
X118862778Y-103118991D01*
X118833448Y-103154729D01*
X118750186Y-103256186D01*
X118648729Y-103339448D01*
X118612991Y-103368778D01*
X118456466Y-103452443D01*
X118286627Y-103503963D01*
X118220443Y-103510481D01*
X118154260Y-103517000D01*
X118065740Y-103517000D01*
X117999558Y-103510482D01*
X117933373Y-103503963D01*
X117763534Y-103452443D01*
X117607009Y-103368778D01*
X117571271Y-103339448D01*
X117469814Y-103256186D01*
X117386552Y-103154729D01*
X117357222Y-103118991D01*
X117273557Y-102962466D01*
X117222037Y-102792627D01*
X117204641Y-102616000D01*
X117222037Y-102439373D01*
X117273557Y-102269534D01*
X117357222Y-102113009D01*
X117386552Y-102077271D01*
X117469814Y-101975814D01*
X117571271Y-101892552D01*
X117607009Y-101863222D01*
X117763534Y-101779557D01*
X117933373Y-101728037D01*
X117999558Y-101721518D01*
X118065740Y-101715000D01*
X118154260Y-101715000D01*
X118220443Y-101721519D01*
X118220443Y-101721519D01*
G37*
G36*
X114643000Y-101054000D02*
G01*
X112941000Y-101054000D01*
X112941000Y-99352000D01*
X114643000Y-99352000D01*
X114643000Y-101054000D01*
X114643000Y-101054000D01*
G37*
G36*
X98718823Y-99364313D02*
G01*
X98879242Y-99412976D01*
X99011906Y-99483886D01*
X99027078Y-99491996D01*
X99156659Y-99598341D01*
X99263004Y-99727922D01*
X99263005Y-99727924D01*
X99342024Y-99875758D01*
X99390687Y-100036177D01*
X99407117Y-100203000D01*
X99390687Y-100369823D01*
X99342024Y-100530242D01*
X99288774Y-100629866D01*
X99263004Y-100678078D01*
X99156659Y-100807659D01*
X99027078Y-100914004D01*
X99027076Y-100914005D01*
X98879242Y-100993024D01*
X98718823Y-101041687D01*
X98593804Y-101054000D01*
X98510196Y-101054000D01*
X98385177Y-101041687D01*
X98224758Y-100993024D01*
X98076924Y-100914005D01*
X98076922Y-100914004D01*
X97947341Y-100807659D01*
X97840996Y-100678078D01*
X97815226Y-100629866D01*
X97761976Y-100530242D01*
X97713313Y-100369823D01*
X97696883Y-100203000D01*
X97713313Y-100036177D01*
X97761976Y-99875758D01*
X97840995Y-99727924D01*
X97840996Y-99727922D01*
X97947341Y-99598341D01*
X98076922Y-99491996D01*
X98092094Y-99483886D01*
X98224758Y-99412976D01*
X98385177Y-99364313D01*
X98510196Y-99352000D01*
X98593804Y-99352000D01*
X98718823Y-99364313D01*
X98718823Y-99364313D01*
G37*
G36*
X119011000Y-100977000D02*
G01*
X117209000Y-100977000D01*
X117209000Y-99175000D01*
X119011000Y-99175000D01*
X119011000Y-100977000D01*
X119011000Y-100977000D01*
G37*
G36*
X129742564Y-98802890D02*
G01*
X129933833Y-98882116D01*
X129933835Y-98882117D01*
X130105973Y-98997136D01*
X130252365Y-99143528D01*
X130367385Y-99315668D01*
X130446611Y-99506937D01*
X130487000Y-99709985D01*
X130487000Y-99917017D01*
X130446611Y-100120065D01*
X130412258Y-100203000D01*
X130367384Y-100311336D01*
X130252365Y-100483474D01*
X130105973Y-100629866D01*
X129933835Y-100744885D01*
X129933834Y-100744886D01*
X129933833Y-100744886D01*
X129742564Y-100824112D01*
X129539516Y-100864501D01*
X129332484Y-100864501D01*
X129129436Y-100824112D01*
X128938167Y-100744886D01*
X128938166Y-100744886D01*
X128938165Y-100744885D01*
X128766027Y-100629866D01*
X128619635Y-100483474D01*
X128504616Y-100311336D01*
X128459742Y-100203000D01*
X128425389Y-100120065D01*
X128385000Y-99917017D01*
X128385000Y-99709985D01*
X128425389Y-99506937D01*
X128504615Y-99315668D01*
X128619635Y-99143528D01*
X128766027Y-98997136D01*
X128938165Y-98882117D01*
X128938167Y-98882116D01*
X129129436Y-98802890D01*
X129332484Y-98762501D01*
X129539516Y-98762501D01*
X129742564Y-98802890D01*
X129742564Y-98802890D01*
G37*
G36*
X123242564Y-98802890D02*
G01*
X123433833Y-98882116D01*
X123433835Y-98882117D01*
X123605973Y-98997136D01*
X123752365Y-99143528D01*
X123867385Y-99315668D01*
X123946611Y-99506937D01*
X123987000Y-99709985D01*
X123987000Y-99917017D01*
X123946611Y-100120065D01*
X123912258Y-100203000D01*
X123867384Y-100311336D01*
X123752365Y-100483474D01*
X123605973Y-100629866D01*
X123433835Y-100744885D01*
X123433834Y-100744886D01*
X123433833Y-100744886D01*
X123242564Y-100824112D01*
X123039516Y-100864501D01*
X122832484Y-100864501D01*
X122629436Y-100824112D01*
X122438167Y-100744886D01*
X122438166Y-100744886D01*
X122438165Y-100744885D01*
X122266027Y-100629866D01*
X122119635Y-100483474D01*
X122004616Y-100311336D01*
X121959742Y-100203000D01*
X121925389Y-100120065D01*
X121885000Y-99917017D01*
X121885000Y-99709985D01*
X121925389Y-99506937D01*
X122004615Y-99315668D01*
X122119635Y-99143528D01*
X122266027Y-98997136D01*
X122438165Y-98882117D01*
X122438167Y-98882116D01*
X122629436Y-98802890D01*
X122832484Y-98762501D01*
X123039516Y-98762501D01*
X123242564Y-98802890D01*
X123242564Y-98802890D01*
G37*
G36*
X98718823Y-96824313D02*
G01*
X98879242Y-96872976D01*
X99011906Y-96943886D01*
X99027078Y-96951996D01*
X99156659Y-97058341D01*
X99263004Y-97187922D01*
X99263005Y-97187924D01*
X99342024Y-97335758D01*
X99390687Y-97496177D01*
X99407117Y-97663000D01*
X99390687Y-97829823D01*
X99342024Y-97990242D01*
X99271114Y-98122906D01*
X99263004Y-98138078D01*
X99156659Y-98267659D01*
X99027078Y-98374004D01*
X99027076Y-98374005D01*
X98879242Y-98453024D01*
X98718823Y-98501687D01*
X98593804Y-98514000D01*
X98510196Y-98514000D01*
X98385177Y-98501687D01*
X98224758Y-98453024D01*
X98076924Y-98374005D01*
X98076922Y-98374004D01*
X97947341Y-98267659D01*
X97840996Y-98138078D01*
X97832886Y-98122906D01*
X97761976Y-97990242D01*
X97713313Y-97829823D01*
X97696883Y-97663000D01*
X97713313Y-97496177D01*
X97761976Y-97335758D01*
X97840995Y-97187924D01*
X97840996Y-97187922D01*
X97947341Y-97058341D01*
X98076922Y-96951996D01*
X98092094Y-96943886D01*
X98224758Y-96872976D01*
X98385177Y-96824313D01*
X98510196Y-96812000D01*
X98593804Y-96812000D01*
X98718823Y-96824313D01*
X98718823Y-96824313D01*
G37*
G36*
X113958823Y-96824313D02*
G01*
X114119242Y-96872976D01*
X114251906Y-96943886D01*
X114267078Y-96951996D01*
X114396659Y-97058341D01*
X114503004Y-97187922D01*
X114503005Y-97187924D01*
X114582024Y-97335758D01*
X114630687Y-97496177D01*
X114647117Y-97663000D01*
X114630687Y-97829823D01*
X114582024Y-97990242D01*
X114511114Y-98122906D01*
X114503004Y-98138078D01*
X114396659Y-98267659D01*
X114267078Y-98374004D01*
X114267076Y-98374005D01*
X114119242Y-98453024D01*
X113958823Y-98501687D01*
X113833804Y-98514000D01*
X113750196Y-98514000D01*
X113625177Y-98501687D01*
X113464758Y-98453024D01*
X113316924Y-98374005D01*
X113316922Y-98374004D01*
X113187341Y-98267659D01*
X113080996Y-98138078D01*
X113072886Y-98122906D01*
X113001976Y-97990242D01*
X112953313Y-97829823D01*
X112936883Y-97663000D01*
X112953313Y-97496177D01*
X113001976Y-97335758D01*
X113080995Y-97187924D01*
X113080996Y-97187922D01*
X113187341Y-97058341D01*
X113316922Y-96951996D01*
X113332094Y-96943886D01*
X113464758Y-96872976D01*
X113625177Y-96824313D01*
X113750196Y-96812000D01*
X113833804Y-96812000D01*
X113958823Y-96824313D01*
X113958823Y-96824313D01*
G37*
G36*
X88785000Y-96405000D02*
G01*
X86983000Y-96405000D01*
X86983000Y-94603000D01*
X88785000Y-94603000D01*
X88785000Y-96405000D01*
X88785000Y-96405000D01*
G37*
G36*
X129742564Y-94302890D02*
G01*
X129933833Y-94382116D01*
X129933835Y-94382117D01*
X129978552Y-94411996D01*
X130105973Y-94497136D01*
X130252365Y-94643528D01*
X130367385Y-94815668D01*
X130446611Y-95006937D01*
X130487000Y-95209985D01*
X130487000Y-95417017D01*
X130446611Y-95620065D01*
X130402044Y-95727659D01*
X130367384Y-95811336D01*
X130252365Y-95983474D01*
X130105973Y-96129866D01*
X129933835Y-96244885D01*
X129933834Y-96244886D01*
X129933833Y-96244886D01*
X129742564Y-96324112D01*
X129539516Y-96364501D01*
X129332484Y-96364501D01*
X129129436Y-96324112D01*
X128938167Y-96244886D01*
X128938166Y-96244886D01*
X128938165Y-96244885D01*
X128766027Y-96129866D01*
X128619635Y-95983474D01*
X128504616Y-95811336D01*
X128469956Y-95727659D01*
X128425389Y-95620065D01*
X128385000Y-95417017D01*
X128385000Y-95209985D01*
X128425389Y-95006937D01*
X128504615Y-94815668D01*
X128619635Y-94643528D01*
X128766027Y-94497136D01*
X128893448Y-94411996D01*
X128938165Y-94382117D01*
X128938167Y-94382116D01*
X129129436Y-94302890D01*
X129332484Y-94262501D01*
X129539516Y-94262501D01*
X129742564Y-94302890D01*
X129742564Y-94302890D01*
G37*
G36*
X123242564Y-94302890D02*
G01*
X123433833Y-94382116D01*
X123433835Y-94382117D01*
X123478552Y-94411996D01*
X123605973Y-94497136D01*
X123752365Y-94643528D01*
X123867385Y-94815668D01*
X123946611Y-95006937D01*
X123987000Y-95209985D01*
X123987000Y-95417017D01*
X123946611Y-95620065D01*
X123902044Y-95727659D01*
X123867384Y-95811336D01*
X123752365Y-95983474D01*
X123605973Y-96129866D01*
X123433835Y-96244885D01*
X123433834Y-96244886D01*
X123433833Y-96244886D01*
X123242564Y-96324112D01*
X123039516Y-96364501D01*
X122832484Y-96364501D01*
X122629436Y-96324112D01*
X122438167Y-96244886D01*
X122438166Y-96244886D01*
X122438165Y-96244885D01*
X122266027Y-96129866D01*
X122119635Y-95983474D01*
X122004616Y-95811336D01*
X121969956Y-95727659D01*
X121925389Y-95620065D01*
X121885000Y-95417017D01*
X121885000Y-95209985D01*
X121925389Y-95006937D01*
X122004615Y-94815668D01*
X122119635Y-94643528D01*
X122266027Y-94497136D01*
X122393448Y-94411996D01*
X122438165Y-94382117D01*
X122438167Y-94382116D01*
X122629436Y-94302890D01*
X122832484Y-94262501D01*
X123039516Y-94262501D01*
X123242564Y-94302890D01*
X123242564Y-94302890D01*
G37*
G36*
X98718823Y-94284313D02*
G01*
X98879242Y-94332976D01*
X98971176Y-94382116D01*
X99027078Y-94411996D01*
X99156659Y-94518341D01*
X99263004Y-94647922D01*
X99263005Y-94647924D01*
X99342024Y-94795758D01*
X99390687Y-94956177D01*
X99407117Y-95123000D01*
X99390687Y-95289823D01*
X99342024Y-95450242D01*
X99271114Y-95582906D01*
X99263004Y-95598078D01*
X99156659Y-95727659D01*
X99027078Y-95834004D01*
X99027076Y-95834005D01*
X98879242Y-95913024D01*
X98718823Y-95961687D01*
X98593804Y-95974000D01*
X98510196Y-95974000D01*
X98385177Y-95961687D01*
X98224758Y-95913024D01*
X98076924Y-95834005D01*
X98076922Y-95834004D01*
X97947341Y-95727659D01*
X97840996Y-95598078D01*
X97832886Y-95582906D01*
X97761976Y-95450242D01*
X97713313Y-95289823D01*
X97696883Y-95123000D01*
X97713313Y-94956177D01*
X97761976Y-94795758D01*
X97840995Y-94647924D01*
X97840996Y-94647922D01*
X97947341Y-94518341D01*
X98076922Y-94411996D01*
X98132824Y-94382116D01*
X98224758Y-94332976D01*
X98385177Y-94284313D01*
X98510196Y-94272000D01*
X98593804Y-94272000D01*
X98718823Y-94284313D01*
X98718823Y-94284313D01*
G37*
G36*
X113958823Y-94284313D02*
G01*
X114119242Y-94332976D01*
X114211176Y-94382116D01*
X114267078Y-94411996D01*
X114396659Y-94518341D01*
X114503004Y-94647922D01*
X114503005Y-94647924D01*
X114582024Y-94795758D01*
X114630687Y-94956177D01*
X114647117Y-95123000D01*
X114630687Y-95289823D01*
X114582024Y-95450242D01*
X114511114Y-95582906D01*
X114503004Y-95598078D01*
X114396659Y-95727659D01*
X114267078Y-95834004D01*
X114267076Y-95834005D01*
X114119242Y-95913024D01*
X113958823Y-95961687D01*
X113833804Y-95974000D01*
X113750196Y-95974000D01*
X113625177Y-95961687D01*
X113464758Y-95913024D01*
X113316924Y-95834005D01*
X113316922Y-95834004D01*
X113187341Y-95727659D01*
X113080996Y-95598078D01*
X113072886Y-95582906D01*
X113001976Y-95450242D01*
X112953313Y-95289823D01*
X112936883Y-95123000D01*
X112953313Y-94956177D01*
X113001976Y-94795758D01*
X113080995Y-94647924D01*
X113080996Y-94647922D01*
X113187341Y-94518341D01*
X113316922Y-94411996D01*
X113372824Y-94382116D01*
X113464758Y-94332976D01*
X113625177Y-94284313D01*
X113750196Y-94272000D01*
X113833804Y-94272000D01*
X113958823Y-94284313D01*
X113958823Y-94284313D01*
G37*
G36*
X87994443Y-92069519D02*
G01*
X88060627Y-92076037D01*
X88230466Y-92127557D01*
X88386991Y-92211222D01*
X88422729Y-92240552D01*
X88524186Y-92323814D01*
X88599985Y-92416177D01*
X88636778Y-92461009D01*
X88720443Y-92617534D01*
X88771963Y-92787373D01*
X88789359Y-92964000D01*
X88771963Y-93140627D01*
X88720443Y-93310466D01*
X88636778Y-93466991D01*
X88607448Y-93502729D01*
X88524186Y-93604186D01*
X88422729Y-93687448D01*
X88386991Y-93716778D01*
X88230466Y-93800443D01*
X88060627Y-93851963D01*
X87994443Y-93858481D01*
X87928260Y-93865000D01*
X87839740Y-93865000D01*
X87773557Y-93858481D01*
X87707373Y-93851963D01*
X87537534Y-93800443D01*
X87381009Y-93716778D01*
X87345271Y-93687448D01*
X87243814Y-93604186D01*
X87160552Y-93502729D01*
X87131222Y-93466991D01*
X87047557Y-93310466D01*
X86996037Y-93140627D01*
X86978641Y-92964000D01*
X86996037Y-92787373D01*
X87047557Y-92617534D01*
X87131222Y-92461009D01*
X87168015Y-92416177D01*
X87243814Y-92323814D01*
X87345271Y-92240552D01*
X87381009Y-92211222D01*
X87537534Y-92127557D01*
X87707373Y-92076037D01*
X87773557Y-92069519D01*
X87839740Y-92063000D01*
X87928260Y-92063000D01*
X87994443Y-92069519D01*
X87994443Y-92069519D01*
G37*
G36*
X98718823Y-91744313D02*
G01*
X98879242Y-91792976D01*
X99011906Y-91863886D01*
X99027078Y-91871996D01*
X99156659Y-91978341D01*
X99263004Y-92107922D01*
X99263005Y-92107924D01*
X99342024Y-92255758D01*
X99390687Y-92416177D01*
X99407117Y-92583000D01*
X99390687Y-92749823D01*
X99342024Y-92910242D01*
X99271114Y-93042906D01*
X99263004Y-93058078D01*
X99156659Y-93187659D01*
X99027078Y-93294004D01*
X99027076Y-93294005D01*
X98879242Y-93373024D01*
X98718823Y-93421687D01*
X98593804Y-93434000D01*
X98510196Y-93434000D01*
X98385177Y-93421687D01*
X98224758Y-93373024D01*
X98076924Y-93294005D01*
X98076922Y-93294004D01*
X97947341Y-93187659D01*
X97840996Y-93058078D01*
X97832886Y-93042906D01*
X97761976Y-92910242D01*
X97713313Y-92749823D01*
X97696883Y-92583000D01*
X97713313Y-92416177D01*
X97761976Y-92255758D01*
X97840995Y-92107924D01*
X97840996Y-92107922D01*
X97947341Y-91978341D01*
X98076922Y-91871996D01*
X98092094Y-91863886D01*
X98224758Y-91792976D01*
X98385177Y-91744313D01*
X98510196Y-91732000D01*
X98593804Y-91732000D01*
X98718823Y-91744313D01*
X98718823Y-91744313D01*
G37*
G36*
X113958823Y-91744313D02*
G01*
X114119242Y-91792976D01*
X114251906Y-91863886D01*
X114267078Y-91871996D01*
X114396659Y-91978341D01*
X114503004Y-92107922D01*
X114503005Y-92107924D01*
X114582024Y-92255758D01*
X114630687Y-92416177D01*
X114647117Y-92583000D01*
X114630687Y-92749823D01*
X114582024Y-92910242D01*
X114511114Y-93042906D01*
X114503004Y-93058078D01*
X114396659Y-93187659D01*
X114267078Y-93294004D01*
X114267076Y-93294005D01*
X114119242Y-93373024D01*
X113958823Y-93421687D01*
X113833804Y-93434000D01*
X113750196Y-93434000D01*
X113625177Y-93421687D01*
X113464758Y-93373024D01*
X113316924Y-93294005D01*
X113316922Y-93294004D01*
X113187341Y-93187659D01*
X113080996Y-93058078D01*
X113072886Y-93042906D01*
X113001976Y-92910242D01*
X112953313Y-92749823D01*
X112936883Y-92583000D01*
X112953313Y-92416177D01*
X113001976Y-92255758D01*
X113080995Y-92107924D01*
X113080996Y-92107922D01*
X113187341Y-91978341D01*
X113316922Y-91871996D01*
X113332094Y-91863886D01*
X113464758Y-91792976D01*
X113625177Y-91744313D01*
X113750196Y-91732000D01*
X113833804Y-91732000D01*
X113958823Y-91744313D01*
X113958823Y-91744313D01*
G37*
G36*
X87994442Y-89529518D02*
G01*
X88060627Y-89536037D01*
X88230466Y-89587557D01*
X88386991Y-89671222D01*
X88422729Y-89700552D01*
X88524186Y-89783814D01*
X88599985Y-89876177D01*
X88636778Y-89921009D01*
X88720443Y-90077534D01*
X88771963Y-90247373D01*
X88789359Y-90424000D01*
X88771963Y-90600627D01*
X88720443Y-90770466D01*
X88636778Y-90926991D01*
X88607448Y-90962729D01*
X88524186Y-91064186D01*
X88422729Y-91147448D01*
X88386991Y-91176778D01*
X88230466Y-91260443D01*
X88060627Y-91311963D01*
X87994443Y-91318481D01*
X87928260Y-91325000D01*
X87839740Y-91325000D01*
X87773557Y-91318481D01*
X87707373Y-91311963D01*
X87537534Y-91260443D01*
X87381009Y-91176778D01*
X87345271Y-91147448D01*
X87243814Y-91064186D01*
X87160552Y-90962729D01*
X87131222Y-90926991D01*
X87047557Y-90770466D01*
X86996037Y-90600627D01*
X86978641Y-90424000D01*
X86996037Y-90247373D01*
X87047557Y-90077534D01*
X87131222Y-89921009D01*
X87168015Y-89876177D01*
X87243814Y-89783814D01*
X87345271Y-89700552D01*
X87381009Y-89671222D01*
X87537534Y-89587557D01*
X87707373Y-89536037D01*
X87773558Y-89529518D01*
X87839740Y-89523000D01*
X87928260Y-89523000D01*
X87994442Y-89529518D01*
X87994442Y-89529518D01*
G37*
G36*
X113958823Y-89204313D02*
G01*
X114119242Y-89252976D01*
X114251906Y-89323886D01*
X114267078Y-89331996D01*
X114396659Y-89438341D01*
X114503004Y-89567922D01*
X114503005Y-89567924D01*
X114582024Y-89715758D01*
X114630687Y-89876177D01*
X114647117Y-90043000D01*
X114630687Y-90209823D01*
X114582024Y-90370242D01*
X114511114Y-90502906D01*
X114503004Y-90518078D01*
X114396659Y-90647659D01*
X114267078Y-90754004D01*
X114267076Y-90754005D01*
X114119242Y-90833024D01*
X113958823Y-90881687D01*
X113833804Y-90894000D01*
X113750196Y-90894000D01*
X113625177Y-90881687D01*
X113464758Y-90833024D01*
X113316924Y-90754005D01*
X113316922Y-90754004D01*
X113187341Y-90647659D01*
X113080996Y-90518078D01*
X113072886Y-90502906D01*
X113001976Y-90370242D01*
X112953313Y-90209823D01*
X112936883Y-90043000D01*
X112953313Y-89876177D01*
X113001976Y-89715758D01*
X113080995Y-89567924D01*
X113080996Y-89567922D01*
X113187341Y-89438341D01*
X113316922Y-89331996D01*
X113332094Y-89323886D01*
X113464758Y-89252976D01*
X113625177Y-89204313D01*
X113750196Y-89192000D01*
X113833804Y-89192000D01*
X113958823Y-89204313D01*
X113958823Y-89204313D01*
G37*
G36*
X98718823Y-89204313D02*
G01*
X98879242Y-89252976D01*
X99011906Y-89323886D01*
X99027078Y-89331996D01*
X99156659Y-89438341D01*
X99263004Y-89567922D01*
X99263005Y-89567924D01*
X99342024Y-89715758D01*
X99390687Y-89876177D01*
X99407117Y-90043000D01*
X99390687Y-90209823D01*
X99342024Y-90370242D01*
X99271114Y-90502906D01*
X99263004Y-90518078D01*
X99156659Y-90647659D01*
X99027078Y-90754004D01*
X99027076Y-90754005D01*
X98879242Y-90833024D01*
X98718823Y-90881687D01*
X98593804Y-90894000D01*
X98510196Y-90894000D01*
X98385177Y-90881687D01*
X98224758Y-90833024D01*
X98076924Y-90754005D01*
X98076922Y-90754004D01*
X97947341Y-90647659D01*
X97840996Y-90518078D01*
X97832886Y-90502906D01*
X97761976Y-90370242D01*
X97713313Y-90209823D01*
X97696883Y-90043000D01*
X97713313Y-89876177D01*
X97761976Y-89715758D01*
X97840995Y-89567924D01*
X97840996Y-89567922D01*
X97947341Y-89438341D01*
X98076922Y-89331996D01*
X98092094Y-89323886D01*
X98224758Y-89252976D01*
X98385177Y-89204313D01*
X98510196Y-89192000D01*
X98593804Y-89192000D01*
X98718823Y-89204313D01*
X98718823Y-89204313D01*
G37*
G36*
X87994443Y-86989519D02*
G01*
X88060627Y-86996037D01*
X88230466Y-87047557D01*
X88386991Y-87131222D01*
X88422729Y-87160552D01*
X88524186Y-87243814D01*
X88599985Y-87336177D01*
X88636778Y-87381009D01*
X88720443Y-87537534D01*
X88771963Y-87707373D01*
X88789359Y-87884000D01*
X88771963Y-88060627D01*
X88720443Y-88230466D01*
X88636778Y-88386991D01*
X88607448Y-88422729D01*
X88524186Y-88524186D01*
X88422729Y-88607448D01*
X88386991Y-88636778D01*
X88230466Y-88720443D01*
X88060627Y-88771963D01*
X87994442Y-88778482D01*
X87928260Y-88785000D01*
X87839740Y-88785000D01*
X87773558Y-88778482D01*
X87707373Y-88771963D01*
X87537534Y-88720443D01*
X87381009Y-88636778D01*
X87345271Y-88607448D01*
X87243814Y-88524186D01*
X87160552Y-88422729D01*
X87131222Y-88386991D01*
X87047557Y-88230466D01*
X86996037Y-88060627D01*
X86978641Y-87884000D01*
X86996037Y-87707373D01*
X87047557Y-87537534D01*
X87131222Y-87381009D01*
X87168015Y-87336177D01*
X87243814Y-87243814D01*
X87345271Y-87160552D01*
X87381009Y-87131222D01*
X87537534Y-87047557D01*
X87707373Y-86996037D01*
X87773557Y-86989519D01*
X87839740Y-86983000D01*
X87928260Y-86983000D01*
X87994443Y-86989519D01*
X87994443Y-86989519D01*
G37*
G36*
X120689823Y-86854813D02*
G01*
X120850242Y-86903476D01*
X120982906Y-86974386D01*
X120998078Y-86982496D01*
X121127659Y-87088841D01*
X121234004Y-87218422D01*
X121234005Y-87218424D01*
X121313024Y-87366258D01*
X121361687Y-87526677D01*
X121378117Y-87693500D01*
X121361687Y-87860323D01*
X121313024Y-88020742D01*
X121291706Y-88060625D01*
X121234004Y-88168578D01*
X121127659Y-88298159D01*
X120998078Y-88404504D01*
X120998076Y-88404505D01*
X120850242Y-88483524D01*
X120689823Y-88532187D01*
X120564804Y-88544500D01*
X120481196Y-88544500D01*
X120356177Y-88532187D01*
X120195758Y-88483524D01*
X120047924Y-88404505D01*
X120047922Y-88404504D01*
X119918341Y-88298159D01*
X119811996Y-88168578D01*
X119754294Y-88060625D01*
X119732976Y-88020742D01*
X119684313Y-87860323D01*
X119667883Y-87693500D01*
X119684313Y-87526677D01*
X119732976Y-87366258D01*
X119811995Y-87218424D01*
X119811996Y-87218422D01*
X119918341Y-87088841D01*
X120047922Y-86982496D01*
X120063094Y-86974386D01*
X120195758Y-86903476D01*
X120356177Y-86854813D01*
X120481196Y-86842500D01*
X120564804Y-86842500D01*
X120689823Y-86854813D01*
X120689823Y-86854813D01*
G37*
G36*
X128994000Y-88544500D02*
G01*
X127292000Y-88544500D01*
X127292000Y-86842500D01*
X128994000Y-86842500D01*
X128994000Y-88544500D01*
X128994000Y-88544500D01*
G37*
G36*
X113958823Y-86664313D02*
G01*
X114119242Y-86712976D01*
X114251906Y-86783886D01*
X114267078Y-86791996D01*
X114396659Y-86898341D01*
X114503004Y-87027922D01*
X114503005Y-87027924D01*
X114582024Y-87175758D01*
X114630687Y-87336177D01*
X114647117Y-87503000D01*
X114630687Y-87669823D01*
X114582024Y-87830242D01*
X114511114Y-87962906D01*
X114503004Y-87978078D01*
X114396659Y-88107659D01*
X114267078Y-88214004D01*
X114267076Y-88214005D01*
X114119242Y-88293024D01*
X113958823Y-88341687D01*
X113833804Y-88354000D01*
X113750196Y-88354000D01*
X113625177Y-88341687D01*
X113464758Y-88293024D01*
X113316924Y-88214005D01*
X113316922Y-88214004D01*
X113187341Y-88107659D01*
X113080996Y-87978078D01*
X113072886Y-87962906D01*
X113001976Y-87830242D01*
X112953313Y-87669823D01*
X112936883Y-87503000D01*
X112953313Y-87336177D01*
X113001976Y-87175758D01*
X113080995Y-87027924D01*
X113080996Y-87027922D01*
X113187341Y-86898341D01*
X113316922Y-86791996D01*
X113332094Y-86783886D01*
X113464758Y-86712976D01*
X113625177Y-86664313D01*
X113750196Y-86652000D01*
X113833804Y-86652000D01*
X113958823Y-86664313D01*
X113958823Y-86664313D01*
G37*
G36*
X98718823Y-86664313D02*
G01*
X98879242Y-86712976D01*
X99011906Y-86783886D01*
X99027078Y-86791996D01*
X99156659Y-86898341D01*
X99263004Y-87027922D01*
X99263005Y-87027924D01*
X99342024Y-87175758D01*
X99390687Y-87336177D01*
X99407117Y-87503000D01*
X99390687Y-87669823D01*
X99342024Y-87830242D01*
X99271114Y-87962906D01*
X99263004Y-87978078D01*
X99156659Y-88107659D01*
X99027078Y-88214004D01*
X99027076Y-88214005D01*
X98879242Y-88293024D01*
X98718823Y-88341687D01*
X98593804Y-88354000D01*
X98510196Y-88354000D01*
X98385177Y-88341687D01*
X98224758Y-88293024D01*
X98076924Y-88214005D01*
X98076922Y-88214004D01*
X97947341Y-88107659D01*
X97840996Y-87978078D01*
X97832886Y-87962906D01*
X97761976Y-87830242D01*
X97713313Y-87669823D01*
X97696883Y-87503000D01*
X97713313Y-87336177D01*
X97761976Y-87175758D01*
X97840995Y-87027924D01*
X97840996Y-87027922D01*
X97947341Y-86898341D01*
X98076922Y-86791996D01*
X98092094Y-86783886D01*
X98224758Y-86712976D01*
X98385177Y-86664313D01*
X98510196Y-86652000D01*
X98593804Y-86652000D01*
X98718823Y-86664313D01*
X98718823Y-86664313D01*
G37*
G36*
X128309823Y-84314813D02*
G01*
X128470242Y-84363476D01*
X128602906Y-84434386D01*
X128618078Y-84442496D01*
X128747659Y-84548841D01*
X128854004Y-84678422D01*
X128854005Y-84678424D01*
X128933024Y-84826258D01*
X128981687Y-84986677D01*
X128998117Y-85153500D01*
X128981687Y-85320323D01*
X128933024Y-85480742D01*
X128886566Y-85567659D01*
X128854004Y-85628578D01*
X128747659Y-85758159D01*
X128618078Y-85864504D01*
X128618076Y-85864505D01*
X128470242Y-85943524D01*
X128309823Y-85992187D01*
X128184804Y-86004500D01*
X128101196Y-86004500D01*
X127976177Y-85992187D01*
X127815758Y-85943524D01*
X127667924Y-85864505D01*
X127667922Y-85864504D01*
X127538341Y-85758159D01*
X127431996Y-85628578D01*
X127399434Y-85567659D01*
X127352976Y-85480742D01*
X127304313Y-85320323D01*
X127287883Y-85153500D01*
X127304313Y-84986677D01*
X127352976Y-84826258D01*
X127431995Y-84678424D01*
X127431996Y-84678422D01*
X127538341Y-84548841D01*
X127667922Y-84442496D01*
X127683094Y-84434386D01*
X127815758Y-84363476D01*
X127976177Y-84314813D01*
X128101196Y-84302500D01*
X128184804Y-84302500D01*
X128309823Y-84314813D01*
X128309823Y-84314813D01*
G37*
G36*
X120689823Y-84314813D02*
G01*
X120850242Y-84363476D01*
X120982906Y-84434386D01*
X120998078Y-84442496D01*
X121127659Y-84548841D01*
X121234004Y-84678422D01*
X121234005Y-84678424D01*
X121313024Y-84826258D01*
X121361687Y-84986677D01*
X121378117Y-85153500D01*
X121361687Y-85320323D01*
X121313024Y-85480742D01*
X121266566Y-85567659D01*
X121234004Y-85628578D01*
X121127659Y-85758159D01*
X120998078Y-85864504D01*
X120998076Y-85864505D01*
X120850242Y-85943524D01*
X120689823Y-85992187D01*
X120564804Y-86004500D01*
X120481196Y-86004500D01*
X120356177Y-85992187D01*
X120195758Y-85943524D01*
X120047924Y-85864505D01*
X120047922Y-85864504D01*
X119918341Y-85758159D01*
X119811996Y-85628578D01*
X119779434Y-85567659D01*
X119732976Y-85480742D01*
X119684313Y-85320323D01*
X119667883Y-85153500D01*
X119684313Y-84986677D01*
X119732976Y-84826258D01*
X119811995Y-84678424D01*
X119811996Y-84678422D01*
X119918341Y-84548841D01*
X120047922Y-84442496D01*
X120063094Y-84434386D01*
X120195758Y-84363476D01*
X120356177Y-84314813D01*
X120481196Y-84302500D01*
X120564804Y-84302500D01*
X120689823Y-84314813D01*
X120689823Y-84314813D01*
G37*
G36*
X98718823Y-84124313D02*
G01*
X98879242Y-84172976D01*
X99011906Y-84243886D01*
X99027078Y-84251996D01*
X99156659Y-84358341D01*
X99263004Y-84487922D01*
X99263005Y-84487924D01*
X99342024Y-84635758D01*
X99390687Y-84796177D01*
X99407117Y-84963000D01*
X99390687Y-85129823D01*
X99342024Y-85290242D01*
X99325945Y-85320323D01*
X99263004Y-85438078D01*
X99156659Y-85567659D01*
X99027078Y-85674004D01*
X99027076Y-85674005D01*
X98879242Y-85753024D01*
X98718823Y-85801687D01*
X98593804Y-85814000D01*
X98510196Y-85814000D01*
X98385177Y-85801687D01*
X98224758Y-85753024D01*
X98076924Y-85674005D01*
X98076922Y-85674004D01*
X97947341Y-85567659D01*
X97840996Y-85438078D01*
X97778055Y-85320323D01*
X97761976Y-85290242D01*
X97713313Y-85129823D01*
X97696883Y-84963000D01*
X97713313Y-84796177D01*
X97761976Y-84635758D01*
X97840995Y-84487924D01*
X97840996Y-84487922D01*
X97947341Y-84358341D01*
X98076922Y-84251996D01*
X98092094Y-84243886D01*
X98224758Y-84172976D01*
X98385177Y-84124313D01*
X98510196Y-84112000D01*
X98593804Y-84112000D01*
X98718823Y-84124313D01*
X98718823Y-84124313D01*
G37*
G36*
X113958823Y-84124313D02*
G01*
X114119242Y-84172976D01*
X114251906Y-84243886D01*
X114267078Y-84251996D01*
X114396659Y-84358341D01*
X114503004Y-84487922D01*
X114503005Y-84487924D01*
X114582024Y-84635758D01*
X114630687Y-84796177D01*
X114647117Y-84963000D01*
X114630687Y-85129823D01*
X114582024Y-85290242D01*
X114565945Y-85320323D01*
X114503004Y-85438078D01*
X114396659Y-85567659D01*
X114267078Y-85674004D01*
X114267076Y-85674005D01*
X114119242Y-85753024D01*
X113958823Y-85801687D01*
X113833804Y-85814000D01*
X113750196Y-85814000D01*
X113625177Y-85801687D01*
X113464758Y-85753024D01*
X113316924Y-85674005D01*
X113316922Y-85674004D01*
X113187341Y-85567659D01*
X113080996Y-85438078D01*
X113018055Y-85320323D01*
X113001976Y-85290242D01*
X112953313Y-85129823D01*
X112936883Y-84963000D01*
X112953313Y-84796177D01*
X113001976Y-84635758D01*
X113080995Y-84487924D01*
X113080996Y-84487922D01*
X113187341Y-84358341D01*
X113316922Y-84251996D01*
X113332094Y-84243886D01*
X113464758Y-84172976D01*
X113625177Y-84124313D01*
X113750196Y-84112000D01*
X113833804Y-84112000D01*
X113958823Y-84124313D01*
X113958823Y-84124313D01*
G37*
G36*
X91217000Y-84105000D02*
G01*
X88615000Y-84105000D01*
X88615000Y-81503000D01*
X91217000Y-81503000D01*
X91217000Y-84105000D01*
X91217000Y-84105000D01*
G37*
G36*
X120689823Y-81774813D02*
G01*
X120850242Y-81823476D01*
X120982906Y-81894386D01*
X120998078Y-81902496D01*
X121127659Y-82008841D01*
X121234004Y-82138422D01*
X121234005Y-82138424D01*
X121313024Y-82286258D01*
X121361687Y-82446677D01*
X121378117Y-82613500D01*
X121361687Y-82780323D01*
X121313024Y-82940742D01*
X121266566Y-83027659D01*
X121234004Y-83088578D01*
X121127659Y-83218159D01*
X120998078Y-83324504D01*
X120998076Y-83324505D01*
X120850242Y-83403524D01*
X120689823Y-83452187D01*
X120564804Y-83464500D01*
X120481196Y-83464500D01*
X120356177Y-83452187D01*
X120195758Y-83403524D01*
X120047924Y-83324505D01*
X120047922Y-83324504D01*
X119918341Y-83218159D01*
X119811996Y-83088578D01*
X119779434Y-83027659D01*
X119732976Y-82940742D01*
X119684313Y-82780323D01*
X119667883Y-82613500D01*
X119684313Y-82446677D01*
X119732976Y-82286258D01*
X119811995Y-82138424D01*
X119811996Y-82138422D01*
X119918341Y-82008841D01*
X120047922Y-81902496D01*
X120063094Y-81894386D01*
X120195758Y-81823476D01*
X120356177Y-81774813D01*
X120481196Y-81762500D01*
X120564804Y-81762500D01*
X120689823Y-81774813D01*
X120689823Y-81774813D01*
G37*
G36*
X128309823Y-81774813D02*
G01*
X128470242Y-81823476D01*
X128602906Y-81894386D01*
X128618078Y-81902496D01*
X128747659Y-82008841D01*
X128854004Y-82138422D01*
X128854005Y-82138424D01*
X128933024Y-82286258D01*
X128981687Y-82446677D01*
X128998117Y-82613500D01*
X128981687Y-82780323D01*
X128933024Y-82940742D01*
X128886566Y-83027659D01*
X128854004Y-83088578D01*
X128747659Y-83218159D01*
X128618078Y-83324504D01*
X128618076Y-83324505D01*
X128470242Y-83403524D01*
X128309823Y-83452187D01*
X128184804Y-83464500D01*
X128101196Y-83464500D01*
X127976177Y-83452187D01*
X127815758Y-83403524D01*
X127667924Y-83324505D01*
X127667922Y-83324504D01*
X127538341Y-83218159D01*
X127431996Y-83088578D01*
X127399434Y-83027659D01*
X127352976Y-82940742D01*
X127304313Y-82780323D01*
X127287883Y-82613500D01*
X127304313Y-82446677D01*
X127352976Y-82286258D01*
X127431995Y-82138424D01*
X127431996Y-82138422D01*
X127538341Y-82008841D01*
X127667922Y-81902496D01*
X127683094Y-81894386D01*
X127815758Y-81823476D01*
X127976177Y-81774813D01*
X128101196Y-81762500D01*
X128184804Y-81762500D01*
X128309823Y-81774813D01*
X128309823Y-81774813D01*
G37*
G36*
X98718823Y-81584313D02*
G01*
X98879242Y-81632976D01*
X99011906Y-81703886D01*
X99027078Y-81711996D01*
X99156659Y-81818341D01*
X99263004Y-81947922D01*
X99263005Y-81947924D01*
X99342024Y-82095758D01*
X99390687Y-82256177D01*
X99407117Y-82423000D01*
X99390687Y-82589823D01*
X99342024Y-82750242D01*
X99325945Y-82780323D01*
X99263004Y-82898078D01*
X99156659Y-83027659D01*
X99027078Y-83134004D01*
X99027076Y-83134005D01*
X98879242Y-83213024D01*
X98718823Y-83261687D01*
X98593804Y-83274000D01*
X98510196Y-83274000D01*
X98385177Y-83261687D01*
X98224758Y-83213024D01*
X98076924Y-83134005D01*
X98076922Y-83134004D01*
X97947341Y-83027659D01*
X97840996Y-82898078D01*
X97778055Y-82780323D01*
X97761976Y-82750242D01*
X97713313Y-82589823D01*
X97696883Y-82423000D01*
X97713313Y-82256177D01*
X97761976Y-82095758D01*
X97840995Y-81947924D01*
X97840996Y-81947922D01*
X97947341Y-81818341D01*
X98076922Y-81711996D01*
X98092094Y-81703886D01*
X98224758Y-81632976D01*
X98385177Y-81584313D01*
X98510196Y-81572000D01*
X98593804Y-81572000D01*
X98718823Y-81584313D01*
X98718823Y-81584313D01*
G37*
G36*
X113958823Y-81584313D02*
G01*
X114119242Y-81632976D01*
X114251906Y-81703886D01*
X114267078Y-81711996D01*
X114396659Y-81818341D01*
X114503004Y-81947922D01*
X114503005Y-81947924D01*
X114582024Y-82095758D01*
X114630687Y-82256177D01*
X114647117Y-82423000D01*
X114630687Y-82589823D01*
X114582024Y-82750242D01*
X114565945Y-82780323D01*
X114503004Y-82898078D01*
X114396659Y-83027659D01*
X114267078Y-83134004D01*
X114267076Y-83134005D01*
X114119242Y-83213024D01*
X113958823Y-83261687D01*
X113833804Y-83274000D01*
X113750196Y-83274000D01*
X113625177Y-83261687D01*
X113464758Y-83213024D01*
X113316924Y-83134005D01*
X113316922Y-83134004D01*
X113187341Y-83027659D01*
X113080996Y-82898078D01*
X113018055Y-82780323D01*
X113001976Y-82750242D01*
X112953313Y-82589823D01*
X112936883Y-82423000D01*
X112953313Y-82256177D01*
X113001976Y-82095758D01*
X113080995Y-81947924D01*
X113080996Y-81947922D01*
X113187341Y-81818341D01*
X113316922Y-81711996D01*
X113332094Y-81703886D01*
X113464758Y-81632976D01*
X113625177Y-81584313D01*
X113750196Y-81572000D01*
X113833804Y-81572000D01*
X113958823Y-81584313D01*
X113958823Y-81584313D01*
G37*
G36*
X120689823Y-79234813D02*
G01*
X120850242Y-79283476D01*
X120982906Y-79354386D01*
X120998078Y-79362496D01*
X121127659Y-79468841D01*
X121234004Y-79598422D01*
X121234005Y-79598424D01*
X121313024Y-79746258D01*
X121361687Y-79906677D01*
X121378117Y-80073500D01*
X121361687Y-80240323D01*
X121313024Y-80400742D01*
X121266566Y-80487659D01*
X121234004Y-80548578D01*
X121127659Y-80678159D01*
X120998078Y-80784504D01*
X120998076Y-80784505D01*
X120850242Y-80863524D01*
X120689823Y-80912187D01*
X120564804Y-80924500D01*
X120481196Y-80924500D01*
X120356177Y-80912187D01*
X120195758Y-80863524D01*
X120047924Y-80784505D01*
X120047922Y-80784504D01*
X119918341Y-80678159D01*
X119811996Y-80548578D01*
X119779434Y-80487659D01*
X119732976Y-80400742D01*
X119684313Y-80240323D01*
X119667883Y-80073500D01*
X119684313Y-79906677D01*
X119732976Y-79746258D01*
X119811995Y-79598424D01*
X119811996Y-79598422D01*
X119918341Y-79468841D01*
X120047922Y-79362496D01*
X120063094Y-79354386D01*
X120195758Y-79283476D01*
X120356177Y-79234813D01*
X120481196Y-79222500D01*
X120564804Y-79222500D01*
X120689823Y-79234813D01*
X120689823Y-79234813D01*
G37*
G36*
X128309823Y-79234813D02*
G01*
X128470242Y-79283476D01*
X128602906Y-79354386D01*
X128618078Y-79362496D01*
X128747659Y-79468841D01*
X128854004Y-79598422D01*
X128854005Y-79598424D01*
X128933024Y-79746258D01*
X128981687Y-79906677D01*
X128998117Y-80073500D01*
X128981687Y-80240323D01*
X128933024Y-80400742D01*
X128886566Y-80487659D01*
X128854004Y-80548578D01*
X128747659Y-80678159D01*
X128618078Y-80784504D01*
X128618076Y-80784505D01*
X128470242Y-80863524D01*
X128309823Y-80912187D01*
X128184804Y-80924500D01*
X128101196Y-80924500D01*
X127976177Y-80912187D01*
X127815758Y-80863524D01*
X127667924Y-80784505D01*
X127667922Y-80784504D01*
X127538341Y-80678159D01*
X127431996Y-80548578D01*
X127399434Y-80487659D01*
X127352976Y-80400742D01*
X127304313Y-80240323D01*
X127287883Y-80073500D01*
X127304313Y-79906677D01*
X127352976Y-79746258D01*
X127431995Y-79598424D01*
X127431996Y-79598422D01*
X127538341Y-79468841D01*
X127667922Y-79362496D01*
X127683094Y-79354386D01*
X127815758Y-79283476D01*
X127976177Y-79234813D01*
X128101196Y-79222500D01*
X128184804Y-79222500D01*
X128309823Y-79234813D01*
X128309823Y-79234813D01*
G37*
G36*
X98718823Y-79044313D02*
G01*
X98879242Y-79092976D01*
X99011906Y-79163886D01*
X99027078Y-79171996D01*
X99156659Y-79278341D01*
X99263004Y-79407922D01*
X99263005Y-79407924D01*
X99342024Y-79555758D01*
X99390687Y-79716177D01*
X99407117Y-79883000D01*
X99390687Y-80049823D01*
X99342024Y-80210242D01*
X99325945Y-80240323D01*
X99263004Y-80358078D01*
X99156659Y-80487659D01*
X99027078Y-80594004D01*
X99027076Y-80594005D01*
X98879242Y-80673024D01*
X98718823Y-80721687D01*
X98593804Y-80734000D01*
X98510196Y-80734000D01*
X98385177Y-80721687D01*
X98224758Y-80673024D01*
X98076924Y-80594005D01*
X98076922Y-80594004D01*
X97947341Y-80487659D01*
X97840996Y-80358078D01*
X97778055Y-80240323D01*
X97761976Y-80210242D01*
X97713313Y-80049823D01*
X97696883Y-79883000D01*
X97713313Y-79716177D01*
X97761976Y-79555758D01*
X97840995Y-79407924D01*
X97840996Y-79407922D01*
X97947341Y-79278341D01*
X98076922Y-79171996D01*
X98092094Y-79163886D01*
X98224758Y-79092976D01*
X98385177Y-79044313D01*
X98510196Y-79032000D01*
X98593804Y-79032000D01*
X98718823Y-79044313D01*
X98718823Y-79044313D01*
G37*
G36*
X113958823Y-79044313D02*
G01*
X114119242Y-79092976D01*
X114251906Y-79163886D01*
X114267078Y-79171996D01*
X114396659Y-79278341D01*
X114503004Y-79407922D01*
X114503005Y-79407924D01*
X114582024Y-79555758D01*
X114630687Y-79716177D01*
X114647117Y-79883000D01*
X114630687Y-80049823D01*
X114582024Y-80210242D01*
X114565945Y-80240323D01*
X114503004Y-80358078D01*
X114396659Y-80487659D01*
X114267078Y-80594004D01*
X114267076Y-80594005D01*
X114119242Y-80673024D01*
X113958823Y-80721687D01*
X113833804Y-80734000D01*
X113750196Y-80734000D01*
X113625177Y-80721687D01*
X113464758Y-80673024D01*
X113316924Y-80594005D01*
X113316922Y-80594004D01*
X113187341Y-80487659D01*
X113080996Y-80358078D01*
X113018055Y-80240323D01*
X113001976Y-80210242D01*
X112953313Y-80049823D01*
X112936883Y-79883000D01*
X112953313Y-79716177D01*
X113001976Y-79555758D01*
X113080995Y-79407924D01*
X113080996Y-79407922D01*
X113187341Y-79278341D01*
X113316922Y-79171996D01*
X113332094Y-79163886D01*
X113464758Y-79092976D01*
X113625177Y-79044313D01*
X113750196Y-79032000D01*
X113833804Y-79032000D01*
X113958823Y-79044313D01*
X113958823Y-79044313D01*
G37*
G36*
X90295487Y-76552996D02*
G01*
X90486209Y-76631996D01*
X90532255Y-76651069D01*
X90745339Y-76793447D01*
X90926553Y-76974661D01*
X91061202Y-77176177D01*
X91068932Y-77187747D01*
X91167004Y-77424513D01*
X91217000Y-77675861D01*
X91217000Y-77932139D01*
X91167004Y-78183487D01*
X91162649Y-78194000D01*
X91068931Y-78420255D01*
X90926553Y-78633339D01*
X90745339Y-78814553D01*
X90532255Y-78956931D01*
X90532254Y-78956932D01*
X90532253Y-78956932D01*
X90295487Y-79055004D01*
X90044139Y-79105000D01*
X89787861Y-79105000D01*
X89536513Y-79055004D01*
X89299747Y-78956932D01*
X89299746Y-78956932D01*
X89299745Y-78956931D01*
X89086661Y-78814553D01*
X88905447Y-78633339D01*
X88763069Y-78420255D01*
X88669351Y-78194000D01*
X88664996Y-78183487D01*
X88615000Y-77932139D01*
X88615000Y-77675861D01*
X88664996Y-77424513D01*
X88763068Y-77187747D01*
X88770799Y-77176177D01*
X88905447Y-76974661D01*
X89086661Y-76793447D01*
X89299745Y-76651069D01*
X89345791Y-76631996D01*
X89536513Y-76552996D01*
X89787861Y-76503000D01*
X90044139Y-76503000D01*
X90295487Y-76552996D01*
X90295487Y-76552996D01*
G37*
G36*
X98718823Y-76504313D02*
G01*
X98879242Y-76552976D01*
X99011906Y-76623886D01*
X99027078Y-76631996D01*
X99156659Y-76738341D01*
X99263004Y-76867922D01*
X99263005Y-76867924D01*
X99342024Y-77015758D01*
X99390687Y-77176177D01*
X99407117Y-77343000D01*
X99390687Y-77509823D01*
X99342024Y-77670242D01*
X99271114Y-77802906D01*
X99263004Y-77818078D01*
X99156659Y-77947659D01*
X99027078Y-78054004D01*
X99027076Y-78054005D01*
X98879242Y-78133024D01*
X98718823Y-78181687D01*
X98593804Y-78194000D01*
X98510196Y-78194000D01*
X98385177Y-78181687D01*
X98224758Y-78133024D01*
X98076924Y-78054005D01*
X98076922Y-78054004D01*
X97947341Y-77947659D01*
X97840996Y-77818078D01*
X97832886Y-77802906D01*
X97761976Y-77670242D01*
X97713313Y-77509823D01*
X97696883Y-77343000D01*
X97713313Y-77176177D01*
X97761976Y-77015758D01*
X97840995Y-76867924D01*
X97840996Y-76867922D01*
X97947341Y-76738341D01*
X98076922Y-76631996D01*
X98092094Y-76623886D01*
X98224758Y-76552976D01*
X98385177Y-76504313D01*
X98510196Y-76492000D01*
X98593804Y-76492000D01*
X98718823Y-76504313D01*
X98718823Y-76504313D01*
G37*
G36*
X113958823Y-76504313D02*
G01*
X114119242Y-76552976D01*
X114251906Y-76623886D01*
X114267078Y-76631996D01*
X114396659Y-76738341D01*
X114503004Y-76867922D01*
X114503005Y-76867924D01*
X114582024Y-77015758D01*
X114630687Y-77176177D01*
X114647117Y-77343000D01*
X114630687Y-77509823D01*
X114582024Y-77670242D01*
X114511114Y-77802906D01*
X114503004Y-77818078D01*
X114396659Y-77947659D01*
X114267078Y-78054004D01*
X114267076Y-78054005D01*
X114119242Y-78133024D01*
X113958823Y-78181687D01*
X113833804Y-78194000D01*
X113750196Y-78194000D01*
X113625177Y-78181687D01*
X113464758Y-78133024D01*
X113316924Y-78054005D01*
X113316922Y-78054004D01*
X113187341Y-77947659D01*
X113080996Y-77818078D01*
X113072886Y-77802906D01*
X113001976Y-77670242D01*
X112953313Y-77509823D01*
X112936883Y-77343000D01*
X112953313Y-77176177D01*
X113001976Y-77015758D01*
X113080995Y-76867924D01*
X113080996Y-76867922D01*
X113187341Y-76738341D01*
X113316922Y-76631996D01*
X113332094Y-76623886D01*
X113464758Y-76552976D01*
X113625177Y-76504313D01*
X113750196Y-76492000D01*
X113833804Y-76492000D01*
X113958823Y-76504313D01*
X113958823Y-76504313D01*
G37*
G36*
X113958823Y-73964313D02*
G01*
X114119242Y-74012976D01*
X114251906Y-74083886D01*
X114267078Y-74091996D01*
X114396659Y-74198341D01*
X114503004Y-74327922D01*
X114503005Y-74327924D01*
X114582024Y-74475758D01*
X114630687Y-74636177D01*
X114647117Y-74803000D01*
X114630687Y-74969823D01*
X114582024Y-75130242D01*
X114511114Y-75262906D01*
X114503004Y-75278078D01*
X114396659Y-75407659D01*
X114267078Y-75514004D01*
X114267076Y-75514005D01*
X114119242Y-75593024D01*
X113958823Y-75641687D01*
X113833804Y-75654000D01*
X113750196Y-75654000D01*
X113625177Y-75641687D01*
X113464758Y-75593024D01*
X113316924Y-75514005D01*
X113316922Y-75514004D01*
X113187341Y-75407659D01*
X113080996Y-75278078D01*
X113072886Y-75262906D01*
X113001976Y-75130242D01*
X112953313Y-74969823D01*
X112936883Y-74803000D01*
X112953313Y-74636177D01*
X113001976Y-74475758D01*
X113080995Y-74327924D01*
X113080996Y-74327922D01*
X113187341Y-74198341D01*
X113316922Y-74091996D01*
X113332094Y-74083886D01*
X113464758Y-74012976D01*
X113625177Y-73964313D01*
X113750196Y-73952000D01*
X113833804Y-73952000D01*
X113958823Y-73964313D01*
X113958823Y-73964313D01*
G37*
G36*
X98718823Y-73964313D02*
G01*
X98879242Y-74012976D01*
X99011906Y-74083886D01*
X99027078Y-74091996D01*
X99156659Y-74198341D01*
X99263004Y-74327922D01*
X99263005Y-74327924D01*
X99342024Y-74475758D01*
X99390687Y-74636177D01*
X99407117Y-74803000D01*
X99390687Y-74969823D01*
X99342024Y-75130242D01*
X99271114Y-75262906D01*
X99263004Y-75278078D01*
X99156659Y-75407659D01*
X99027078Y-75514004D01*
X99027076Y-75514005D01*
X98879242Y-75593024D01*
X98718823Y-75641687D01*
X98593804Y-75654000D01*
X98510196Y-75654000D01*
X98385177Y-75641687D01*
X98224758Y-75593024D01*
X98076924Y-75514005D01*
X98076922Y-75514004D01*
X97947341Y-75407659D01*
X97840996Y-75278078D01*
X97832886Y-75262906D01*
X97761976Y-75130242D01*
X97713313Y-74969823D01*
X97696883Y-74803000D01*
X97713313Y-74636177D01*
X97761976Y-74475758D01*
X97840995Y-74327924D01*
X97840996Y-74327922D01*
X97947341Y-74198341D01*
X98076922Y-74091996D01*
X98092094Y-74083886D01*
X98224758Y-74012976D01*
X98385177Y-73964313D01*
X98510196Y-73952000D01*
X98593804Y-73952000D01*
X98718823Y-73964313D01*
X98718823Y-73964313D01*
G37*
G36*
X90295487Y-71552996D02*
G01*
X90532253Y-71651068D01*
X90532255Y-71651069D01*
X90543138Y-71658341D01*
X90745339Y-71793447D01*
X90926553Y-71974661D01*
X91068932Y-72187747D01*
X91167004Y-72424513D01*
X91217000Y-72675861D01*
X91217000Y-72932139D01*
X91167004Y-73183487D01*
X91068932Y-73420253D01*
X91068931Y-73420255D01*
X90926553Y-73633339D01*
X90745339Y-73814553D01*
X90532255Y-73956931D01*
X90532254Y-73956932D01*
X90532253Y-73956932D01*
X90295487Y-74055004D01*
X90044139Y-74105000D01*
X89787861Y-74105000D01*
X89536513Y-74055004D01*
X89299747Y-73956932D01*
X89299746Y-73956932D01*
X89299745Y-73956931D01*
X89086661Y-73814553D01*
X88905447Y-73633339D01*
X88763069Y-73420255D01*
X88763068Y-73420253D01*
X88664996Y-73183487D01*
X88615000Y-72932139D01*
X88615000Y-72675861D01*
X88664996Y-72424513D01*
X88763068Y-72187747D01*
X88905447Y-71974661D01*
X89086661Y-71793447D01*
X89288862Y-71658341D01*
X89299745Y-71651069D01*
X89299747Y-71651068D01*
X89536513Y-71552996D01*
X89787861Y-71503000D01*
X90044139Y-71503000D01*
X90295487Y-71552996D01*
X90295487Y-71552996D01*
G37*
G36*
X113958823Y-71424313D02*
G01*
X114119242Y-71472976D01*
X114251906Y-71543886D01*
X114267078Y-71551996D01*
X114396659Y-71658341D01*
X114503004Y-71787922D01*
X114503005Y-71787924D01*
X114582024Y-71935758D01*
X114630687Y-72096177D01*
X114647117Y-72263000D01*
X114630687Y-72429823D01*
X114582024Y-72590242D01*
X114511114Y-72722906D01*
X114503004Y-72738078D01*
X114396659Y-72867659D01*
X114267078Y-72974004D01*
X114267076Y-72974005D01*
X114119242Y-73053024D01*
X113958823Y-73101687D01*
X113833804Y-73114000D01*
X113750196Y-73114000D01*
X113625177Y-73101687D01*
X113464758Y-73053024D01*
X113316924Y-72974005D01*
X113316922Y-72974004D01*
X113187341Y-72867659D01*
X113080996Y-72738078D01*
X113072886Y-72722906D01*
X113001976Y-72590242D01*
X112953313Y-72429823D01*
X112936883Y-72263000D01*
X112953313Y-72096177D01*
X113001976Y-71935758D01*
X113080995Y-71787924D01*
X113080996Y-71787922D01*
X113187341Y-71658341D01*
X113316922Y-71551996D01*
X113332094Y-71543886D01*
X113464758Y-71472976D01*
X113625177Y-71424313D01*
X113750196Y-71412000D01*
X113833804Y-71412000D01*
X113958823Y-71424313D01*
X113958823Y-71424313D01*
G37*
G36*
X98718823Y-71424313D02*
G01*
X98879242Y-71472976D01*
X99011906Y-71543886D01*
X99027078Y-71551996D01*
X99156659Y-71658341D01*
X99263004Y-71787922D01*
X99263005Y-71787924D01*
X99342024Y-71935758D01*
X99390687Y-72096177D01*
X99407117Y-72263000D01*
X99390687Y-72429823D01*
X99342024Y-72590242D01*
X99271114Y-72722906D01*
X99263004Y-72738078D01*
X99156659Y-72867659D01*
X99027078Y-72974004D01*
X99027076Y-72974005D01*
X98879242Y-73053024D01*
X98718823Y-73101687D01*
X98593804Y-73114000D01*
X98510196Y-73114000D01*
X98385177Y-73101687D01*
X98224758Y-73053024D01*
X98076924Y-72974005D01*
X98076922Y-72974004D01*
X97947341Y-72867659D01*
X97840996Y-72738078D01*
X97832886Y-72722906D01*
X97761976Y-72590242D01*
X97713313Y-72429823D01*
X97696883Y-72263000D01*
X97713313Y-72096177D01*
X97761976Y-71935758D01*
X97840995Y-71787924D01*
X97840996Y-71787922D01*
X97947341Y-71658341D01*
X98076922Y-71551996D01*
X98092094Y-71543886D01*
X98224758Y-71472976D01*
X98385177Y-71424313D01*
X98510196Y-71412000D01*
X98593804Y-71412000D01*
X98718823Y-71424313D01*
X98718823Y-71424313D01*
G37*
G36*
X98718823Y-68884313D02*
G01*
X98879242Y-68932976D01*
X99011906Y-69003886D01*
X99027078Y-69011996D01*
X99156659Y-69118341D01*
X99263004Y-69247922D01*
X99263005Y-69247924D01*
X99342024Y-69395758D01*
X99390687Y-69556177D01*
X99407117Y-69723000D01*
X99390687Y-69889823D01*
X99342024Y-70050242D01*
X99271114Y-70182906D01*
X99263004Y-70198078D01*
X99156659Y-70327659D01*
X99027078Y-70434004D01*
X99027076Y-70434005D01*
X98879242Y-70513024D01*
X98718823Y-70561687D01*
X98593804Y-70574000D01*
X98510196Y-70574000D01*
X98385177Y-70561687D01*
X98224758Y-70513024D01*
X98076924Y-70434005D01*
X98076922Y-70434004D01*
X97947341Y-70327659D01*
X97840996Y-70198078D01*
X97832886Y-70182906D01*
X97761976Y-70050242D01*
X97713313Y-69889823D01*
X97696883Y-69723000D01*
X97713313Y-69556177D01*
X97761976Y-69395758D01*
X97840995Y-69247924D01*
X97840996Y-69247922D01*
X97947341Y-69118341D01*
X98076922Y-69011996D01*
X98092094Y-69003886D01*
X98224758Y-68932976D01*
X98385177Y-68884313D01*
X98510196Y-68872000D01*
X98593804Y-68872000D01*
X98718823Y-68884313D01*
X98718823Y-68884313D01*
G37*
G36*
X113958823Y-68884313D02*
G01*
X114119242Y-68932976D01*
X114251906Y-69003886D01*
X114267078Y-69011996D01*
X114396659Y-69118341D01*
X114503004Y-69247922D01*
X114503005Y-69247924D01*
X114582024Y-69395758D01*
X114630687Y-69556177D01*
X114647117Y-69723000D01*
X114630687Y-69889823D01*
X114582024Y-70050242D01*
X114511114Y-70182906D01*
X114503004Y-70198078D01*
X114396659Y-70327659D01*
X114267078Y-70434004D01*
X114267076Y-70434005D01*
X114119242Y-70513024D01*
X113958823Y-70561687D01*
X113833804Y-70574000D01*
X113750196Y-70574000D01*
X113625177Y-70561687D01*
X113464758Y-70513024D01*
X113316924Y-70434005D01*
X113316922Y-70434004D01*
X113187341Y-70327659D01*
X113080996Y-70198078D01*
X113072886Y-70182906D01*
X113001976Y-70050242D01*
X112953313Y-69889823D01*
X112936883Y-69723000D01*
X112953313Y-69556177D01*
X113001976Y-69395758D01*
X113080995Y-69247924D01*
X113080996Y-69247922D01*
X113187341Y-69118341D01*
X113316922Y-69011996D01*
X113332094Y-69003886D01*
X113464758Y-68932976D01*
X113625177Y-68884313D01*
X113750196Y-68872000D01*
X113833804Y-68872000D01*
X113958823Y-68884313D01*
X113958823Y-68884313D01*
G37*
G36*
X93518683Y-67787659D02*
G01*
X93581560Y-67800166D01*
X93729153Y-67861301D01*
X93861982Y-67950055D01*
X93974945Y-68063018D01*
X94063699Y-68195847D01*
X94124834Y-68343440D01*
X94156000Y-68500123D01*
X94156000Y-68659877D01*
X94124834Y-68816560D01*
X94063699Y-68964153D01*
X93974945Y-69096982D01*
X93861982Y-69209945D01*
X93729153Y-69298699D01*
X93729152Y-69298700D01*
X93729151Y-69298700D01*
X93581560Y-69359834D01*
X93424878Y-69391000D01*
X93265122Y-69391000D01*
X93108440Y-69359834D01*
X92960849Y-69298700D01*
X92960848Y-69298700D01*
X92960847Y-69298699D01*
X92828018Y-69209945D01*
X92715055Y-69096982D01*
X92626301Y-68964153D01*
X92565166Y-68816560D01*
X92534000Y-68659877D01*
X92534000Y-68500123D01*
X92565166Y-68343440D01*
X92626301Y-68195847D01*
X92715055Y-68063018D01*
X92828018Y-67950055D01*
X92960847Y-67861301D01*
X93108440Y-67800166D01*
X93171317Y-67787659D01*
X93265122Y-67769000D01*
X93424878Y-67769000D01*
X93518683Y-67787659D01*
X93518683Y-67787659D01*
G37*
G36*
X98718823Y-66344313D02*
G01*
X98879242Y-66392976D01*
X99011906Y-66463886D01*
X99027078Y-66471996D01*
X99156659Y-66578341D01*
X99263004Y-66707922D01*
X99263005Y-66707924D01*
X99342024Y-66855758D01*
X99390687Y-67016177D01*
X99407117Y-67183000D01*
X99390687Y-67349823D01*
X99342024Y-67510242D01*
X99271114Y-67642906D01*
X99263004Y-67658078D01*
X99156659Y-67787659D01*
X99027078Y-67894004D01*
X99027076Y-67894005D01*
X98879242Y-67973024D01*
X98718823Y-68021687D01*
X98593804Y-68034000D01*
X98510196Y-68034000D01*
X98385177Y-68021687D01*
X98224758Y-67973024D01*
X98076924Y-67894005D01*
X98076922Y-67894004D01*
X97947341Y-67787659D01*
X97840996Y-67658078D01*
X97832886Y-67642906D01*
X97761976Y-67510242D01*
X97713313Y-67349823D01*
X97696883Y-67183000D01*
X97713313Y-67016177D01*
X97761976Y-66855758D01*
X97840995Y-66707924D01*
X97840996Y-66707922D01*
X97947341Y-66578341D01*
X98076922Y-66471996D01*
X98092094Y-66463886D01*
X98224758Y-66392976D01*
X98385177Y-66344313D01*
X98510196Y-66332000D01*
X98593804Y-66332000D01*
X98718823Y-66344313D01*
X98718823Y-66344313D01*
G37*
G36*
X113958823Y-66344313D02*
G01*
X114119242Y-66392976D01*
X114251906Y-66463886D01*
X114267078Y-66471996D01*
X114396659Y-66578341D01*
X114503004Y-66707922D01*
X114503005Y-66707924D01*
X114582024Y-66855758D01*
X114630687Y-67016177D01*
X114647117Y-67183000D01*
X114630687Y-67349823D01*
X114582024Y-67510242D01*
X114511114Y-67642906D01*
X114503004Y-67658078D01*
X114396659Y-67787659D01*
X114267078Y-67894004D01*
X114267076Y-67894005D01*
X114119242Y-67973024D01*
X113958823Y-68021687D01*
X113833804Y-68034000D01*
X113750196Y-68034000D01*
X113625177Y-68021687D01*
X113464758Y-67973024D01*
X113316924Y-67894005D01*
X113316922Y-67894004D01*
X113187341Y-67787659D01*
X113080996Y-67658078D01*
X113072886Y-67642906D01*
X113001976Y-67510242D01*
X112953313Y-67349823D01*
X112936883Y-67183000D01*
X112953313Y-67016177D01*
X113001976Y-66855758D01*
X113080995Y-66707924D01*
X113080996Y-66707922D01*
X113187341Y-66578341D01*
X113316922Y-66471996D01*
X113332094Y-66463886D01*
X113464758Y-66392976D01*
X113625177Y-66344313D01*
X113750196Y-66332000D01*
X113833804Y-66332000D01*
X113958823Y-66344313D01*
X113958823Y-66344313D01*
G37*
G36*
X93518683Y-65247659D02*
G01*
X93581560Y-65260166D01*
X93729153Y-65321301D01*
X93861982Y-65410055D01*
X93974945Y-65523018D01*
X94063700Y-65655849D01*
X94124834Y-65803440D01*
X94133698Y-65848000D01*
X94156000Y-65960123D01*
X94156000Y-66119877D01*
X94124834Y-66276560D01*
X94063699Y-66424153D01*
X93974945Y-66556982D01*
X93861982Y-66669945D01*
X93729153Y-66758699D01*
X93729152Y-66758700D01*
X93729151Y-66758700D01*
X93581560Y-66819834D01*
X93424878Y-66851000D01*
X93265122Y-66851000D01*
X93108440Y-66819834D01*
X92960849Y-66758700D01*
X92960848Y-66758700D01*
X92960847Y-66758699D01*
X92828018Y-66669945D01*
X92715055Y-66556982D01*
X92626301Y-66424153D01*
X92565166Y-66276560D01*
X92534000Y-66119877D01*
X92534000Y-65960123D01*
X92556303Y-65848000D01*
X92565166Y-65803440D01*
X92626300Y-65655849D01*
X92715055Y-65523018D01*
X92828018Y-65410055D01*
X92960847Y-65321301D01*
X93108440Y-65260166D01*
X93171317Y-65247659D01*
X93265122Y-65229000D01*
X93424878Y-65229000D01*
X93518683Y-65247659D01*
X93518683Y-65247659D01*
G37*
G36*
X134047000Y-65848000D02*
G01*
X132145000Y-65848000D01*
X132145000Y-63946000D01*
X134047000Y-63946000D01*
X134047000Y-65848000D01*
X134047000Y-65848000D01*
G37*
G36*
X124204500Y-65848000D02*
G01*
X122302500Y-65848000D01*
X122302500Y-63946000D01*
X124204500Y-63946000D01*
X124204500Y-65848000D01*
X124204500Y-65848000D01*
G37*
G36*
X113958823Y-63804313D02*
G01*
X114119242Y-63852976D01*
X114251906Y-63923886D01*
X114267078Y-63931996D01*
X114396659Y-64038341D01*
X114503004Y-64167922D01*
X114503005Y-64167924D01*
X114582024Y-64315758D01*
X114630687Y-64476177D01*
X114647117Y-64643000D01*
X114630687Y-64809823D01*
X114582024Y-64970242D01*
X114511114Y-65102906D01*
X114503004Y-65118078D01*
X114396659Y-65247659D01*
X114267078Y-65354004D01*
X114267076Y-65354005D01*
X114119242Y-65433024D01*
X113958823Y-65481687D01*
X113833804Y-65494000D01*
X113750196Y-65494000D01*
X113625177Y-65481687D01*
X113464758Y-65433024D01*
X113316924Y-65354005D01*
X113316922Y-65354004D01*
X113187341Y-65247659D01*
X113080996Y-65118078D01*
X113072886Y-65102906D01*
X113001976Y-64970242D01*
X112953313Y-64809823D01*
X112936883Y-64643000D01*
X112953313Y-64476177D01*
X113001976Y-64315758D01*
X113080995Y-64167924D01*
X113080996Y-64167922D01*
X113187341Y-64038341D01*
X113316922Y-63931996D01*
X113332094Y-63923886D01*
X113464758Y-63852976D01*
X113625177Y-63804313D01*
X113750196Y-63792000D01*
X113833804Y-63792000D01*
X113958823Y-63804313D01*
X113958823Y-63804313D01*
G37*
G36*
X98718823Y-63804313D02*
G01*
X98879242Y-63852976D01*
X99011906Y-63923886D01*
X99027078Y-63931996D01*
X99156659Y-64038341D01*
X99263004Y-64167922D01*
X99263005Y-64167924D01*
X99342024Y-64315758D01*
X99390687Y-64476177D01*
X99407117Y-64643000D01*
X99390687Y-64809823D01*
X99342024Y-64970242D01*
X99271114Y-65102906D01*
X99263004Y-65118078D01*
X99156659Y-65247659D01*
X99027078Y-65354004D01*
X99027076Y-65354005D01*
X98879242Y-65433024D01*
X98718823Y-65481687D01*
X98593804Y-65494000D01*
X98510196Y-65494000D01*
X98385177Y-65481687D01*
X98224758Y-65433024D01*
X98076924Y-65354005D01*
X98076922Y-65354004D01*
X97947341Y-65247659D01*
X97840996Y-65118078D01*
X97832886Y-65102906D01*
X97761976Y-64970242D01*
X97713313Y-64809823D01*
X97696883Y-64643000D01*
X97713313Y-64476177D01*
X97761976Y-64315758D01*
X97840995Y-64167924D01*
X97840996Y-64167922D01*
X97947341Y-64038341D01*
X98076922Y-63931996D01*
X98092094Y-63923886D01*
X98224758Y-63852976D01*
X98385177Y-63804313D01*
X98510196Y-63792000D01*
X98593804Y-63792000D01*
X98718823Y-63804313D01*
X98718823Y-63804313D01*
G37*
G36*
X94156000Y-64311000D02*
G01*
X92534000Y-64311000D01*
X92534000Y-62689000D01*
X94156000Y-62689000D01*
X94156000Y-64311000D01*
X94156000Y-64311000D01*
G37*
G36*
X123530895Y-61442546D02*
G01*
X123703966Y-61514234D01*
X123703967Y-61514235D01*
X123859727Y-61618310D01*
X123992190Y-61750773D01*
X123992191Y-61750775D01*
X124096266Y-61906534D01*
X124167954Y-62079605D01*
X124204500Y-62263333D01*
X124204500Y-62450667D01*
X124167954Y-62634395D01*
X124096266Y-62807466D01*
X124096265Y-62807467D01*
X123992190Y-62963227D01*
X123859727Y-63095690D01*
X123781318Y-63148081D01*
X123703966Y-63199766D01*
X123530895Y-63271454D01*
X123347167Y-63308000D01*
X123159833Y-63308000D01*
X122976105Y-63271454D01*
X122803034Y-63199766D01*
X122725682Y-63148081D01*
X122647273Y-63095690D01*
X122514810Y-62963227D01*
X122410735Y-62807467D01*
X122410734Y-62807466D01*
X122339046Y-62634395D01*
X122302500Y-62450667D01*
X122302500Y-62263333D01*
X122339046Y-62079605D01*
X122410734Y-61906534D01*
X122514809Y-61750775D01*
X122514810Y-61750773D01*
X122647273Y-61618310D01*
X122803033Y-61514235D01*
X122803034Y-61514234D01*
X122976105Y-61442546D01*
X123159833Y-61406000D01*
X123347167Y-61406000D01*
X123530895Y-61442546D01*
X123530895Y-61442546D01*
G37*
G36*
X133373395Y-61442546D02*
G01*
X133546466Y-61514234D01*
X133546467Y-61514235D01*
X133702227Y-61618310D01*
X133834690Y-61750773D01*
X133834691Y-61750775D01*
X133938766Y-61906534D01*
X134010454Y-62079605D01*
X134047000Y-62263333D01*
X134047000Y-62450667D01*
X134010454Y-62634395D01*
X133938766Y-62807466D01*
X133938765Y-62807467D01*
X133834690Y-62963227D01*
X133702227Y-63095690D01*
X133623818Y-63148081D01*
X133546466Y-63199766D01*
X133373395Y-63271454D01*
X133189667Y-63308000D01*
X133002333Y-63308000D01*
X132818605Y-63271454D01*
X132645534Y-63199766D01*
X132568182Y-63148081D01*
X132489773Y-63095690D01*
X132357310Y-62963227D01*
X132253235Y-62807467D01*
X132253234Y-62807466D01*
X132181546Y-62634395D01*
X132145000Y-62450667D01*
X132145000Y-62263333D01*
X132181546Y-62079605D01*
X132253234Y-61906534D01*
X132357309Y-61750775D01*
X132357310Y-61750773D01*
X132489773Y-61618310D01*
X132645533Y-61514235D01*
X132645534Y-61514234D01*
X132818605Y-61442546D01*
X133002333Y-61406000D01*
X133189667Y-61406000D01*
X133373395Y-61442546D01*
X133373395Y-61442546D01*
G37*
G36*
X87247487Y-60470996D02*
G01*
X87484253Y-60569068D01*
X87484255Y-60569069D01*
X87697339Y-60711447D01*
X87878553Y-60892661D01*
X88020932Y-61105747D01*
X88119004Y-61342513D01*
X88169000Y-61593861D01*
X88169000Y-61850139D01*
X88119004Y-62101487D01*
X88073537Y-62211253D01*
X88020931Y-62338255D01*
X87878553Y-62551339D01*
X87697339Y-62732553D01*
X87484255Y-62874931D01*
X87484254Y-62874932D01*
X87484253Y-62874932D01*
X87247487Y-62973004D01*
X86996139Y-63023000D01*
X86739861Y-63023000D01*
X86488513Y-62973004D01*
X86251747Y-62874932D01*
X86251746Y-62874932D01*
X86251745Y-62874931D01*
X86038661Y-62732553D01*
X85857447Y-62551339D01*
X85715069Y-62338255D01*
X85662463Y-62211253D01*
X85616996Y-62101487D01*
X85567000Y-61850139D01*
X85567000Y-61593861D01*
X85616996Y-61342513D01*
X85715068Y-61105747D01*
X85857447Y-60892661D01*
X86038661Y-60711447D01*
X86251745Y-60569069D01*
X86251747Y-60569068D01*
X86488513Y-60470996D01*
X86739861Y-60421000D01*
X86996139Y-60421000D01*
X87247487Y-60470996D01*
X87247487Y-60470996D01*
G37*
G36*
X163828487Y-60343996D02*
G01*
X164065253Y-60442068D01*
X164065255Y-60442069D01*
X164278339Y-60584447D01*
X164459553Y-60765661D01*
X164544412Y-60892661D01*
X164601932Y-60978747D01*
X164700004Y-61215513D01*
X164750000Y-61466861D01*
X164750000Y-61723139D01*
X164700004Y-61974487D01*
X164647398Y-62101488D01*
X164601931Y-62211255D01*
X164459553Y-62424339D01*
X164278339Y-62605553D01*
X164065255Y-62747931D01*
X164065254Y-62747932D01*
X164065253Y-62747932D01*
X163828487Y-62846004D01*
X163577139Y-62896000D01*
X163320861Y-62896000D01*
X163069513Y-62846004D01*
X162832747Y-62747932D01*
X162832746Y-62747932D01*
X162832745Y-62747931D01*
X162619661Y-62605553D01*
X162438447Y-62424339D01*
X162296069Y-62211255D01*
X162250602Y-62101488D01*
X162197996Y-61974487D01*
X162148000Y-61723139D01*
X162148000Y-61466861D01*
X162197996Y-61215513D01*
X162296068Y-60978747D01*
X162353589Y-60892661D01*
X162438447Y-60765661D01*
X162619661Y-60584447D01*
X162832745Y-60442069D01*
X162832747Y-60442068D01*
X163069513Y-60343996D01*
X163320861Y-60294000D01*
X163577139Y-60294000D01*
X163828487Y-60343996D01*
X163828487Y-60343996D01*
G37*
M02*
