G04 #@! TF.GenerationSoftware,KiCad,Pcbnew,5.1.2-f72e74a~84~ubuntu18.04.1*
G04 #@! TF.CreationDate,2019-06-24T12:10:09-06:00*
G04 #@! TF.ProjectId,LORA_Relay_AC,4c4f5241-5f52-4656-9c61-795f41432e6b,rev?*
G04 #@! TF.SameCoordinates,Original*
G04 #@! TF.FileFunction,Copper,L2,Bot*
G04 #@! TF.FilePolarity,Positive*
%FSLAX46Y46*%
G04 Gerber Fmt 4.6, Leading zero omitted, Abs format (unit mm)*
G04 Created by KiCad (PCBNEW 5.1.2-f72e74a~84~ubuntu18.04.1) date 2019-06-24 12:10:09*
%MOMM*%
%LPD*%
G04 APERTURE LIST*
%ADD10R,1.700000X1.700000*%
%ADD11O,1.700000X1.700000*%
%ADD12C,1.524000*%
%ADD13C,2.500000*%
%ADD14R,2.500000X2.500000*%
%ADD15C,3.000000*%
%ADD16C,1.800000*%
%ADD17R,1.800000X1.800000*%
%ADD18O,1.800000X1.800000*%
%ADD19O,3.556000X5.715000*%
%ADD20C,2.000000*%
%ADD21R,1.600000X1.600000*%
%ADD22O,1.600000X1.600000*%
%ADD23C,1.520000*%
%ADD24R,1.520000X1.520000*%
%ADD25C,0.800000*%
%ADD26C,1.397000*%
%ADD27C,0.508000*%
%ADD28C,0.762000*%
%ADD29C,0.250000*%
%ADD30C,0.254000*%
%ADD31C,2.032000*%
%ADD32C,2.540000*%
G04 APERTURE END LIST*
D10*
X87884000Y-95504000D03*
D11*
X87884000Y-92964000D03*
X87884000Y-90424000D03*
X87884000Y-87884000D03*
D12*
X87122000Y-109347000D03*
X102870000Y-109347000D03*
X92456000Y-138811000D03*
X97536000Y-138811000D03*
D13*
X98806000Y-149479000D03*
D14*
X103806000Y-149479000D03*
D13*
X93806000Y-149479000D03*
X117394000Y-124378000D03*
D15*
X117394000Y-136578000D03*
X129444000Y-136628000D03*
D13*
X129394000Y-124378000D03*
D15*
X123444000Y-122428000D03*
X152400000Y-122555000D03*
D13*
X158350000Y-124505000D03*
D15*
X158400000Y-136755000D03*
X146350000Y-136705000D03*
D13*
X146350000Y-124505000D03*
D16*
X123253500Y-62357000D03*
D17*
X123253500Y-64897000D03*
X133096000Y-64897000D03*
D16*
X133096000Y-62357000D03*
D17*
X119888000Y-116713000D03*
D18*
X127508000Y-116713000D03*
X156464000Y-116713000D03*
D17*
X148844000Y-116713000D03*
D19*
X110236000Y-139573000D03*
X110236000Y-131573000D03*
X139192000Y-131700000D03*
X139192000Y-139700000D03*
D20*
X129436000Y-95313501D03*
X129436000Y-99813501D03*
X122936000Y-95313501D03*
X122936000Y-99813501D03*
D21*
X113792000Y-100203000D03*
D22*
X98552000Y-67183000D03*
X113792000Y-97663000D03*
X98552000Y-69723000D03*
X113792000Y-95123000D03*
X98552000Y-72263000D03*
X113792000Y-92583000D03*
X98552000Y-74803000D03*
X113792000Y-90043000D03*
X98552000Y-77343000D03*
X113792000Y-87503000D03*
X98552000Y-79883000D03*
X113792000Y-84963000D03*
X98552000Y-82423000D03*
X113792000Y-82423000D03*
X98552000Y-84963000D03*
X113792000Y-79883000D03*
X98552000Y-87503000D03*
X113792000Y-77343000D03*
X98552000Y-90043000D03*
X113792000Y-74803000D03*
X98552000Y-92583000D03*
X113792000Y-72263000D03*
X98552000Y-95123000D03*
X113792000Y-69723000D03*
X98552000Y-97663000D03*
X113792000Y-67183000D03*
X98552000Y-100203000D03*
X113792000Y-64643000D03*
X98552000Y-64643000D03*
D13*
X113698000Y-149606000D03*
X118698000Y-149606000D03*
D14*
X128698000Y-149606000D03*
D13*
X123698000Y-149606000D03*
X152400000Y-149606000D03*
D14*
X157400000Y-149606000D03*
D13*
X147400000Y-149606000D03*
X142400000Y-149606000D03*
D23*
X93345000Y-66040000D03*
X93345000Y-68580000D03*
D24*
X93345000Y-63500000D03*
D13*
X89916000Y-77804000D03*
D14*
X89916000Y-82804000D03*
D13*
X89916000Y-72804000D03*
D21*
X128143000Y-87693500D03*
D22*
X120523000Y-80073500D03*
X128143000Y-85153500D03*
X120523000Y-82613500D03*
X128143000Y-82613500D03*
X120523000Y-85153500D03*
X128143000Y-80073500D03*
X120523000Y-87693500D03*
D10*
X118110000Y-100076000D03*
D11*
X118110000Y-102616000D03*
D25*
X147574000Y-68834000D03*
X149606000Y-97663000D03*
X145542000Y-97663000D03*
X155702000Y-70612000D03*
X159004000Y-70612000D03*
X161290000Y-70612000D03*
X159004000Y-76708000D03*
X155702000Y-76708000D03*
X161290000Y-76708000D03*
X163576000Y-76708000D03*
X163576000Y-70612000D03*
X164846000Y-73406000D03*
X126619000Y-68072000D03*
X126619000Y-62230000D03*
D26*
X106553000Y-116776500D03*
X117221000Y-111950500D03*
X144526000Y-112141000D03*
D25*
X155765500Y-97790000D03*
X147637500Y-98044000D03*
X119761000Y-75247500D03*
X120840500Y-70231000D03*
D27*
X145531000Y-118618000D02*
X147436000Y-116713000D01*
X119888000Y-116713000D02*
X121296000Y-116713000D01*
X147436000Y-116713000D02*
X148844000Y-116713000D01*
X123201000Y-118618000D02*
X145531000Y-118618000D01*
X121296000Y-116713000D02*
X123201000Y-118618000D01*
D28*
X93345000Y-60835000D02*
X93345000Y-63500000D01*
X94996000Y-59184000D02*
X93345000Y-60835000D01*
X137543000Y-59184000D02*
X94996000Y-59184000D01*
X147574000Y-68834000D02*
X147193000Y-68834000D01*
X147193000Y-68834000D02*
X137543000Y-59184000D01*
D27*
X128143000Y-80073500D02*
X128143000Y-87693500D01*
D28*
X106553000Y-116776500D02*
X111379000Y-111950500D01*
X111379000Y-111950500D02*
X117221000Y-111950500D01*
X117411500Y-112141000D02*
X117221000Y-111950500D01*
X144526000Y-112141000D02*
X117411500Y-112141000D01*
D29*
X117221000Y-107823000D02*
X121158000Y-103886000D01*
X117221000Y-111950500D02*
X117221000Y-107823000D01*
D27*
X124350213Y-99813501D02*
X129436000Y-99813501D01*
X122936000Y-99813501D02*
X124350213Y-99813501D01*
D30*
X121920000Y-103124000D02*
X121158000Y-103886000D01*
X122936000Y-99813501D02*
X122936000Y-102108000D01*
X122936000Y-102108000D02*
X121920000Y-103124000D01*
D31*
X98806000Y-140081000D02*
X97536000Y-138811000D01*
X98806000Y-149479000D02*
X98806000Y-140081000D01*
D32*
X103251000Y-139573000D02*
X110236000Y-139573000D01*
X98806000Y-149479000D02*
X98806000Y-144018000D01*
X98806000Y-144018000D02*
X103251000Y-139573000D01*
X120141000Y-131573000D02*
X110236000Y-131573000D01*
X123444000Y-122428000D02*
X123444000Y-128270000D01*
X123444000Y-128270000D02*
X120141000Y-131573000D01*
X139192000Y-131700000D02*
X149605000Y-131700000D01*
X152400000Y-129159000D02*
X152400000Y-122555000D01*
X149606000Y-131699000D02*
X149860000Y-131699000D01*
X149860000Y-131699000D02*
X152400000Y-129159000D01*
D31*
X93806000Y-140161000D02*
X92456000Y-138811000D01*
X93806000Y-149479000D02*
X93806000Y-140161000D01*
D32*
X93806000Y-153623000D02*
X93806000Y-149479000D01*
X118698000Y-155003500D02*
X95186500Y-155003500D01*
X95186500Y-155003500D02*
X93806000Y-153623000D01*
X143764000Y-155003500D02*
X118698000Y-155003500D01*
X147400000Y-149606000D02*
X147400000Y-151367500D01*
X147400000Y-151367500D02*
X143764000Y-155003500D01*
X118698000Y-149606000D02*
X118698000Y-155003500D01*
X123698000Y-142882000D02*
X117394000Y-136578000D01*
X123698000Y-149606000D02*
X123698000Y-142882000D01*
X129444000Y-148860000D02*
X128698000Y-149606000D01*
X129444000Y-136628000D02*
X129444000Y-148860000D01*
X158400000Y-148606000D02*
X157400000Y-149606000D01*
X158400000Y-136755000D02*
X158400000Y-148606000D01*
X152400000Y-142755000D02*
X146350000Y-136705000D01*
X152400000Y-149606000D02*
X152400000Y-142755000D01*
D27*
X98171000Y-74803000D02*
X98552000Y-74803000D01*
X135890000Y-83312000D02*
X135890000Y-95171778D01*
X135890000Y-95171778D02*
X140930733Y-100212511D01*
X146470268Y-100212510D02*
X147740268Y-98942510D01*
X147740268Y-98942510D02*
X154612990Y-98942510D01*
X155365501Y-98189999D02*
X155765500Y-97790000D01*
X154612990Y-98942510D02*
X155365501Y-98189999D01*
X115189000Y-62611000D02*
X135890000Y-83312000D01*
X98552000Y-72263000D02*
X108204000Y-62611000D01*
X140930733Y-100212511D02*
X146470268Y-100212510D01*
X108204000Y-62611000D02*
X115189000Y-62611000D01*
X141224000Y-99504500D02*
X146177000Y-99504500D01*
X137096500Y-95377000D02*
X141224000Y-99504500D01*
X98552000Y-64643000D02*
X99351999Y-63843001D01*
X115189000Y-61404500D02*
X137096500Y-83312000D01*
X99351999Y-63843001D02*
X99351999Y-63652501D01*
X146177000Y-99504500D02*
X147637500Y-98044000D01*
X137096500Y-83312000D02*
X137096500Y-95377000D01*
X101600000Y-61404500D02*
X115189000Y-61404500D01*
X99351999Y-63652501D02*
X101600000Y-61404500D01*
X119761000Y-75247500D02*
X119761000Y-71310500D01*
X119761000Y-71310500D02*
X120840500Y-70231000D01*
X120269000Y-79756000D02*
X120269000Y-79883000D01*
X113792000Y-74803000D02*
X115316000Y-74803000D01*
X115316000Y-74803000D02*
X120269000Y-79756000D01*
X115189000Y-77343000D02*
X120269000Y-82423000D01*
X113792000Y-77343000D02*
X115189000Y-77343000D01*
X119507000Y-84963000D02*
X120269000Y-84963000D01*
X113792000Y-79883000D02*
X114427000Y-79883000D01*
X114427000Y-79883000D02*
X119507000Y-84963000D01*
X119062500Y-87693500D02*
X120523000Y-87693500D01*
X113792000Y-82423000D02*
X119062500Y-87693500D01*
D30*
X118110000Y-100076000D02*
X117094000Y-100076000D01*
X114681000Y-97663000D02*
X113792000Y-97663000D01*
X117094000Y-100076000D02*
X114681000Y-97663000D01*
X117348000Y-102616000D02*
X118110000Y-102616000D01*
X113792000Y-100203000D02*
X114935000Y-100203000D01*
X114935000Y-100203000D02*
X117348000Y-102616000D01*
G36*
X94230157Y-58513002D02*
G01*
X92661872Y-60081288D01*
X92623104Y-60113104D01*
X92496140Y-60267810D01*
X92401798Y-60444314D01*
X92380204Y-60515500D01*
X92343702Y-60635830D01*
X92324085Y-60835000D01*
X92329000Y-60884902D01*
X92329000Y-62156816D01*
X92230506Y-62209463D01*
X92133815Y-62288815D01*
X92054463Y-62385506D01*
X91995498Y-62495820D01*
X91959188Y-62615518D01*
X91946928Y-62740000D01*
X91946928Y-64260000D01*
X91959188Y-64384482D01*
X91995498Y-64504180D01*
X92054463Y-64614494D01*
X92133815Y-64711185D01*
X92230506Y-64790537D01*
X92340820Y-64849502D01*
X92460518Y-64885812D01*
X92548467Y-64894474D01*
X92455739Y-64956433D01*
X92261433Y-65150739D01*
X92108767Y-65379220D01*
X92003609Y-65633093D01*
X91950000Y-65902604D01*
X91950000Y-66177396D01*
X92003609Y-66446907D01*
X92108767Y-66700780D01*
X92261433Y-66929261D01*
X92455739Y-67123567D01*
X92684220Y-67276233D01*
X92760501Y-67307830D01*
X92742674Y-67314256D01*
X92627206Y-67375975D01*
X92560469Y-67615863D01*
X93345000Y-68400395D01*
X94129531Y-67615863D01*
X94062794Y-67375975D01*
X93923293Y-67310400D01*
X94005780Y-67276233D01*
X94234261Y-67123567D01*
X94428567Y-66929261D01*
X94581233Y-66700780D01*
X94686391Y-66446907D01*
X94740000Y-66177396D01*
X94740000Y-65902604D01*
X94686391Y-65633093D01*
X94581233Y-65379220D01*
X94428567Y-65150739D01*
X94234261Y-64956433D01*
X94141533Y-64894474D01*
X94229482Y-64885812D01*
X94349180Y-64849502D01*
X94459494Y-64790537D01*
X94556185Y-64711185D01*
X94612142Y-64643000D01*
X97110057Y-64643000D01*
X97137764Y-64924309D01*
X97219818Y-65194808D01*
X97353068Y-65444101D01*
X97532392Y-65662608D01*
X97750899Y-65841932D01*
X97883858Y-65913000D01*
X97750899Y-65984068D01*
X97532392Y-66163392D01*
X97353068Y-66381899D01*
X97219818Y-66631192D01*
X97137764Y-66901691D01*
X97110057Y-67183000D01*
X97137764Y-67464309D01*
X97219818Y-67734808D01*
X97353068Y-67984101D01*
X97532392Y-68202608D01*
X97750899Y-68381932D01*
X97883858Y-68453000D01*
X97750899Y-68524068D01*
X97532392Y-68703392D01*
X97353068Y-68921899D01*
X97219818Y-69171192D01*
X97137764Y-69441691D01*
X97110057Y-69723000D01*
X97137764Y-70004309D01*
X97219818Y-70274808D01*
X97353068Y-70524101D01*
X97532392Y-70742608D01*
X97750899Y-70921932D01*
X97883858Y-70993000D01*
X97750899Y-71064068D01*
X97532392Y-71243392D01*
X97353068Y-71461899D01*
X97219818Y-71711192D01*
X97137764Y-71981691D01*
X97110057Y-72263000D01*
X97137764Y-72544309D01*
X97219818Y-72814808D01*
X97353068Y-73064101D01*
X97532392Y-73282608D01*
X97750899Y-73461932D01*
X97883858Y-73533000D01*
X97750899Y-73604068D01*
X97532392Y-73783392D01*
X97353068Y-74001899D01*
X97219818Y-74251192D01*
X97137764Y-74521691D01*
X97110057Y-74803000D01*
X97137764Y-75084309D01*
X97219818Y-75354808D01*
X97353068Y-75604101D01*
X97532392Y-75822608D01*
X97750899Y-76001932D01*
X97883858Y-76073000D01*
X97750899Y-76144068D01*
X97532392Y-76323392D01*
X97353068Y-76541899D01*
X97219818Y-76791192D01*
X97137764Y-77061691D01*
X97110057Y-77343000D01*
X97137764Y-77624309D01*
X97219818Y-77894808D01*
X97353068Y-78144101D01*
X97532392Y-78362608D01*
X97750899Y-78541932D01*
X97883858Y-78613000D01*
X97750899Y-78684068D01*
X97532392Y-78863392D01*
X97353068Y-79081899D01*
X97219818Y-79331192D01*
X97137764Y-79601691D01*
X97110057Y-79883000D01*
X97137764Y-80164309D01*
X97219818Y-80434808D01*
X97353068Y-80684101D01*
X97532392Y-80902608D01*
X97750899Y-81081932D01*
X97883858Y-81153000D01*
X97750899Y-81224068D01*
X97532392Y-81403392D01*
X97353068Y-81621899D01*
X97219818Y-81871192D01*
X97137764Y-82141691D01*
X97110057Y-82423000D01*
X97137764Y-82704309D01*
X97219818Y-82974808D01*
X97353068Y-83224101D01*
X97532392Y-83442608D01*
X97750899Y-83621932D01*
X97883858Y-83693000D01*
X97750899Y-83764068D01*
X97532392Y-83943392D01*
X97353068Y-84161899D01*
X97219818Y-84411192D01*
X97137764Y-84681691D01*
X97110057Y-84963000D01*
X97137764Y-85244309D01*
X97219818Y-85514808D01*
X97353068Y-85764101D01*
X97532392Y-85982608D01*
X97750899Y-86161932D01*
X97883858Y-86233000D01*
X97750899Y-86304068D01*
X97532392Y-86483392D01*
X97353068Y-86701899D01*
X97219818Y-86951192D01*
X97137764Y-87221691D01*
X97110057Y-87503000D01*
X97137764Y-87784309D01*
X97219818Y-88054808D01*
X97353068Y-88304101D01*
X97532392Y-88522608D01*
X97750899Y-88701932D01*
X97883858Y-88773000D01*
X97750899Y-88844068D01*
X97532392Y-89023392D01*
X97353068Y-89241899D01*
X97219818Y-89491192D01*
X97137764Y-89761691D01*
X97110057Y-90043000D01*
X97137764Y-90324309D01*
X97219818Y-90594808D01*
X97353068Y-90844101D01*
X97532392Y-91062608D01*
X97750899Y-91241932D01*
X97883858Y-91313000D01*
X97750899Y-91384068D01*
X97532392Y-91563392D01*
X97353068Y-91781899D01*
X97219818Y-92031192D01*
X97137764Y-92301691D01*
X97110057Y-92583000D01*
X97137764Y-92864309D01*
X97219818Y-93134808D01*
X97353068Y-93384101D01*
X97532392Y-93602608D01*
X97750899Y-93781932D01*
X97883858Y-93853000D01*
X97750899Y-93924068D01*
X97532392Y-94103392D01*
X97353068Y-94321899D01*
X97219818Y-94571192D01*
X97137764Y-94841691D01*
X97110057Y-95123000D01*
X97137764Y-95404309D01*
X97219818Y-95674808D01*
X97353068Y-95924101D01*
X97532392Y-96142608D01*
X97750899Y-96321932D01*
X97888682Y-96395579D01*
X97696869Y-96510615D01*
X97488481Y-96699586D01*
X97320963Y-96925580D01*
X97200754Y-97179913D01*
X97160096Y-97313961D01*
X97282085Y-97536000D01*
X98425000Y-97536000D01*
X98425000Y-97516000D01*
X98679000Y-97516000D01*
X98679000Y-97536000D01*
X99821915Y-97536000D01*
X99943904Y-97313961D01*
X99903246Y-97179913D01*
X99783037Y-96925580D01*
X99615519Y-96699586D01*
X99407131Y-96510615D01*
X99215318Y-96395579D01*
X99353101Y-96321932D01*
X99571608Y-96142608D01*
X99750932Y-95924101D01*
X99884182Y-95674808D01*
X99966236Y-95404309D01*
X99993943Y-95123000D01*
X112350057Y-95123000D01*
X112377764Y-95404309D01*
X112459818Y-95674808D01*
X112593068Y-95924101D01*
X112772392Y-96142608D01*
X112990899Y-96321932D01*
X113123858Y-96393000D01*
X112990899Y-96464068D01*
X112772392Y-96643392D01*
X112593068Y-96861899D01*
X112459818Y-97111192D01*
X112377764Y-97381691D01*
X112350057Y-97663000D01*
X112377764Y-97944309D01*
X112459818Y-98214808D01*
X112593068Y-98464101D01*
X112772392Y-98682608D01*
X112885482Y-98775419D01*
X112867518Y-98777188D01*
X112747820Y-98813498D01*
X112637506Y-98872463D01*
X112540815Y-98951815D01*
X112461463Y-99048506D01*
X112402498Y-99158820D01*
X112366188Y-99278518D01*
X112353928Y-99403000D01*
X112353928Y-101003000D01*
X112366188Y-101127482D01*
X112402498Y-101247180D01*
X112461463Y-101357494D01*
X112540815Y-101454185D01*
X112637506Y-101533537D01*
X112747820Y-101592502D01*
X112867518Y-101628812D01*
X112992000Y-101641072D01*
X114592000Y-101641072D01*
X114716482Y-101628812D01*
X114836180Y-101592502D01*
X114946494Y-101533537D01*
X115043185Y-101454185D01*
X115072651Y-101418281D01*
X116683502Y-103029133D01*
X116731401Y-103187034D01*
X116869294Y-103445014D01*
X117054866Y-103671134D01*
X117280986Y-103856706D01*
X117538966Y-103994599D01*
X117818889Y-104079513D01*
X118037050Y-104101000D01*
X118182950Y-104101000D01*
X118401111Y-104079513D01*
X118681034Y-103994599D01*
X118939014Y-103856706D01*
X119165134Y-103671134D01*
X119350706Y-103445014D01*
X119488599Y-103187034D01*
X119573513Y-102907111D01*
X119602185Y-102616000D01*
X119573513Y-102324889D01*
X119488599Y-102044966D01*
X119350706Y-101786986D01*
X119165134Y-101560866D01*
X119135313Y-101536393D01*
X119204180Y-101515502D01*
X119314494Y-101456537D01*
X119411185Y-101377185D01*
X119490537Y-101280494D01*
X119549502Y-101170180D01*
X119585812Y-101050482D01*
X119595815Y-100948914D01*
X121980192Y-100948914D01*
X122075956Y-101213315D01*
X122365571Y-101354205D01*
X122677108Y-101435885D01*
X122998595Y-101455219D01*
X123317675Y-101411462D01*
X123622088Y-101306296D01*
X123796044Y-101213315D01*
X123891808Y-100948914D01*
X128480192Y-100948914D01*
X128575956Y-101213315D01*
X128865571Y-101354205D01*
X129177108Y-101435885D01*
X129498595Y-101455219D01*
X129817675Y-101411462D01*
X130122088Y-101306296D01*
X130296044Y-101213315D01*
X130391808Y-100948914D01*
X129436000Y-99993106D01*
X128480192Y-100948914D01*
X123891808Y-100948914D01*
X122936000Y-99993106D01*
X121980192Y-100948914D01*
X119595815Y-100948914D01*
X119598072Y-100926000D01*
X119598072Y-99876096D01*
X121294282Y-99876096D01*
X121338039Y-100195176D01*
X121443205Y-100499589D01*
X121536186Y-100673545D01*
X121800587Y-100769309D01*
X122756395Y-99813501D01*
X123115605Y-99813501D01*
X124071413Y-100769309D01*
X124335814Y-100673545D01*
X124476704Y-100383930D01*
X124558384Y-100072393D01*
X124570189Y-99876096D01*
X127794282Y-99876096D01*
X127838039Y-100195176D01*
X127943205Y-100499589D01*
X128036186Y-100673545D01*
X128300587Y-100769309D01*
X129256395Y-99813501D01*
X129615605Y-99813501D01*
X130571413Y-100769309D01*
X130835814Y-100673545D01*
X130976704Y-100383930D01*
X131058384Y-100072393D01*
X131077718Y-99750906D01*
X131033961Y-99431826D01*
X130928795Y-99127413D01*
X130835814Y-98953457D01*
X130571413Y-98857693D01*
X129615605Y-99813501D01*
X129256395Y-99813501D01*
X128300587Y-98857693D01*
X128036186Y-98953457D01*
X127895296Y-99243072D01*
X127813616Y-99554609D01*
X127794282Y-99876096D01*
X124570189Y-99876096D01*
X124577718Y-99750906D01*
X124533961Y-99431826D01*
X124428795Y-99127413D01*
X124335814Y-98953457D01*
X124071413Y-98857693D01*
X123115605Y-99813501D01*
X122756395Y-99813501D01*
X121800587Y-98857693D01*
X121536186Y-98953457D01*
X121395296Y-99243072D01*
X121313616Y-99554609D01*
X121294282Y-99876096D01*
X119598072Y-99876096D01*
X119598072Y-99226000D01*
X119585812Y-99101518D01*
X119549502Y-98981820D01*
X119490537Y-98871506D01*
X119411185Y-98774815D01*
X119314494Y-98695463D01*
X119281989Y-98678088D01*
X121980192Y-98678088D01*
X122936000Y-99633896D01*
X123891808Y-98678088D01*
X128480192Y-98678088D01*
X129436000Y-99633896D01*
X130391808Y-98678088D01*
X130296044Y-98413687D01*
X130006429Y-98272797D01*
X129694892Y-98191117D01*
X129373405Y-98171783D01*
X129054325Y-98215540D01*
X128749912Y-98320706D01*
X128575956Y-98413687D01*
X128480192Y-98678088D01*
X123891808Y-98678088D01*
X123796044Y-98413687D01*
X123506429Y-98272797D01*
X123194892Y-98191117D01*
X122873405Y-98171783D01*
X122554325Y-98215540D01*
X122249912Y-98320706D01*
X122075956Y-98413687D01*
X121980192Y-98678088D01*
X119281989Y-98678088D01*
X119204180Y-98636498D01*
X119084482Y-98600188D01*
X118960000Y-98587928D01*
X117260000Y-98587928D01*
X117135518Y-98600188D01*
X117015820Y-98636498D01*
X116905506Y-98695463D01*
X116842665Y-98747035D01*
X115246284Y-97150654D01*
X115222422Y-97121578D01*
X115106392Y-97026355D01*
X115067814Y-97005734D01*
X114990932Y-96861899D01*
X114811608Y-96643392D01*
X114593101Y-96464068D01*
X114460142Y-96393000D01*
X114593101Y-96321932D01*
X114811608Y-96142608D01*
X114990932Y-95924101D01*
X115124182Y-95674808D01*
X115206236Y-95404309D01*
X115231040Y-95152468D01*
X121301000Y-95152468D01*
X121301000Y-95474534D01*
X121363832Y-95790413D01*
X121487082Y-96087964D01*
X121666013Y-96355753D01*
X121893748Y-96583488D01*
X122161537Y-96762419D01*
X122459088Y-96885669D01*
X122774967Y-96948501D01*
X123097033Y-96948501D01*
X123412912Y-96885669D01*
X123710463Y-96762419D01*
X123978252Y-96583488D01*
X124205987Y-96355753D01*
X124384918Y-96087964D01*
X124508168Y-95790413D01*
X124571000Y-95474534D01*
X124571000Y-95152468D01*
X127801000Y-95152468D01*
X127801000Y-95474534D01*
X127863832Y-95790413D01*
X127987082Y-96087964D01*
X128166013Y-96355753D01*
X128393748Y-96583488D01*
X128661537Y-96762419D01*
X128959088Y-96885669D01*
X129274967Y-96948501D01*
X129597033Y-96948501D01*
X129912912Y-96885669D01*
X130210463Y-96762419D01*
X130478252Y-96583488D01*
X130705987Y-96355753D01*
X130884918Y-96087964D01*
X131008168Y-95790413D01*
X131071000Y-95474534D01*
X131071000Y-95152468D01*
X131008168Y-94836589D01*
X130884918Y-94539038D01*
X130705987Y-94271249D01*
X130478252Y-94043514D01*
X130210463Y-93864583D01*
X129912912Y-93741333D01*
X129597033Y-93678501D01*
X129274967Y-93678501D01*
X128959088Y-93741333D01*
X128661537Y-93864583D01*
X128393748Y-94043514D01*
X128166013Y-94271249D01*
X127987082Y-94539038D01*
X127863832Y-94836589D01*
X127801000Y-95152468D01*
X124571000Y-95152468D01*
X124508168Y-94836589D01*
X124384918Y-94539038D01*
X124205987Y-94271249D01*
X123978252Y-94043514D01*
X123710463Y-93864583D01*
X123412912Y-93741333D01*
X123097033Y-93678501D01*
X122774967Y-93678501D01*
X122459088Y-93741333D01*
X122161537Y-93864583D01*
X121893748Y-94043514D01*
X121666013Y-94271249D01*
X121487082Y-94539038D01*
X121363832Y-94836589D01*
X121301000Y-95152468D01*
X115231040Y-95152468D01*
X115233943Y-95123000D01*
X115206236Y-94841691D01*
X115124182Y-94571192D01*
X114990932Y-94321899D01*
X114811608Y-94103392D01*
X114593101Y-93924068D01*
X114455318Y-93850421D01*
X114647131Y-93735385D01*
X114855519Y-93546414D01*
X115023037Y-93320420D01*
X115143246Y-93066087D01*
X115183904Y-92932039D01*
X115061915Y-92710000D01*
X113919000Y-92710000D01*
X113919000Y-92730000D01*
X113665000Y-92730000D01*
X113665000Y-92710000D01*
X112522085Y-92710000D01*
X112400096Y-92932039D01*
X112440754Y-93066087D01*
X112560963Y-93320420D01*
X112728481Y-93546414D01*
X112936869Y-93735385D01*
X113128682Y-93850421D01*
X112990899Y-93924068D01*
X112772392Y-94103392D01*
X112593068Y-94321899D01*
X112459818Y-94571192D01*
X112377764Y-94841691D01*
X112350057Y-95123000D01*
X99993943Y-95123000D01*
X99966236Y-94841691D01*
X99884182Y-94571192D01*
X99750932Y-94321899D01*
X99571608Y-94103392D01*
X99353101Y-93924068D01*
X99220142Y-93853000D01*
X99353101Y-93781932D01*
X99571608Y-93602608D01*
X99750932Y-93384101D01*
X99884182Y-93134808D01*
X99966236Y-92864309D01*
X99993943Y-92583000D01*
X99966236Y-92301691D01*
X99884182Y-92031192D01*
X99750932Y-91781899D01*
X99571608Y-91563392D01*
X99353101Y-91384068D01*
X99220142Y-91313000D01*
X99353101Y-91241932D01*
X99571608Y-91062608D01*
X99750932Y-90844101D01*
X99884182Y-90594808D01*
X99966236Y-90324309D01*
X99993943Y-90043000D01*
X99966236Y-89761691D01*
X99884182Y-89491192D01*
X99750932Y-89241899D01*
X99571608Y-89023392D01*
X99353101Y-88844068D01*
X99220142Y-88773000D01*
X99353101Y-88701932D01*
X99571608Y-88522608D01*
X99750932Y-88304101D01*
X99884182Y-88054808D01*
X99966236Y-87784309D01*
X99993943Y-87503000D01*
X99966236Y-87221691D01*
X99884182Y-86951192D01*
X99750932Y-86701899D01*
X99571608Y-86483392D01*
X99353101Y-86304068D01*
X99220142Y-86233000D01*
X99353101Y-86161932D01*
X99571608Y-85982608D01*
X99750932Y-85764101D01*
X99884182Y-85514808D01*
X99966236Y-85244309D01*
X99993943Y-84963000D01*
X99966236Y-84681691D01*
X99884182Y-84411192D01*
X99750932Y-84161899D01*
X99571608Y-83943392D01*
X99353101Y-83764068D01*
X99220142Y-83693000D01*
X99353101Y-83621932D01*
X99571608Y-83442608D01*
X99750932Y-83224101D01*
X99884182Y-82974808D01*
X99966236Y-82704309D01*
X99993943Y-82423000D01*
X99966236Y-82141691D01*
X99884182Y-81871192D01*
X99750932Y-81621899D01*
X99571608Y-81403392D01*
X99353101Y-81224068D01*
X99220142Y-81153000D01*
X99353101Y-81081932D01*
X99571608Y-80902608D01*
X99750932Y-80684101D01*
X99884182Y-80434808D01*
X99966236Y-80164309D01*
X99993943Y-79883000D01*
X99966236Y-79601691D01*
X99884182Y-79331192D01*
X99750932Y-79081899D01*
X99571608Y-78863392D01*
X99353101Y-78684068D01*
X99220142Y-78613000D01*
X99353101Y-78541932D01*
X99571608Y-78362608D01*
X99750932Y-78144101D01*
X99884182Y-77894808D01*
X99966236Y-77624309D01*
X99993943Y-77343000D01*
X99966236Y-77061691D01*
X99884182Y-76791192D01*
X99750932Y-76541899D01*
X99571608Y-76323392D01*
X99353101Y-76144068D01*
X99220142Y-76073000D01*
X99353101Y-76001932D01*
X99571608Y-75822608D01*
X99750932Y-75604101D01*
X99884182Y-75354808D01*
X99966236Y-75084309D01*
X99993943Y-74803000D01*
X99966236Y-74521691D01*
X99884182Y-74251192D01*
X99750932Y-74001899D01*
X99571608Y-73783392D01*
X99353101Y-73604068D01*
X99220142Y-73533000D01*
X99353101Y-73461932D01*
X99571608Y-73282608D01*
X99750932Y-73064101D01*
X99884182Y-72814808D01*
X99966236Y-72544309D01*
X99993943Y-72263000D01*
X99977382Y-72094853D01*
X108572235Y-63500000D01*
X112922746Y-63500000D01*
X112772392Y-63623392D01*
X112593068Y-63841899D01*
X112459818Y-64091192D01*
X112377764Y-64361691D01*
X112350057Y-64643000D01*
X112377764Y-64924309D01*
X112459818Y-65194808D01*
X112593068Y-65444101D01*
X112772392Y-65662608D01*
X112990899Y-65841932D01*
X113123858Y-65913000D01*
X112990899Y-65984068D01*
X112772392Y-66163392D01*
X112593068Y-66381899D01*
X112459818Y-66631192D01*
X112377764Y-66901691D01*
X112350057Y-67183000D01*
X112377764Y-67464309D01*
X112459818Y-67734808D01*
X112593068Y-67984101D01*
X112772392Y-68202608D01*
X112990899Y-68381932D01*
X113123858Y-68453000D01*
X112990899Y-68524068D01*
X112772392Y-68703392D01*
X112593068Y-68921899D01*
X112459818Y-69171192D01*
X112377764Y-69441691D01*
X112350057Y-69723000D01*
X112377764Y-70004309D01*
X112459818Y-70274808D01*
X112593068Y-70524101D01*
X112772392Y-70742608D01*
X112990899Y-70921932D01*
X113123858Y-70993000D01*
X112990899Y-71064068D01*
X112772392Y-71243392D01*
X112593068Y-71461899D01*
X112459818Y-71711192D01*
X112377764Y-71981691D01*
X112350057Y-72263000D01*
X112377764Y-72544309D01*
X112459818Y-72814808D01*
X112593068Y-73064101D01*
X112772392Y-73282608D01*
X112990899Y-73461932D01*
X113123858Y-73533000D01*
X112990899Y-73604068D01*
X112772392Y-73783392D01*
X112593068Y-74001899D01*
X112459818Y-74251192D01*
X112377764Y-74521691D01*
X112350057Y-74803000D01*
X112377764Y-75084309D01*
X112459818Y-75354808D01*
X112593068Y-75604101D01*
X112772392Y-75822608D01*
X112990899Y-76001932D01*
X113123858Y-76073000D01*
X112990899Y-76144068D01*
X112772392Y-76323392D01*
X112593068Y-76541899D01*
X112459818Y-76791192D01*
X112377764Y-77061691D01*
X112350057Y-77343000D01*
X112377764Y-77624309D01*
X112459818Y-77894808D01*
X112593068Y-78144101D01*
X112772392Y-78362608D01*
X112990899Y-78541932D01*
X113123858Y-78613000D01*
X112990899Y-78684068D01*
X112772392Y-78863392D01*
X112593068Y-79081899D01*
X112459818Y-79331192D01*
X112377764Y-79601691D01*
X112350057Y-79883000D01*
X112377764Y-80164309D01*
X112459818Y-80434808D01*
X112593068Y-80684101D01*
X112772392Y-80902608D01*
X112990899Y-81081932D01*
X113123858Y-81153000D01*
X112990899Y-81224068D01*
X112772392Y-81403392D01*
X112593068Y-81621899D01*
X112459818Y-81871192D01*
X112377764Y-82141691D01*
X112350057Y-82423000D01*
X112377764Y-82704309D01*
X112459818Y-82974808D01*
X112593068Y-83224101D01*
X112772392Y-83442608D01*
X112990899Y-83621932D01*
X113123858Y-83693000D01*
X112990899Y-83764068D01*
X112772392Y-83943392D01*
X112593068Y-84161899D01*
X112459818Y-84411192D01*
X112377764Y-84681691D01*
X112350057Y-84963000D01*
X112377764Y-85244309D01*
X112459818Y-85514808D01*
X112593068Y-85764101D01*
X112772392Y-85982608D01*
X112990899Y-86161932D01*
X113123858Y-86233000D01*
X112990899Y-86304068D01*
X112772392Y-86483392D01*
X112593068Y-86701899D01*
X112459818Y-86951192D01*
X112377764Y-87221691D01*
X112350057Y-87503000D01*
X112377764Y-87784309D01*
X112459818Y-88054808D01*
X112593068Y-88304101D01*
X112772392Y-88522608D01*
X112990899Y-88701932D01*
X113123858Y-88773000D01*
X112990899Y-88844068D01*
X112772392Y-89023392D01*
X112593068Y-89241899D01*
X112459818Y-89491192D01*
X112377764Y-89761691D01*
X112350057Y-90043000D01*
X112377764Y-90324309D01*
X112459818Y-90594808D01*
X112593068Y-90844101D01*
X112772392Y-91062608D01*
X112990899Y-91241932D01*
X113128682Y-91315579D01*
X112936869Y-91430615D01*
X112728481Y-91619586D01*
X112560963Y-91845580D01*
X112440754Y-92099913D01*
X112400096Y-92233961D01*
X112522085Y-92456000D01*
X113665000Y-92456000D01*
X113665000Y-92436000D01*
X113919000Y-92436000D01*
X113919000Y-92456000D01*
X115061915Y-92456000D01*
X115183904Y-92233961D01*
X115143246Y-92099913D01*
X115023037Y-91845580D01*
X114855519Y-91619586D01*
X114647131Y-91430615D01*
X114455318Y-91315579D01*
X114593101Y-91241932D01*
X114811608Y-91062608D01*
X114990932Y-90844101D01*
X115124182Y-90594808D01*
X115206236Y-90324309D01*
X115233943Y-90043000D01*
X115206236Y-89761691D01*
X115124182Y-89491192D01*
X114990932Y-89241899D01*
X114811608Y-89023392D01*
X114593101Y-88844068D01*
X114460142Y-88773000D01*
X114593101Y-88701932D01*
X114811608Y-88522608D01*
X114990932Y-88304101D01*
X115124182Y-88054808D01*
X115206236Y-87784309D01*
X115233943Y-87503000D01*
X115206236Y-87221691D01*
X115124182Y-86951192D01*
X114990932Y-86701899D01*
X114811608Y-86483392D01*
X114593101Y-86304068D01*
X114460142Y-86233000D01*
X114593101Y-86161932D01*
X114811608Y-85982608D01*
X114990932Y-85764101D01*
X115124182Y-85514808D01*
X115206236Y-85244309D01*
X115219671Y-85107906D01*
X118403006Y-88291242D01*
X118430841Y-88325159D01*
X118566209Y-88436253D01*
X118720649Y-88518803D01*
X118837392Y-88554216D01*
X118888225Y-88569636D01*
X119062500Y-88586801D01*
X119106168Y-88582500D01*
X119396205Y-88582500D01*
X119503392Y-88713108D01*
X119721899Y-88892432D01*
X119971192Y-89025682D01*
X120241691Y-89107736D01*
X120452508Y-89128500D01*
X120593492Y-89128500D01*
X120804309Y-89107736D01*
X121074808Y-89025682D01*
X121324101Y-88892432D01*
X121542608Y-88713108D01*
X121721932Y-88494601D01*
X121722520Y-88493500D01*
X126704928Y-88493500D01*
X126717188Y-88617982D01*
X126753498Y-88737680D01*
X126812463Y-88847994D01*
X126891815Y-88944685D01*
X126988506Y-89024037D01*
X127098820Y-89083002D01*
X127218518Y-89119312D01*
X127343000Y-89131572D01*
X127857250Y-89128500D01*
X128016000Y-88969750D01*
X128016000Y-87820500D01*
X128270000Y-87820500D01*
X128270000Y-88969750D01*
X128428750Y-89128500D01*
X128943000Y-89131572D01*
X129067482Y-89119312D01*
X129187180Y-89083002D01*
X129297494Y-89024037D01*
X129394185Y-88944685D01*
X129473537Y-88847994D01*
X129532502Y-88737680D01*
X129568812Y-88617982D01*
X129581072Y-88493500D01*
X129578000Y-87979250D01*
X129419250Y-87820500D01*
X128270000Y-87820500D01*
X128016000Y-87820500D01*
X126866750Y-87820500D01*
X126708000Y-87979250D01*
X126704928Y-88493500D01*
X121722520Y-88493500D01*
X121855182Y-88245308D01*
X121937236Y-87974809D01*
X121964943Y-87693500D01*
X121937236Y-87412191D01*
X121855182Y-87141692D01*
X121722521Y-86893500D01*
X126704928Y-86893500D01*
X126708000Y-87407750D01*
X126866750Y-87566500D01*
X128016000Y-87566500D01*
X128016000Y-85280500D01*
X128270000Y-85280500D01*
X128270000Y-87566500D01*
X129419250Y-87566500D01*
X129578000Y-87407750D01*
X129581072Y-86893500D01*
X129568812Y-86769018D01*
X129532502Y-86649320D01*
X129473537Y-86539006D01*
X129394185Y-86442315D01*
X129297494Y-86362963D01*
X129187180Y-86303998D01*
X129067482Y-86267688D01*
X129042920Y-86265269D01*
X129206519Y-86116914D01*
X129374037Y-85890920D01*
X129494246Y-85636587D01*
X129534904Y-85502539D01*
X129412915Y-85280500D01*
X128270000Y-85280500D01*
X128016000Y-85280500D01*
X126873085Y-85280500D01*
X126751096Y-85502539D01*
X126791754Y-85636587D01*
X126911963Y-85890920D01*
X127079481Y-86116914D01*
X127243080Y-86265269D01*
X127218518Y-86267688D01*
X127098820Y-86303998D01*
X126988506Y-86362963D01*
X126891815Y-86442315D01*
X126812463Y-86539006D01*
X126753498Y-86649320D01*
X126717188Y-86769018D01*
X126704928Y-86893500D01*
X121722521Y-86893500D01*
X121721932Y-86892399D01*
X121542608Y-86673892D01*
X121324101Y-86494568D01*
X121191142Y-86423500D01*
X121324101Y-86352432D01*
X121542608Y-86173108D01*
X121721932Y-85954601D01*
X121855182Y-85705308D01*
X121937236Y-85434809D01*
X121964943Y-85153500D01*
X121937236Y-84872191D01*
X121855182Y-84601692D01*
X121721932Y-84352399D01*
X121542608Y-84133892D01*
X121324101Y-83954568D01*
X121191142Y-83883500D01*
X121324101Y-83812432D01*
X121542608Y-83633108D01*
X121721932Y-83414601D01*
X121855182Y-83165308D01*
X121916690Y-82962539D01*
X126751096Y-82962539D01*
X126791754Y-83096587D01*
X126911963Y-83350920D01*
X127079481Y-83576914D01*
X127287869Y-83765885D01*
X127483982Y-83883500D01*
X127287869Y-84001115D01*
X127079481Y-84190086D01*
X126911963Y-84416080D01*
X126791754Y-84670413D01*
X126751096Y-84804461D01*
X126873085Y-85026500D01*
X128016000Y-85026500D01*
X128016000Y-82740500D01*
X128270000Y-82740500D01*
X128270000Y-85026500D01*
X129412915Y-85026500D01*
X129534904Y-84804461D01*
X129494246Y-84670413D01*
X129374037Y-84416080D01*
X129206519Y-84190086D01*
X128998131Y-84001115D01*
X128802018Y-83883500D01*
X128998131Y-83765885D01*
X129206519Y-83576914D01*
X129374037Y-83350920D01*
X129494246Y-83096587D01*
X129534904Y-82962539D01*
X129412915Y-82740500D01*
X128270000Y-82740500D01*
X128016000Y-82740500D01*
X126873085Y-82740500D01*
X126751096Y-82962539D01*
X121916690Y-82962539D01*
X121937236Y-82894809D01*
X121964943Y-82613500D01*
X121937236Y-82332191D01*
X121855182Y-82061692D01*
X121721932Y-81812399D01*
X121542608Y-81593892D01*
X121324101Y-81414568D01*
X121191142Y-81343500D01*
X121324101Y-81272432D01*
X121542608Y-81093108D01*
X121721932Y-80874601D01*
X121855182Y-80625308D01*
X121916690Y-80422539D01*
X126751096Y-80422539D01*
X126791754Y-80556587D01*
X126911963Y-80810920D01*
X127079481Y-81036914D01*
X127287869Y-81225885D01*
X127483982Y-81343500D01*
X127287869Y-81461115D01*
X127079481Y-81650086D01*
X126911963Y-81876080D01*
X126791754Y-82130413D01*
X126751096Y-82264461D01*
X126873085Y-82486500D01*
X128016000Y-82486500D01*
X128016000Y-80200500D01*
X128270000Y-80200500D01*
X128270000Y-82486500D01*
X129412915Y-82486500D01*
X129534904Y-82264461D01*
X129494246Y-82130413D01*
X129374037Y-81876080D01*
X129206519Y-81650086D01*
X128998131Y-81461115D01*
X128802018Y-81343500D01*
X128998131Y-81225885D01*
X129206519Y-81036914D01*
X129374037Y-80810920D01*
X129494246Y-80556587D01*
X129534904Y-80422539D01*
X129412915Y-80200500D01*
X128270000Y-80200500D01*
X128016000Y-80200500D01*
X126873085Y-80200500D01*
X126751096Y-80422539D01*
X121916690Y-80422539D01*
X121937236Y-80354809D01*
X121964943Y-80073500D01*
X121937236Y-79792191D01*
X121916691Y-79724461D01*
X126751096Y-79724461D01*
X126873085Y-79946500D01*
X128016000Y-79946500D01*
X128016000Y-78802876D01*
X128270000Y-78802876D01*
X128270000Y-79946500D01*
X129412915Y-79946500D01*
X129534904Y-79724461D01*
X129494246Y-79590413D01*
X129374037Y-79336080D01*
X129206519Y-79110086D01*
X128998131Y-78921115D01*
X128756881Y-78776430D01*
X128492040Y-78681591D01*
X128270000Y-78802876D01*
X128016000Y-78802876D01*
X127793960Y-78681591D01*
X127529119Y-78776430D01*
X127287869Y-78921115D01*
X127079481Y-79110086D01*
X126911963Y-79336080D01*
X126791754Y-79590413D01*
X126751096Y-79724461D01*
X121916691Y-79724461D01*
X121855182Y-79521692D01*
X121721932Y-79272399D01*
X121542608Y-79053892D01*
X121324101Y-78874568D01*
X121074808Y-78741318D01*
X120804309Y-78659264D01*
X120593492Y-78638500D01*
X120452508Y-78638500D01*
X120412661Y-78642425D01*
X115975499Y-74205264D01*
X115947659Y-74171341D01*
X115812291Y-74060247D01*
X115657851Y-73977697D01*
X115490274Y-73926864D01*
X115359667Y-73914000D01*
X115359660Y-73914000D01*
X115316000Y-73909700D01*
X115272340Y-73914000D01*
X114918795Y-73914000D01*
X114811608Y-73783392D01*
X114593101Y-73604068D01*
X114460142Y-73533000D01*
X114593101Y-73461932D01*
X114811608Y-73282608D01*
X114990932Y-73064101D01*
X115124182Y-72814808D01*
X115206236Y-72544309D01*
X115233943Y-72263000D01*
X115206236Y-71981691D01*
X115124182Y-71711192D01*
X114990932Y-71461899D01*
X114811608Y-71243392D01*
X114593101Y-71064068D01*
X114460142Y-70993000D01*
X114593101Y-70921932D01*
X114811608Y-70742608D01*
X114990932Y-70524101D01*
X115124182Y-70274808D01*
X115206236Y-70004309D01*
X115233943Y-69723000D01*
X115206236Y-69441691D01*
X115124182Y-69171192D01*
X114990932Y-68921899D01*
X114811608Y-68703392D01*
X114593101Y-68524068D01*
X114460142Y-68453000D01*
X114593101Y-68381932D01*
X114811608Y-68202608D01*
X114990932Y-67984101D01*
X115124182Y-67734808D01*
X115206236Y-67464309D01*
X115233943Y-67183000D01*
X115206236Y-66901691D01*
X115124182Y-66631192D01*
X114990932Y-66381899D01*
X114811608Y-66163392D01*
X114593101Y-65984068D01*
X114460142Y-65913000D01*
X114593101Y-65841932D01*
X114811608Y-65662608D01*
X114990932Y-65444101D01*
X115124182Y-65194808D01*
X115206236Y-64924309D01*
X115233943Y-64643000D01*
X115206236Y-64361691D01*
X115124182Y-64091192D01*
X114990932Y-63841899D01*
X114811608Y-63623392D01*
X114661254Y-63500000D01*
X114820765Y-63500000D01*
X120553563Y-69232798D01*
X120538602Y-69235774D01*
X120350244Y-69313795D01*
X120180726Y-69427063D01*
X120036563Y-69571226D01*
X119923295Y-69740744D01*
X119845274Y-69929102D01*
X119835370Y-69978895D01*
X119163259Y-70651006D01*
X119129342Y-70678841D01*
X119101507Y-70712758D01*
X119101505Y-70712760D01*
X119018248Y-70814209D01*
X118935698Y-70968648D01*
X118884864Y-71136226D01*
X118867700Y-71310500D01*
X118872001Y-71354170D01*
X118872000Y-74715032D01*
X118843795Y-74757244D01*
X118765774Y-74945602D01*
X118726000Y-75145561D01*
X118726000Y-75349439D01*
X118765774Y-75549398D01*
X118843795Y-75737756D01*
X118957063Y-75907274D01*
X119101226Y-76051437D01*
X119270744Y-76164705D01*
X119459102Y-76242726D01*
X119659061Y-76282500D01*
X119862939Y-76282500D01*
X120062898Y-76242726D01*
X120251256Y-76164705D01*
X120420774Y-76051437D01*
X120564937Y-75907274D01*
X120678205Y-75737756D01*
X120756226Y-75549398D01*
X120796000Y-75349439D01*
X120796000Y-75145561D01*
X120756226Y-74945602D01*
X120678205Y-74757244D01*
X120650000Y-74715032D01*
X120650000Y-71678735D01*
X121092605Y-71236130D01*
X121142398Y-71226226D01*
X121330756Y-71148205D01*
X121500274Y-71034937D01*
X121644437Y-70890774D01*
X121757705Y-70721256D01*
X121835726Y-70532898D01*
X121838702Y-70517937D01*
X135001000Y-83680236D01*
X135001001Y-95128108D01*
X134996700Y-95171778D01*
X135013864Y-95346052D01*
X135064698Y-95513630D01*
X135147248Y-95668069D01*
X135258342Y-95803437D01*
X135292259Y-95831272D01*
X140271244Y-100810258D01*
X140299075Y-100844170D01*
X140332987Y-100872001D01*
X140332992Y-100872006D01*
X140434441Y-100955263D01*
X140588880Y-101037813D01*
X140756458Y-101088647D01*
X140789658Y-101091917D01*
X140887067Y-101101511D01*
X140887073Y-101101511D01*
X140930733Y-101105811D01*
X140974393Y-101101511D01*
X146426598Y-101101509D01*
X146470268Y-101105810D01*
X146644542Y-101088646D01*
X146812120Y-101037812D01*
X146966559Y-100955262D01*
X147068008Y-100872005D01*
X147068010Y-100872003D01*
X147101927Y-100844168D01*
X147129762Y-100810251D01*
X148108504Y-99831510D01*
X154569330Y-99831510D01*
X154612990Y-99835810D01*
X154656650Y-99831510D01*
X154656657Y-99831510D01*
X154787264Y-99818646D01*
X154954841Y-99767813D01*
X155109281Y-99685263D01*
X155244649Y-99574169D01*
X155272489Y-99540246D01*
X156017605Y-98795130D01*
X156067398Y-98785226D01*
X156255756Y-98707205D01*
X156425274Y-98593937D01*
X156569437Y-98449774D01*
X156682705Y-98280256D01*
X156760726Y-98091898D01*
X156800500Y-97891939D01*
X156800500Y-97688061D01*
X156760726Y-97488102D01*
X156682705Y-97299744D01*
X156569437Y-97130226D01*
X156425274Y-96986063D01*
X156255756Y-96872795D01*
X156067398Y-96794774D01*
X155867439Y-96755000D01*
X155663561Y-96755000D01*
X155463602Y-96794774D01*
X155275244Y-96872795D01*
X155105726Y-96986063D01*
X154961563Y-97130226D01*
X154848295Y-97299744D01*
X154770274Y-97488102D01*
X154760370Y-97537895D01*
X154244755Y-98053510D01*
X148672500Y-98053510D01*
X148672500Y-97942061D01*
X148632726Y-97742102D01*
X148554705Y-97553744D01*
X148441437Y-97384226D01*
X148297274Y-97240063D01*
X148127756Y-97126795D01*
X147939398Y-97048774D01*
X147739439Y-97009000D01*
X147535561Y-97009000D01*
X147335602Y-97048774D01*
X147147244Y-97126795D01*
X146977726Y-97240063D01*
X146833563Y-97384226D01*
X146720295Y-97553744D01*
X146642274Y-97742102D01*
X146632370Y-97791895D01*
X145808765Y-98615500D01*
X141592236Y-98615500D01*
X137985500Y-95008765D01*
X137985500Y-83355660D01*
X137989800Y-83312000D01*
X137985500Y-83268340D01*
X137985500Y-83268333D01*
X137972636Y-83137726D01*
X137921803Y-82970149D01*
X137839253Y-82815709D01*
X137728159Y-82680341D01*
X137694243Y-82652507D01*
X119038736Y-63997000D01*
X121715428Y-63997000D01*
X121715428Y-65797000D01*
X121727688Y-65921482D01*
X121763998Y-66041180D01*
X121822963Y-66151494D01*
X121902315Y-66248185D01*
X121999006Y-66327537D01*
X122109320Y-66386502D01*
X122229018Y-66422812D01*
X122353500Y-66435072D01*
X124153500Y-66435072D01*
X124277982Y-66422812D01*
X124397680Y-66386502D01*
X124507994Y-66327537D01*
X124604685Y-66248185D01*
X124684037Y-66151494D01*
X124743002Y-66041180D01*
X124779312Y-65921482D01*
X124791572Y-65797000D01*
X124791572Y-63997000D01*
X131557928Y-63997000D01*
X131557928Y-65797000D01*
X131570188Y-65921482D01*
X131606498Y-66041180D01*
X131665463Y-66151494D01*
X131744815Y-66248185D01*
X131841506Y-66327537D01*
X131951820Y-66386502D01*
X132071518Y-66422812D01*
X132196000Y-66435072D01*
X133996000Y-66435072D01*
X134120482Y-66422812D01*
X134240180Y-66386502D01*
X134350494Y-66327537D01*
X134447185Y-66248185D01*
X134526537Y-66151494D01*
X134585502Y-66041180D01*
X134621812Y-65921482D01*
X134634072Y-65797000D01*
X134634072Y-63997000D01*
X134621812Y-63872518D01*
X134585502Y-63752820D01*
X134526537Y-63642506D01*
X134447185Y-63545815D01*
X134350494Y-63466463D01*
X134240180Y-63407498D01*
X134221873Y-63401944D01*
X134288312Y-63335505D01*
X134456299Y-63084095D01*
X134572011Y-62804743D01*
X134631000Y-62508184D01*
X134631000Y-62205816D01*
X134572011Y-61909257D01*
X134456299Y-61629905D01*
X134288312Y-61378495D01*
X134074505Y-61164688D01*
X133823095Y-60996701D01*
X133543743Y-60880989D01*
X133247184Y-60822000D01*
X132944816Y-60822000D01*
X132648257Y-60880989D01*
X132368905Y-60996701D01*
X132117495Y-61164688D01*
X131903688Y-61378495D01*
X131735701Y-61629905D01*
X131619989Y-61909257D01*
X131561000Y-62205816D01*
X131561000Y-62508184D01*
X131619989Y-62804743D01*
X131735701Y-63084095D01*
X131903688Y-63335505D01*
X131970127Y-63401944D01*
X131951820Y-63407498D01*
X131841506Y-63466463D01*
X131744815Y-63545815D01*
X131665463Y-63642506D01*
X131606498Y-63752820D01*
X131570188Y-63872518D01*
X131557928Y-63997000D01*
X124791572Y-63997000D01*
X124779312Y-63872518D01*
X124743002Y-63752820D01*
X124684037Y-63642506D01*
X124604685Y-63545815D01*
X124507994Y-63466463D01*
X124397680Y-63407498D01*
X124379373Y-63401944D01*
X124445812Y-63335505D01*
X124613799Y-63084095D01*
X124729511Y-62804743D01*
X124788500Y-62508184D01*
X124788500Y-62205816D01*
X124729511Y-61909257D01*
X124613799Y-61629905D01*
X124445812Y-61378495D01*
X124232005Y-61164688D01*
X123980595Y-60996701D01*
X123701243Y-60880989D01*
X123404684Y-60822000D01*
X123102316Y-60822000D01*
X122805757Y-60880989D01*
X122526405Y-60996701D01*
X122274995Y-61164688D01*
X122061188Y-61378495D01*
X121893201Y-61629905D01*
X121777489Y-61909257D01*
X121718500Y-62205816D01*
X121718500Y-62508184D01*
X121777489Y-62804743D01*
X121893201Y-63084095D01*
X122061188Y-63335505D01*
X122127627Y-63401944D01*
X122109320Y-63407498D01*
X121999006Y-63466463D01*
X121902315Y-63545815D01*
X121822963Y-63642506D01*
X121763998Y-63752820D01*
X121727688Y-63872518D01*
X121715428Y-63997000D01*
X119038736Y-63997000D01*
X115848499Y-60806764D01*
X115820659Y-60772841D01*
X115685291Y-60661747D01*
X115530851Y-60579197D01*
X115363274Y-60528364D01*
X115232667Y-60515500D01*
X115232660Y-60515500D01*
X115189000Y-60511200D01*
X115145340Y-60515500D01*
X101643668Y-60515500D01*
X101600000Y-60511199D01*
X101425725Y-60528364D01*
X101374892Y-60543784D01*
X101258149Y-60579197D01*
X101103709Y-60661747D01*
X100968341Y-60772841D01*
X100940506Y-60806758D01*
X98754262Y-62993003D01*
X98720340Y-63020842D01*
X98609246Y-63156210D01*
X98581564Y-63208000D01*
X98481508Y-63208000D01*
X98270691Y-63228764D01*
X98000192Y-63310818D01*
X97750899Y-63444068D01*
X97532392Y-63623392D01*
X97353068Y-63841899D01*
X97219818Y-64091192D01*
X97137764Y-64361691D01*
X97110057Y-64643000D01*
X94612142Y-64643000D01*
X94635537Y-64614494D01*
X94694502Y-64504180D01*
X94730812Y-64384482D01*
X94743072Y-64260000D01*
X94743072Y-62740000D01*
X94730812Y-62615518D01*
X94694502Y-62495820D01*
X94635537Y-62385506D01*
X94556185Y-62288815D01*
X94459494Y-62209463D01*
X94361000Y-62156816D01*
X94361000Y-61255840D01*
X95416841Y-60200000D01*
X137122160Y-60200000D01*
X146439292Y-69517133D01*
X146471104Y-69555896D01*
X146625810Y-69682860D01*
X146734104Y-69740744D01*
X146802312Y-69777202D01*
X146993829Y-69835298D01*
X147193000Y-69854915D01*
X147242902Y-69850000D01*
X147376541Y-69850000D01*
X147472061Y-69869000D01*
X147675939Y-69869000D01*
X147875898Y-69829226D01*
X148064256Y-69751205D01*
X148233774Y-69637937D01*
X148377937Y-69493774D01*
X148491205Y-69324256D01*
X148569226Y-69135898D01*
X148609000Y-68935939D01*
X148609000Y-68732061D01*
X148569226Y-68532102D01*
X148491205Y-68343744D01*
X148377937Y-68174226D01*
X148233774Y-68030063D01*
X148064256Y-67916795D01*
X147875898Y-67838774D01*
X147675939Y-67799000D01*
X147594841Y-67799000D01*
X141205185Y-61409344D01*
X161564000Y-61409344D01*
X161564000Y-61780656D01*
X161636439Y-62144834D01*
X161778534Y-62487882D01*
X161984825Y-62796618D01*
X162247382Y-63059175D01*
X162556118Y-63265466D01*
X162899166Y-63407561D01*
X163263344Y-63480000D01*
X163634656Y-63480000D01*
X163998834Y-63407561D01*
X164341882Y-63265466D01*
X164650618Y-63059175D01*
X164913175Y-62796618D01*
X165119466Y-62487882D01*
X165261561Y-62144834D01*
X165334000Y-61780656D01*
X165334000Y-61409344D01*
X165261561Y-61045166D01*
X165119466Y-60702118D01*
X164913175Y-60393382D01*
X164650618Y-60130825D01*
X164341882Y-59924534D01*
X163998834Y-59782439D01*
X163634656Y-59710000D01*
X163263344Y-59710000D01*
X162899166Y-59782439D01*
X162556118Y-59924534D01*
X162247382Y-60130825D01*
X161984825Y-60393382D01*
X161778534Y-60702118D01*
X161636439Y-61045166D01*
X161564000Y-61409344D01*
X141205185Y-61409344D01*
X138374730Y-58578890D01*
X166549001Y-58620941D01*
X166549000Y-110236000D01*
X105283000Y-110236000D01*
X105283000Y-105664000D01*
X105280560Y-105639224D01*
X105273333Y-105615399D01*
X105261597Y-105593443D01*
X105245803Y-105574197D01*
X105226557Y-105558403D01*
X105204601Y-105546667D01*
X105180776Y-105539440D01*
X105156000Y-105537000D01*
X100711000Y-105537000D01*
X100686224Y-105539440D01*
X100662399Y-105546667D01*
X100640443Y-105558403D01*
X100621197Y-105574197D01*
X100605403Y-105593443D01*
X100593667Y-105615399D01*
X100586440Y-105639224D01*
X100584000Y-105664000D01*
X100584000Y-110236000D01*
X82879000Y-110236000D01*
X82879000Y-100203000D01*
X97110057Y-100203000D01*
X97137764Y-100484309D01*
X97219818Y-100754808D01*
X97353068Y-101004101D01*
X97532392Y-101222608D01*
X97750899Y-101401932D01*
X98000192Y-101535182D01*
X98270691Y-101617236D01*
X98481508Y-101638000D01*
X98622492Y-101638000D01*
X98833309Y-101617236D01*
X99103808Y-101535182D01*
X99353101Y-101401932D01*
X99571608Y-101222608D01*
X99750932Y-101004101D01*
X99884182Y-100754808D01*
X99966236Y-100484309D01*
X99993943Y-100203000D01*
X99966236Y-99921691D01*
X99884182Y-99651192D01*
X99750932Y-99401899D01*
X99571608Y-99183392D01*
X99353101Y-99004068D01*
X99215318Y-98930421D01*
X99407131Y-98815385D01*
X99615519Y-98626414D01*
X99783037Y-98400420D01*
X99903246Y-98146087D01*
X99943904Y-98012039D01*
X99821915Y-97790000D01*
X98679000Y-97790000D01*
X98679000Y-97810000D01*
X98425000Y-97810000D01*
X98425000Y-97790000D01*
X97282085Y-97790000D01*
X97160096Y-98012039D01*
X97200754Y-98146087D01*
X97320963Y-98400420D01*
X97488481Y-98626414D01*
X97696869Y-98815385D01*
X97888682Y-98930421D01*
X97750899Y-99004068D01*
X97532392Y-99183392D01*
X97353068Y-99401899D01*
X97219818Y-99651192D01*
X97137764Y-99921691D01*
X97110057Y-100203000D01*
X82879000Y-100203000D01*
X82879000Y-90424000D01*
X86391815Y-90424000D01*
X86420487Y-90715111D01*
X86505401Y-90995034D01*
X86643294Y-91253014D01*
X86828866Y-91479134D01*
X87054986Y-91664706D01*
X87109791Y-91694000D01*
X87054986Y-91723294D01*
X86828866Y-91908866D01*
X86643294Y-92134986D01*
X86505401Y-92392966D01*
X86420487Y-92672889D01*
X86391815Y-92964000D01*
X86420487Y-93255111D01*
X86505401Y-93535034D01*
X86643294Y-93793014D01*
X86828866Y-94019134D01*
X86858687Y-94043607D01*
X86789820Y-94064498D01*
X86679506Y-94123463D01*
X86582815Y-94202815D01*
X86503463Y-94299506D01*
X86444498Y-94409820D01*
X86408188Y-94529518D01*
X86395928Y-94654000D01*
X86395928Y-96354000D01*
X86408188Y-96478482D01*
X86444498Y-96598180D01*
X86503463Y-96708494D01*
X86582815Y-96805185D01*
X86679506Y-96884537D01*
X86789820Y-96943502D01*
X86909518Y-96979812D01*
X87034000Y-96992072D01*
X88734000Y-96992072D01*
X88858482Y-96979812D01*
X88978180Y-96943502D01*
X89088494Y-96884537D01*
X89185185Y-96805185D01*
X89264537Y-96708494D01*
X89323502Y-96598180D01*
X89359812Y-96478482D01*
X89372072Y-96354000D01*
X89372072Y-94654000D01*
X89359812Y-94529518D01*
X89323502Y-94409820D01*
X89264537Y-94299506D01*
X89185185Y-94202815D01*
X89088494Y-94123463D01*
X88978180Y-94064498D01*
X88909313Y-94043607D01*
X88939134Y-94019134D01*
X89124706Y-93793014D01*
X89262599Y-93535034D01*
X89347513Y-93255111D01*
X89376185Y-92964000D01*
X89347513Y-92672889D01*
X89262599Y-92392966D01*
X89124706Y-92134986D01*
X88939134Y-91908866D01*
X88713014Y-91723294D01*
X88658209Y-91694000D01*
X88713014Y-91664706D01*
X88939134Y-91479134D01*
X89124706Y-91253014D01*
X89262599Y-90995034D01*
X89347513Y-90715111D01*
X89376185Y-90424000D01*
X89347513Y-90132889D01*
X89262599Y-89852966D01*
X89124706Y-89594986D01*
X88939134Y-89368866D01*
X88713014Y-89183294D01*
X88648477Y-89148799D01*
X88765355Y-89079178D01*
X88981588Y-88884269D01*
X89155641Y-88650920D01*
X89280825Y-88388099D01*
X89325476Y-88240890D01*
X89204155Y-88011000D01*
X88011000Y-88011000D01*
X88011000Y-88031000D01*
X87757000Y-88031000D01*
X87757000Y-88011000D01*
X86563845Y-88011000D01*
X86442524Y-88240890D01*
X86487175Y-88388099D01*
X86612359Y-88650920D01*
X86786412Y-88884269D01*
X87002645Y-89079178D01*
X87119523Y-89148799D01*
X87054986Y-89183294D01*
X86828866Y-89368866D01*
X86643294Y-89594986D01*
X86505401Y-89852966D01*
X86420487Y-90132889D01*
X86391815Y-90424000D01*
X82879000Y-90424000D01*
X82879000Y-87527110D01*
X86442524Y-87527110D01*
X86563845Y-87757000D01*
X87757000Y-87757000D01*
X87757000Y-86563186D01*
X88011000Y-86563186D01*
X88011000Y-87757000D01*
X89204155Y-87757000D01*
X89325476Y-87527110D01*
X89280825Y-87379901D01*
X89155641Y-87117080D01*
X88981588Y-86883731D01*
X88765355Y-86688822D01*
X88515252Y-86539843D01*
X88240891Y-86442519D01*
X88011000Y-86563186D01*
X87757000Y-86563186D01*
X87527109Y-86442519D01*
X87252748Y-86539843D01*
X87002645Y-86688822D01*
X86786412Y-86883731D01*
X86612359Y-87117080D01*
X86487175Y-87379901D01*
X86442524Y-87527110D01*
X82879000Y-87527110D01*
X82879000Y-75628500D01*
X86487000Y-75628500D01*
X86487000Y-85344000D01*
X86489440Y-85368776D01*
X86496667Y-85392601D01*
X86508403Y-85414557D01*
X86524197Y-85433803D01*
X86543443Y-85449597D01*
X86565399Y-85461333D01*
X86589224Y-85468560D01*
X86614000Y-85471000D01*
X93218000Y-85471000D01*
X93242776Y-85468560D01*
X93266601Y-85461333D01*
X93288557Y-85449597D01*
X93307803Y-85433803D01*
X93323597Y-85414557D01*
X93335333Y-85392601D01*
X93342560Y-85368776D01*
X93345000Y-85344000D01*
X93345000Y-75692000D01*
X93342792Y-75668422D01*
X93335795Y-75644530D01*
X93324270Y-75622461D01*
X93308662Y-75603065D01*
X93289569Y-75587087D01*
X93267727Y-75575140D01*
X93243973Y-75567684D01*
X93219221Y-75565006D01*
X86615221Y-75501506D01*
X86589224Y-75503940D01*
X86565399Y-75511167D01*
X86543443Y-75522903D01*
X86524197Y-75538697D01*
X86508403Y-75557943D01*
X86496667Y-75579899D01*
X86489440Y-75603724D01*
X86487000Y-75628500D01*
X82879000Y-75628500D01*
X82879000Y-74117605D01*
X88782000Y-74117605D01*
X88907914Y-74407577D01*
X89240126Y-74573433D01*
X89598312Y-74671290D01*
X89968706Y-74697389D01*
X90337075Y-74650725D01*
X90689262Y-74533094D01*
X90924086Y-74407577D01*
X91050000Y-74117605D01*
X89916000Y-72983605D01*
X88782000Y-74117605D01*
X82879000Y-74117605D01*
X82879000Y-72856706D01*
X88022611Y-72856706D01*
X88069275Y-73225075D01*
X88186906Y-73577262D01*
X88312423Y-73812086D01*
X88602395Y-73938000D01*
X89736395Y-72804000D01*
X90095605Y-72804000D01*
X91229605Y-73938000D01*
X91519577Y-73812086D01*
X91685433Y-73479874D01*
X91783290Y-73121688D01*
X91809389Y-72751294D01*
X91762725Y-72382925D01*
X91645094Y-72030738D01*
X91519577Y-71795914D01*
X91229605Y-71670000D01*
X90095605Y-72804000D01*
X89736395Y-72804000D01*
X88602395Y-71670000D01*
X88312423Y-71795914D01*
X88146567Y-72128126D01*
X88048710Y-72486312D01*
X88022611Y-72856706D01*
X82879000Y-72856706D01*
X82879000Y-71490395D01*
X88782000Y-71490395D01*
X89916000Y-72624395D01*
X91050000Y-71490395D01*
X90924086Y-71200423D01*
X90591874Y-71034567D01*
X90233688Y-70936710D01*
X89863294Y-70910611D01*
X89494925Y-70957275D01*
X89142738Y-71074906D01*
X88907914Y-71200423D01*
X88782000Y-71490395D01*
X82879000Y-71490395D01*
X82879000Y-69544137D01*
X92560469Y-69544137D01*
X92627206Y-69784025D01*
X92875892Y-69900924D01*
X93142606Y-69967061D01*
X93417097Y-69979895D01*
X93688817Y-69938931D01*
X93947326Y-69845744D01*
X94062794Y-69784025D01*
X94129531Y-69544137D01*
X93345000Y-68759605D01*
X92560469Y-69544137D01*
X82879000Y-69544137D01*
X82879000Y-68652097D01*
X91945105Y-68652097D01*
X91986069Y-68923817D01*
X92079256Y-69182326D01*
X92140975Y-69297794D01*
X92380863Y-69364531D01*
X93165395Y-68580000D01*
X93524605Y-68580000D01*
X94309137Y-69364531D01*
X94549025Y-69297794D01*
X94665924Y-69049108D01*
X94732061Y-68782394D01*
X94744895Y-68507903D01*
X94703931Y-68236183D01*
X94610744Y-67977674D01*
X94549025Y-67862206D01*
X94309137Y-67795469D01*
X93524605Y-68580000D01*
X93165395Y-68580000D01*
X92380863Y-67795469D01*
X92140975Y-67862206D01*
X92024076Y-68110892D01*
X91957939Y-68377606D01*
X91945105Y-68652097D01*
X82879000Y-68652097D01*
X82879000Y-61536344D01*
X84983000Y-61536344D01*
X84983000Y-61907656D01*
X85055439Y-62271834D01*
X85197534Y-62614882D01*
X85403825Y-62923618D01*
X85666382Y-63186175D01*
X85975118Y-63392466D01*
X86318166Y-63534561D01*
X86682344Y-63607000D01*
X87053656Y-63607000D01*
X87417834Y-63534561D01*
X87760882Y-63392466D01*
X88069618Y-63186175D01*
X88332175Y-62923618D01*
X88538466Y-62614882D01*
X88680561Y-62271834D01*
X88753000Y-61907656D01*
X88753000Y-61536344D01*
X88680561Y-61172166D01*
X88538466Y-60829118D01*
X88332175Y-60520382D01*
X88069618Y-60257825D01*
X87760882Y-60051534D01*
X87417834Y-59909439D01*
X87053656Y-59837000D01*
X86682344Y-59837000D01*
X86318166Y-59909439D01*
X85975118Y-60051534D01*
X85666382Y-60257825D01*
X85403825Y-60520382D01*
X85197534Y-60829118D01*
X85055439Y-61172166D01*
X84983000Y-61536344D01*
X82879000Y-61536344D01*
X82879000Y-58496060D01*
X94230157Y-58513002D01*
X94230157Y-58513002D01*
G37*
X94230157Y-58513002D02*
X92661872Y-60081288D01*
X92623104Y-60113104D01*
X92496140Y-60267810D01*
X92401798Y-60444314D01*
X92380204Y-60515500D01*
X92343702Y-60635830D01*
X92324085Y-60835000D01*
X92329000Y-60884902D01*
X92329000Y-62156816D01*
X92230506Y-62209463D01*
X92133815Y-62288815D01*
X92054463Y-62385506D01*
X91995498Y-62495820D01*
X91959188Y-62615518D01*
X91946928Y-62740000D01*
X91946928Y-64260000D01*
X91959188Y-64384482D01*
X91995498Y-64504180D01*
X92054463Y-64614494D01*
X92133815Y-64711185D01*
X92230506Y-64790537D01*
X92340820Y-64849502D01*
X92460518Y-64885812D01*
X92548467Y-64894474D01*
X92455739Y-64956433D01*
X92261433Y-65150739D01*
X92108767Y-65379220D01*
X92003609Y-65633093D01*
X91950000Y-65902604D01*
X91950000Y-66177396D01*
X92003609Y-66446907D01*
X92108767Y-66700780D01*
X92261433Y-66929261D01*
X92455739Y-67123567D01*
X92684220Y-67276233D01*
X92760501Y-67307830D01*
X92742674Y-67314256D01*
X92627206Y-67375975D01*
X92560469Y-67615863D01*
X93345000Y-68400395D01*
X94129531Y-67615863D01*
X94062794Y-67375975D01*
X93923293Y-67310400D01*
X94005780Y-67276233D01*
X94234261Y-67123567D01*
X94428567Y-66929261D01*
X94581233Y-66700780D01*
X94686391Y-66446907D01*
X94740000Y-66177396D01*
X94740000Y-65902604D01*
X94686391Y-65633093D01*
X94581233Y-65379220D01*
X94428567Y-65150739D01*
X94234261Y-64956433D01*
X94141533Y-64894474D01*
X94229482Y-64885812D01*
X94349180Y-64849502D01*
X94459494Y-64790537D01*
X94556185Y-64711185D01*
X94612142Y-64643000D01*
X97110057Y-64643000D01*
X97137764Y-64924309D01*
X97219818Y-65194808D01*
X97353068Y-65444101D01*
X97532392Y-65662608D01*
X97750899Y-65841932D01*
X97883858Y-65913000D01*
X97750899Y-65984068D01*
X97532392Y-66163392D01*
X97353068Y-66381899D01*
X97219818Y-66631192D01*
X97137764Y-66901691D01*
X97110057Y-67183000D01*
X97137764Y-67464309D01*
X97219818Y-67734808D01*
X97353068Y-67984101D01*
X97532392Y-68202608D01*
X97750899Y-68381932D01*
X97883858Y-68453000D01*
X97750899Y-68524068D01*
X97532392Y-68703392D01*
X97353068Y-68921899D01*
X97219818Y-69171192D01*
X97137764Y-69441691D01*
X97110057Y-69723000D01*
X97137764Y-70004309D01*
X97219818Y-70274808D01*
X97353068Y-70524101D01*
X97532392Y-70742608D01*
X97750899Y-70921932D01*
X97883858Y-70993000D01*
X97750899Y-71064068D01*
X97532392Y-71243392D01*
X97353068Y-71461899D01*
X97219818Y-71711192D01*
X97137764Y-71981691D01*
X97110057Y-72263000D01*
X97137764Y-72544309D01*
X97219818Y-72814808D01*
X97353068Y-73064101D01*
X97532392Y-73282608D01*
X97750899Y-73461932D01*
X97883858Y-73533000D01*
X97750899Y-73604068D01*
X97532392Y-73783392D01*
X97353068Y-74001899D01*
X97219818Y-74251192D01*
X97137764Y-74521691D01*
X97110057Y-74803000D01*
X97137764Y-75084309D01*
X97219818Y-75354808D01*
X97353068Y-75604101D01*
X97532392Y-75822608D01*
X97750899Y-76001932D01*
X97883858Y-76073000D01*
X97750899Y-76144068D01*
X97532392Y-76323392D01*
X97353068Y-76541899D01*
X97219818Y-76791192D01*
X97137764Y-77061691D01*
X97110057Y-77343000D01*
X97137764Y-77624309D01*
X97219818Y-77894808D01*
X97353068Y-78144101D01*
X97532392Y-78362608D01*
X97750899Y-78541932D01*
X97883858Y-78613000D01*
X97750899Y-78684068D01*
X97532392Y-78863392D01*
X97353068Y-79081899D01*
X97219818Y-79331192D01*
X97137764Y-79601691D01*
X97110057Y-79883000D01*
X97137764Y-80164309D01*
X97219818Y-80434808D01*
X97353068Y-80684101D01*
X97532392Y-80902608D01*
X97750899Y-81081932D01*
X97883858Y-81153000D01*
X97750899Y-81224068D01*
X97532392Y-81403392D01*
X97353068Y-81621899D01*
X97219818Y-81871192D01*
X97137764Y-82141691D01*
X97110057Y-82423000D01*
X97137764Y-82704309D01*
X97219818Y-82974808D01*
X97353068Y-83224101D01*
X97532392Y-83442608D01*
X97750899Y-83621932D01*
X97883858Y-83693000D01*
X97750899Y-83764068D01*
X97532392Y-83943392D01*
X97353068Y-84161899D01*
X97219818Y-84411192D01*
X97137764Y-84681691D01*
X97110057Y-84963000D01*
X97137764Y-85244309D01*
X97219818Y-85514808D01*
X97353068Y-85764101D01*
X97532392Y-85982608D01*
X97750899Y-86161932D01*
X97883858Y-86233000D01*
X97750899Y-86304068D01*
X97532392Y-86483392D01*
X97353068Y-86701899D01*
X97219818Y-86951192D01*
X97137764Y-87221691D01*
X97110057Y-87503000D01*
X97137764Y-87784309D01*
X97219818Y-88054808D01*
X97353068Y-88304101D01*
X97532392Y-88522608D01*
X97750899Y-88701932D01*
X97883858Y-88773000D01*
X97750899Y-88844068D01*
X97532392Y-89023392D01*
X97353068Y-89241899D01*
X97219818Y-89491192D01*
X97137764Y-89761691D01*
X97110057Y-90043000D01*
X97137764Y-90324309D01*
X97219818Y-90594808D01*
X97353068Y-90844101D01*
X97532392Y-91062608D01*
X97750899Y-91241932D01*
X97883858Y-91313000D01*
X97750899Y-91384068D01*
X97532392Y-91563392D01*
X97353068Y-91781899D01*
X97219818Y-92031192D01*
X97137764Y-92301691D01*
X97110057Y-92583000D01*
X97137764Y-92864309D01*
X97219818Y-93134808D01*
X97353068Y-93384101D01*
X97532392Y-93602608D01*
X97750899Y-93781932D01*
X97883858Y-93853000D01*
X97750899Y-93924068D01*
X97532392Y-94103392D01*
X97353068Y-94321899D01*
X97219818Y-94571192D01*
X97137764Y-94841691D01*
X97110057Y-95123000D01*
X97137764Y-95404309D01*
X97219818Y-95674808D01*
X97353068Y-95924101D01*
X97532392Y-96142608D01*
X97750899Y-96321932D01*
X97888682Y-96395579D01*
X97696869Y-96510615D01*
X97488481Y-96699586D01*
X97320963Y-96925580D01*
X97200754Y-97179913D01*
X97160096Y-97313961D01*
X97282085Y-97536000D01*
X98425000Y-97536000D01*
X98425000Y-97516000D01*
X98679000Y-97516000D01*
X98679000Y-97536000D01*
X99821915Y-97536000D01*
X99943904Y-97313961D01*
X99903246Y-97179913D01*
X99783037Y-96925580D01*
X99615519Y-96699586D01*
X99407131Y-96510615D01*
X99215318Y-96395579D01*
X99353101Y-96321932D01*
X99571608Y-96142608D01*
X99750932Y-95924101D01*
X99884182Y-95674808D01*
X99966236Y-95404309D01*
X99993943Y-95123000D01*
X112350057Y-95123000D01*
X112377764Y-95404309D01*
X112459818Y-95674808D01*
X112593068Y-95924101D01*
X112772392Y-96142608D01*
X112990899Y-96321932D01*
X113123858Y-96393000D01*
X112990899Y-96464068D01*
X112772392Y-96643392D01*
X112593068Y-96861899D01*
X112459818Y-97111192D01*
X112377764Y-97381691D01*
X112350057Y-97663000D01*
X112377764Y-97944309D01*
X112459818Y-98214808D01*
X112593068Y-98464101D01*
X112772392Y-98682608D01*
X112885482Y-98775419D01*
X112867518Y-98777188D01*
X112747820Y-98813498D01*
X112637506Y-98872463D01*
X112540815Y-98951815D01*
X112461463Y-99048506D01*
X112402498Y-99158820D01*
X112366188Y-99278518D01*
X112353928Y-99403000D01*
X112353928Y-101003000D01*
X112366188Y-101127482D01*
X112402498Y-101247180D01*
X112461463Y-101357494D01*
X112540815Y-101454185D01*
X112637506Y-101533537D01*
X112747820Y-101592502D01*
X112867518Y-101628812D01*
X112992000Y-101641072D01*
X114592000Y-101641072D01*
X114716482Y-101628812D01*
X114836180Y-101592502D01*
X114946494Y-101533537D01*
X115043185Y-101454185D01*
X115072651Y-101418281D01*
X116683502Y-103029133D01*
X116731401Y-103187034D01*
X116869294Y-103445014D01*
X117054866Y-103671134D01*
X117280986Y-103856706D01*
X117538966Y-103994599D01*
X117818889Y-104079513D01*
X118037050Y-104101000D01*
X118182950Y-104101000D01*
X118401111Y-104079513D01*
X118681034Y-103994599D01*
X118939014Y-103856706D01*
X119165134Y-103671134D01*
X119350706Y-103445014D01*
X119488599Y-103187034D01*
X119573513Y-102907111D01*
X119602185Y-102616000D01*
X119573513Y-102324889D01*
X119488599Y-102044966D01*
X119350706Y-101786986D01*
X119165134Y-101560866D01*
X119135313Y-101536393D01*
X119204180Y-101515502D01*
X119314494Y-101456537D01*
X119411185Y-101377185D01*
X119490537Y-101280494D01*
X119549502Y-101170180D01*
X119585812Y-101050482D01*
X119595815Y-100948914D01*
X121980192Y-100948914D01*
X122075956Y-101213315D01*
X122365571Y-101354205D01*
X122677108Y-101435885D01*
X122998595Y-101455219D01*
X123317675Y-101411462D01*
X123622088Y-101306296D01*
X123796044Y-101213315D01*
X123891808Y-100948914D01*
X128480192Y-100948914D01*
X128575956Y-101213315D01*
X128865571Y-101354205D01*
X129177108Y-101435885D01*
X129498595Y-101455219D01*
X129817675Y-101411462D01*
X130122088Y-101306296D01*
X130296044Y-101213315D01*
X130391808Y-100948914D01*
X129436000Y-99993106D01*
X128480192Y-100948914D01*
X123891808Y-100948914D01*
X122936000Y-99993106D01*
X121980192Y-100948914D01*
X119595815Y-100948914D01*
X119598072Y-100926000D01*
X119598072Y-99876096D01*
X121294282Y-99876096D01*
X121338039Y-100195176D01*
X121443205Y-100499589D01*
X121536186Y-100673545D01*
X121800587Y-100769309D01*
X122756395Y-99813501D01*
X123115605Y-99813501D01*
X124071413Y-100769309D01*
X124335814Y-100673545D01*
X124476704Y-100383930D01*
X124558384Y-100072393D01*
X124570189Y-99876096D01*
X127794282Y-99876096D01*
X127838039Y-100195176D01*
X127943205Y-100499589D01*
X128036186Y-100673545D01*
X128300587Y-100769309D01*
X129256395Y-99813501D01*
X129615605Y-99813501D01*
X130571413Y-100769309D01*
X130835814Y-100673545D01*
X130976704Y-100383930D01*
X131058384Y-100072393D01*
X131077718Y-99750906D01*
X131033961Y-99431826D01*
X130928795Y-99127413D01*
X130835814Y-98953457D01*
X130571413Y-98857693D01*
X129615605Y-99813501D01*
X129256395Y-99813501D01*
X128300587Y-98857693D01*
X128036186Y-98953457D01*
X127895296Y-99243072D01*
X127813616Y-99554609D01*
X127794282Y-99876096D01*
X124570189Y-99876096D01*
X124577718Y-99750906D01*
X124533961Y-99431826D01*
X124428795Y-99127413D01*
X124335814Y-98953457D01*
X124071413Y-98857693D01*
X123115605Y-99813501D01*
X122756395Y-99813501D01*
X121800587Y-98857693D01*
X121536186Y-98953457D01*
X121395296Y-99243072D01*
X121313616Y-99554609D01*
X121294282Y-99876096D01*
X119598072Y-99876096D01*
X119598072Y-99226000D01*
X119585812Y-99101518D01*
X119549502Y-98981820D01*
X119490537Y-98871506D01*
X119411185Y-98774815D01*
X119314494Y-98695463D01*
X119281989Y-98678088D01*
X121980192Y-98678088D01*
X122936000Y-99633896D01*
X123891808Y-98678088D01*
X128480192Y-98678088D01*
X129436000Y-99633896D01*
X130391808Y-98678088D01*
X130296044Y-98413687D01*
X130006429Y-98272797D01*
X129694892Y-98191117D01*
X129373405Y-98171783D01*
X129054325Y-98215540D01*
X128749912Y-98320706D01*
X128575956Y-98413687D01*
X128480192Y-98678088D01*
X123891808Y-98678088D01*
X123796044Y-98413687D01*
X123506429Y-98272797D01*
X123194892Y-98191117D01*
X122873405Y-98171783D01*
X122554325Y-98215540D01*
X122249912Y-98320706D01*
X122075956Y-98413687D01*
X121980192Y-98678088D01*
X119281989Y-98678088D01*
X119204180Y-98636498D01*
X119084482Y-98600188D01*
X118960000Y-98587928D01*
X117260000Y-98587928D01*
X117135518Y-98600188D01*
X117015820Y-98636498D01*
X116905506Y-98695463D01*
X116842665Y-98747035D01*
X115246284Y-97150654D01*
X115222422Y-97121578D01*
X115106392Y-97026355D01*
X115067814Y-97005734D01*
X114990932Y-96861899D01*
X114811608Y-96643392D01*
X114593101Y-96464068D01*
X114460142Y-96393000D01*
X114593101Y-96321932D01*
X114811608Y-96142608D01*
X114990932Y-95924101D01*
X115124182Y-95674808D01*
X115206236Y-95404309D01*
X115231040Y-95152468D01*
X121301000Y-95152468D01*
X121301000Y-95474534D01*
X121363832Y-95790413D01*
X121487082Y-96087964D01*
X121666013Y-96355753D01*
X121893748Y-96583488D01*
X122161537Y-96762419D01*
X122459088Y-96885669D01*
X122774967Y-96948501D01*
X123097033Y-96948501D01*
X123412912Y-96885669D01*
X123710463Y-96762419D01*
X123978252Y-96583488D01*
X124205987Y-96355753D01*
X124384918Y-96087964D01*
X124508168Y-95790413D01*
X124571000Y-95474534D01*
X124571000Y-95152468D01*
X127801000Y-95152468D01*
X127801000Y-95474534D01*
X127863832Y-95790413D01*
X127987082Y-96087964D01*
X128166013Y-96355753D01*
X128393748Y-96583488D01*
X128661537Y-96762419D01*
X128959088Y-96885669D01*
X129274967Y-96948501D01*
X129597033Y-96948501D01*
X129912912Y-96885669D01*
X130210463Y-96762419D01*
X130478252Y-96583488D01*
X130705987Y-96355753D01*
X130884918Y-96087964D01*
X131008168Y-95790413D01*
X131071000Y-95474534D01*
X131071000Y-95152468D01*
X131008168Y-94836589D01*
X130884918Y-94539038D01*
X130705987Y-94271249D01*
X130478252Y-94043514D01*
X130210463Y-93864583D01*
X129912912Y-93741333D01*
X129597033Y-93678501D01*
X129274967Y-93678501D01*
X128959088Y-93741333D01*
X128661537Y-93864583D01*
X128393748Y-94043514D01*
X128166013Y-94271249D01*
X127987082Y-94539038D01*
X127863832Y-94836589D01*
X127801000Y-95152468D01*
X124571000Y-95152468D01*
X124508168Y-94836589D01*
X124384918Y-94539038D01*
X124205987Y-94271249D01*
X123978252Y-94043514D01*
X123710463Y-93864583D01*
X123412912Y-93741333D01*
X123097033Y-93678501D01*
X122774967Y-93678501D01*
X122459088Y-93741333D01*
X122161537Y-93864583D01*
X121893748Y-94043514D01*
X121666013Y-94271249D01*
X121487082Y-94539038D01*
X121363832Y-94836589D01*
X121301000Y-95152468D01*
X115231040Y-95152468D01*
X115233943Y-95123000D01*
X115206236Y-94841691D01*
X115124182Y-94571192D01*
X114990932Y-94321899D01*
X114811608Y-94103392D01*
X114593101Y-93924068D01*
X114455318Y-93850421D01*
X114647131Y-93735385D01*
X114855519Y-93546414D01*
X115023037Y-93320420D01*
X115143246Y-93066087D01*
X115183904Y-92932039D01*
X115061915Y-92710000D01*
X113919000Y-92710000D01*
X113919000Y-92730000D01*
X113665000Y-92730000D01*
X113665000Y-92710000D01*
X112522085Y-92710000D01*
X112400096Y-92932039D01*
X112440754Y-93066087D01*
X112560963Y-93320420D01*
X112728481Y-93546414D01*
X112936869Y-93735385D01*
X113128682Y-93850421D01*
X112990899Y-93924068D01*
X112772392Y-94103392D01*
X112593068Y-94321899D01*
X112459818Y-94571192D01*
X112377764Y-94841691D01*
X112350057Y-95123000D01*
X99993943Y-95123000D01*
X99966236Y-94841691D01*
X99884182Y-94571192D01*
X99750932Y-94321899D01*
X99571608Y-94103392D01*
X99353101Y-93924068D01*
X99220142Y-93853000D01*
X99353101Y-93781932D01*
X99571608Y-93602608D01*
X99750932Y-93384101D01*
X99884182Y-93134808D01*
X99966236Y-92864309D01*
X99993943Y-92583000D01*
X99966236Y-92301691D01*
X99884182Y-92031192D01*
X99750932Y-91781899D01*
X99571608Y-91563392D01*
X99353101Y-91384068D01*
X99220142Y-91313000D01*
X99353101Y-91241932D01*
X99571608Y-91062608D01*
X99750932Y-90844101D01*
X99884182Y-90594808D01*
X99966236Y-90324309D01*
X99993943Y-90043000D01*
X99966236Y-89761691D01*
X99884182Y-89491192D01*
X99750932Y-89241899D01*
X99571608Y-89023392D01*
X99353101Y-88844068D01*
X99220142Y-88773000D01*
X99353101Y-88701932D01*
X99571608Y-88522608D01*
X99750932Y-88304101D01*
X99884182Y-88054808D01*
X99966236Y-87784309D01*
X99993943Y-87503000D01*
X99966236Y-87221691D01*
X99884182Y-86951192D01*
X99750932Y-86701899D01*
X99571608Y-86483392D01*
X99353101Y-86304068D01*
X99220142Y-86233000D01*
X99353101Y-86161932D01*
X99571608Y-85982608D01*
X99750932Y-85764101D01*
X99884182Y-85514808D01*
X99966236Y-85244309D01*
X99993943Y-84963000D01*
X99966236Y-84681691D01*
X99884182Y-84411192D01*
X99750932Y-84161899D01*
X99571608Y-83943392D01*
X99353101Y-83764068D01*
X99220142Y-83693000D01*
X99353101Y-83621932D01*
X99571608Y-83442608D01*
X99750932Y-83224101D01*
X99884182Y-82974808D01*
X99966236Y-82704309D01*
X99993943Y-82423000D01*
X99966236Y-82141691D01*
X99884182Y-81871192D01*
X99750932Y-81621899D01*
X99571608Y-81403392D01*
X99353101Y-81224068D01*
X99220142Y-81153000D01*
X99353101Y-81081932D01*
X99571608Y-80902608D01*
X99750932Y-80684101D01*
X99884182Y-80434808D01*
X99966236Y-80164309D01*
X99993943Y-79883000D01*
X99966236Y-79601691D01*
X99884182Y-79331192D01*
X99750932Y-79081899D01*
X99571608Y-78863392D01*
X99353101Y-78684068D01*
X99220142Y-78613000D01*
X99353101Y-78541932D01*
X99571608Y-78362608D01*
X99750932Y-78144101D01*
X99884182Y-77894808D01*
X99966236Y-77624309D01*
X99993943Y-77343000D01*
X99966236Y-77061691D01*
X99884182Y-76791192D01*
X99750932Y-76541899D01*
X99571608Y-76323392D01*
X99353101Y-76144068D01*
X99220142Y-76073000D01*
X99353101Y-76001932D01*
X99571608Y-75822608D01*
X99750932Y-75604101D01*
X99884182Y-75354808D01*
X99966236Y-75084309D01*
X99993943Y-74803000D01*
X99966236Y-74521691D01*
X99884182Y-74251192D01*
X99750932Y-74001899D01*
X99571608Y-73783392D01*
X99353101Y-73604068D01*
X99220142Y-73533000D01*
X99353101Y-73461932D01*
X99571608Y-73282608D01*
X99750932Y-73064101D01*
X99884182Y-72814808D01*
X99966236Y-72544309D01*
X99993943Y-72263000D01*
X99977382Y-72094853D01*
X108572235Y-63500000D01*
X112922746Y-63500000D01*
X112772392Y-63623392D01*
X112593068Y-63841899D01*
X112459818Y-64091192D01*
X112377764Y-64361691D01*
X112350057Y-64643000D01*
X112377764Y-64924309D01*
X112459818Y-65194808D01*
X112593068Y-65444101D01*
X112772392Y-65662608D01*
X112990899Y-65841932D01*
X113123858Y-65913000D01*
X112990899Y-65984068D01*
X112772392Y-66163392D01*
X112593068Y-66381899D01*
X112459818Y-66631192D01*
X112377764Y-66901691D01*
X112350057Y-67183000D01*
X112377764Y-67464309D01*
X112459818Y-67734808D01*
X112593068Y-67984101D01*
X112772392Y-68202608D01*
X112990899Y-68381932D01*
X113123858Y-68453000D01*
X112990899Y-68524068D01*
X112772392Y-68703392D01*
X112593068Y-68921899D01*
X112459818Y-69171192D01*
X112377764Y-69441691D01*
X112350057Y-69723000D01*
X112377764Y-70004309D01*
X112459818Y-70274808D01*
X112593068Y-70524101D01*
X112772392Y-70742608D01*
X112990899Y-70921932D01*
X113123858Y-70993000D01*
X112990899Y-71064068D01*
X112772392Y-71243392D01*
X112593068Y-71461899D01*
X112459818Y-71711192D01*
X112377764Y-71981691D01*
X112350057Y-72263000D01*
X112377764Y-72544309D01*
X112459818Y-72814808D01*
X112593068Y-73064101D01*
X112772392Y-73282608D01*
X112990899Y-73461932D01*
X113123858Y-73533000D01*
X112990899Y-73604068D01*
X112772392Y-73783392D01*
X112593068Y-74001899D01*
X112459818Y-74251192D01*
X112377764Y-74521691D01*
X112350057Y-74803000D01*
X112377764Y-75084309D01*
X112459818Y-75354808D01*
X112593068Y-75604101D01*
X112772392Y-75822608D01*
X112990899Y-76001932D01*
X113123858Y-76073000D01*
X112990899Y-76144068D01*
X112772392Y-76323392D01*
X112593068Y-76541899D01*
X112459818Y-76791192D01*
X112377764Y-77061691D01*
X112350057Y-77343000D01*
X112377764Y-77624309D01*
X112459818Y-77894808D01*
X112593068Y-78144101D01*
X112772392Y-78362608D01*
X112990899Y-78541932D01*
X113123858Y-78613000D01*
X112990899Y-78684068D01*
X112772392Y-78863392D01*
X112593068Y-79081899D01*
X112459818Y-79331192D01*
X112377764Y-79601691D01*
X112350057Y-79883000D01*
X112377764Y-80164309D01*
X112459818Y-80434808D01*
X112593068Y-80684101D01*
X112772392Y-80902608D01*
X112990899Y-81081932D01*
X113123858Y-81153000D01*
X112990899Y-81224068D01*
X112772392Y-81403392D01*
X112593068Y-81621899D01*
X112459818Y-81871192D01*
X112377764Y-82141691D01*
X112350057Y-82423000D01*
X112377764Y-82704309D01*
X112459818Y-82974808D01*
X112593068Y-83224101D01*
X112772392Y-83442608D01*
X112990899Y-83621932D01*
X113123858Y-83693000D01*
X112990899Y-83764068D01*
X112772392Y-83943392D01*
X112593068Y-84161899D01*
X112459818Y-84411192D01*
X112377764Y-84681691D01*
X112350057Y-84963000D01*
X112377764Y-85244309D01*
X112459818Y-85514808D01*
X112593068Y-85764101D01*
X112772392Y-85982608D01*
X112990899Y-86161932D01*
X113123858Y-86233000D01*
X112990899Y-86304068D01*
X112772392Y-86483392D01*
X112593068Y-86701899D01*
X112459818Y-86951192D01*
X112377764Y-87221691D01*
X112350057Y-87503000D01*
X112377764Y-87784309D01*
X112459818Y-88054808D01*
X112593068Y-88304101D01*
X112772392Y-88522608D01*
X112990899Y-88701932D01*
X113123858Y-88773000D01*
X112990899Y-88844068D01*
X112772392Y-89023392D01*
X112593068Y-89241899D01*
X112459818Y-89491192D01*
X112377764Y-89761691D01*
X112350057Y-90043000D01*
X112377764Y-90324309D01*
X112459818Y-90594808D01*
X112593068Y-90844101D01*
X112772392Y-91062608D01*
X112990899Y-91241932D01*
X113128682Y-91315579D01*
X112936869Y-91430615D01*
X112728481Y-91619586D01*
X112560963Y-91845580D01*
X112440754Y-92099913D01*
X112400096Y-92233961D01*
X112522085Y-92456000D01*
X113665000Y-92456000D01*
X113665000Y-92436000D01*
X113919000Y-92436000D01*
X113919000Y-92456000D01*
X115061915Y-92456000D01*
X115183904Y-92233961D01*
X115143246Y-92099913D01*
X115023037Y-91845580D01*
X114855519Y-91619586D01*
X114647131Y-91430615D01*
X114455318Y-91315579D01*
X114593101Y-91241932D01*
X114811608Y-91062608D01*
X114990932Y-90844101D01*
X115124182Y-90594808D01*
X115206236Y-90324309D01*
X115233943Y-90043000D01*
X115206236Y-89761691D01*
X115124182Y-89491192D01*
X114990932Y-89241899D01*
X114811608Y-89023392D01*
X114593101Y-88844068D01*
X114460142Y-88773000D01*
X114593101Y-88701932D01*
X114811608Y-88522608D01*
X114990932Y-88304101D01*
X115124182Y-88054808D01*
X115206236Y-87784309D01*
X115233943Y-87503000D01*
X115206236Y-87221691D01*
X115124182Y-86951192D01*
X114990932Y-86701899D01*
X114811608Y-86483392D01*
X114593101Y-86304068D01*
X114460142Y-86233000D01*
X114593101Y-86161932D01*
X114811608Y-85982608D01*
X114990932Y-85764101D01*
X115124182Y-85514808D01*
X115206236Y-85244309D01*
X115219671Y-85107906D01*
X118403006Y-88291242D01*
X118430841Y-88325159D01*
X118566209Y-88436253D01*
X118720649Y-88518803D01*
X118837392Y-88554216D01*
X118888225Y-88569636D01*
X119062500Y-88586801D01*
X119106168Y-88582500D01*
X119396205Y-88582500D01*
X119503392Y-88713108D01*
X119721899Y-88892432D01*
X119971192Y-89025682D01*
X120241691Y-89107736D01*
X120452508Y-89128500D01*
X120593492Y-89128500D01*
X120804309Y-89107736D01*
X121074808Y-89025682D01*
X121324101Y-88892432D01*
X121542608Y-88713108D01*
X121721932Y-88494601D01*
X121722520Y-88493500D01*
X126704928Y-88493500D01*
X126717188Y-88617982D01*
X126753498Y-88737680D01*
X126812463Y-88847994D01*
X126891815Y-88944685D01*
X126988506Y-89024037D01*
X127098820Y-89083002D01*
X127218518Y-89119312D01*
X127343000Y-89131572D01*
X127857250Y-89128500D01*
X128016000Y-88969750D01*
X128016000Y-87820500D01*
X128270000Y-87820500D01*
X128270000Y-88969750D01*
X128428750Y-89128500D01*
X128943000Y-89131572D01*
X129067482Y-89119312D01*
X129187180Y-89083002D01*
X129297494Y-89024037D01*
X129394185Y-88944685D01*
X129473537Y-88847994D01*
X129532502Y-88737680D01*
X129568812Y-88617982D01*
X129581072Y-88493500D01*
X129578000Y-87979250D01*
X129419250Y-87820500D01*
X128270000Y-87820500D01*
X128016000Y-87820500D01*
X126866750Y-87820500D01*
X126708000Y-87979250D01*
X126704928Y-88493500D01*
X121722520Y-88493500D01*
X121855182Y-88245308D01*
X121937236Y-87974809D01*
X121964943Y-87693500D01*
X121937236Y-87412191D01*
X121855182Y-87141692D01*
X121722521Y-86893500D01*
X126704928Y-86893500D01*
X126708000Y-87407750D01*
X126866750Y-87566500D01*
X128016000Y-87566500D01*
X128016000Y-85280500D01*
X128270000Y-85280500D01*
X128270000Y-87566500D01*
X129419250Y-87566500D01*
X129578000Y-87407750D01*
X129581072Y-86893500D01*
X129568812Y-86769018D01*
X129532502Y-86649320D01*
X129473537Y-86539006D01*
X129394185Y-86442315D01*
X129297494Y-86362963D01*
X129187180Y-86303998D01*
X129067482Y-86267688D01*
X129042920Y-86265269D01*
X129206519Y-86116914D01*
X129374037Y-85890920D01*
X129494246Y-85636587D01*
X129534904Y-85502539D01*
X129412915Y-85280500D01*
X128270000Y-85280500D01*
X128016000Y-85280500D01*
X126873085Y-85280500D01*
X126751096Y-85502539D01*
X126791754Y-85636587D01*
X126911963Y-85890920D01*
X127079481Y-86116914D01*
X127243080Y-86265269D01*
X127218518Y-86267688D01*
X127098820Y-86303998D01*
X126988506Y-86362963D01*
X126891815Y-86442315D01*
X126812463Y-86539006D01*
X126753498Y-86649320D01*
X126717188Y-86769018D01*
X126704928Y-86893500D01*
X121722521Y-86893500D01*
X121721932Y-86892399D01*
X121542608Y-86673892D01*
X121324101Y-86494568D01*
X121191142Y-86423500D01*
X121324101Y-86352432D01*
X121542608Y-86173108D01*
X121721932Y-85954601D01*
X121855182Y-85705308D01*
X121937236Y-85434809D01*
X121964943Y-85153500D01*
X121937236Y-84872191D01*
X121855182Y-84601692D01*
X121721932Y-84352399D01*
X121542608Y-84133892D01*
X121324101Y-83954568D01*
X121191142Y-83883500D01*
X121324101Y-83812432D01*
X121542608Y-83633108D01*
X121721932Y-83414601D01*
X121855182Y-83165308D01*
X121916690Y-82962539D01*
X126751096Y-82962539D01*
X126791754Y-83096587D01*
X126911963Y-83350920D01*
X127079481Y-83576914D01*
X127287869Y-83765885D01*
X127483982Y-83883500D01*
X127287869Y-84001115D01*
X127079481Y-84190086D01*
X126911963Y-84416080D01*
X126791754Y-84670413D01*
X126751096Y-84804461D01*
X126873085Y-85026500D01*
X128016000Y-85026500D01*
X128016000Y-82740500D01*
X128270000Y-82740500D01*
X128270000Y-85026500D01*
X129412915Y-85026500D01*
X129534904Y-84804461D01*
X129494246Y-84670413D01*
X129374037Y-84416080D01*
X129206519Y-84190086D01*
X128998131Y-84001115D01*
X128802018Y-83883500D01*
X128998131Y-83765885D01*
X129206519Y-83576914D01*
X129374037Y-83350920D01*
X129494246Y-83096587D01*
X129534904Y-82962539D01*
X129412915Y-82740500D01*
X128270000Y-82740500D01*
X128016000Y-82740500D01*
X126873085Y-82740500D01*
X126751096Y-82962539D01*
X121916690Y-82962539D01*
X121937236Y-82894809D01*
X121964943Y-82613500D01*
X121937236Y-82332191D01*
X121855182Y-82061692D01*
X121721932Y-81812399D01*
X121542608Y-81593892D01*
X121324101Y-81414568D01*
X121191142Y-81343500D01*
X121324101Y-81272432D01*
X121542608Y-81093108D01*
X121721932Y-80874601D01*
X121855182Y-80625308D01*
X121916690Y-80422539D01*
X126751096Y-80422539D01*
X126791754Y-80556587D01*
X126911963Y-80810920D01*
X127079481Y-81036914D01*
X127287869Y-81225885D01*
X127483982Y-81343500D01*
X127287869Y-81461115D01*
X127079481Y-81650086D01*
X126911963Y-81876080D01*
X126791754Y-82130413D01*
X126751096Y-82264461D01*
X126873085Y-82486500D01*
X128016000Y-82486500D01*
X128016000Y-80200500D01*
X128270000Y-80200500D01*
X128270000Y-82486500D01*
X129412915Y-82486500D01*
X129534904Y-82264461D01*
X129494246Y-82130413D01*
X129374037Y-81876080D01*
X129206519Y-81650086D01*
X128998131Y-81461115D01*
X128802018Y-81343500D01*
X128998131Y-81225885D01*
X129206519Y-81036914D01*
X129374037Y-80810920D01*
X129494246Y-80556587D01*
X129534904Y-80422539D01*
X129412915Y-80200500D01*
X128270000Y-80200500D01*
X128016000Y-80200500D01*
X126873085Y-80200500D01*
X126751096Y-80422539D01*
X121916690Y-80422539D01*
X121937236Y-80354809D01*
X121964943Y-80073500D01*
X121937236Y-79792191D01*
X121916691Y-79724461D01*
X126751096Y-79724461D01*
X126873085Y-79946500D01*
X128016000Y-79946500D01*
X128016000Y-78802876D01*
X128270000Y-78802876D01*
X128270000Y-79946500D01*
X129412915Y-79946500D01*
X129534904Y-79724461D01*
X129494246Y-79590413D01*
X129374037Y-79336080D01*
X129206519Y-79110086D01*
X128998131Y-78921115D01*
X128756881Y-78776430D01*
X128492040Y-78681591D01*
X128270000Y-78802876D01*
X128016000Y-78802876D01*
X127793960Y-78681591D01*
X127529119Y-78776430D01*
X127287869Y-78921115D01*
X127079481Y-79110086D01*
X126911963Y-79336080D01*
X126791754Y-79590413D01*
X126751096Y-79724461D01*
X121916691Y-79724461D01*
X121855182Y-79521692D01*
X121721932Y-79272399D01*
X121542608Y-79053892D01*
X121324101Y-78874568D01*
X121074808Y-78741318D01*
X120804309Y-78659264D01*
X120593492Y-78638500D01*
X120452508Y-78638500D01*
X120412661Y-78642425D01*
X115975499Y-74205264D01*
X115947659Y-74171341D01*
X115812291Y-74060247D01*
X115657851Y-73977697D01*
X115490274Y-73926864D01*
X115359667Y-73914000D01*
X115359660Y-73914000D01*
X115316000Y-73909700D01*
X115272340Y-73914000D01*
X114918795Y-73914000D01*
X114811608Y-73783392D01*
X114593101Y-73604068D01*
X114460142Y-73533000D01*
X114593101Y-73461932D01*
X114811608Y-73282608D01*
X114990932Y-73064101D01*
X115124182Y-72814808D01*
X115206236Y-72544309D01*
X115233943Y-72263000D01*
X115206236Y-71981691D01*
X115124182Y-71711192D01*
X114990932Y-71461899D01*
X114811608Y-71243392D01*
X114593101Y-71064068D01*
X114460142Y-70993000D01*
X114593101Y-70921932D01*
X114811608Y-70742608D01*
X114990932Y-70524101D01*
X115124182Y-70274808D01*
X115206236Y-70004309D01*
X115233943Y-69723000D01*
X115206236Y-69441691D01*
X115124182Y-69171192D01*
X114990932Y-68921899D01*
X114811608Y-68703392D01*
X114593101Y-68524068D01*
X114460142Y-68453000D01*
X114593101Y-68381932D01*
X114811608Y-68202608D01*
X114990932Y-67984101D01*
X115124182Y-67734808D01*
X115206236Y-67464309D01*
X115233943Y-67183000D01*
X115206236Y-66901691D01*
X115124182Y-66631192D01*
X114990932Y-66381899D01*
X114811608Y-66163392D01*
X114593101Y-65984068D01*
X114460142Y-65913000D01*
X114593101Y-65841932D01*
X114811608Y-65662608D01*
X114990932Y-65444101D01*
X115124182Y-65194808D01*
X115206236Y-64924309D01*
X115233943Y-64643000D01*
X115206236Y-64361691D01*
X115124182Y-64091192D01*
X114990932Y-63841899D01*
X114811608Y-63623392D01*
X114661254Y-63500000D01*
X114820765Y-63500000D01*
X120553563Y-69232798D01*
X120538602Y-69235774D01*
X120350244Y-69313795D01*
X120180726Y-69427063D01*
X120036563Y-69571226D01*
X119923295Y-69740744D01*
X119845274Y-69929102D01*
X119835370Y-69978895D01*
X119163259Y-70651006D01*
X119129342Y-70678841D01*
X119101507Y-70712758D01*
X119101505Y-70712760D01*
X119018248Y-70814209D01*
X118935698Y-70968648D01*
X118884864Y-71136226D01*
X118867700Y-71310500D01*
X118872001Y-71354170D01*
X118872000Y-74715032D01*
X118843795Y-74757244D01*
X118765774Y-74945602D01*
X118726000Y-75145561D01*
X118726000Y-75349439D01*
X118765774Y-75549398D01*
X118843795Y-75737756D01*
X118957063Y-75907274D01*
X119101226Y-76051437D01*
X119270744Y-76164705D01*
X119459102Y-76242726D01*
X119659061Y-76282500D01*
X119862939Y-76282500D01*
X120062898Y-76242726D01*
X120251256Y-76164705D01*
X120420774Y-76051437D01*
X120564937Y-75907274D01*
X120678205Y-75737756D01*
X120756226Y-75549398D01*
X120796000Y-75349439D01*
X120796000Y-75145561D01*
X120756226Y-74945602D01*
X120678205Y-74757244D01*
X120650000Y-74715032D01*
X120650000Y-71678735D01*
X121092605Y-71236130D01*
X121142398Y-71226226D01*
X121330756Y-71148205D01*
X121500274Y-71034937D01*
X121644437Y-70890774D01*
X121757705Y-70721256D01*
X121835726Y-70532898D01*
X121838702Y-70517937D01*
X135001000Y-83680236D01*
X135001001Y-95128108D01*
X134996700Y-95171778D01*
X135013864Y-95346052D01*
X135064698Y-95513630D01*
X135147248Y-95668069D01*
X135258342Y-95803437D01*
X135292259Y-95831272D01*
X140271244Y-100810258D01*
X140299075Y-100844170D01*
X140332987Y-100872001D01*
X140332992Y-100872006D01*
X140434441Y-100955263D01*
X140588880Y-101037813D01*
X140756458Y-101088647D01*
X140789658Y-101091917D01*
X140887067Y-101101511D01*
X140887073Y-101101511D01*
X140930733Y-101105811D01*
X140974393Y-101101511D01*
X146426598Y-101101509D01*
X146470268Y-101105810D01*
X146644542Y-101088646D01*
X146812120Y-101037812D01*
X146966559Y-100955262D01*
X147068008Y-100872005D01*
X147068010Y-100872003D01*
X147101927Y-100844168D01*
X147129762Y-100810251D01*
X148108504Y-99831510D01*
X154569330Y-99831510D01*
X154612990Y-99835810D01*
X154656650Y-99831510D01*
X154656657Y-99831510D01*
X154787264Y-99818646D01*
X154954841Y-99767813D01*
X155109281Y-99685263D01*
X155244649Y-99574169D01*
X155272489Y-99540246D01*
X156017605Y-98795130D01*
X156067398Y-98785226D01*
X156255756Y-98707205D01*
X156425274Y-98593937D01*
X156569437Y-98449774D01*
X156682705Y-98280256D01*
X156760726Y-98091898D01*
X156800500Y-97891939D01*
X156800500Y-97688061D01*
X156760726Y-97488102D01*
X156682705Y-97299744D01*
X156569437Y-97130226D01*
X156425274Y-96986063D01*
X156255756Y-96872795D01*
X156067398Y-96794774D01*
X155867439Y-96755000D01*
X155663561Y-96755000D01*
X155463602Y-96794774D01*
X155275244Y-96872795D01*
X155105726Y-96986063D01*
X154961563Y-97130226D01*
X154848295Y-97299744D01*
X154770274Y-97488102D01*
X154760370Y-97537895D01*
X154244755Y-98053510D01*
X148672500Y-98053510D01*
X148672500Y-97942061D01*
X148632726Y-97742102D01*
X148554705Y-97553744D01*
X148441437Y-97384226D01*
X148297274Y-97240063D01*
X148127756Y-97126795D01*
X147939398Y-97048774D01*
X147739439Y-97009000D01*
X147535561Y-97009000D01*
X147335602Y-97048774D01*
X147147244Y-97126795D01*
X146977726Y-97240063D01*
X146833563Y-97384226D01*
X146720295Y-97553744D01*
X146642274Y-97742102D01*
X146632370Y-97791895D01*
X145808765Y-98615500D01*
X141592236Y-98615500D01*
X137985500Y-95008765D01*
X137985500Y-83355660D01*
X137989800Y-83312000D01*
X137985500Y-83268340D01*
X137985500Y-83268333D01*
X137972636Y-83137726D01*
X137921803Y-82970149D01*
X137839253Y-82815709D01*
X137728159Y-82680341D01*
X137694243Y-82652507D01*
X119038736Y-63997000D01*
X121715428Y-63997000D01*
X121715428Y-65797000D01*
X121727688Y-65921482D01*
X121763998Y-66041180D01*
X121822963Y-66151494D01*
X121902315Y-66248185D01*
X121999006Y-66327537D01*
X122109320Y-66386502D01*
X122229018Y-66422812D01*
X122353500Y-66435072D01*
X124153500Y-66435072D01*
X124277982Y-66422812D01*
X124397680Y-66386502D01*
X124507994Y-66327537D01*
X124604685Y-66248185D01*
X124684037Y-66151494D01*
X124743002Y-66041180D01*
X124779312Y-65921482D01*
X124791572Y-65797000D01*
X124791572Y-63997000D01*
X131557928Y-63997000D01*
X131557928Y-65797000D01*
X131570188Y-65921482D01*
X131606498Y-66041180D01*
X131665463Y-66151494D01*
X131744815Y-66248185D01*
X131841506Y-66327537D01*
X131951820Y-66386502D01*
X132071518Y-66422812D01*
X132196000Y-66435072D01*
X133996000Y-66435072D01*
X134120482Y-66422812D01*
X134240180Y-66386502D01*
X134350494Y-66327537D01*
X134447185Y-66248185D01*
X134526537Y-66151494D01*
X134585502Y-66041180D01*
X134621812Y-65921482D01*
X134634072Y-65797000D01*
X134634072Y-63997000D01*
X134621812Y-63872518D01*
X134585502Y-63752820D01*
X134526537Y-63642506D01*
X134447185Y-63545815D01*
X134350494Y-63466463D01*
X134240180Y-63407498D01*
X134221873Y-63401944D01*
X134288312Y-63335505D01*
X134456299Y-63084095D01*
X134572011Y-62804743D01*
X134631000Y-62508184D01*
X134631000Y-62205816D01*
X134572011Y-61909257D01*
X134456299Y-61629905D01*
X134288312Y-61378495D01*
X134074505Y-61164688D01*
X133823095Y-60996701D01*
X133543743Y-60880989D01*
X133247184Y-60822000D01*
X132944816Y-60822000D01*
X132648257Y-60880989D01*
X132368905Y-60996701D01*
X132117495Y-61164688D01*
X131903688Y-61378495D01*
X131735701Y-61629905D01*
X131619989Y-61909257D01*
X131561000Y-62205816D01*
X131561000Y-62508184D01*
X131619989Y-62804743D01*
X131735701Y-63084095D01*
X131903688Y-63335505D01*
X131970127Y-63401944D01*
X131951820Y-63407498D01*
X131841506Y-63466463D01*
X131744815Y-63545815D01*
X131665463Y-63642506D01*
X131606498Y-63752820D01*
X131570188Y-63872518D01*
X131557928Y-63997000D01*
X124791572Y-63997000D01*
X124779312Y-63872518D01*
X124743002Y-63752820D01*
X124684037Y-63642506D01*
X124604685Y-63545815D01*
X124507994Y-63466463D01*
X124397680Y-63407498D01*
X124379373Y-63401944D01*
X124445812Y-63335505D01*
X124613799Y-63084095D01*
X124729511Y-62804743D01*
X124788500Y-62508184D01*
X124788500Y-62205816D01*
X124729511Y-61909257D01*
X124613799Y-61629905D01*
X124445812Y-61378495D01*
X124232005Y-61164688D01*
X123980595Y-60996701D01*
X123701243Y-60880989D01*
X123404684Y-60822000D01*
X123102316Y-60822000D01*
X122805757Y-60880989D01*
X122526405Y-60996701D01*
X122274995Y-61164688D01*
X122061188Y-61378495D01*
X121893201Y-61629905D01*
X121777489Y-61909257D01*
X121718500Y-62205816D01*
X121718500Y-62508184D01*
X121777489Y-62804743D01*
X121893201Y-63084095D01*
X122061188Y-63335505D01*
X122127627Y-63401944D01*
X122109320Y-63407498D01*
X121999006Y-63466463D01*
X121902315Y-63545815D01*
X121822963Y-63642506D01*
X121763998Y-63752820D01*
X121727688Y-63872518D01*
X121715428Y-63997000D01*
X119038736Y-63997000D01*
X115848499Y-60806764D01*
X115820659Y-60772841D01*
X115685291Y-60661747D01*
X115530851Y-60579197D01*
X115363274Y-60528364D01*
X115232667Y-60515500D01*
X115232660Y-60515500D01*
X115189000Y-60511200D01*
X115145340Y-60515500D01*
X101643668Y-60515500D01*
X101600000Y-60511199D01*
X101425725Y-60528364D01*
X101374892Y-60543784D01*
X101258149Y-60579197D01*
X101103709Y-60661747D01*
X100968341Y-60772841D01*
X100940506Y-60806758D01*
X98754262Y-62993003D01*
X98720340Y-63020842D01*
X98609246Y-63156210D01*
X98581564Y-63208000D01*
X98481508Y-63208000D01*
X98270691Y-63228764D01*
X98000192Y-63310818D01*
X97750899Y-63444068D01*
X97532392Y-63623392D01*
X97353068Y-63841899D01*
X97219818Y-64091192D01*
X97137764Y-64361691D01*
X97110057Y-64643000D01*
X94612142Y-64643000D01*
X94635537Y-64614494D01*
X94694502Y-64504180D01*
X94730812Y-64384482D01*
X94743072Y-64260000D01*
X94743072Y-62740000D01*
X94730812Y-62615518D01*
X94694502Y-62495820D01*
X94635537Y-62385506D01*
X94556185Y-62288815D01*
X94459494Y-62209463D01*
X94361000Y-62156816D01*
X94361000Y-61255840D01*
X95416841Y-60200000D01*
X137122160Y-60200000D01*
X146439292Y-69517133D01*
X146471104Y-69555896D01*
X146625810Y-69682860D01*
X146734104Y-69740744D01*
X146802312Y-69777202D01*
X146993829Y-69835298D01*
X147193000Y-69854915D01*
X147242902Y-69850000D01*
X147376541Y-69850000D01*
X147472061Y-69869000D01*
X147675939Y-69869000D01*
X147875898Y-69829226D01*
X148064256Y-69751205D01*
X148233774Y-69637937D01*
X148377937Y-69493774D01*
X148491205Y-69324256D01*
X148569226Y-69135898D01*
X148609000Y-68935939D01*
X148609000Y-68732061D01*
X148569226Y-68532102D01*
X148491205Y-68343744D01*
X148377937Y-68174226D01*
X148233774Y-68030063D01*
X148064256Y-67916795D01*
X147875898Y-67838774D01*
X147675939Y-67799000D01*
X147594841Y-67799000D01*
X141205185Y-61409344D01*
X161564000Y-61409344D01*
X161564000Y-61780656D01*
X161636439Y-62144834D01*
X161778534Y-62487882D01*
X161984825Y-62796618D01*
X162247382Y-63059175D01*
X162556118Y-63265466D01*
X162899166Y-63407561D01*
X163263344Y-63480000D01*
X163634656Y-63480000D01*
X163998834Y-63407561D01*
X164341882Y-63265466D01*
X164650618Y-63059175D01*
X164913175Y-62796618D01*
X165119466Y-62487882D01*
X165261561Y-62144834D01*
X165334000Y-61780656D01*
X165334000Y-61409344D01*
X165261561Y-61045166D01*
X165119466Y-60702118D01*
X164913175Y-60393382D01*
X164650618Y-60130825D01*
X164341882Y-59924534D01*
X163998834Y-59782439D01*
X163634656Y-59710000D01*
X163263344Y-59710000D01*
X162899166Y-59782439D01*
X162556118Y-59924534D01*
X162247382Y-60130825D01*
X161984825Y-60393382D01*
X161778534Y-60702118D01*
X161636439Y-61045166D01*
X161564000Y-61409344D01*
X141205185Y-61409344D01*
X138374730Y-58578890D01*
X166549001Y-58620941D01*
X166549000Y-110236000D01*
X105283000Y-110236000D01*
X105283000Y-105664000D01*
X105280560Y-105639224D01*
X105273333Y-105615399D01*
X105261597Y-105593443D01*
X105245803Y-105574197D01*
X105226557Y-105558403D01*
X105204601Y-105546667D01*
X105180776Y-105539440D01*
X105156000Y-105537000D01*
X100711000Y-105537000D01*
X100686224Y-105539440D01*
X100662399Y-105546667D01*
X100640443Y-105558403D01*
X100621197Y-105574197D01*
X100605403Y-105593443D01*
X100593667Y-105615399D01*
X100586440Y-105639224D01*
X100584000Y-105664000D01*
X100584000Y-110236000D01*
X82879000Y-110236000D01*
X82879000Y-100203000D01*
X97110057Y-100203000D01*
X97137764Y-100484309D01*
X97219818Y-100754808D01*
X97353068Y-101004101D01*
X97532392Y-101222608D01*
X97750899Y-101401932D01*
X98000192Y-101535182D01*
X98270691Y-101617236D01*
X98481508Y-101638000D01*
X98622492Y-101638000D01*
X98833309Y-101617236D01*
X99103808Y-101535182D01*
X99353101Y-101401932D01*
X99571608Y-101222608D01*
X99750932Y-101004101D01*
X99884182Y-100754808D01*
X99966236Y-100484309D01*
X99993943Y-100203000D01*
X99966236Y-99921691D01*
X99884182Y-99651192D01*
X99750932Y-99401899D01*
X99571608Y-99183392D01*
X99353101Y-99004068D01*
X99215318Y-98930421D01*
X99407131Y-98815385D01*
X99615519Y-98626414D01*
X99783037Y-98400420D01*
X99903246Y-98146087D01*
X99943904Y-98012039D01*
X99821915Y-97790000D01*
X98679000Y-97790000D01*
X98679000Y-97810000D01*
X98425000Y-97810000D01*
X98425000Y-97790000D01*
X97282085Y-97790000D01*
X97160096Y-98012039D01*
X97200754Y-98146087D01*
X97320963Y-98400420D01*
X97488481Y-98626414D01*
X97696869Y-98815385D01*
X97888682Y-98930421D01*
X97750899Y-99004068D01*
X97532392Y-99183392D01*
X97353068Y-99401899D01*
X97219818Y-99651192D01*
X97137764Y-99921691D01*
X97110057Y-100203000D01*
X82879000Y-100203000D01*
X82879000Y-90424000D01*
X86391815Y-90424000D01*
X86420487Y-90715111D01*
X86505401Y-90995034D01*
X86643294Y-91253014D01*
X86828866Y-91479134D01*
X87054986Y-91664706D01*
X87109791Y-91694000D01*
X87054986Y-91723294D01*
X86828866Y-91908866D01*
X86643294Y-92134986D01*
X86505401Y-92392966D01*
X86420487Y-92672889D01*
X86391815Y-92964000D01*
X86420487Y-93255111D01*
X86505401Y-93535034D01*
X86643294Y-93793014D01*
X86828866Y-94019134D01*
X86858687Y-94043607D01*
X86789820Y-94064498D01*
X86679506Y-94123463D01*
X86582815Y-94202815D01*
X86503463Y-94299506D01*
X86444498Y-94409820D01*
X86408188Y-94529518D01*
X86395928Y-94654000D01*
X86395928Y-96354000D01*
X86408188Y-96478482D01*
X86444498Y-96598180D01*
X86503463Y-96708494D01*
X86582815Y-96805185D01*
X86679506Y-96884537D01*
X86789820Y-96943502D01*
X86909518Y-96979812D01*
X87034000Y-96992072D01*
X88734000Y-96992072D01*
X88858482Y-96979812D01*
X88978180Y-96943502D01*
X89088494Y-96884537D01*
X89185185Y-96805185D01*
X89264537Y-96708494D01*
X89323502Y-96598180D01*
X89359812Y-96478482D01*
X89372072Y-96354000D01*
X89372072Y-94654000D01*
X89359812Y-94529518D01*
X89323502Y-94409820D01*
X89264537Y-94299506D01*
X89185185Y-94202815D01*
X89088494Y-94123463D01*
X88978180Y-94064498D01*
X88909313Y-94043607D01*
X88939134Y-94019134D01*
X89124706Y-93793014D01*
X89262599Y-93535034D01*
X89347513Y-93255111D01*
X89376185Y-92964000D01*
X89347513Y-92672889D01*
X89262599Y-92392966D01*
X89124706Y-92134986D01*
X88939134Y-91908866D01*
X88713014Y-91723294D01*
X88658209Y-91694000D01*
X88713014Y-91664706D01*
X88939134Y-91479134D01*
X89124706Y-91253014D01*
X89262599Y-90995034D01*
X89347513Y-90715111D01*
X89376185Y-90424000D01*
X89347513Y-90132889D01*
X89262599Y-89852966D01*
X89124706Y-89594986D01*
X88939134Y-89368866D01*
X88713014Y-89183294D01*
X88648477Y-89148799D01*
X88765355Y-89079178D01*
X88981588Y-88884269D01*
X89155641Y-88650920D01*
X89280825Y-88388099D01*
X89325476Y-88240890D01*
X89204155Y-88011000D01*
X88011000Y-88011000D01*
X88011000Y-88031000D01*
X87757000Y-88031000D01*
X87757000Y-88011000D01*
X86563845Y-88011000D01*
X86442524Y-88240890D01*
X86487175Y-88388099D01*
X86612359Y-88650920D01*
X86786412Y-88884269D01*
X87002645Y-89079178D01*
X87119523Y-89148799D01*
X87054986Y-89183294D01*
X86828866Y-89368866D01*
X86643294Y-89594986D01*
X86505401Y-89852966D01*
X86420487Y-90132889D01*
X86391815Y-90424000D01*
X82879000Y-90424000D01*
X82879000Y-87527110D01*
X86442524Y-87527110D01*
X86563845Y-87757000D01*
X87757000Y-87757000D01*
X87757000Y-86563186D01*
X88011000Y-86563186D01*
X88011000Y-87757000D01*
X89204155Y-87757000D01*
X89325476Y-87527110D01*
X89280825Y-87379901D01*
X89155641Y-87117080D01*
X88981588Y-86883731D01*
X88765355Y-86688822D01*
X88515252Y-86539843D01*
X88240891Y-86442519D01*
X88011000Y-86563186D01*
X87757000Y-86563186D01*
X87527109Y-86442519D01*
X87252748Y-86539843D01*
X87002645Y-86688822D01*
X86786412Y-86883731D01*
X86612359Y-87117080D01*
X86487175Y-87379901D01*
X86442524Y-87527110D01*
X82879000Y-87527110D01*
X82879000Y-75628500D01*
X86487000Y-75628500D01*
X86487000Y-85344000D01*
X86489440Y-85368776D01*
X86496667Y-85392601D01*
X86508403Y-85414557D01*
X86524197Y-85433803D01*
X86543443Y-85449597D01*
X86565399Y-85461333D01*
X86589224Y-85468560D01*
X86614000Y-85471000D01*
X93218000Y-85471000D01*
X93242776Y-85468560D01*
X93266601Y-85461333D01*
X93288557Y-85449597D01*
X93307803Y-85433803D01*
X93323597Y-85414557D01*
X93335333Y-85392601D01*
X93342560Y-85368776D01*
X93345000Y-85344000D01*
X93345000Y-75692000D01*
X93342792Y-75668422D01*
X93335795Y-75644530D01*
X93324270Y-75622461D01*
X93308662Y-75603065D01*
X93289569Y-75587087D01*
X93267727Y-75575140D01*
X93243973Y-75567684D01*
X93219221Y-75565006D01*
X86615221Y-75501506D01*
X86589224Y-75503940D01*
X86565399Y-75511167D01*
X86543443Y-75522903D01*
X86524197Y-75538697D01*
X86508403Y-75557943D01*
X86496667Y-75579899D01*
X86489440Y-75603724D01*
X86487000Y-75628500D01*
X82879000Y-75628500D01*
X82879000Y-74117605D01*
X88782000Y-74117605D01*
X88907914Y-74407577D01*
X89240126Y-74573433D01*
X89598312Y-74671290D01*
X89968706Y-74697389D01*
X90337075Y-74650725D01*
X90689262Y-74533094D01*
X90924086Y-74407577D01*
X91050000Y-74117605D01*
X89916000Y-72983605D01*
X88782000Y-74117605D01*
X82879000Y-74117605D01*
X82879000Y-72856706D01*
X88022611Y-72856706D01*
X88069275Y-73225075D01*
X88186906Y-73577262D01*
X88312423Y-73812086D01*
X88602395Y-73938000D01*
X89736395Y-72804000D01*
X90095605Y-72804000D01*
X91229605Y-73938000D01*
X91519577Y-73812086D01*
X91685433Y-73479874D01*
X91783290Y-73121688D01*
X91809389Y-72751294D01*
X91762725Y-72382925D01*
X91645094Y-72030738D01*
X91519577Y-71795914D01*
X91229605Y-71670000D01*
X90095605Y-72804000D01*
X89736395Y-72804000D01*
X88602395Y-71670000D01*
X88312423Y-71795914D01*
X88146567Y-72128126D01*
X88048710Y-72486312D01*
X88022611Y-72856706D01*
X82879000Y-72856706D01*
X82879000Y-71490395D01*
X88782000Y-71490395D01*
X89916000Y-72624395D01*
X91050000Y-71490395D01*
X90924086Y-71200423D01*
X90591874Y-71034567D01*
X90233688Y-70936710D01*
X89863294Y-70910611D01*
X89494925Y-70957275D01*
X89142738Y-71074906D01*
X88907914Y-71200423D01*
X88782000Y-71490395D01*
X82879000Y-71490395D01*
X82879000Y-69544137D01*
X92560469Y-69544137D01*
X92627206Y-69784025D01*
X92875892Y-69900924D01*
X93142606Y-69967061D01*
X93417097Y-69979895D01*
X93688817Y-69938931D01*
X93947326Y-69845744D01*
X94062794Y-69784025D01*
X94129531Y-69544137D01*
X93345000Y-68759605D01*
X92560469Y-69544137D01*
X82879000Y-69544137D01*
X82879000Y-68652097D01*
X91945105Y-68652097D01*
X91986069Y-68923817D01*
X92079256Y-69182326D01*
X92140975Y-69297794D01*
X92380863Y-69364531D01*
X93165395Y-68580000D01*
X93524605Y-68580000D01*
X94309137Y-69364531D01*
X94549025Y-69297794D01*
X94665924Y-69049108D01*
X94732061Y-68782394D01*
X94744895Y-68507903D01*
X94703931Y-68236183D01*
X94610744Y-67977674D01*
X94549025Y-67862206D01*
X94309137Y-67795469D01*
X93524605Y-68580000D01*
X93165395Y-68580000D01*
X92380863Y-67795469D01*
X92140975Y-67862206D01*
X92024076Y-68110892D01*
X91957939Y-68377606D01*
X91945105Y-68652097D01*
X82879000Y-68652097D01*
X82879000Y-61536344D01*
X84983000Y-61536344D01*
X84983000Y-61907656D01*
X85055439Y-62271834D01*
X85197534Y-62614882D01*
X85403825Y-62923618D01*
X85666382Y-63186175D01*
X85975118Y-63392466D01*
X86318166Y-63534561D01*
X86682344Y-63607000D01*
X87053656Y-63607000D01*
X87417834Y-63534561D01*
X87760882Y-63392466D01*
X88069618Y-63186175D01*
X88332175Y-62923618D01*
X88538466Y-62614882D01*
X88680561Y-62271834D01*
X88753000Y-61907656D01*
X88753000Y-61536344D01*
X88680561Y-61172166D01*
X88538466Y-60829118D01*
X88332175Y-60520382D01*
X88069618Y-60257825D01*
X87760882Y-60051534D01*
X87417834Y-59909439D01*
X87053656Y-59837000D01*
X86682344Y-59837000D01*
X86318166Y-59909439D01*
X85975118Y-60051534D01*
X85666382Y-60257825D01*
X85403825Y-60520382D01*
X85197534Y-60829118D01*
X85055439Y-61172166D01*
X84983000Y-61536344D01*
X82879000Y-61536344D01*
X82879000Y-58496060D01*
X94230157Y-58513002D01*
M02*
