G04 #@! TF.GenerationSoftware,KiCad,Pcbnew,5.1.2-f72e74a~84~ubuntu18.04.1*
G04 #@! TF.CreationDate,2019-06-24T12:10:09-06:00*
G04 #@! TF.ProjectId,LORA_Relay_AC,4c4f5241-5f52-4656-9c61-795f41432e6b,rev?*
G04 #@! TF.SameCoordinates,Original*
G04 #@! TF.FileFunction,Legend,Top*
G04 #@! TF.FilePolarity,Positive*
%FSLAX46Y46*%
G04 Gerber Fmt 4.6, Leading zero omitted, Abs format (unit mm)*
G04 Created by KiCad (PCBNEW 5.1.2-f72e74a~84~ubuntu18.04.1) date 2019-06-24 12:10:09*
%MOMM*%
%LPD*%
G04 APERTURE LIST*
%ADD10C,0.300000*%
%ADD11C,0.200000*%
%ADD12C,0.120000*%
%ADD13C,0.150000*%
%ADD14C,0.010000*%
%ADD15C,0.127000*%
G04 APERTURE END LIST*
D10*
X125410000Y-103567571D02*
X124695714Y-103567571D01*
X124624285Y-104281857D01*
X124695714Y-104210428D01*
X124838571Y-104139000D01*
X125195714Y-104139000D01*
X125338571Y-104210428D01*
X125410000Y-104281857D01*
X125481428Y-104424714D01*
X125481428Y-104781857D01*
X125410000Y-104924714D01*
X125338571Y-104996142D01*
X125195714Y-105067571D01*
X124838571Y-105067571D01*
X124695714Y-104996142D01*
X124624285Y-104924714D01*
X126052857Y-104639000D02*
X126767142Y-104639000D01*
X125910000Y-105067571D02*
X126410000Y-103567571D01*
X126910000Y-105067571D01*
X127410000Y-105067571D02*
X127410000Y-104067571D01*
X127410000Y-104210428D02*
X127481428Y-104139000D01*
X127624285Y-104067571D01*
X127838571Y-104067571D01*
X127981428Y-104139000D01*
X128052857Y-104281857D01*
X128052857Y-105067571D01*
X128052857Y-104281857D02*
X128124285Y-104139000D01*
X128267142Y-104067571D01*
X128481428Y-104067571D01*
X128624285Y-104139000D01*
X128695714Y-104281857D01*
X128695714Y-105067571D01*
X129410000Y-104067571D02*
X129410000Y-105567571D01*
X129410000Y-104139000D02*
X129552857Y-104067571D01*
X129838571Y-104067571D01*
X129981428Y-104139000D01*
X130052857Y-104210428D01*
X130124285Y-104353285D01*
X130124285Y-104781857D01*
X130052857Y-104924714D01*
X129981428Y-104996142D01*
X129838571Y-105067571D01*
X129552857Y-105067571D01*
X129410000Y-104996142D01*
X131910000Y-105067571D02*
X131910000Y-104067571D01*
X131910000Y-104210428D02*
X131981428Y-104139000D01*
X132124285Y-104067571D01*
X132338571Y-104067571D01*
X132481428Y-104139000D01*
X132552857Y-104281857D01*
X132552857Y-105067571D01*
X132552857Y-104281857D02*
X132624285Y-104139000D01*
X132767142Y-104067571D01*
X132981428Y-104067571D01*
X133124285Y-104139000D01*
X133195714Y-104281857D01*
X133195714Y-105067571D01*
X134552857Y-105067571D02*
X134552857Y-104281857D01*
X134481428Y-104139000D01*
X134338571Y-104067571D01*
X134052857Y-104067571D01*
X133910000Y-104139000D01*
X134552857Y-104996142D02*
X134410000Y-105067571D01*
X134052857Y-105067571D01*
X133910000Y-104996142D01*
X133838571Y-104853285D01*
X133838571Y-104710428D01*
X133910000Y-104567571D01*
X134052857Y-104496142D01*
X134410000Y-104496142D01*
X134552857Y-104424714D01*
X135124285Y-105067571D02*
X135910000Y-104067571D01*
X135124285Y-104067571D02*
X135910000Y-105067571D01*
X138195714Y-104996142D02*
X138052857Y-105067571D01*
X137767142Y-105067571D01*
X137624285Y-104996142D01*
X137552857Y-104853285D01*
X137552857Y-104281857D01*
X137624285Y-104139000D01*
X137767142Y-104067571D01*
X138052857Y-104067571D01*
X138195714Y-104139000D01*
X138267142Y-104281857D01*
X138267142Y-104424714D01*
X137552857Y-104567571D01*
X139552857Y-105067571D02*
X139552857Y-104281857D01*
X139481428Y-104139000D01*
X139338571Y-104067571D01*
X139052857Y-104067571D01*
X138910000Y-104139000D01*
X139552857Y-104996142D02*
X139410000Y-105067571D01*
X139052857Y-105067571D01*
X138910000Y-104996142D01*
X138838571Y-104853285D01*
X138838571Y-104710428D01*
X138910000Y-104567571D01*
X139052857Y-104496142D01*
X139410000Y-104496142D01*
X139552857Y-104424714D01*
X140267142Y-104924714D02*
X140338571Y-104996142D01*
X140267142Y-105067571D01*
X140195714Y-104996142D01*
X140267142Y-104924714D01*
X140267142Y-105067571D01*
X142910000Y-105067571D02*
X142052857Y-105067571D01*
X142481428Y-105067571D02*
X142481428Y-103567571D01*
X142338571Y-103781857D01*
X142195714Y-103924714D01*
X142052857Y-103996142D01*
X143481428Y-103710428D02*
X143552857Y-103639000D01*
X143695714Y-103567571D01*
X144052857Y-103567571D01*
X144195714Y-103639000D01*
X144267142Y-103710428D01*
X144338571Y-103853285D01*
X144338571Y-103996142D01*
X144267142Y-104210428D01*
X143410000Y-105067571D01*
X144338571Y-105067571D01*
X145267142Y-103567571D02*
X145410000Y-103567571D01*
X145552857Y-103639000D01*
X145624285Y-103710428D01*
X145695714Y-103853285D01*
X145767142Y-104139000D01*
X145767142Y-104496142D01*
X145695714Y-104781857D01*
X145624285Y-104924714D01*
X145552857Y-104996142D01*
X145410000Y-105067571D01*
X145267142Y-105067571D01*
X145124285Y-104996142D01*
X145052857Y-104924714D01*
X144981428Y-104781857D01*
X144910000Y-104496142D01*
X144910000Y-104139000D01*
X144981428Y-103853285D01*
X145052857Y-103710428D01*
X145124285Y-103639000D01*
X145267142Y-103567571D01*
X146195714Y-103567571D02*
X146695714Y-105067571D01*
X147195714Y-103567571D01*
X148338571Y-105067571D02*
X148338571Y-104281857D01*
X148267142Y-104139000D01*
X148124285Y-104067571D01*
X147838571Y-104067571D01*
X147695714Y-104139000D01*
X148338571Y-104996142D02*
X148195714Y-105067571D01*
X147838571Y-105067571D01*
X147695714Y-104996142D01*
X147624285Y-104853285D01*
X147624285Y-104710428D01*
X147695714Y-104567571D01*
X147838571Y-104496142D01*
X148195714Y-104496142D01*
X148338571Y-104424714D01*
X149695714Y-104996142D02*
X149552857Y-105067571D01*
X149267142Y-105067571D01*
X149124285Y-104996142D01*
X149052857Y-104924714D01*
X148981428Y-104781857D01*
X148981428Y-104353285D01*
X149052857Y-104210428D01*
X149124285Y-104139000D01*
X149267142Y-104067571D01*
X149552857Y-104067571D01*
X149695714Y-104139000D01*
X128695714Y-107617571D02*
X128695714Y-106617571D01*
X128695714Y-106903285D02*
X128767142Y-106760428D01*
X128838571Y-106689000D01*
X128981428Y-106617571D01*
X129124285Y-106617571D01*
X130195714Y-107546142D02*
X130052857Y-107617571D01*
X129767142Y-107617571D01*
X129624285Y-107546142D01*
X129552857Y-107403285D01*
X129552857Y-106831857D01*
X129624285Y-106689000D01*
X129767142Y-106617571D01*
X130052857Y-106617571D01*
X130195714Y-106689000D01*
X130267142Y-106831857D01*
X130267142Y-106974714D01*
X129552857Y-107117571D01*
X130767142Y-106617571D02*
X131124285Y-107617571D01*
X131481428Y-106617571D01*
X133981428Y-107617571D02*
X133124285Y-107617571D01*
X133552857Y-107617571D02*
X133552857Y-106117571D01*
X133410000Y-106331857D01*
X133267142Y-106474714D01*
X133124285Y-106546142D01*
X134624285Y-107474714D02*
X134695714Y-107546142D01*
X134624285Y-107617571D01*
X134552857Y-107546142D01*
X134624285Y-107474714D01*
X134624285Y-107617571D01*
X135267142Y-106260428D02*
X135338571Y-106189000D01*
X135481428Y-106117571D01*
X135838571Y-106117571D01*
X135981428Y-106189000D01*
X136052857Y-106260428D01*
X136124285Y-106403285D01*
X136124285Y-106546142D01*
X136052857Y-106760428D01*
X135195714Y-107617571D01*
X136124285Y-107617571D01*
X139338571Y-106117571D02*
X139481428Y-106117571D01*
X139624285Y-106189000D01*
X139695714Y-106260428D01*
X139767142Y-106403285D01*
X139838571Y-106689000D01*
X139838571Y-107046142D01*
X139767142Y-107331857D01*
X139695714Y-107474714D01*
X139624285Y-107546142D01*
X139481428Y-107617571D01*
X139338571Y-107617571D01*
X139195714Y-107546142D01*
X139124285Y-107474714D01*
X139052857Y-107331857D01*
X138981428Y-107046142D01*
X138981428Y-106689000D01*
X139052857Y-106403285D01*
X139124285Y-106260428D01*
X139195714Y-106189000D01*
X139338571Y-106117571D01*
X140338571Y-106117571D02*
X141267142Y-106117571D01*
X140767142Y-106689000D01*
X140981428Y-106689000D01*
X141124285Y-106760428D01*
X141195714Y-106831857D01*
X141267142Y-106974714D01*
X141267142Y-107331857D01*
X141195714Y-107474714D01*
X141124285Y-107546142D01*
X140981428Y-107617571D01*
X140552857Y-107617571D01*
X140410000Y-107546142D01*
X140338571Y-107474714D01*
X142981428Y-106046142D02*
X141695714Y-107974714D01*
X144267142Y-107617571D02*
X143410000Y-107617571D01*
X143838571Y-107617571D02*
X143838571Y-106117571D01*
X143695714Y-106331857D01*
X143552857Y-106474714D01*
X143410000Y-106546142D01*
X144981428Y-107617571D02*
X145267142Y-107617571D01*
X145410000Y-107546142D01*
X145481428Y-107474714D01*
X145624285Y-107260428D01*
X145695714Y-106974714D01*
X145695714Y-106403285D01*
X145624285Y-106260428D01*
X145552857Y-106189000D01*
X145410000Y-106117571D01*
X145124285Y-106117571D01*
X144981428Y-106189000D01*
X144910000Y-106260428D01*
X144838571Y-106403285D01*
X144838571Y-106760428D01*
X144910000Y-106903285D01*
X144981428Y-106974714D01*
X145124285Y-107046142D01*
X145410000Y-107046142D01*
X145552857Y-106974714D01*
X145624285Y-106903285D01*
X145695714Y-106760428D01*
D11*
X102552500Y-58293000D02*
X102489000Y-58356500D01*
X102489000Y-68453000D02*
X102489000Y-58356500D01*
X109982000Y-68453000D02*
X102489000Y-68453000D01*
X109982000Y-58293000D02*
X109982000Y-68453000D01*
X102489000Y-58293000D02*
X109982000Y-58293000D01*
D12*
X89214000Y-86554000D02*
X86554000Y-86554000D01*
X89214000Y-94234000D02*
X89214000Y-86554000D01*
X86554000Y-94234000D02*
X86554000Y-86554000D01*
X89214000Y-94234000D02*
X86554000Y-94234000D01*
X89214000Y-95504000D02*
X89214000Y-96834000D01*
X89214000Y-96834000D02*
X87884000Y-96834000D01*
D13*
X84836000Y-106934000D02*
X84836000Y-107950000D01*
X105156000Y-106934000D02*
X84836000Y-106934000D01*
X105156000Y-141351000D02*
X105156000Y-106934000D01*
X84836000Y-141351000D02*
X105156000Y-141351000D01*
X84836000Y-107950000D02*
X84836000Y-141351000D01*
X154686000Y-74676000D02*
X157226000Y-74676000D01*
X154686000Y-73406000D02*
X154686000Y-74676000D01*
X140208000Y-73406000D02*
X157226000Y-73406000D01*
X140208000Y-89662000D02*
X140208000Y-73406000D01*
X157226000Y-89662000D02*
X140208000Y-89662000D01*
X157226000Y-73406000D02*
X157226000Y-89662000D01*
X105806000Y-149379000D02*
G75*
G03X105806000Y-149379000I-2000000J0D01*
G01*
X100806000Y-149379000D02*
G75*
G03X100806000Y-149379000I-2000000J0D01*
G01*
X95806000Y-149379000D02*
G75*
G03X95806000Y-149379000I-2000000J0D01*
G01*
X106306000Y-154679000D02*
X106306000Y-144879000D01*
X91306000Y-154679000D02*
X106306000Y-154679000D01*
X91306000Y-144879000D02*
X91306000Y-154679000D01*
X106306000Y-144879000D02*
X91306000Y-144879000D01*
X106306000Y-145379000D02*
X91306000Y-145379000D01*
X106306000Y-151779000D02*
X91306000Y-151779000D01*
X106306000Y-146879000D02*
X91306000Y-146879000D01*
X101306000Y-145379000D02*
X101306000Y-144879000D01*
X96306000Y-145379000D02*
X96306000Y-144879000D01*
D12*
X122244000Y-121028000D02*
X115644000Y-121028000D01*
X131244000Y-121028000D02*
X124644000Y-121028000D01*
X131244000Y-121028000D02*
X131244000Y-140828000D01*
X131244000Y-140828000D02*
X115644000Y-140828000D01*
X115644000Y-140828000D02*
X115644000Y-121028000D01*
X119244000Y-136578000D02*
X121694000Y-136578000D01*
X127644000Y-136578000D02*
X125144000Y-136578000D01*
X117394000Y-125978000D02*
X117394000Y-128478000D01*
X123394000Y-125078000D02*
X123394000Y-124278000D01*
X129394000Y-128478000D02*
X129394000Y-125978000D01*
X123394000Y-131878000D02*
X123394000Y-133378000D01*
X123394000Y-133378000D02*
X125894000Y-137978000D01*
X119794000Y-131878000D02*
X119794000Y-125078000D01*
X123394000Y-131878000D02*
X119794000Y-131878000D01*
X123394000Y-125078000D02*
X119794000Y-125078000D01*
X129394000Y-128478000D02*
X125194000Y-128478000D01*
X121594000Y-128478000D02*
X117394000Y-128478000D01*
X121594000Y-130478000D02*
X125194000Y-126478000D01*
X121594000Y-126478000D02*
X125194000Y-126478000D01*
X125194000Y-126478000D02*
X125194000Y-130478000D01*
X125194000Y-130478000D02*
X121594000Y-130478000D01*
X121594000Y-130478000D02*
X121594000Y-126478000D01*
X150550000Y-130605000D02*
X150550000Y-126605000D01*
X154150000Y-130605000D02*
X150550000Y-130605000D01*
X154150000Y-126605000D02*
X154150000Y-130605000D01*
X150550000Y-126605000D02*
X154150000Y-126605000D01*
X150550000Y-130605000D02*
X154150000Y-126605000D01*
X150550000Y-128605000D02*
X146350000Y-128605000D01*
X158350000Y-128605000D02*
X154150000Y-128605000D01*
X152350000Y-125205000D02*
X148750000Y-125205000D01*
X152350000Y-132005000D02*
X148750000Y-132005000D01*
X148750000Y-132005000D02*
X148750000Y-125205000D01*
X152350000Y-133505000D02*
X154850000Y-138105000D01*
X152350000Y-132005000D02*
X152350000Y-133505000D01*
X158350000Y-128605000D02*
X158350000Y-126105000D01*
X152350000Y-125205000D02*
X152350000Y-124405000D01*
X146350000Y-126105000D02*
X146350000Y-128605000D01*
X156600000Y-136705000D02*
X154100000Y-136705000D01*
X148200000Y-136705000D02*
X150650000Y-136705000D01*
X144600000Y-140955000D02*
X144600000Y-121155000D01*
X160200000Y-140955000D02*
X144600000Y-140955000D01*
X160200000Y-121155000D02*
X160200000Y-140955000D01*
X160200000Y-121155000D02*
X153600000Y-121155000D01*
X151200000Y-121155000D02*
X144600000Y-121155000D01*
X150777001Y-71208000D02*
X151777001Y-71208000D01*
X151777001Y-69508000D02*
X150777001Y-69508000D01*
X147027000Y-65290001D02*
X147027000Y-64290001D01*
X145327000Y-64290001D02*
X145327000Y-65290001D01*
X94068000Y-95226000D02*
X94068000Y-94226000D01*
X92368000Y-94226000D02*
X92368000Y-95226000D01*
X121708500Y-66187000D02*
X124798500Y-66187000D01*
X125753500Y-63627000D02*
G75*
G03X125753500Y-63627000I-2500000J0D01*
G01*
X123253038Y-60637000D02*
G75*
G02X124798330Y-66187000I462J-2990000D01*
G01*
X123253962Y-60637000D02*
G75*
G03X121708670Y-66187000I-462J-2990000D01*
G01*
X133096462Y-60637000D02*
G75*
G03X131551170Y-66187000I-462J-2990000D01*
G01*
X133095538Y-60637000D02*
G75*
G02X134640830Y-66187000I462J-2990000D01*
G01*
X135596000Y-63627000D02*
G75*
G03X135596000Y-63627000I-2500000J0D01*
G01*
X131551000Y-66187000D02*
X134641000Y-66187000D01*
X121038000Y-115303000D02*
X121038000Y-118123000D01*
X121038000Y-118123000D02*
X126358000Y-118123000D01*
X126358000Y-118123000D02*
X126358000Y-115303000D01*
X126358000Y-115303000D02*
X121038000Y-115303000D01*
X120968000Y-116713000D02*
X121038000Y-116713000D01*
X126428000Y-116713000D02*
X126358000Y-116713000D01*
X121878000Y-115303000D02*
X121878000Y-118123000D01*
X150834000Y-115303000D02*
X150834000Y-118123000D01*
X155384000Y-116713000D02*
X155314000Y-116713000D01*
X149924000Y-116713000D02*
X149994000Y-116713000D01*
X155314000Y-115303000D02*
X149994000Y-115303000D01*
X155314000Y-118123000D02*
X155314000Y-115303000D01*
X149994000Y-118123000D02*
X155314000Y-118123000D01*
X149994000Y-115303000D02*
X149994000Y-118123000D01*
X112236000Y-133973000D02*
X112236000Y-137173000D01*
X108236000Y-137173000D02*
X108236000Y-133973000D01*
X110236000Y-134823000D02*
X110236000Y-136423000D01*
X139192000Y-134950000D02*
X139192000Y-136550000D01*
X137192000Y-137300000D02*
X137192000Y-134100000D01*
X141192000Y-134100000D02*
X141192000Y-137300000D01*
X133446000Y-67192000D02*
X134646000Y-67192000D01*
X134646000Y-68952000D02*
X133446000Y-68952000D01*
X124803499Y-68952000D02*
X123603499Y-68952000D01*
X123603499Y-67192000D02*
X124803499Y-67192000D01*
X123282000Y-108449000D02*
X122082000Y-108449000D01*
X122082000Y-106689000D02*
X123282000Y-106689000D01*
X120532000Y-111537001D02*
X120532000Y-110337001D01*
X122292000Y-110337001D02*
X122292000Y-111537001D01*
X150758000Y-95276000D02*
X150758000Y-94076000D01*
X152518000Y-94076000D02*
X152518000Y-95276000D01*
X154550000Y-95221500D02*
X154550000Y-96421500D01*
X152790000Y-96421500D02*
X152790000Y-95221500D01*
X154822000Y-95276000D02*
X154822000Y-94076000D01*
X156582000Y-94076000D02*
X156582000Y-95276000D01*
X158677500Y-95219000D02*
X158677500Y-96419000D01*
X156917500Y-96419000D02*
X156917500Y-95219000D01*
X148454000Y-94076000D02*
X148454000Y-95276000D01*
X146694000Y-95276000D02*
X146694000Y-94076000D01*
X148662500Y-96421500D02*
X148662500Y-95221500D01*
X150422500Y-95221500D02*
X150422500Y-96421500D01*
X144390000Y-94081001D02*
X144390000Y-95281001D01*
X142630000Y-95281001D02*
X142630000Y-94081001D01*
X144662000Y-96421500D02*
X144662000Y-95221500D01*
X146422000Y-95221500D02*
X146422000Y-96421500D01*
X150596001Y-106943000D02*
X151796001Y-106943000D01*
X151796001Y-108703000D02*
X150596001Y-108703000D01*
X150740000Y-110586000D02*
X150740000Y-111786000D01*
X148980000Y-111786000D02*
X148980000Y-110586000D01*
X128436000Y-94313501D02*
X123936000Y-94313501D01*
X129686000Y-98313501D02*
X129686000Y-96813501D01*
X123936000Y-100813501D02*
X128436000Y-100813501D01*
X122686000Y-96813501D02*
X122686000Y-98313501D01*
X112522000Y-98933000D02*
X112522000Y-101473000D01*
X112522000Y-101473000D02*
X115192000Y-101473000D01*
X115192000Y-98933000D02*
X115192000Y-60703000D01*
X115192000Y-104143000D02*
X115192000Y-101473000D01*
X99822000Y-101473000D02*
X97152000Y-101473000D01*
X99822000Y-101473000D02*
X99822000Y-63373000D01*
X99822000Y-63373000D02*
X97152000Y-63373000D01*
X112522000Y-98933000D02*
X115192000Y-98933000D01*
X112522000Y-98933000D02*
X112522000Y-63373000D01*
X112522000Y-63373000D02*
X115192000Y-63373000D01*
X115192000Y-60703000D02*
X97152000Y-60703000D01*
X97152000Y-60703000D02*
X97152000Y-104143000D01*
X97152000Y-104143000D02*
X115192000Y-104143000D01*
D13*
X116198000Y-145506000D02*
X116198000Y-145006000D01*
X121198000Y-145506000D02*
X121198000Y-145006000D01*
X126198000Y-145506000D02*
X126198000Y-145006000D01*
X131198000Y-147006000D02*
X111198000Y-147006000D01*
X131198000Y-151906000D02*
X111198000Y-151906000D01*
X131198000Y-145506000D02*
X111198000Y-145506000D01*
X131198000Y-145006000D02*
X111198000Y-145006000D01*
X111198000Y-145006000D02*
X111198000Y-154806000D01*
X111198000Y-154806000D02*
X131198000Y-154806000D01*
X131198000Y-154806000D02*
X131198000Y-145006000D01*
X115698000Y-149506000D02*
G75*
G03X115698000Y-149506000I-2000000J0D01*
G01*
X120698000Y-149506000D02*
G75*
G03X120698000Y-149506000I-2000000J0D01*
G01*
X125698000Y-149506000D02*
G75*
G03X125698000Y-149506000I-2000000J0D01*
G01*
X130698000Y-149506000D02*
G75*
G03X130698000Y-149506000I-2000000J0D01*
G01*
X159400000Y-149506000D02*
G75*
G03X159400000Y-149506000I-2000000J0D01*
G01*
X154400000Y-149506000D02*
G75*
G03X154400000Y-149506000I-2000000J0D01*
G01*
X149400000Y-149506000D02*
G75*
G03X149400000Y-149506000I-2000000J0D01*
G01*
X144400000Y-149506000D02*
G75*
G03X144400000Y-149506000I-2000000J0D01*
G01*
X159900000Y-154806000D02*
X159900000Y-145006000D01*
X139900000Y-154806000D02*
X159900000Y-154806000D01*
X139900000Y-145006000D02*
X139900000Y-154806000D01*
X159900000Y-145006000D02*
X139900000Y-145006000D01*
X159900000Y-145506000D02*
X139900000Y-145506000D01*
X159900000Y-151906000D02*
X139900000Y-151906000D01*
X159900000Y-147006000D02*
X139900000Y-147006000D01*
X154900000Y-145506000D02*
X154900000Y-145006000D01*
X149900000Y-145506000D02*
X149900000Y-145006000D01*
X144900000Y-145506000D02*
X144900000Y-145006000D01*
D12*
X125474000Y-112578000D02*
X124014000Y-112578000D01*
X125474000Y-109418000D02*
X123314000Y-109418000D01*
X125474000Y-109418000D02*
X125474000Y-110348000D01*
X125474000Y-112578000D02*
X125474000Y-111648000D01*
X153938000Y-112705000D02*
X153938000Y-111775000D01*
X153938000Y-109545000D02*
X153938000Y-110475000D01*
X153938000Y-109545000D02*
X151778000Y-109545000D01*
X153938000Y-112705000D02*
X152478000Y-112705000D01*
X91495000Y-64240000D02*
X91495000Y-67840000D01*
X92222205Y-63715816D02*
G75*
G03X91495000Y-64240000I1122795J-2324184D01*
G01*
X94443807Y-63683600D02*
G75*
G02X95945000Y-66040000I-1098807J-2356400D01*
G01*
X94443807Y-68396400D02*
G75*
G03X95945000Y-66040000I-1098807J2356400D01*
G01*
X92222205Y-68364184D02*
G75*
G02X91495000Y-67840000I1122795J2324184D01*
G01*
X155046999Y-69069000D02*
X155046999Y-67809000D01*
X155046999Y-62249000D02*
X155046999Y-63509000D01*
X151286999Y-69069000D02*
X155046999Y-69069000D01*
X149036999Y-62249000D02*
X155046999Y-62249000D01*
X94261500Y-99912500D02*
X89681500Y-99912500D01*
X95021500Y-100672500D02*
X94261500Y-99912500D01*
X94261500Y-105242500D02*
X95021500Y-104482500D01*
X89681500Y-105242500D02*
X94261500Y-105242500D01*
X95021500Y-104482500D02*
X95021500Y-103692500D01*
X95021500Y-100672500D02*
X95021500Y-101462500D01*
X89681500Y-99912500D02*
X89681500Y-101462500D01*
X89681500Y-105242500D02*
X89681500Y-103692500D01*
X163655000Y-71906000D02*
X163655000Y-72706000D01*
X163455000Y-71906000D02*
X163655000Y-71906000D01*
X163655000Y-74906000D02*
X163455000Y-74906000D01*
X163655000Y-74106000D02*
X163655000Y-74906000D01*
X160655000Y-74906000D02*
X160655000Y-74106000D01*
X160855000Y-74906000D02*
X160655000Y-74906000D01*
X160655000Y-72106000D02*
X160855000Y-71906000D01*
X160655000Y-72706000D02*
X160655000Y-72106000D01*
D13*
X92016000Y-82804000D02*
G75*
G03X92016000Y-82804000I-2000000J0D01*
G01*
X92016000Y-77804000D02*
G75*
G03X92016000Y-77804000I-2000000J0D01*
G01*
X92016000Y-72804000D02*
G75*
G03X92016000Y-72804000I-2000000J0D01*
G01*
X84716000Y-85304000D02*
X94516000Y-85304000D01*
X84716000Y-70304000D02*
X84716000Y-85304000D01*
X94516000Y-70304000D02*
X84716000Y-70304000D01*
X94516000Y-85304000D02*
X94516000Y-70304000D01*
X94016000Y-85304000D02*
X94016000Y-70304000D01*
X87616000Y-85304000D02*
X87616000Y-70304000D01*
X92516000Y-85304000D02*
X92516000Y-70304000D01*
X94016000Y-80304000D02*
X94516000Y-80304000D01*
X94016000Y-75304000D02*
X94516000Y-75304000D01*
D12*
X129543000Y-90373500D02*
X129543000Y-89103500D01*
X129543000Y-90373500D02*
X127003000Y-90373500D01*
X129343000Y-90173500D02*
X119323000Y-90173500D01*
X119323000Y-90173500D02*
X119323000Y-77593500D01*
X119323000Y-77593500D02*
X129343000Y-77593500D01*
X129343000Y-77593500D02*
X129343000Y-90173500D01*
X126363000Y-88328500D02*
X126363000Y-87058500D01*
X126363000Y-87058500D02*
X122303000Y-87058500D01*
X122303000Y-87058500D02*
X122303000Y-88328500D01*
X122303000Y-88328500D02*
X126363000Y-88328500D01*
X124333000Y-88328500D02*
X124333000Y-87058500D01*
X126363000Y-85788500D02*
X126363000Y-84518500D01*
X126363000Y-84518500D02*
X122303000Y-84518500D01*
X122303000Y-84518500D02*
X122303000Y-85788500D01*
X122303000Y-85788500D02*
X126363000Y-85788500D01*
X124333000Y-85788500D02*
X124333000Y-84518500D01*
X126363000Y-83248500D02*
X126363000Y-81978500D01*
X126363000Y-81978500D02*
X122303000Y-81978500D01*
X122303000Y-81978500D02*
X122303000Y-83248500D01*
X122303000Y-83248500D02*
X126363000Y-83248500D01*
X124333000Y-83248500D02*
X124333000Y-81978500D01*
X126363000Y-80708500D02*
X126363000Y-79438500D01*
X126363000Y-79438500D02*
X122303000Y-79438500D01*
X122303000Y-79438500D02*
X122303000Y-80708500D01*
X122303000Y-80708500D02*
X126363000Y-80708500D01*
X124333000Y-80708500D02*
X124333000Y-79438500D01*
D14*
G36*
X160874592Y-99167546D02*
G01*
X161019909Y-99176933D01*
X161149111Y-99195069D01*
X161163000Y-99197838D01*
X161394659Y-99262529D01*
X161611370Y-99356507D01*
X161811191Y-99477792D01*
X161992182Y-99624401D01*
X162152401Y-99794353D01*
X162289908Y-99985666D01*
X162402762Y-100196360D01*
X162489021Y-100424452D01*
X162533230Y-100596700D01*
X162557509Y-100693973D01*
X162592389Y-100809114D01*
X162633787Y-100930369D01*
X162677616Y-101045984D01*
X162719792Y-101144203D01*
X162732914Y-101171318D01*
X162773128Y-101247667D01*
X162814113Y-101316565D01*
X162859330Y-101381950D01*
X162912240Y-101447759D01*
X162976304Y-101517932D01*
X163054983Y-101596408D01*
X163151738Y-101687123D01*
X163270029Y-101794018D01*
X163316351Y-101835266D01*
X163457635Y-101962704D01*
X163577320Y-102075512D01*
X163680859Y-102179435D01*
X163773708Y-102280218D01*
X163861319Y-102383604D01*
X163949146Y-102495338D01*
X163973166Y-102527100D01*
X164187484Y-102839355D01*
X164370697Y-103163702D01*
X164522383Y-103499159D01*
X164642122Y-103844747D01*
X164729492Y-104199485D01*
X164756133Y-104349062D01*
X164765554Y-104415218D01*
X164772914Y-104484268D01*
X164778432Y-104561344D01*
X164782327Y-104651576D01*
X164784819Y-104760096D01*
X164786127Y-104892036D01*
X164786471Y-105052526D01*
X164786468Y-105058633D01*
X164785832Y-105230133D01*
X164783568Y-105373731D01*
X164778851Y-105495385D01*
X164770859Y-105601051D01*
X164758768Y-105696686D01*
X164741755Y-105788245D01*
X164718996Y-105881685D01*
X164689668Y-105982963D01*
X164652948Y-106098035D01*
X164635481Y-106150833D01*
X164499198Y-106507773D01*
X164334196Y-106847636D01*
X164141644Y-107169089D01*
X163922716Y-107470803D01*
X163678581Y-107751444D01*
X163410411Y-108009682D01*
X163119377Y-108244184D01*
X162806652Y-108453621D01*
X162473405Y-108636659D01*
X162430564Y-108657520D01*
X162329014Y-108703530D01*
X162215782Y-108750253D01*
X162098518Y-108794947D01*
X161984869Y-108834870D01*
X161882487Y-108867281D01*
X161799019Y-108889436D01*
X161764991Y-108896095D01*
X161689650Y-108907908D01*
X161727300Y-108850171D01*
X161752326Y-108809285D01*
X161787325Y-108748908D01*
X161826324Y-108679423D01*
X161843289Y-108648500D01*
X161911234Y-108524259D01*
X161968402Y-108422887D01*
X162019086Y-108339313D01*
X162067579Y-108268463D01*
X162118174Y-108205264D01*
X162175166Y-108144643D01*
X162242848Y-108081527D01*
X162325512Y-108010844D01*
X162427453Y-107927519D01*
X162509199Y-107861672D01*
X162722335Y-107682332D01*
X162905910Y-107509461D01*
X163062524Y-107338901D01*
X163194772Y-107166496D01*
X163305252Y-106988087D01*
X163396560Y-106799517D01*
X163471295Y-106596631D01*
X163532052Y-106375269D01*
X163577996Y-106150833D01*
X163596959Y-106014745D01*
X163610232Y-105857678D01*
X163617751Y-105688465D01*
X163619450Y-105515936D01*
X163615265Y-105348925D01*
X163605130Y-105196262D01*
X163588981Y-105066779D01*
X163586084Y-105050167D01*
X163523252Y-104771251D01*
X163440459Y-104517948D01*
X163336212Y-104287482D01*
X163209022Y-104077081D01*
X163057399Y-103883971D01*
X162879850Y-103705378D01*
X162848432Y-103677524D01*
X162628188Y-103488965D01*
X162427022Y-103324577D01*
X162241939Y-103182845D01*
X162069947Y-103062252D01*
X161908053Y-102961282D01*
X161753262Y-102878419D01*
X161602583Y-102812147D01*
X161453022Y-102760948D01*
X161301585Y-102723308D01*
X161145280Y-102697711D01*
X160981113Y-102682638D01*
X160875133Y-102677945D01*
X160690881Y-102669251D01*
X160532488Y-102653501D01*
X160392369Y-102628968D01*
X160262936Y-102593925D01*
X160136605Y-102546646D01*
X160005790Y-102485404D01*
X159987070Y-102475817D01*
X159783900Y-102352391D01*
X159602421Y-102204822D01*
X159443982Y-102036046D01*
X159309931Y-101848995D01*
X159201618Y-101646605D01*
X159120392Y-101431810D01*
X159067602Y-101207545D01*
X159044596Y-100976743D01*
X159047483Y-100893484D01*
X159512983Y-100893484D01*
X159516978Y-101031129D01*
X159531733Y-101157143D01*
X159543879Y-101214897D01*
X159610965Y-101414551D01*
X159705636Y-101597009D01*
X159825430Y-101760033D01*
X159967885Y-101901384D01*
X160130541Y-102018825D01*
X160310935Y-102110118D01*
X160506606Y-102173025D01*
X160621792Y-102194998D01*
X160709656Y-102206310D01*
X160781037Y-102210792D01*
X160851085Y-102208471D01*
X160934954Y-102199376D01*
X160962808Y-102195643D01*
X161170941Y-102150743D01*
X161364322Y-102076350D01*
X161540684Y-101974451D01*
X161697763Y-101847032D01*
X161833297Y-101696081D01*
X161945020Y-101523583D01*
X162030669Y-101331527D01*
X162062477Y-101230721D01*
X162080072Y-101138985D01*
X162090431Y-101025449D01*
X162093556Y-100901399D01*
X162089444Y-100778119D01*
X162078097Y-100666893D01*
X162062477Y-100589213D01*
X161990923Y-100389232D01*
X161892452Y-100207155D01*
X161769444Y-100045180D01*
X161624278Y-99905503D01*
X161459333Y-99790320D01*
X161276987Y-99701828D01*
X161079620Y-99642225D01*
X161025383Y-99631599D01*
X160913211Y-99614658D01*
X160818862Y-99607600D01*
X160727836Y-99610192D01*
X160625634Y-99622206D01*
X160607443Y-99624961D01*
X160405338Y-99672812D01*
X160217028Y-99750534D01*
X160044840Y-99856129D01*
X159891101Y-99987605D01*
X159758137Y-100142964D01*
X159648277Y-100320211D01*
X159563845Y-100517351D01*
X159562577Y-100521058D01*
X159536079Y-100627420D01*
X159519449Y-100755238D01*
X159512983Y-100893484D01*
X159047483Y-100893484D01*
X159052725Y-100742340D01*
X159089480Y-100523376D01*
X159160884Y-100290361D01*
X159261049Y-100073399D01*
X159387930Y-99874468D01*
X159539484Y-99695548D01*
X159713668Y-99538616D01*
X159908438Y-99405651D01*
X160121750Y-99298632D01*
X160351561Y-99219538D01*
X160463786Y-99192759D01*
X160584346Y-99175370D01*
X160725342Y-99166995D01*
X160874592Y-99167546D01*
X160874592Y-99167546D01*
G37*
X160874592Y-99167546D02*
X161019909Y-99176933D01*
X161149111Y-99195069D01*
X161163000Y-99197838D01*
X161394659Y-99262529D01*
X161611370Y-99356507D01*
X161811191Y-99477792D01*
X161992182Y-99624401D01*
X162152401Y-99794353D01*
X162289908Y-99985666D01*
X162402762Y-100196360D01*
X162489021Y-100424452D01*
X162533230Y-100596700D01*
X162557509Y-100693973D01*
X162592389Y-100809114D01*
X162633787Y-100930369D01*
X162677616Y-101045984D01*
X162719792Y-101144203D01*
X162732914Y-101171318D01*
X162773128Y-101247667D01*
X162814113Y-101316565D01*
X162859330Y-101381950D01*
X162912240Y-101447759D01*
X162976304Y-101517932D01*
X163054983Y-101596408D01*
X163151738Y-101687123D01*
X163270029Y-101794018D01*
X163316351Y-101835266D01*
X163457635Y-101962704D01*
X163577320Y-102075512D01*
X163680859Y-102179435D01*
X163773708Y-102280218D01*
X163861319Y-102383604D01*
X163949146Y-102495338D01*
X163973166Y-102527100D01*
X164187484Y-102839355D01*
X164370697Y-103163702D01*
X164522383Y-103499159D01*
X164642122Y-103844747D01*
X164729492Y-104199485D01*
X164756133Y-104349062D01*
X164765554Y-104415218D01*
X164772914Y-104484268D01*
X164778432Y-104561344D01*
X164782327Y-104651576D01*
X164784819Y-104760096D01*
X164786127Y-104892036D01*
X164786471Y-105052526D01*
X164786468Y-105058633D01*
X164785832Y-105230133D01*
X164783568Y-105373731D01*
X164778851Y-105495385D01*
X164770859Y-105601051D01*
X164758768Y-105696686D01*
X164741755Y-105788245D01*
X164718996Y-105881685D01*
X164689668Y-105982963D01*
X164652948Y-106098035D01*
X164635481Y-106150833D01*
X164499198Y-106507773D01*
X164334196Y-106847636D01*
X164141644Y-107169089D01*
X163922716Y-107470803D01*
X163678581Y-107751444D01*
X163410411Y-108009682D01*
X163119377Y-108244184D01*
X162806652Y-108453621D01*
X162473405Y-108636659D01*
X162430564Y-108657520D01*
X162329014Y-108703530D01*
X162215782Y-108750253D01*
X162098518Y-108794947D01*
X161984869Y-108834870D01*
X161882487Y-108867281D01*
X161799019Y-108889436D01*
X161764991Y-108896095D01*
X161689650Y-108907908D01*
X161727300Y-108850171D01*
X161752326Y-108809285D01*
X161787325Y-108748908D01*
X161826324Y-108679423D01*
X161843289Y-108648500D01*
X161911234Y-108524259D01*
X161968402Y-108422887D01*
X162019086Y-108339313D01*
X162067579Y-108268463D01*
X162118174Y-108205264D01*
X162175166Y-108144643D01*
X162242848Y-108081527D01*
X162325512Y-108010844D01*
X162427453Y-107927519D01*
X162509199Y-107861672D01*
X162722335Y-107682332D01*
X162905910Y-107509461D01*
X163062524Y-107338901D01*
X163194772Y-107166496D01*
X163305252Y-106988087D01*
X163396560Y-106799517D01*
X163471295Y-106596631D01*
X163532052Y-106375269D01*
X163577996Y-106150833D01*
X163596959Y-106014745D01*
X163610232Y-105857678D01*
X163617751Y-105688465D01*
X163619450Y-105515936D01*
X163615265Y-105348925D01*
X163605130Y-105196262D01*
X163588981Y-105066779D01*
X163586084Y-105050167D01*
X163523252Y-104771251D01*
X163440459Y-104517948D01*
X163336212Y-104287482D01*
X163209022Y-104077081D01*
X163057399Y-103883971D01*
X162879850Y-103705378D01*
X162848432Y-103677524D01*
X162628188Y-103488965D01*
X162427022Y-103324577D01*
X162241939Y-103182845D01*
X162069947Y-103062252D01*
X161908053Y-102961282D01*
X161753262Y-102878419D01*
X161602583Y-102812147D01*
X161453022Y-102760948D01*
X161301585Y-102723308D01*
X161145280Y-102697711D01*
X160981113Y-102682638D01*
X160875133Y-102677945D01*
X160690881Y-102669251D01*
X160532488Y-102653501D01*
X160392369Y-102628968D01*
X160262936Y-102593925D01*
X160136605Y-102546646D01*
X160005790Y-102485404D01*
X159987070Y-102475817D01*
X159783900Y-102352391D01*
X159602421Y-102204822D01*
X159443982Y-102036046D01*
X159309931Y-101848995D01*
X159201618Y-101646605D01*
X159120392Y-101431810D01*
X159067602Y-101207545D01*
X159044596Y-100976743D01*
X159047483Y-100893484D01*
X159512983Y-100893484D01*
X159516978Y-101031129D01*
X159531733Y-101157143D01*
X159543879Y-101214897D01*
X159610965Y-101414551D01*
X159705636Y-101597009D01*
X159825430Y-101760033D01*
X159967885Y-101901384D01*
X160130541Y-102018825D01*
X160310935Y-102110118D01*
X160506606Y-102173025D01*
X160621792Y-102194998D01*
X160709656Y-102206310D01*
X160781037Y-102210792D01*
X160851085Y-102208471D01*
X160934954Y-102199376D01*
X160962808Y-102195643D01*
X161170941Y-102150743D01*
X161364322Y-102076350D01*
X161540684Y-101974451D01*
X161697763Y-101847032D01*
X161833297Y-101696081D01*
X161945020Y-101523583D01*
X162030669Y-101331527D01*
X162062477Y-101230721D01*
X162080072Y-101138985D01*
X162090431Y-101025449D01*
X162093556Y-100901399D01*
X162089444Y-100778119D01*
X162078097Y-100666893D01*
X162062477Y-100589213D01*
X161990923Y-100389232D01*
X161892452Y-100207155D01*
X161769444Y-100045180D01*
X161624278Y-99905503D01*
X161459333Y-99790320D01*
X161276987Y-99701828D01*
X161079620Y-99642225D01*
X161025383Y-99631599D01*
X160913211Y-99614658D01*
X160818862Y-99607600D01*
X160727836Y-99610192D01*
X160625634Y-99622206D01*
X160607443Y-99624961D01*
X160405338Y-99672812D01*
X160217028Y-99750534D01*
X160044840Y-99856129D01*
X159891101Y-99987605D01*
X159758137Y-100142964D01*
X159648277Y-100320211D01*
X159563845Y-100517351D01*
X159562577Y-100521058D01*
X159536079Y-100627420D01*
X159519449Y-100755238D01*
X159512983Y-100893484D01*
X159047483Y-100893484D01*
X159052725Y-100742340D01*
X159089480Y-100523376D01*
X159160884Y-100290361D01*
X159261049Y-100073399D01*
X159387930Y-99874468D01*
X159539484Y-99695548D01*
X159713668Y-99538616D01*
X159908438Y-99405651D01*
X160121750Y-99298632D01*
X160351561Y-99219538D01*
X160463786Y-99192759D01*
X160584346Y-99175370D01*
X160725342Y-99166995D01*
X160874592Y-99167546D01*
G36*
X158400969Y-101726157D02*
G01*
X158426690Y-101754953D01*
X158455578Y-101812301D01*
X158470514Y-101845779D01*
X158496686Y-101899001D01*
X158536333Y-101972232D01*
X158584672Y-102056955D01*
X158636921Y-102144654D01*
X158653404Y-102171500D01*
X158796032Y-102374888D01*
X158959905Y-102560526D01*
X159140325Y-102723916D01*
X159332595Y-102860557D01*
X159433174Y-102918217D01*
X159549082Y-102979370D01*
X159493569Y-103036645D01*
X159458614Y-103068259D01*
X159403098Y-103113385D01*
X159334321Y-103166282D01*
X159259584Y-103221212D01*
X159250661Y-103227597D01*
X159031281Y-103390186D01*
X158835287Y-103548042D01*
X158664400Y-103699575D01*
X158520339Y-103843196D01*
X158404824Y-103977318D01*
X158337749Y-104071039D01*
X158206886Y-104304331D01*
X158101165Y-104557998D01*
X158021363Y-104828890D01*
X157968260Y-105113860D01*
X157942632Y-105409758D01*
X157943063Y-105668233D01*
X157967263Y-105977316D01*
X158013018Y-106266018D01*
X158079881Y-106532677D01*
X158167407Y-106775633D01*
X158275149Y-106993224D01*
X158317598Y-107063150D01*
X158418921Y-107209531D01*
X158533175Y-107350654D01*
X158664527Y-107490868D01*
X158817145Y-107634520D01*
X158995195Y-107785957D01*
X159062060Y-107839828D01*
X159180752Y-107934939D01*
X159276755Y-108014177D01*
X159354255Y-108082276D01*
X159417438Y-108143971D01*
X159470492Y-108203995D01*
X159517601Y-108267084D01*
X159562953Y-108337972D01*
X159610734Y-108421392D01*
X159664820Y-108521500D01*
X159708044Y-108601076D01*
X159752296Y-108679995D01*
X159791330Y-108747231D01*
X159811333Y-108780062D01*
X159846989Y-108836754D01*
X159863616Y-108868991D01*
X159859143Y-108881632D01*
X159831501Y-108879536D01*
X159778620Y-108867563D01*
X159774466Y-108866606D01*
X159564830Y-108807148D01*
X159341646Y-108723179D01*
X159110863Y-108617880D01*
X158878433Y-108494430D01*
X158650305Y-108356011D01*
X158432430Y-108205801D01*
X158230757Y-108046981D01*
X158213725Y-108032477D01*
X157958021Y-107797731D01*
X157731765Y-107555920D01*
X157530569Y-107301379D01*
X157350045Y-107028441D01*
X157185803Y-106731441D01*
X157149724Y-106658834D01*
X157044065Y-106430464D01*
X156958809Y-106219131D01*
X156891397Y-106016975D01*
X156839269Y-105816139D01*
X156799868Y-105608766D01*
X156792920Y-105563311D01*
X156783041Y-105470020D01*
X156776138Y-105350063D01*
X156772116Y-105210500D01*
X156770882Y-105058393D01*
X156772341Y-104900801D01*
X156776399Y-104744787D01*
X156782961Y-104597410D01*
X156791933Y-104465731D01*
X156803221Y-104356812D01*
X156809623Y-104313567D01*
X156888796Y-103947356D01*
X157000228Y-103591038D01*
X157143444Y-103245811D01*
X157317970Y-102912876D01*
X157441554Y-102713367D01*
X157605935Y-102484013D01*
X157794656Y-102256410D01*
X157999099Y-102040101D01*
X158210647Y-101844631D01*
X158273320Y-101792205D01*
X158331234Y-101746671D01*
X158371467Y-101724026D01*
X158400969Y-101726157D01*
X158400969Y-101726157D01*
G37*
X158400969Y-101726157D02*
X158426690Y-101754953D01*
X158455578Y-101812301D01*
X158470514Y-101845779D01*
X158496686Y-101899001D01*
X158536333Y-101972232D01*
X158584672Y-102056955D01*
X158636921Y-102144654D01*
X158653404Y-102171500D01*
X158796032Y-102374888D01*
X158959905Y-102560526D01*
X159140325Y-102723916D01*
X159332595Y-102860557D01*
X159433174Y-102918217D01*
X159549082Y-102979370D01*
X159493569Y-103036645D01*
X159458614Y-103068259D01*
X159403098Y-103113385D01*
X159334321Y-103166282D01*
X159259584Y-103221212D01*
X159250661Y-103227597D01*
X159031281Y-103390186D01*
X158835287Y-103548042D01*
X158664400Y-103699575D01*
X158520339Y-103843196D01*
X158404824Y-103977318D01*
X158337749Y-104071039D01*
X158206886Y-104304331D01*
X158101165Y-104557998D01*
X158021363Y-104828890D01*
X157968260Y-105113860D01*
X157942632Y-105409758D01*
X157943063Y-105668233D01*
X157967263Y-105977316D01*
X158013018Y-106266018D01*
X158079881Y-106532677D01*
X158167407Y-106775633D01*
X158275149Y-106993224D01*
X158317598Y-107063150D01*
X158418921Y-107209531D01*
X158533175Y-107350654D01*
X158664527Y-107490868D01*
X158817145Y-107634520D01*
X158995195Y-107785957D01*
X159062060Y-107839828D01*
X159180752Y-107934939D01*
X159276755Y-108014177D01*
X159354255Y-108082276D01*
X159417438Y-108143971D01*
X159470492Y-108203995D01*
X159517601Y-108267084D01*
X159562953Y-108337972D01*
X159610734Y-108421392D01*
X159664820Y-108521500D01*
X159708044Y-108601076D01*
X159752296Y-108679995D01*
X159791330Y-108747231D01*
X159811333Y-108780062D01*
X159846989Y-108836754D01*
X159863616Y-108868991D01*
X159859143Y-108881632D01*
X159831501Y-108879536D01*
X159778620Y-108867563D01*
X159774466Y-108866606D01*
X159564830Y-108807148D01*
X159341646Y-108723179D01*
X159110863Y-108617880D01*
X158878433Y-108494430D01*
X158650305Y-108356011D01*
X158432430Y-108205801D01*
X158230757Y-108046981D01*
X158213725Y-108032477D01*
X157958021Y-107797731D01*
X157731765Y-107555920D01*
X157530569Y-107301379D01*
X157350045Y-107028441D01*
X157185803Y-106731441D01*
X157149724Y-106658834D01*
X157044065Y-106430464D01*
X156958809Y-106219131D01*
X156891397Y-106016975D01*
X156839269Y-105816139D01*
X156799868Y-105608766D01*
X156792920Y-105563311D01*
X156783041Y-105470020D01*
X156776138Y-105350063D01*
X156772116Y-105210500D01*
X156770882Y-105058393D01*
X156772341Y-104900801D01*
X156776399Y-104744787D01*
X156782961Y-104597410D01*
X156791933Y-104465731D01*
X156803221Y-104356812D01*
X156809623Y-104313567D01*
X156888796Y-103947356D01*
X157000228Y-103591038D01*
X157143444Y-103245811D01*
X157317970Y-102912876D01*
X157441554Y-102713367D01*
X157605935Y-102484013D01*
X157794656Y-102256410D01*
X157999099Y-102040101D01*
X158210647Y-101844631D01*
X158273320Y-101792205D01*
X158331234Y-101746671D01*
X158371467Y-101724026D01*
X158400969Y-101726157D01*
G36*
X161138763Y-103601185D02*
G01*
X161287369Y-103629479D01*
X161405529Y-103656163D01*
X161386775Y-104237367D01*
X161444515Y-104258205D01*
X161486557Y-104277627D01*
X161544959Y-104309938D01*
X161608252Y-104348729D01*
X161618771Y-104355572D01*
X161674140Y-104390942D01*
X161718837Y-104417652D01*
X161745306Y-104431246D01*
X161748590Y-104432100D01*
X161766755Y-104423524D01*
X161808370Y-104399825D01*
X161868304Y-104364048D01*
X161941424Y-104319237D01*
X161992857Y-104287170D01*
X162071559Y-104238548D01*
X162140296Y-104197526D01*
X162193981Y-104167026D01*
X162227525Y-104149968D01*
X162236110Y-104147470D01*
X162255783Y-104163802D01*
X162291148Y-104200078D01*
X162336585Y-104249928D01*
X162386471Y-104306977D01*
X162435184Y-104364854D01*
X162477102Y-104417186D01*
X162494694Y-104440567D01*
X162557230Y-104535902D01*
X162621212Y-104649801D01*
X162682323Y-104773028D01*
X162736243Y-104896347D01*
X162778656Y-105010521D01*
X162804690Y-105103670D01*
X162816018Y-105157173D01*
X162314466Y-105432923D01*
X162315953Y-105638402D01*
X162317441Y-105843880D01*
X162556170Y-105971957D01*
X162637945Y-106016163D01*
X162709109Y-106055267D01*
X162764328Y-106086285D01*
X162798267Y-106106239D01*
X162806274Y-106111735D01*
X162807588Y-106134127D01*
X162797523Y-106181030D01*
X162778305Y-106245941D01*
X162752160Y-106322356D01*
X162721314Y-106403774D01*
X162687993Y-106483690D01*
X162654422Y-106555602D01*
X162654164Y-106556117D01*
X162587352Y-106676408D01*
X162507356Y-106800135D01*
X162421557Y-106916844D01*
X162337340Y-107016078D01*
X162308145Y-107046187D01*
X162226532Y-107126573D01*
X161985986Y-106981603D01*
X161905400Y-106933339D01*
X161835220Y-106891882D01*
X161780432Y-106860131D01*
X161746022Y-106840986D01*
X161736671Y-106836634D01*
X161718849Y-106845417D01*
X161682952Y-106867861D01*
X161657117Y-106885182D01*
X161602223Y-106919832D01*
X161534079Y-106958816D01*
X161484733Y-106984852D01*
X161383133Y-107035974D01*
X161392692Y-107313070D01*
X161395245Y-107406871D01*
X161396184Y-107488774D01*
X161395543Y-107552814D01*
X161393356Y-107593024D01*
X161391016Y-107603696D01*
X161367838Y-107614540D01*
X161318316Y-107627956D01*
X161249745Y-107642624D01*
X161169423Y-107657226D01*
X161084646Y-107670443D01*
X161002713Y-107680956D01*
X160930920Y-107687447D01*
X160925933Y-107687748D01*
X160839981Y-107689863D01*
X160740799Y-107688125D01*
X160648757Y-107682919D01*
X160642228Y-107682357D01*
X160551158Y-107671985D01*
X160451129Y-107657107D01*
X160362816Y-107640821D01*
X160357686Y-107639726D01*
X160221382Y-107610275D01*
X160233128Y-107327895D01*
X160244873Y-107045515D01*
X160119736Y-106982051D01*
X160052930Y-106946481D01*
X159990958Y-106910587D01*
X159945695Y-106881298D01*
X159940696Y-106877610D01*
X159904288Y-106851654D01*
X159880044Y-106837508D01*
X159876852Y-106836634D01*
X159859849Y-106845189D01*
X159819302Y-106868826D01*
X159760271Y-106904499D01*
X159687820Y-106949164D01*
X159637536Y-106980567D01*
X159559504Y-107029283D01*
X159492016Y-107070947D01*
X159440046Y-107102522D01*
X159408572Y-107120977D01*
X159401492Y-107124500D01*
X159385979Y-107112563D01*
X159354273Y-107080845D01*
X159311975Y-107035488D01*
X159264685Y-106982634D01*
X159218005Y-106928422D01*
X159177537Y-106878994D01*
X159177327Y-106878729D01*
X159114475Y-106790925D01*
X159050632Y-106687452D01*
X158989119Y-106575199D01*
X158933255Y-106461057D01*
X158886363Y-106351916D01*
X158851762Y-106254668D01*
X158832774Y-106176203D01*
X158830796Y-106159643D01*
X158830014Y-106138493D01*
X158834490Y-106120643D01*
X158848449Y-106102685D01*
X158876113Y-106081213D01*
X158921703Y-106052819D01*
X158989443Y-106014097D01*
X159059865Y-105974815D01*
X159293531Y-105844856D01*
X159294683Y-105627496D01*
X159294840Y-105597681D01*
X159920550Y-105597681D01*
X159928630Y-105756863D01*
X159966663Y-105913116D01*
X160034668Y-106062695D01*
X160132664Y-106201859D01*
X160181061Y-106254576D01*
X160310156Y-106361909D01*
X160455894Y-106441981D01*
X160613332Y-106493423D01*
X160777530Y-106514864D01*
X160943546Y-106504937D01*
X161024073Y-106488203D01*
X161184863Y-106429751D01*
X161328446Y-106343821D01*
X161451967Y-106233612D01*
X161552571Y-106102322D01*
X161627403Y-105953148D01*
X161673608Y-105789290D01*
X161679265Y-105754321D01*
X161687156Y-105585906D01*
X161664114Y-105424682D01*
X161612816Y-105273721D01*
X161535937Y-105136098D01*
X161436154Y-105014887D01*
X161316143Y-104913161D01*
X161178580Y-104833994D01*
X161026141Y-104780461D01*
X160861504Y-104755634D01*
X160808559Y-104754247D01*
X160639462Y-104767089D01*
X160489395Y-104805858D01*
X160353416Y-104872564D01*
X160226582Y-104969213D01*
X160187377Y-105006536D01*
X160075836Y-105139997D01*
X159994172Y-105285505D01*
X159942403Y-105439314D01*
X159920550Y-105597681D01*
X159294840Y-105597681D01*
X159295834Y-105410135D01*
X159056784Y-105284166D01*
X158975713Y-105240393D01*
X158906416Y-105200973D01*
X158853966Y-105168952D01*
X158823433Y-105147377D01*
X158817733Y-105140546D01*
X158824252Y-105105514D01*
X158841890Y-105047228D01*
X158867768Y-104973268D01*
X158899004Y-104891219D01*
X158932720Y-104808661D01*
X158966035Y-104733179D01*
X158994263Y-104675735D01*
X159036154Y-104602666D01*
X159087595Y-104521831D01*
X159144880Y-104438113D01*
X159204298Y-104356392D01*
X159262143Y-104281551D01*
X159314706Y-104218471D01*
X159358279Y-104172034D01*
X159389154Y-104147121D01*
X159397996Y-104144234D01*
X159416487Y-104152627D01*
X159458629Y-104175825D01*
X159519246Y-104210855D01*
X159593163Y-104254745D01*
X159646017Y-104286693D01*
X159880109Y-104429152D01*
X159975701Y-104365672D01*
X160042077Y-104324365D01*
X160113353Y-104284186D01*
X160157941Y-104261608D01*
X160244589Y-104221024D01*
X160236415Y-103937879D01*
X160228240Y-103654735D01*
X160340953Y-103629099D01*
X160605701Y-103586011D01*
X160871932Y-103576706D01*
X161138763Y-103601185D01*
X161138763Y-103601185D01*
G37*
X161138763Y-103601185D02*
X161287369Y-103629479D01*
X161405529Y-103656163D01*
X161386775Y-104237367D01*
X161444515Y-104258205D01*
X161486557Y-104277627D01*
X161544959Y-104309938D01*
X161608252Y-104348729D01*
X161618771Y-104355572D01*
X161674140Y-104390942D01*
X161718837Y-104417652D01*
X161745306Y-104431246D01*
X161748590Y-104432100D01*
X161766755Y-104423524D01*
X161808370Y-104399825D01*
X161868304Y-104364048D01*
X161941424Y-104319237D01*
X161992857Y-104287170D01*
X162071559Y-104238548D01*
X162140296Y-104197526D01*
X162193981Y-104167026D01*
X162227525Y-104149968D01*
X162236110Y-104147470D01*
X162255783Y-104163802D01*
X162291148Y-104200078D01*
X162336585Y-104249928D01*
X162386471Y-104306977D01*
X162435184Y-104364854D01*
X162477102Y-104417186D01*
X162494694Y-104440567D01*
X162557230Y-104535902D01*
X162621212Y-104649801D01*
X162682323Y-104773028D01*
X162736243Y-104896347D01*
X162778656Y-105010521D01*
X162804690Y-105103670D01*
X162816018Y-105157173D01*
X162314466Y-105432923D01*
X162315953Y-105638402D01*
X162317441Y-105843880D01*
X162556170Y-105971957D01*
X162637945Y-106016163D01*
X162709109Y-106055267D01*
X162764328Y-106086285D01*
X162798267Y-106106239D01*
X162806274Y-106111735D01*
X162807588Y-106134127D01*
X162797523Y-106181030D01*
X162778305Y-106245941D01*
X162752160Y-106322356D01*
X162721314Y-106403774D01*
X162687993Y-106483690D01*
X162654422Y-106555602D01*
X162654164Y-106556117D01*
X162587352Y-106676408D01*
X162507356Y-106800135D01*
X162421557Y-106916844D01*
X162337340Y-107016078D01*
X162308145Y-107046187D01*
X162226532Y-107126573D01*
X161985986Y-106981603D01*
X161905400Y-106933339D01*
X161835220Y-106891882D01*
X161780432Y-106860131D01*
X161746022Y-106840986D01*
X161736671Y-106836634D01*
X161718849Y-106845417D01*
X161682952Y-106867861D01*
X161657117Y-106885182D01*
X161602223Y-106919832D01*
X161534079Y-106958816D01*
X161484733Y-106984852D01*
X161383133Y-107035974D01*
X161392692Y-107313070D01*
X161395245Y-107406871D01*
X161396184Y-107488774D01*
X161395543Y-107552814D01*
X161393356Y-107593024D01*
X161391016Y-107603696D01*
X161367838Y-107614540D01*
X161318316Y-107627956D01*
X161249745Y-107642624D01*
X161169423Y-107657226D01*
X161084646Y-107670443D01*
X161002713Y-107680956D01*
X160930920Y-107687447D01*
X160925933Y-107687748D01*
X160839981Y-107689863D01*
X160740799Y-107688125D01*
X160648757Y-107682919D01*
X160642228Y-107682357D01*
X160551158Y-107671985D01*
X160451129Y-107657107D01*
X160362816Y-107640821D01*
X160357686Y-107639726D01*
X160221382Y-107610275D01*
X160233128Y-107327895D01*
X160244873Y-107045515D01*
X160119736Y-106982051D01*
X160052930Y-106946481D01*
X159990958Y-106910587D01*
X159945695Y-106881298D01*
X159940696Y-106877610D01*
X159904288Y-106851654D01*
X159880044Y-106837508D01*
X159876852Y-106836634D01*
X159859849Y-106845189D01*
X159819302Y-106868826D01*
X159760271Y-106904499D01*
X159687820Y-106949164D01*
X159637536Y-106980567D01*
X159559504Y-107029283D01*
X159492016Y-107070947D01*
X159440046Y-107102522D01*
X159408572Y-107120977D01*
X159401492Y-107124500D01*
X159385979Y-107112563D01*
X159354273Y-107080845D01*
X159311975Y-107035488D01*
X159264685Y-106982634D01*
X159218005Y-106928422D01*
X159177537Y-106878994D01*
X159177327Y-106878729D01*
X159114475Y-106790925D01*
X159050632Y-106687452D01*
X158989119Y-106575199D01*
X158933255Y-106461057D01*
X158886363Y-106351916D01*
X158851762Y-106254668D01*
X158832774Y-106176203D01*
X158830796Y-106159643D01*
X158830014Y-106138493D01*
X158834490Y-106120643D01*
X158848449Y-106102685D01*
X158876113Y-106081213D01*
X158921703Y-106052819D01*
X158989443Y-106014097D01*
X159059865Y-105974815D01*
X159293531Y-105844856D01*
X159294683Y-105627496D01*
X159294840Y-105597681D01*
X159920550Y-105597681D01*
X159928630Y-105756863D01*
X159966663Y-105913116D01*
X160034668Y-106062695D01*
X160132664Y-106201859D01*
X160181061Y-106254576D01*
X160310156Y-106361909D01*
X160455894Y-106441981D01*
X160613332Y-106493423D01*
X160777530Y-106514864D01*
X160943546Y-106504937D01*
X161024073Y-106488203D01*
X161184863Y-106429751D01*
X161328446Y-106343821D01*
X161451967Y-106233612D01*
X161552571Y-106102322D01*
X161627403Y-105953148D01*
X161673608Y-105789290D01*
X161679265Y-105754321D01*
X161687156Y-105585906D01*
X161664114Y-105424682D01*
X161612816Y-105273721D01*
X161535937Y-105136098D01*
X161436154Y-105014887D01*
X161316143Y-104913161D01*
X161178580Y-104833994D01*
X161026141Y-104780461D01*
X160861504Y-104755634D01*
X160808559Y-104754247D01*
X160639462Y-104767089D01*
X160489395Y-104805858D01*
X160353416Y-104872564D01*
X160226582Y-104969213D01*
X160187377Y-105006536D01*
X160075836Y-105139997D01*
X159994172Y-105285505D01*
X159942403Y-105439314D01*
X159920550Y-105597681D01*
X159294840Y-105597681D01*
X159295834Y-105410135D01*
X159056784Y-105284166D01*
X158975713Y-105240393D01*
X158906416Y-105200973D01*
X158853966Y-105168952D01*
X158823433Y-105147377D01*
X158817733Y-105140546D01*
X158824252Y-105105514D01*
X158841890Y-105047228D01*
X158867768Y-104973268D01*
X158899004Y-104891219D01*
X158932720Y-104808661D01*
X158966035Y-104733179D01*
X158994263Y-104675735D01*
X159036154Y-104602666D01*
X159087595Y-104521831D01*
X159144880Y-104438113D01*
X159204298Y-104356392D01*
X159262143Y-104281551D01*
X159314706Y-104218471D01*
X159358279Y-104172034D01*
X159389154Y-104147121D01*
X159397996Y-104144234D01*
X159416487Y-104152627D01*
X159458629Y-104175825D01*
X159519246Y-104210855D01*
X159593163Y-104254745D01*
X159646017Y-104286693D01*
X159880109Y-104429152D01*
X159975701Y-104365672D01*
X160042077Y-104324365D01*
X160113353Y-104284186D01*
X160157941Y-104261608D01*
X160244589Y-104221024D01*
X160236415Y-103937879D01*
X160228240Y-103654735D01*
X160340953Y-103629099D01*
X160605701Y-103586011D01*
X160871932Y-103576706D01*
X161138763Y-103601185D01*
G36*
X160893938Y-100232820D02*
G01*
X160904766Y-100234463D01*
X161052843Y-100274157D01*
X161183568Y-100341821D01*
X161294298Y-100434920D01*
X161382384Y-100550916D01*
X161445183Y-100687274D01*
X161469154Y-100775545D01*
X161483733Y-100921670D01*
X161467676Y-101061352D01*
X161424053Y-101191440D01*
X161355934Y-101308780D01*
X161266390Y-101410220D01*
X161158491Y-101492608D01*
X161035307Y-101552792D01*
X160899908Y-101587619D01*
X160755365Y-101593937D01*
X160680400Y-101585382D01*
X160542299Y-101545733D01*
X160416786Y-101477555D01*
X160307995Y-101385107D01*
X160220058Y-101272648D01*
X160157108Y-101144437D01*
X160124272Y-101012340D01*
X160119254Y-100862335D01*
X160144075Y-100720998D01*
X160195647Y-100591404D01*
X160270883Y-100476634D01*
X160366694Y-100379762D01*
X160479993Y-100303868D01*
X160607692Y-100252027D01*
X160746703Y-100227319D01*
X160893938Y-100232820D01*
X160893938Y-100232820D01*
G37*
X160893938Y-100232820D02*
X160904766Y-100234463D01*
X161052843Y-100274157D01*
X161183568Y-100341821D01*
X161294298Y-100434920D01*
X161382384Y-100550916D01*
X161445183Y-100687274D01*
X161469154Y-100775545D01*
X161483733Y-100921670D01*
X161467676Y-101061352D01*
X161424053Y-101191440D01*
X161355934Y-101308780D01*
X161266390Y-101410220D01*
X161158491Y-101492608D01*
X161035307Y-101552792D01*
X160899908Y-101587619D01*
X160755365Y-101593937D01*
X160680400Y-101585382D01*
X160542299Y-101545733D01*
X160416786Y-101477555D01*
X160307995Y-101385107D01*
X160220058Y-101272648D01*
X160157108Y-101144437D01*
X160124272Y-101012340D01*
X160119254Y-100862335D01*
X160144075Y-100720998D01*
X160195647Y-100591404D01*
X160270883Y-100476634D01*
X160366694Y-100379762D01*
X160479993Y-100303868D01*
X160607692Y-100252027D01*
X160746703Y-100227319D01*
X160893938Y-100232820D01*
D12*
X116780000Y-103946000D02*
X119440000Y-103946000D01*
X116780000Y-101346000D02*
X116780000Y-103946000D01*
X119440000Y-101346000D02*
X119440000Y-103946000D01*
X116780000Y-101346000D02*
X119440000Y-101346000D01*
X116780000Y-100076000D02*
X116780000Y-98746000D01*
X116780000Y-98746000D02*
X118110000Y-98746000D01*
D13*
X84857166Y-95546333D02*
X84857166Y-95969666D01*
X85280500Y-96012000D01*
X85238166Y-95969666D01*
X85195833Y-95885000D01*
X85195833Y-95673333D01*
X85238166Y-95588666D01*
X85280500Y-95546333D01*
X85365166Y-95504000D01*
X85576833Y-95504000D01*
X85661500Y-95546333D01*
X85703833Y-95588666D01*
X85746166Y-95673333D01*
X85746166Y-95885000D01*
X85703833Y-95969666D01*
X85661500Y-96012000D01*
X85153500Y-95207666D02*
X85746166Y-94996000D01*
X85153500Y-94784333D01*
X85492166Y-93810666D02*
X85492166Y-93387333D01*
X85746166Y-93895333D02*
X84857166Y-93599000D01*
X85746166Y-93302666D01*
X84857166Y-93091000D02*
X84857166Y-92498333D01*
X85746166Y-92879333D01*
X85492166Y-91524666D02*
X85492166Y-91101333D01*
X85746166Y-91609333D02*
X84857166Y-91313000D01*
X85746166Y-91016666D01*
X84857166Y-90339333D02*
X84857166Y-90508666D01*
X84899500Y-90593333D01*
X84941833Y-90635666D01*
X85068833Y-90720333D01*
X85238166Y-90762666D01*
X85576833Y-90762666D01*
X85661500Y-90720333D01*
X85703833Y-90678000D01*
X85746166Y-90593333D01*
X85746166Y-90424000D01*
X85703833Y-90339333D01*
X85661500Y-90297000D01*
X85576833Y-90254666D01*
X85365166Y-90254666D01*
X85280500Y-90297000D01*
X85238166Y-90339333D01*
X85195833Y-90424000D01*
X85195833Y-90593333D01*
X85238166Y-90678000D01*
X85280500Y-90720333D01*
X85365166Y-90762666D01*
X84899500Y-88730666D02*
X84857166Y-88815333D01*
X84857166Y-88942333D01*
X84899500Y-89069333D01*
X84984166Y-89154000D01*
X85068833Y-89196333D01*
X85238166Y-89238666D01*
X85365166Y-89238666D01*
X85534500Y-89196333D01*
X85619166Y-89154000D01*
X85703833Y-89069333D01*
X85746166Y-88942333D01*
X85746166Y-88857666D01*
X85703833Y-88730666D01*
X85661500Y-88688333D01*
X85365166Y-88688333D01*
X85365166Y-88857666D01*
X85746166Y-88307333D02*
X84857166Y-88307333D01*
X85746166Y-87799333D01*
X84857166Y-87799333D01*
X85746166Y-87376000D02*
X84857166Y-87376000D01*
X84857166Y-87164333D01*
X84899500Y-87037333D01*
X84984166Y-86952666D01*
X85068833Y-86910333D01*
X85238166Y-86868000D01*
X85365166Y-86868000D01*
X85534500Y-86910333D01*
X85619166Y-86952666D01*
X85703833Y-87037333D01*
X85746166Y-87164333D01*
X85746166Y-87376000D01*
X94297595Y-108799380D02*
X94297595Y-109608904D01*
X94345214Y-109704142D01*
X94392833Y-109751761D01*
X94488071Y-109799380D01*
X94678547Y-109799380D01*
X94773785Y-109751761D01*
X94821404Y-109704142D01*
X94869023Y-109608904D01*
X94869023Y-108799380D01*
X95869023Y-109799380D02*
X95297595Y-109799380D01*
X95583309Y-109799380D02*
X95583309Y-108799380D01*
X95488071Y-108942238D01*
X95392833Y-109037476D01*
X95297595Y-109085095D01*
X148209095Y-76858880D02*
X148209095Y-77668404D01*
X148256714Y-77763642D01*
X148304333Y-77811261D01*
X148399571Y-77858880D01*
X148590047Y-77858880D01*
X148685285Y-77811261D01*
X148732904Y-77763642D01*
X148780523Y-77668404D01*
X148780523Y-76858880D01*
X149685285Y-77192214D02*
X149685285Y-77858880D01*
X149447190Y-76811261D02*
X149209095Y-77525547D01*
X149828142Y-77525547D01*
X158440380Y-78009523D02*
X157440380Y-78009523D01*
X157440380Y-77628571D01*
X157488000Y-77533333D01*
X157535619Y-77485714D01*
X157630857Y-77438095D01*
X157773714Y-77438095D01*
X157868952Y-77485714D01*
X157916571Y-77533333D01*
X157964190Y-77628571D01*
X157964190Y-78009523D01*
X158440380Y-77009523D02*
X157773714Y-77009523D01*
X157440380Y-77009523D02*
X157488000Y-77057142D01*
X157535619Y-77009523D01*
X157488000Y-76961904D01*
X157440380Y-77009523D01*
X157535619Y-77009523D01*
X157773714Y-76533333D02*
X158440380Y-76533333D01*
X157868952Y-76533333D02*
X157821333Y-76485714D01*
X157773714Y-76390476D01*
X157773714Y-76247619D01*
X157821333Y-76152380D01*
X157916571Y-76104761D01*
X158440380Y-76104761D01*
X158440380Y-74342857D02*
X158440380Y-74914285D01*
X158440380Y-74628571D02*
X157440380Y-74628571D01*
X157583238Y-74723809D01*
X157678476Y-74819047D01*
X157726095Y-74914285D01*
X94480690Y-156535380D02*
X94480690Y-155535380D01*
X95052119Y-156535380D01*
X95052119Y-155535380D01*
X97766404Y-156249666D02*
X98242595Y-156249666D01*
X97671166Y-156535380D02*
X98004500Y-155535380D01*
X98337833Y-156535380D01*
X99242595Y-156440142D02*
X99194976Y-156487761D01*
X99052119Y-156535380D01*
X98956880Y-156535380D01*
X98814023Y-156487761D01*
X98718785Y-156392523D01*
X98671166Y-156297285D01*
X98623547Y-156106809D01*
X98623547Y-155963952D01*
X98671166Y-155773476D01*
X98718785Y-155678238D01*
X98814023Y-155583000D01*
X98956880Y-155535380D01*
X99052119Y-155535380D01*
X99194976Y-155583000D01*
X99242595Y-155630619D01*
X102480690Y-155583000D02*
X102385452Y-155535380D01*
X102242595Y-155535380D01*
X102099738Y-155583000D01*
X102004500Y-155678238D01*
X101956880Y-155773476D01*
X101909261Y-155963952D01*
X101909261Y-156106809D01*
X101956880Y-156297285D01*
X102004500Y-156392523D01*
X102099738Y-156487761D01*
X102242595Y-156535380D01*
X102337833Y-156535380D01*
X102480690Y-156487761D01*
X102528309Y-156440142D01*
X102528309Y-156106809D01*
X102337833Y-156106809D01*
X102956880Y-156535380D02*
X102956880Y-155535380D01*
X103528309Y-156535380D01*
X103528309Y-155535380D01*
X104004500Y-156535380D02*
X104004500Y-155535380D01*
X104242595Y-155535380D01*
X104385452Y-155583000D01*
X104480690Y-155678238D01*
X104528309Y-155773476D01*
X104575928Y-155963952D01*
X104575928Y-156106809D01*
X104528309Y-156297285D01*
X104480690Y-156392523D01*
X104385452Y-156487761D01*
X104242595Y-156535380D01*
X104004500Y-156535380D01*
X129436904Y-120403880D02*
X129436904Y-119403880D01*
X130008333Y-120403880D02*
X129579761Y-119832452D01*
X130008333Y-119403880D02*
X129436904Y-119975309D01*
X130960714Y-120403880D02*
X130389285Y-120403880D01*
X130675000Y-120403880D02*
X130675000Y-119403880D01*
X130579761Y-119546738D01*
X130484523Y-119641976D01*
X130389285Y-119689595D01*
X158011904Y-120467380D02*
X158011904Y-119467380D01*
X158583333Y-120467380D02*
X158154761Y-119895952D01*
X158583333Y-119467380D02*
X158011904Y-120038809D01*
X158964285Y-119562619D02*
X159011904Y-119515000D01*
X159107142Y-119467380D01*
X159345238Y-119467380D01*
X159440476Y-119515000D01*
X159488095Y-119562619D01*
X159535714Y-119657857D01*
X159535714Y-119753095D01*
X159488095Y-119895952D01*
X158916666Y-120467380D01*
X159535714Y-120467380D01*
X147724833Y-70588142D02*
X147677214Y-70635761D01*
X147534357Y-70683380D01*
X147439119Y-70683380D01*
X147296261Y-70635761D01*
X147201023Y-70540523D01*
X147153404Y-70445285D01*
X147105785Y-70254809D01*
X147105785Y-70111952D01*
X147153404Y-69921476D01*
X147201023Y-69826238D01*
X147296261Y-69731000D01*
X147439119Y-69683380D01*
X147534357Y-69683380D01*
X147677214Y-69731000D01*
X147724833Y-69778619D01*
X148677214Y-70683380D02*
X148105785Y-70683380D01*
X148391500Y-70683380D02*
X148391500Y-69683380D01*
X148296261Y-69826238D01*
X148201023Y-69921476D01*
X148105785Y-69969095D01*
X144784142Y-64956667D02*
X144831761Y-65004286D01*
X144879380Y-65147143D01*
X144879380Y-65242381D01*
X144831761Y-65385239D01*
X144736523Y-65480477D01*
X144641285Y-65528096D01*
X144450809Y-65575715D01*
X144307952Y-65575715D01*
X144117476Y-65528096D01*
X144022238Y-65480477D01*
X143927000Y-65385239D01*
X143879380Y-65242381D01*
X143879380Y-65147143D01*
X143927000Y-65004286D01*
X143974619Y-64956667D01*
X143974619Y-64575715D02*
X143927000Y-64528096D01*
X143879380Y-64432858D01*
X143879380Y-64194762D01*
X143927000Y-64099524D01*
X143974619Y-64051905D01*
X144069857Y-64004286D01*
X144165095Y-64004286D01*
X144307952Y-64051905D01*
X144879380Y-64623334D01*
X144879380Y-64004286D01*
X93051333Y-92559142D02*
X93003714Y-92606761D01*
X92860857Y-92654380D01*
X92765619Y-92654380D01*
X92622761Y-92606761D01*
X92527523Y-92511523D01*
X92479904Y-92416285D01*
X92432285Y-92225809D01*
X92432285Y-92082952D01*
X92479904Y-91892476D01*
X92527523Y-91797238D01*
X92622761Y-91702000D01*
X92765619Y-91654380D01*
X92860857Y-91654380D01*
X93003714Y-91702000D01*
X93051333Y-91749619D01*
X93384666Y-91654380D02*
X94003714Y-91654380D01*
X93670380Y-92035333D01*
X93813238Y-92035333D01*
X93908476Y-92082952D01*
X93956095Y-92130571D01*
X94003714Y-92225809D01*
X94003714Y-92463904D01*
X93956095Y-92559142D01*
X93908476Y-92606761D01*
X93813238Y-92654380D01*
X93527523Y-92654380D01*
X93432285Y-92606761D01*
X93384666Y-92559142D01*
X118555404Y-64079380D02*
X118555404Y-63079380D01*
X118793500Y-63079380D01*
X118936357Y-63127000D01*
X119031595Y-63222238D01*
X119079214Y-63317476D01*
X119126833Y-63507952D01*
X119126833Y-63650809D01*
X119079214Y-63841285D01*
X119031595Y-63936523D01*
X118936357Y-64031761D01*
X118793500Y-64079380D01*
X118555404Y-64079380D01*
X120079214Y-64079380D02*
X119507785Y-64079380D01*
X119793500Y-64079380D02*
X119793500Y-63079380D01*
X119698261Y-63222238D01*
X119603023Y-63317476D01*
X119507785Y-63365095D01*
X128397904Y-64079380D02*
X128397904Y-63079380D01*
X128636000Y-63079380D01*
X128778857Y-63127000D01*
X128874095Y-63222238D01*
X128921714Y-63317476D01*
X128969333Y-63507952D01*
X128969333Y-63650809D01*
X128921714Y-63841285D01*
X128874095Y-63936523D01*
X128778857Y-64031761D01*
X128636000Y-64079380D01*
X128397904Y-64079380D01*
X129350285Y-63174619D02*
X129397904Y-63127000D01*
X129493142Y-63079380D01*
X129731238Y-63079380D01*
X129826476Y-63127000D01*
X129874095Y-63174619D01*
X129921714Y-63269857D01*
X129921714Y-63365095D01*
X129874095Y-63507952D01*
X129302666Y-64079380D01*
X129921714Y-64079380D01*
X122959904Y-114755380D02*
X122959904Y-113755380D01*
X123198000Y-113755380D01*
X123340857Y-113803000D01*
X123436095Y-113898238D01*
X123483714Y-113993476D01*
X123531333Y-114183952D01*
X123531333Y-114326809D01*
X123483714Y-114517285D01*
X123436095Y-114612523D01*
X123340857Y-114707761D01*
X123198000Y-114755380D01*
X122959904Y-114755380D01*
X123864666Y-113755380D02*
X124483714Y-113755380D01*
X124150380Y-114136333D01*
X124293238Y-114136333D01*
X124388476Y-114183952D01*
X124436095Y-114231571D01*
X124483714Y-114326809D01*
X124483714Y-114564904D01*
X124436095Y-114660142D01*
X124388476Y-114707761D01*
X124293238Y-114755380D01*
X124007523Y-114755380D01*
X123912285Y-114707761D01*
X123864666Y-114660142D01*
X151915904Y-114755380D02*
X151915904Y-113755380D01*
X152154000Y-113755380D01*
X152296857Y-113803000D01*
X152392095Y-113898238D01*
X152439714Y-113993476D01*
X152487333Y-114183952D01*
X152487333Y-114326809D01*
X152439714Y-114517285D01*
X152392095Y-114612523D01*
X152296857Y-114707761D01*
X152154000Y-114755380D01*
X151915904Y-114755380D01*
X153344476Y-114088714D02*
X153344476Y-114755380D01*
X153106380Y-113707761D02*
X152868285Y-114422047D01*
X153487333Y-114422047D01*
X106926071Y-136096333D02*
X106926071Y-136429666D01*
X107449880Y-136429666D02*
X106449880Y-136429666D01*
X106449880Y-135953476D01*
X107449880Y-135048714D02*
X107449880Y-135620142D01*
X107449880Y-135334428D02*
X106449880Y-135334428D01*
X106592738Y-135429666D01*
X106687976Y-135524904D01*
X106735595Y-135620142D01*
X135564571Y-136032833D02*
X135564571Y-136366166D01*
X136088380Y-136366166D02*
X135088380Y-136366166D01*
X135088380Y-135889976D01*
X135183619Y-135556642D02*
X135136000Y-135509023D01*
X135088380Y-135413785D01*
X135088380Y-135175690D01*
X135136000Y-135080452D01*
X135183619Y-135032833D01*
X135278857Y-134985214D01*
X135374095Y-134985214D01*
X135516952Y-135032833D01*
X136088380Y-135604261D01*
X136088380Y-134985214D01*
X133879333Y-70619880D02*
X133546000Y-70143690D01*
X133307904Y-70619880D02*
X133307904Y-69619880D01*
X133688857Y-69619880D01*
X133784095Y-69667500D01*
X133831714Y-69715119D01*
X133879333Y-69810357D01*
X133879333Y-69953214D01*
X133831714Y-70048452D01*
X133784095Y-70096071D01*
X133688857Y-70143690D01*
X133307904Y-70143690D01*
X134831714Y-70619880D02*
X134260285Y-70619880D01*
X134546000Y-70619880D02*
X134546000Y-69619880D01*
X134450761Y-69762738D01*
X134355523Y-69857976D01*
X134260285Y-69905595D01*
X124039333Y-70619880D02*
X123706000Y-70143690D01*
X123467904Y-70619880D02*
X123467904Y-69619880D01*
X123848857Y-69619880D01*
X123944095Y-69667500D01*
X123991714Y-69715119D01*
X124039333Y-69810357D01*
X124039333Y-69953214D01*
X123991714Y-70048452D01*
X123944095Y-70096071D01*
X123848857Y-70143690D01*
X123467904Y-70143690D01*
X124420285Y-69715119D02*
X124467904Y-69667500D01*
X124563142Y-69619880D01*
X124801238Y-69619880D01*
X124896476Y-69667500D01*
X124944095Y-69715119D01*
X124991714Y-69810357D01*
X124991714Y-69905595D01*
X124944095Y-70048452D01*
X124372666Y-70619880D01*
X124991714Y-70619880D01*
X122515333Y-106370380D02*
X122182000Y-105894190D01*
X121943904Y-106370380D02*
X121943904Y-105370380D01*
X122324857Y-105370380D01*
X122420095Y-105418000D01*
X122467714Y-105465619D01*
X122515333Y-105560857D01*
X122515333Y-105703714D01*
X122467714Y-105798952D01*
X122420095Y-105846571D01*
X122324857Y-105894190D01*
X121943904Y-105894190D01*
X123372476Y-105703714D02*
X123372476Y-106370380D01*
X123134380Y-105322761D02*
X122896285Y-106037047D01*
X123515333Y-106037047D01*
X120214380Y-111103667D02*
X119738190Y-111437001D01*
X120214380Y-111675096D02*
X119214380Y-111675096D01*
X119214380Y-111294143D01*
X119262000Y-111198905D01*
X119309619Y-111151286D01*
X119404857Y-111103667D01*
X119547714Y-111103667D01*
X119642952Y-111151286D01*
X119690571Y-111198905D01*
X119738190Y-111294143D01*
X119738190Y-111675096D01*
X119214380Y-110198905D02*
X119214380Y-110675096D01*
X119690571Y-110722715D01*
X119642952Y-110675096D01*
X119595333Y-110579858D01*
X119595333Y-110341762D01*
X119642952Y-110246524D01*
X119690571Y-110198905D01*
X119785809Y-110151286D01*
X120023904Y-110151286D01*
X120119142Y-110198905D01*
X120166761Y-110246524D01*
X120214380Y-110341762D01*
X120214380Y-110579858D01*
X120166761Y-110675096D01*
X120119142Y-110722715D01*
X152153880Y-98020166D02*
X151677690Y-98353500D01*
X152153880Y-98591595D02*
X151153880Y-98591595D01*
X151153880Y-98210642D01*
X151201500Y-98115404D01*
X151249119Y-98067785D01*
X151344357Y-98020166D01*
X151487214Y-98020166D01*
X151582452Y-98067785D01*
X151630071Y-98115404D01*
X151677690Y-98210642D01*
X151677690Y-98591595D01*
X151153880Y-97686833D02*
X151153880Y-97020166D01*
X152153880Y-97448738D01*
X154122380Y-92876666D02*
X153646190Y-93210000D01*
X154122380Y-93448095D02*
X153122380Y-93448095D01*
X153122380Y-93067142D01*
X153170000Y-92971904D01*
X153217619Y-92924285D01*
X153312857Y-92876666D01*
X153455714Y-92876666D01*
X153550952Y-92924285D01*
X153598571Y-92971904D01*
X153646190Y-93067142D01*
X153646190Y-93448095D01*
X153550952Y-92305238D02*
X153503333Y-92400476D01*
X153455714Y-92448095D01*
X153360476Y-92495714D01*
X153312857Y-92495714D01*
X153217619Y-92448095D01*
X153170000Y-92400476D01*
X153122380Y-92305238D01*
X153122380Y-92114761D01*
X153170000Y-92019523D01*
X153217619Y-91971904D01*
X153312857Y-91924285D01*
X153360476Y-91924285D01*
X153455714Y-91971904D01*
X153503333Y-92019523D01*
X153550952Y-92114761D01*
X153550952Y-92305238D01*
X153598571Y-92400476D01*
X153646190Y-92448095D01*
X153741428Y-92495714D01*
X153931904Y-92495714D01*
X154027142Y-92448095D01*
X154074761Y-92400476D01*
X154122380Y-92305238D01*
X154122380Y-92114761D01*
X154074761Y-92019523D01*
X154027142Y-91971904D01*
X153931904Y-91924285D01*
X153741428Y-91924285D01*
X153646190Y-91971904D01*
X153598571Y-92019523D01*
X153550952Y-92114761D01*
X156281380Y-97956666D02*
X155805190Y-98290000D01*
X156281380Y-98528095D02*
X155281380Y-98528095D01*
X155281380Y-98147142D01*
X155329000Y-98051904D01*
X155376619Y-98004285D01*
X155471857Y-97956666D01*
X155614714Y-97956666D01*
X155709952Y-98004285D01*
X155757571Y-98051904D01*
X155805190Y-98147142D01*
X155805190Y-98528095D01*
X156281380Y-97480476D02*
X156281380Y-97290000D01*
X156233761Y-97194761D01*
X156186142Y-97147142D01*
X156043285Y-97051904D01*
X155852809Y-97004285D01*
X155471857Y-97004285D01*
X155376619Y-97051904D01*
X155329000Y-97099523D01*
X155281380Y-97194761D01*
X155281380Y-97385238D01*
X155329000Y-97480476D01*
X155376619Y-97528095D01*
X155471857Y-97575714D01*
X155709952Y-97575714D01*
X155805190Y-97528095D01*
X155852809Y-97480476D01*
X155900428Y-97385238D01*
X155900428Y-97194761D01*
X155852809Y-97099523D01*
X155805190Y-97051904D01*
X155709952Y-97004285D01*
X158249880Y-93416357D02*
X157773690Y-93749690D01*
X158249880Y-93987785D02*
X157249880Y-93987785D01*
X157249880Y-93606833D01*
X157297500Y-93511595D01*
X157345119Y-93463976D01*
X157440357Y-93416357D01*
X157583214Y-93416357D01*
X157678452Y-93463976D01*
X157726071Y-93511595D01*
X157773690Y-93606833D01*
X157773690Y-93987785D01*
X158249880Y-92463976D02*
X158249880Y-93035404D01*
X158249880Y-92749690D02*
X157249880Y-92749690D01*
X157392738Y-92844928D01*
X157487976Y-92940166D01*
X157535595Y-93035404D01*
X157249880Y-91844928D02*
X157249880Y-91749690D01*
X157297500Y-91654452D01*
X157345119Y-91606833D01*
X157440357Y-91559214D01*
X157630833Y-91511595D01*
X157868928Y-91511595D01*
X158059404Y-91559214D01*
X158154642Y-91606833D01*
X158202261Y-91654452D01*
X158249880Y-91749690D01*
X158249880Y-91844928D01*
X158202261Y-91940166D01*
X158154642Y-91987785D01*
X158059404Y-92035404D01*
X157868928Y-92083023D01*
X157630833Y-92083023D01*
X157440357Y-92035404D01*
X157345119Y-91987785D01*
X157297500Y-91940166D01*
X157249880Y-91844928D01*
X147962880Y-98559857D02*
X147486690Y-98893190D01*
X147962880Y-99131285D02*
X146962880Y-99131285D01*
X146962880Y-98750333D01*
X147010500Y-98655095D01*
X147058119Y-98607476D01*
X147153357Y-98559857D01*
X147296214Y-98559857D01*
X147391452Y-98607476D01*
X147439071Y-98655095D01*
X147486690Y-98750333D01*
X147486690Y-99131285D01*
X147962880Y-97607476D02*
X147962880Y-98178904D01*
X147962880Y-97893190D02*
X146962880Y-97893190D01*
X147105738Y-97988428D01*
X147200976Y-98083666D01*
X147248595Y-98178904D01*
X147962880Y-96655095D02*
X147962880Y-97226523D01*
X147962880Y-96940809D02*
X146962880Y-96940809D01*
X147105738Y-97036047D01*
X147200976Y-97131285D01*
X147248595Y-97226523D01*
X149931380Y-93352857D02*
X149455190Y-93686190D01*
X149931380Y-93924285D02*
X148931380Y-93924285D01*
X148931380Y-93543333D01*
X148979000Y-93448095D01*
X149026619Y-93400476D01*
X149121857Y-93352857D01*
X149264714Y-93352857D01*
X149359952Y-93400476D01*
X149407571Y-93448095D01*
X149455190Y-93543333D01*
X149455190Y-93924285D01*
X149931380Y-92400476D02*
X149931380Y-92971904D01*
X149931380Y-92686190D02*
X148931380Y-92686190D01*
X149074238Y-92781428D01*
X149169476Y-92876666D01*
X149217095Y-92971904D01*
X149026619Y-92019523D02*
X148979000Y-91971904D01*
X148931380Y-91876666D01*
X148931380Y-91638571D01*
X148979000Y-91543333D01*
X149026619Y-91495714D01*
X149121857Y-91448095D01*
X149217095Y-91448095D01*
X149359952Y-91495714D01*
X149931380Y-92067142D01*
X149931380Y-91448095D01*
X143898880Y-98496357D02*
X143422690Y-98829690D01*
X143898880Y-99067785D02*
X142898880Y-99067785D01*
X142898880Y-98686833D01*
X142946500Y-98591595D01*
X142994119Y-98543976D01*
X143089357Y-98496357D01*
X143232214Y-98496357D01*
X143327452Y-98543976D01*
X143375071Y-98591595D01*
X143422690Y-98686833D01*
X143422690Y-99067785D01*
X143898880Y-97543976D02*
X143898880Y-98115404D01*
X143898880Y-97829690D02*
X142898880Y-97829690D01*
X143041738Y-97924928D01*
X143136976Y-98020166D01*
X143184595Y-98115404D01*
X142898880Y-97210642D02*
X142898880Y-96591595D01*
X143279833Y-96924928D01*
X143279833Y-96782071D01*
X143327452Y-96686833D01*
X143375071Y-96639214D01*
X143470309Y-96591595D01*
X143708404Y-96591595D01*
X143803642Y-96639214D01*
X143851261Y-96686833D01*
X143898880Y-96782071D01*
X143898880Y-97067785D01*
X143851261Y-97163023D01*
X143803642Y-97210642D01*
X145930880Y-93352857D02*
X145454690Y-93686190D01*
X145930880Y-93924285D02*
X144930880Y-93924285D01*
X144930880Y-93543333D01*
X144978500Y-93448095D01*
X145026119Y-93400476D01*
X145121357Y-93352857D01*
X145264214Y-93352857D01*
X145359452Y-93400476D01*
X145407071Y-93448095D01*
X145454690Y-93543333D01*
X145454690Y-93924285D01*
X145930880Y-92400476D02*
X145930880Y-92971904D01*
X145930880Y-92686190D02*
X144930880Y-92686190D01*
X145073738Y-92781428D01*
X145168976Y-92876666D01*
X145216595Y-92971904D01*
X145264214Y-91543333D02*
X145930880Y-91543333D01*
X144883261Y-91781428D02*
X145597547Y-92019523D01*
X145597547Y-91400476D01*
X150553143Y-106560880D02*
X150219810Y-106084690D01*
X149981715Y-106560880D02*
X149981715Y-105560880D01*
X150362667Y-105560880D01*
X150457905Y-105608500D01*
X150505524Y-105656119D01*
X150553143Y-105751357D01*
X150553143Y-105894214D01*
X150505524Y-105989452D01*
X150457905Y-106037071D01*
X150362667Y-106084690D01*
X149981715Y-106084690D01*
X151505524Y-106560880D02*
X150934096Y-106560880D01*
X151219810Y-106560880D02*
X151219810Y-105560880D01*
X151124572Y-105703738D01*
X151029334Y-105798976D01*
X150934096Y-105846595D01*
X152410286Y-105560880D02*
X151934096Y-105560880D01*
X151886477Y-106037071D01*
X151934096Y-105989452D01*
X152029334Y-105941833D01*
X152267429Y-105941833D01*
X152362667Y-105989452D01*
X152410286Y-106037071D01*
X152457905Y-106132309D01*
X152457905Y-106370404D01*
X152410286Y-106465642D01*
X152362667Y-106513261D01*
X152267429Y-106560880D01*
X152029334Y-106560880D01*
X151934096Y-106513261D01*
X151886477Y-106465642D01*
X148662380Y-111828857D02*
X148186190Y-112162190D01*
X148662380Y-112400285D02*
X147662380Y-112400285D01*
X147662380Y-112019333D01*
X147710000Y-111924095D01*
X147757619Y-111876476D01*
X147852857Y-111828857D01*
X147995714Y-111828857D01*
X148090952Y-111876476D01*
X148138571Y-111924095D01*
X148186190Y-112019333D01*
X148186190Y-112400285D01*
X148662380Y-110876476D02*
X148662380Y-111447904D01*
X148662380Y-111162190D02*
X147662380Y-111162190D01*
X147805238Y-111257428D01*
X147900476Y-111352666D01*
X147948095Y-111447904D01*
X147662380Y-110019333D02*
X147662380Y-110209809D01*
X147710000Y-110305047D01*
X147757619Y-110352666D01*
X147900476Y-110447904D01*
X148090952Y-110495523D01*
X148471904Y-110495523D01*
X148567142Y-110447904D01*
X148614761Y-110400285D01*
X148662380Y-110305047D01*
X148662380Y-110114571D01*
X148614761Y-110019333D01*
X148567142Y-109971714D01*
X148471904Y-109924095D01*
X148233809Y-109924095D01*
X148138571Y-109971714D01*
X148090952Y-110019333D01*
X148043333Y-110114571D01*
X148043333Y-110305047D01*
X148090952Y-110400285D01*
X148138571Y-110447904D01*
X148233809Y-110495523D01*
X124904666Y-102258761D02*
X125047523Y-102306380D01*
X125285619Y-102306380D01*
X125380857Y-102258761D01*
X125428476Y-102211142D01*
X125476095Y-102115904D01*
X125476095Y-102020666D01*
X125428476Y-101925428D01*
X125380857Y-101877809D01*
X125285619Y-101830190D01*
X125095142Y-101782571D01*
X124999904Y-101734952D01*
X124952285Y-101687333D01*
X124904666Y-101592095D01*
X124904666Y-101496857D01*
X124952285Y-101401619D01*
X124999904Y-101354000D01*
X125095142Y-101306380D01*
X125333238Y-101306380D01*
X125476095Y-101354000D01*
X125809428Y-101306380D02*
X126047523Y-102306380D01*
X126238000Y-101592095D01*
X126428476Y-102306380D01*
X126666571Y-101306380D01*
X127571333Y-102306380D02*
X126999904Y-102306380D01*
X127285619Y-102306380D02*
X127285619Y-101306380D01*
X127190380Y-101449238D01*
X127095142Y-101544476D01*
X126999904Y-101592095D01*
X104417880Y-82359404D02*
X105227404Y-82359404D01*
X105322642Y-82311785D01*
X105370261Y-82264166D01*
X105417880Y-82168928D01*
X105417880Y-81978452D01*
X105370261Y-81883214D01*
X105322642Y-81835595D01*
X105227404Y-81787976D01*
X104417880Y-81787976D01*
X104417880Y-81407023D02*
X104417880Y-80787976D01*
X104798833Y-81121309D01*
X104798833Y-80978452D01*
X104846452Y-80883214D01*
X104894071Y-80835595D01*
X104989309Y-80787976D01*
X105227404Y-80787976D01*
X105322642Y-80835595D01*
X105370261Y-80883214D01*
X105417880Y-80978452D01*
X105417880Y-81264166D01*
X105370261Y-81359404D01*
X105322642Y-81407023D01*
X113626571Y-155519500D02*
X113531333Y-155471880D01*
X113388476Y-155471880D01*
X113245619Y-155519500D01*
X113150380Y-155614738D01*
X113102761Y-155709976D01*
X113055142Y-155900452D01*
X113055142Y-156043309D01*
X113102761Y-156233785D01*
X113150380Y-156329023D01*
X113245619Y-156424261D01*
X113388476Y-156471880D01*
X113483714Y-156471880D01*
X113626571Y-156424261D01*
X113674190Y-156376642D01*
X113674190Y-156043309D01*
X113483714Y-156043309D01*
X114102761Y-156471880D02*
X114102761Y-155471880D01*
X114674190Y-156471880D01*
X114674190Y-155471880D01*
X115150380Y-156471880D02*
X115150380Y-155471880D01*
X115388476Y-155471880D01*
X115531333Y-155519500D01*
X115626571Y-155614738D01*
X115674190Y-155709976D01*
X115721809Y-155900452D01*
X115721809Y-156043309D01*
X115674190Y-156233785D01*
X115626571Y-156329023D01*
X115531333Y-156424261D01*
X115388476Y-156471880D01*
X115150380Y-156471880D01*
X118436095Y-156471880D02*
X118436095Y-155471880D01*
X119007523Y-156471880D01*
X119007523Y-155471880D01*
X119864666Y-156424261D02*
X119769428Y-156471880D01*
X119578952Y-156471880D01*
X119483714Y-156424261D01*
X119436095Y-156329023D01*
X119436095Y-155948071D01*
X119483714Y-155852833D01*
X119578952Y-155805214D01*
X119769428Y-155805214D01*
X119864666Y-155852833D01*
X119912285Y-155948071D01*
X119912285Y-156043309D01*
X119436095Y-156138547D01*
X120769428Y-155805214D02*
X120769428Y-156471880D01*
X120340857Y-155805214D02*
X120340857Y-156329023D01*
X120388476Y-156424261D01*
X120483714Y-156471880D01*
X120626571Y-156471880D01*
X120721809Y-156424261D01*
X120769428Y-156376642D01*
X121102761Y-155805214D02*
X121483714Y-155805214D01*
X121245619Y-155471880D02*
X121245619Y-156329023D01*
X121293238Y-156424261D01*
X121388476Y-156471880D01*
X121483714Y-156471880D01*
X123340857Y-156471880D02*
X123340857Y-155471880D01*
X123912285Y-156471880D01*
X123912285Y-155471880D01*
X124578952Y-155471880D02*
X124769428Y-155471880D01*
X124864666Y-155519500D01*
X124959904Y-155614738D01*
X125007523Y-155805214D01*
X125007523Y-156138547D01*
X124959904Y-156329023D01*
X124864666Y-156424261D01*
X124769428Y-156471880D01*
X124578952Y-156471880D01*
X124483714Y-156424261D01*
X124388476Y-156329023D01*
X124340857Y-156138547D01*
X124340857Y-155805214D01*
X124388476Y-155614738D01*
X124483714Y-155519500D01*
X124578952Y-155471880D01*
X127721809Y-156471880D02*
X127721809Y-155471880D01*
X128293238Y-156471880D01*
X128293238Y-155471880D01*
X129340857Y-156376642D02*
X129293238Y-156424261D01*
X129150380Y-156471880D01*
X129055142Y-156471880D01*
X128912285Y-156424261D01*
X128817047Y-156329023D01*
X128769428Y-156233785D01*
X128721809Y-156043309D01*
X128721809Y-155900452D01*
X128769428Y-155709976D01*
X128817047Y-155614738D01*
X128912285Y-155519500D01*
X129055142Y-155471880D01*
X129150380Y-155471880D01*
X129293238Y-155519500D01*
X129340857Y-155567119D01*
X142669523Y-155456000D02*
X142574285Y-155408380D01*
X142431428Y-155408380D01*
X142288571Y-155456000D01*
X142193333Y-155551238D01*
X142145714Y-155646476D01*
X142098095Y-155836952D01*
X142098095Y-155979809D01*
X142145714Y-156170285D01*
X142193333Y-156265523D01*
X142288571Y-156360761D01*
X142431428Y-156408380D01*
X142526666Y-156408380D01*
X142669523Y-156360761D01*
X142717142Y-156313142D01*
X142717142Y-155979809D01*
X142526666Y-155979809D01*
X143145714Y-156408380D02*
X143145714Y-155408380D01*
X143717142Y-156408380D01*
X143717142Y-155408380D01*
X144193333Y-156408380D02*
X144193333Y-155408380D01*
X144431428Y-155408380D01*
X144574285Y-155456000D01*
X144669523Y-155551238D01*
X144717142Y-155646476D01*
X144764761Y-155836952D01*
X144764761Y-155979809D01*
X144717142Y-156170285D01*
X144669523Y-156265523D01*
X144574285Y-156360761D01*
X144431428Y-156408380D01*
X144193333Y-156408380D01*
X147479047Y-156408380D02*
X147479047Y-155408380D01*
X148050476Y-156408380D01*
X148050476Y-155408380D01*
X148907619Y-156360761D02*
X148812380Y-156408380D01*
X148621904Y-156408380D01*
X148526666Y-156360761D01*
X148479047Y-156265523D01*
X148479047Y-155884571D01*
X148526666Y-155789333D01*
X148621904Y-155741714D01*
X148812380Y-155741714D01*
X148907619Y-155789333D01*
X148955238Y-155884571D01*
X148955238Y-155979809D01*
X148479047Y-156075047D01*
X149812380Y-155741714D02*
X149812380Y-156408380D01*
X149383809Y-155741714D02*
X149383809Y-156265523D01*
X149431428Y-156360761D01*
X149526666Y-156408380D01*
X149669523Y-156408380D01*
X149764761Y-156360761D01*
X149812380Y-156313142D01*
X150145714Y-155741714D02*
X150526666Y-155741714D01*
X150288571Y-155408380D02*
X150288571Y-156265523D01*
X150336190Y-156360761D01*
X150431428Y-156408380D01*
X150526666Y-156408380D01*
X152383809Y-156408380D02*
X152383809Y-155408380D01*
X152955238Y-156408380D01*
X152955238Y-155408380D01*
X153621904Y-155408380D02*
X153812380Y-155408380D01*
X153907619Y-155456000D01*
X154002857Y-155551238D01*
X154050476Y-155741714D01*
X154050476Y-156075047D01*
X154002857Y-156265523D01*
X153907619Y-156360761D01*
X153812380Y-156408380D01*
X153621904Y-156408380D01*
X153526666Y-156360761D01*
X153431428Y-156265523D01*
X153383809Y-156075047D01*
X153383809Y-155741714D01*
X153431428Y-155551238D01*
X153526666Y-155456000D01*
X153621904Y-155408380D01*
X156002857Y-156408380D02*
X156002857Y-155408380D01*
X156574285Y-156408380D01*
X156574285Y-155408380D01*
X157621904Y-156313142D02*
X157574285Y-156360761D01*
X157431428Y-156408380D01*
X157336190Y-156408380D01*
X157193333Y-156360761D01*
X157098095Y-156265523D01*
X157050476Y-156170285D01*
X157002857Y-155979809D01*
X157002857Y-155836952D01*
X157050476Y-155646476D01*
X157098095Y-155551238D01*
X157193333Y-155456000D01*
X157336190Y-155408380D01*
X157431428Y-155408380D01*
X157574285Y-155456000D01*
X157621904Y-155503619D01*
X127857261Y-111482119D02*
X127762023Y-111434500D01*
X127666785Y-111339261D01*
X127523928Y-111196404D01*
X127428690Y-111148785D01*
X127333452Y-111148785D01*
X127381071Y-111386880D02*
X127285833Y-111339261D01*
X127190595Y-111244023D01*
X127142976Y-111053547D01*
X127142976Y-110720214D01*
X127190595Y-110529738D01*
X127285833Y-110434500D01*
X127381071Y-110386880D01*
X127571547Y-110386880D01*
X127666785Y-110434500D01*
X127762023Y-110529738D01*
X127809642Y-110720214D01*
X127809642Y-111053547D01*
X127762023Y-111244023D01*
X127666785Y-111339261D01*
X127571547Y-111386880D01*
X127381071Y-111386880D01*
X128190595Y-110482119D02*
X128238214Y-110434500D01*
X128333452Y-110386880D01*
X128571547Y-110386880D01*
X128666785Y-110434500D01*
X128714404Y-110482119D01*
X128762023Y-110577357D01*
X128762023Y-110672595D01*
X128714404Y-110815452D01*
X128142976Y-111386880D01*
X128762023Y-111386880D01*
X156432261Y-111609119D02*
X156337023Y-111561500D01*
X156241785Y-111466261D01*
X156098928Y-111323404D01*
X156003690Y-111275785D01*
X155908452Y-111275785D01*
X155956071Y-111513880D02*
X155860833Y-111466261D01*
X155765595Y-111371023D01*
X155717976Y-111180547D01*
X155717976Y-110847214D01*
X155765595Y-110656738D01*
X155860833Y-110561500D01*
X155956071Y-110513880D01*
X156146547Y-110513880D01*
X156241785Y-110561500D01*
X156337023Y-110656738D01*
X156384642Y-110847214D01*
X156384642Y-111180547D01*
X156337023Y-111371023D01*
X156241785Y-111466261D01*
X156146547Y-111513880D01*
X155956071Y-111513880D01*
X156717976Y-110513880D02*
X157337023Y-110513880D01*
X157003690Y-110894833D01*
X157146547Y-110894833D01*
X157241785Y-110942452D01*
X157289404Y-110990071D01*
X157337023Y-111085309D01*
X157337023Y-111323404D01*
X157289404Y-111418642D01*
X157241785Y-111466261D01*
X157146547Y-111513880D01*
X156860833Y-111513880D01*
X156765595Y-111466261D01*
X156717976Y-111418642D01*
X89924000Y-69706666D02*
X89876380Y-69801904D01*
X89876380Y-69944761D01*
X89924000Y-70087619D01*
X90019238Y-70182857D01*
X90114476Y-70230476D01*
X90304952Y-70278095D01*
X90447809Y-70278095D01*
X90638285Y-70230476D01*
X90733523Y-70182857D01*
X90828761Y-70087619D01*
X90876380Y-69944761D01*
X90876380Y-69849523D01*
X90828761Y-69706666D01*
X90781142Y-69659047D01*
X90447809Y-69659047D01*
X90447809Y-69849523D01*
X90876380Y-69230476D02*
X89876380Y-69230476D01*
X90876380Y-68659047D01*
X89876380Y-68659047D01*
X90876380Y-68182857D02*
X89876380Y-68182857D01*
X89876380Y-67944761D01*
X89924000Y-67801904D01*
X90019238Y-67706666D01*
X90114476Y-67659047D01*
X90304952Y-67611428D01*
X90447809Y-67611428D01*
X90638285Y-67659047D01*
X90733523Y-67706666D01*
X90828761Y-67801904D01*
X90876380Y-67944761D01*
X90876380Y-68182857D01*
X90590666Y-66468571D02*
X90590666Y-65992380D01*
X90876380Y-66563809D02*
X89876380Y-66230476D01*
X90876380Y-65897142D01*
X90876380Y-65040000D02*
X90876380Y-65611428D01*
X90876380Y-65325714D02*
X89876380Y-65325714D01*
X90019238Y-65420952D01*
X90114476Y-65516190D01*
X90162095Y-65611428D01*
X89876380Y-62611428D02*
X89876380Y-63087619D01*
X90352571Y-63135238D01*
X90304952Y-63087619D01*
X90257333Y-62992380D01*
X90257333Y-62754285D01*
X90304952Y-62659047D01*
X90352571Y-62611428D01*
X90447809Y-62563809D01*
X90685904Y-62563809D01*
X90781142Y-62611428D01*
X90828761Y-62659047D01*
X90876380Y-62754285D01*
X90876380Y-62992380D01*
X90828761Y-63087619D01*
X90781142Y-63135238D01*
X90209714Y-62230476D02*
X90876380Y-61992380D01*
X90209714Y-61754285D01*
X152375094Y-60611380D02*
X152375094Y-61420904D01*
X152422713Y-61516142D01*
X152470332Y-61563761D01*
X152565570Y-61611380D01*
X152756046Y-61611380D01*
X152851284Y-61563761D01*
X152898903Y-61516142D01*
X152946522Y-61420904D01*
X152946522Y-60611380D01*
X153375094Y-60706619D02*
X153422713Y-60659000D01*
X153517951Y-60611380D01*
X153756046Y-60611380D01*
X153851284Y-60659000D01*
X153898903Y-60706619D01*
X153946522Y-60801857D01*
X153946522Y-60897095D01*
X153898903Y-61039952D01*
X153327475Y-61611380D01*
X153946522Y-61611380D01*
X92184833Y-98989642D02*
X92137214Y-99037261D01*
X91994357Y-99084880D01*
X91899119Y-99084880D01*
X91756261Y-99037261D01*
X91661023Y-98942023D01*
X91613404Y-98846785D01*
X91565785Y-98656309D01*
X91565785Y-98513452D01*
X91613404Y-98322976D01*
X91661023Y-98227738D01*
X91756261Y-98132500D01*
X91899119Y-98084880D01*
X91994357Y-98084880D01*
X92137214Y-98132500D01*
X92184833Y-98180119D01*
X93041976Y-98418214D02*
X93041976Y-99084880D01*
X92803880Y-98037261D02*
X92565785Y-98751547D01*
X93184833Y-98751547D01*
X95350547Y-100283928D02*
X96112452Y-100283928D01*
X95731500Y-100664880D02*
X95731500Y-99902976D01*
X163830000Y-75274714D02*
X163830000Y-75819000D01*
X163793714Y-75927857D01*
X163721142Y-76000428D01*
X163612285Y-76036714D01*
X163539714Y-76036714D01*
X164120285Y-75274714D02*
X164592000Y-75274714D01*
X164338000Y-75565000D01*
X164446857Y-75565000D01*
X164519428Y-75601285D01*
X164555714Y-75637571D01*
X164592000Y-75710142D01*
X164592000Y-75891571D01*
X164555714Y-75964142D01*
X164519428Y-76000428D01*
X164446857Y-76036714D01*
X164229142Y-76036714D01*
X164156571Y-76000428D01*
X164120285Y-75964142D01*
D15*
X84010500Y-81860571D02*
X84010500Y-81497714D01*
X84228214Y-81933142D02*
X83466214Y-81679142D01*
X84228214Y-81425142D01*
X83466214Y-80808285D02*
X83466214Y-81171142D01*
X83829071Y-81207428D01*
X83792785Y-81171142D01*
X83756500Y-81098571D01*
X83756500Y-80917142D01*
X83792785Y-80844571D01*
X83829071Y-80808285D01*
X83901642Y-80772000D01*
X84083071Y-80772000D01*
X84155642Y-80808285D01*
X84191928Y-80844571D01*
X84228214Y-80917142D01*
X84228214Y-81098571D01*
X84191928Y-81171142D01*
X84155642Y-81207428D01*
X84010500Y-78740000D02*
X84010500Y-78377142D01*
X84228214Y-78812571D02*
X83466214Y-78558571D01*
X84228214Y-78304571D01*
X83720214Y-77724000D02*
X84228214Y-77724000D01*
X83429928Y-77905428D02*
X83974214Y-78086857D01*
X83974214Y-77615142D01*
X83502500Y-75184000D02*
X83466214Y-75256571D01*
X83466214Y-75365428D01*
X83502500Y-75474285D01*
X83575071Y-75546857D01*
X83647642Y-75583142D01*
X83792785Y-75619428D01*
X83901642Y-75619428D01*
X84046785Y-75583142D01*
X84119357Y-75546857D01*
X84191928Y-75474285D01*
X84228214Y-75365428D01*
X84228214Y-75292857D01*
X84191928Y-75184000D01*
X84155642Y-75147714D01*
X83901642Y-75147714D01*
X83901642Y-75292857D01*
X84228214Y-74821142D02*
X83466214Y-74821142D01*
X84228214Y-74385714D01*
X83466214Y-74385714D01*
X84228214Y-74022857D02*
X83466214Y-74022857D01*
X83466214Y-73841428D01*
X83502500Y-73732571D01*
X83575071Y-73660000D01*
X83647642Y-73623714D01*
X83792785Y-73587428D01*
X83901642Y-73587428D01*
X84046785Y-73623714D01*
X84119357Y-73660000D01*
X84191928Y-73732571D01*
X84228214Y-73841428D01*
X84228214Y-74022857D01*
D13*
X122999666Y-91578261D02*
X123142523Y-91625880D01*
X123380619Y-91625880D01*
X123475857Y-91578261D01*
X123523476Y-91530642D01*
X123571095Y-91435404D01*
X123571095Y-91340166D01*
X123523476Y-91244928D01*
X123475857Y-91197309D01*
X123380619Y-91149690D01*
X123190142Y-91102071D01*
X123094904Y-91054452D01*
X123047285Y-91006833D01*
X122999666Y-90911595D01*
X122999666Y-90816357D01*
X123047285Y-90721119D01*
X123094904Y-90673500D01*
X123190142Y-90625880D01*
X123428238Y-90625880D01*
X123571095Y-90673500D01*
X123904428Y-90625880D02*
X124142523Y-91625880D01*
X124333000Y-90911595D01*
X124523476Y-91625880D01*
X124761571Y-90625880D01*
X125094904Y-90721119D02*
X125142523Y-90673500D01*
X125237761Y-90625880D01*
X125475857Y-90625880D01*
X125571095Y-90673500D01*
X125618714Y-90721119D01*
X125666333Y-90816357D01*
X125666333Y-90911595D01*
X125618714Y-91054452D01*
X125047285Y-91625880D01*
X125666333Y-91625880D01*
X120102380Y-103465047D02*
X120102380Y-102893619D01*
X121102380Y-103179333D02*
X120102380Y-103179333D01*
X120102380Y-102655523D02*
X121102380Y-101988857D01*
X120102380Y-101988857D02*
X121102380Y-102655523D01*
X121102380Y-100274571D02*
X120626190Y-100607904D01*
X121102380Y-100846000D02*
X120102380Y-100846000D01*
X120102380Y-100465047D01*
X120150000Y-100369809D01*
X120197619Y-100322190D01*
X120292857Y-100274571D01*
X120435714Y-100274571D01*
X120530952Y-100322190D01*
X120578571Y-100369809D01*
X120626190Y-100465047D01*
X120626190Y-100846000D01*
X120102380Y-99941238D02*
X121102380Y-99274571D01*
X120102380Y-99274571D02*
X121102380Y-99941238D01*
M02*
